<?xml version="1.0" encoding="UTF-8" standalone="no"?>
<svg width="256px" height="256px" viewBox="0 0 256 256" version="1.1" xmlns="http://www.w3.org/2000/svg" xmlns:xlink="http://www.w3.org/1999/xlink">
    <!-- Generator: Sketch 50.2 (55047) - http://www.bohemiancoding.com/sketch -->
    <title>icon--developer</title>
    <desc>Created with Sketch.</desc>
    <defs></defs>
    <g id="icon--developer" stroke="none" stroke-width="1" fill="none" fill-rule="evenodd">
        <path d="M25,228.559998 C25.0000012,171.36539 71.3653922,125 128.56,125 C185.754608,125 232.119999,171.36539 232.12,228.559998 L25,228.559998 Z" id="Shape" fill="#E1F2FF" fill-rule="nonzero"></path>
        <g id="Group" transform="translate(43.000000, 25.000000)">
            <path d="M169.48,152.24 C169.48,132.44608 153.43392,116.4 133.64,116.4 L36.36,116.4 C16.56608,116.4 0.52,132.44608 0.52,152.24 L0.52,194.12032 L169.48,194.12032 L169.48,152.24 Z" id="Shape" stroke="#5E63B6" stroke-width="4" fill="#FFFFFF" fill-rule="nonzero"></path>
            <path d="M122.496625,163.5 L122.496625,161.994857 L122.496625,182.972571 C122.674656,182.82 123.983312,181.665429 133.634125,172.874571 C136.790594,169.704 136.775406,164.58 133.634125,161.391429 C129.638125,157.331143 125.676719,159.105429 122.504219,162.000857 L122.496625,163.5 Z" id="Shape" stroke="#52267D" stroke-width="2" fill="#9452BA" fill-rule="nonzero"></path>
            <path d="M108.997465,163.5 L108.997465,161.994857 L108.997465,182.972571 C109.175497,182.82 110.484153,181.665429 120.134965,172.874571 C123.291434,169.704 123.276247,164.58 120.134965,161.391429 C116.138965,157.331143 112.177559,159.105429 109.005059,162.000857 L108.997465,163.5 Z" id="Shape" stroke="#52267D" stroke-width="2" fill="#9452BA" fill-rule="nonzero" transform="translate(115.747045, 170.993235) scale(-1, 1) translate(-115.747045, -170.993235) "></path>
            <path d="M63.24,80.56 L106.76,80.56 C124.43168,80.56 138.76,94.88832 138.76,112.56 C138.76,130.23168 124.43168,144.56 106.76,144.56 L63.24,144.56 C45.56832,144.56 31.24,130.23168 31.24,112.56 C31.24,94.88832 45.56832,80.56 63.24,80.56 Z" id="Shape" stroke="#5E63B6" stroke-width="3" fill="#FFFFFF" fill-rule="nonzero"></path>
            <path d="M67.08,11.44 L102.92,11.44 C119.88512,11.44 133.64,25.19488 133.64,42.16 L133.64,103.6 C133.64,120.56512 119.88512,134.32 102.92,134.32 L67.08,134.32 C50.11488,134.32 36.36,120.56512 36.36,103.6 L36.36,42.16 C36.36,25.19488 50.11488,11.44 67.08,11.44 Z" id="Shape" stroke="#5E63B6" stroke-width="3" fill="#FFFFFF" fill-rule="nonzero"></path>
            <path d="M117,62.1110868 L101.64,62.1110868 C99.52032,62.1110868 97.8,62.8030034 97.8,63.6555434 C97.8,64.5080835 99.52032,65.2 101.64,65.2 L117,65.2 C119.11968,65.2 120.84,64.5080835 120.84,63.6555434 C120.84,62.8030034 119.11968,62.1110868 117,62.1110868 Z" id="Shape" fill="#5E63B6" fill-rule="nonzero"></path>
            <path d="M92.2,96 C92.2,96 86.9739846,99.5 84.52,99.5 C81.8539846,99.5 76.84,96 76.84,96 C74.72032,96 73,96.8583581 73,97.915978 C73,98.9735978 74.72032,99.8319559 76.84,99.8319559 C76.84,99.8319559 82.0130705,103 84.52,103 C87.1330705,103 92.2,99.8319559 92.2,99.8319559 C94.31968,99.8319559 96.04,98.9735978 96.04,97.915978 C96.04,96.8583581 94.31968,96 92.2,96 Z" id="Shape" fill="#9ACDED" fill-rule="nonzero"></path>
            <path d="M68.36,62.1110868 L53,62.1110868 C50.88032,62.1110868 49.16,62.8030034 49.16,63.6555434 C49.16,64.5080835 50.88032,65.2 53,65.2 L68.36,65.2 C70.47968,65.2 72.2,64.5080835 72.2,63.6555434 C72.2,62.8030034 70.47968,62.1110868 68.36,62.1110868 Z" id="Path" fill="#5E63B6"></path>
            <path d="M60.68,72.88 C57.14464,72.88 54.28,75.7472 54.28,79.28 C54.28,82.81536 57.14464,85.68 60.68,85.68 C64.21536,85.68 67.08,82.81536 67.08,79.28 C67.08,75.7472 64.21536,72.88 60.68,72.88 Z" id="Shape" fill="#9ACDED" fill-rule="nonzero"></path>
            <path d="M109.32,72.88 C105.78464,72.88 102.92,75.7472 102.92,79.28 C102.92,82.81536 105.78464,85.68 109.32,85.68 C112.85536,85.68 115.72,82.81536 115.72,79.28 C115.72,75.7472 112.85536,72.88 109.32,72.88 Z" id="Path" fill="#9ACDED"></path>
            <path d="M85.26,113 C83.459176,113 82,114.4336 82,116.2 C82,117.96768 83.459176,119.4 85.26,119.4 C87.060824,119.4 88.52,117.96768 88.52,116.2 C88.52,114.4336 87.060824,113 85.26,113 Z" id="Path" fill="#9ACDED"></path>
            <path d="M36.36,42.16 L133.64,42.16 C139.58944,42.16 154.12,31.13152 154.12,8.88 C154.12,4.51008 151.89024,1.20256 146.44,1.20256 C146.44,1.20256 74.4656,-1.62624 38.92,11.44 C29.10496,15.1648 26.12,24.03008 26.12,29.36 C26.12,29.9468057 26.1445085,30.5243723 26.1932766,31.0901916 L26.12,31.92 L26.12,47.28 C26.12,53.47008 30.51808,58.63616 36.36,59.82144 L36.36,42.16 Z" id="Combined-Shape" stroke="#5E63B6" stroke-width="3" fill="#FFFFFF" fill-rule="nonzero"></path>
        </g>
        <path d="M102.5,58 L177.97,58" id="Shape" stroke="#E1F2FF" stroke-width="3" fill="#FFFFFF" fill-rule="nonzero" stroke-linecap="round" stroke-linejoin="round"></path>
        <path d="M52.5,171.5 L52.5,210.5" id="Shape" stroke="#E1F2FF" stroke-width="3" fill="#FFFFFF" fill-rule="nonzero" stroke-linecap="round" stroke-linejoin="round"></path>
        <g id="Group-2" transform="translate(3.000000, 220.000000)" fill="#FFFFFF" fill-rule="nonzero" stroke="#5E63B6" stroke-linecap="round" stroke-linejoin="round" stroke-width="3">
            <path d="M17,0 L53,0" id="Shape"></path>
            <path d="M59,0 L235.89,0" id="Shape"></path>
            <path d="M243,0 L249.97,0" id="Shape"></path>
            <path d="M0,0 L8.97,0" id="Shape"></path>
            <path d="M92,10 L159.19,10" id="Shape"></path>
            <path d="M168,10 L177.14,10" id="Shape"></path>
            <path d="M84,9 L79,9.08" id="Shape"></path>
        </g>
        <g id="Group-2" transform="translate(22.000000, 24.000000)" stroke="#5E63B6" stroke-linecap="round">
            <path d="M184.98,44.4 L184.98,51.4" id="Shape" stroke-width="2" stroke-linejoin="round"></path>
            <path d="M188.48,47.9 L181.48,47.9" id="Shape" stroke-width="2" stroke-linejoin="round"></path>
            <path d="M58,0 L58,7" id="Shape" stroke-width="2" stroke-linejoin="round"></path>
            <path d="M62,4 L55,4" id="Shape" stroke-width="2" stroke-linejoin="round"></path>
            <path d="M20.73,164.68 L20.73,168.62" id="Shape"></path>
            <path d="M22.7,166.65 L18.76,166.65" id="Shape"></path>
            <path d="M195.73,104.68 L195.73,108.62" id="Shape" stroke-linejoin="round"></path>
            <path d="M197.7,106.65 L193.76,106.65" id="Shape" stroke-linejoin="round"></path>
            <path d="M26.73,64.68 L26.73,68.62" id="Shape"></path>
            <path d="M28.7,66.65 L24.76,66.65" id="Shape"></path>
            <path d="M4.42,103.28 L4.42,111.4" id="Shape" stroke-width="2" fill="#FFFFFF" fill-rule="nonzero"></path>
            <path d="M8.48,107.34 L0.35,107.34" id="Shape" stroke-width="2" fill="#FFFFFF" fill-rule="nonzero"></path>
        </g>
    </g>
</svg>