<?xml version="1.0" encoding="UTF-8" standalone="no"?>
<svg width="256px" height="256px" viewBox="0 0 256 256" version="1.1" xmlns="http://www.w3.org/2000/svg" xmlns:xlink="http://www.w3.org/1999/xlink">
    <!-- Generator: Sketch 50.2 (55047) - http://www.bohemiancoding.com/sketch -->
    <title>Common/Illustrations/AttibuteGroup</title>
    <desc>Created with Sketch.</desc>
    <defs></defs>
    <g id="Common/Illustrations/AttibuteGroup" stroke="none" stroke-width="1" fill="none" fill-rule="evenodd">
        <g id="Group" transform="translate(3.000000, 18.000000)">
            <path d="M20.2043,205.3916 C20.2043,148.1986 66.5683,101.8336 123.7623,101.8336 C180.9553,101.8336 227.3193,148.1986 227.3193,205.3916 L20.2043,205.3916 Z" id="Fill-1" fill="#E1F2FF"></path>
            <g id="Group-6" transform="translate(16.000000, 195.467000)">
                <path d="M0.9777,0.9246 L36.9777,0.9246" id="Fill-3" fill="#FFFFFF"></path>
                <path d="M0.9777,0.9246 L36.9777,0.9246" id="Stroke-5" stroke="#5E63B6" stroke-width="2" stroke-linecap="round" stroke-linejoin="round"></path>
            </g>
            <g id="Group-10" transform="translate(59.000000, 195.467000)">
                <path d="M0.4259,0.9246 L177.3199,0.9246" id="Fill-7" fill="#FFFFFF"></path>
                <path d="M0.4259,0.9246 L177.3199,0.9246" id="Stroke-9" stroke="#5E63B6" stroke-width="2" stroke-linecap="round" stroke-linejoin="round"></path>
            </g>
            <path d="M132.9465,3.1309 L132.9465,7.0689" id="Stroke-11" stroke="#5E63B6" stroke-linecap="round"></path>
            <path d="M134.9152,5.0996 L130.9772,5.0996" id="Stroke-13" stroke="#5E63B6" stroke-linecap="round"></path>
            <path d="M207.4777,171.6875 L207.4777,175.6255" id="Stroke-15" stroke="#5E63B6" stroke-linecap="round"></path>
            <path d="M209.4465,173.6563 L205.5085,173.6563" id="Stroke-17" stroke="#5E63B6" stroke-linecap="round"></path>
            <path d="M214.7277,103.6817 L214.7277,107.6197" id="Stroke-19" stroke="#5E63B6" stroke-linecap="round" stroke-linejoin="round"></path>
            <path d="M216.6965,105.6504 L212.7585,105.6504" id="Stroke-21" stroke="#5E63B6" stroke-linecap="round" stroke-linejoin="round"></path>
            <path d="M13.1974,146.8369 L13.1974,150.7749" id="Stroke-23" stroke="#5E63B6" stroke-linecap="round"></path>
            <path d="M15.1662,148.8057 L11.2282,148.8057" id="Stroke-25" stroke="#5E63B6" stroke-linecap="round"></path>
            <g id="Group-30" transform="translate(33.000000, 51.467000)">
                <path d="M0.9162,0.7889 L0.9162,8.9139" id="Fill-27" fill="#FFFFFF"></path>
                <path d="M0.9162,0.7889 L0.9162,8.9139" id="Stroke-29" stroke="#5E63B6" stroke-width="2" stroke-linecap="round"></path>
            </g>
            <g id="Group-34" transform="translate(29.000000, 55.467000)">
                <path d="M8.9787,0.8514 L0.8537,0.8514" id="Fill-31" fill="#FFFFFF"></path>
                <path d="M8.9787,0.8514 L0.8537,0.8514" id="Stroke-33" stroke="#5E63B6" stroke-width="2" stroke-linecap="round"></path>
            </g>
            <g id="Group-38" transform="translate(214.000000, 9.467000)">
                <path d="M0.7277,0.4051 L0.7277,8.5301" id="Fill-35" fill="#FFFFFF"></path>
                <path d="M0.7277,0.4051 L0.7277,8.5301" id="Stroke-37" stroke="#5E63B6" stroke-width="2" stroke-linecap="round"></path>
            </g>
            <g id="Group-42" transform="translate(210.000000, 13.467000)">
                <path d="M8.7902,0.4676 L0.6652,0.4676" id="Fill-39" fill="#FFFFFF"></path>
                <path d="M8.7902,0.4676 L0.6652,0.4676" id="Stroke-41" stroke="#5E63B6" stroke-width="2" stroke-linecap="round"></path>
            </g>
            <g id="Group-46" transform="translate(243.000000, 195.467000)">
                <path d="M0.1662,0.6834 L7.1402,0.6834" id="Fill-43" fill="#FFFFFF"></path>
                <path d="M0.1662,0.6834 L7.1402,0.6834" id="Stroke-45" stroke="#5E63B6" stroke-width="2" stroke-linecap="round" stroke-linejoin="round"></path>
            </g>
            <g id="Group-50" transform="translate(0.000000, 195.467000)">
                <path d="M0.0002,0.6834 L8.9732,0.6834" id="Fill-47" fill="#FFFFFF"></path>
                <path d="M0.0002,0.6834 L8.9732,0.6834" id="Stroke-49" stroke="#5E63B6" stroke-width="2" stroke-linecap="round" stroke-linejoin="round"></path>
            </g>
            <g id="Group-54" transform="translate(92.000000, 205.467000)">
                <path d="M0.382,-0.0002 L67.569,-0.0002" id="Fill-51" fill="#FFFFFF"></path>
                <path d="M0.382,-0.0002 L67.569,-0.0002" id="Stroke-53" stroke="#5E63B6" stroke-width="2" stroke-linecap="round" stroke-linejoin="round"></path>
            </g>
            <g id="Group-58" transform="translate(168.000000, 205.467000)">
                <path d="M0.1877,-0.0002 L9.3287,-0.0002" id="Fill-55" fill="#FFFFFF"></path>
                <path d="M0.1877,-0.0002 L9.3287,-0.0002" id="Stroke-57" stroke="#5E63B6" stroke-width="2" stroke-linecap="round" stroke-linejoin="round"></path>
            </g>
            <g id="Group-62" transform="translate(79.000000, 204.467000)">
                <path d="M5.5002,0.9246 L0.5002,0.9996" id="Fill-59" fill="#FFFFFF"></path>
                <path d="M5.5002,0.9246 L0.5002,0.9996" id="Stroke-61" stroke="#5E63B6" stroke-width="2" stroke-linecap="round" stroke-linejoin="round"></path>
            </g>
            <path d="M227.9875,55.9756 L201.3955,122.9066 C201.0925,123.6666 200.2315,124.0386 199.4705,123.7366 L126.0765,94.5776 C124.2355,93.8456 122.7635,92.4086 121.9905,90.5846 L104.3855,49.0986 C103.4005,46.7776 104.4665,44.0956 106.7755,43.0836 L148.0505,24.9916 C149.8645,24.1966 151.9225,24.1606 153.7615,24.8916 L227.1575,54.0506 C227.9185,54.3536 228.2895,55.2146 227.9875,55.9756" id="Fill-63" fill="#FFFFFF"></path>
            <path d="M227.9875,55.9756 L201.3955,122.9066 C201.0925,123.6666 200.2315,124.0386 199.4705,123.7366 L126.0765,94.5776 C124.2355,93.8456 122.7635,92.4086 121.9905,90.5846 L104.3855,49.0986 C103.4005,46.7776 104.4665,44.0956 106.7755,43.0836 L148.0505,24.9916 C149.8645,24.1966 151.9225,24.1606 153.7615,24.8916 L227.1575,54.0506 C227.9185,54.3536 228.2895,55.2146 227.9875,55.9756 Z" id="Stroke-65" stroke="#ACD3EF" stroke-width="2"></path>
            <polygon id="Fill-67" fill="#E1F2FF" points="126.8576 39.7657 152.9216 32.3537 218.0606 60.4047 195.0956 115.4537 107.2296 73.8347"></polygon>
            <path d="M167.4592,52.7578 C176.8662,56.4948 181.4622,67.1508 177.7252,76.5578 C173.9872,85.9648 163.3312,90.5618 153.9242,86.8238 C144.5182,83.0858 139.9212,72.4308 143.6582,63.0238 C147.3962,53.6158 158.0522,49.0208 167.4592,52.7578" id="Fill-69" fill="#E1F2FF"></path>
            <path d="M164.8361,49.3233 C174.2431,53.0603 178.8401,63.7173 175.1021,73.1243 C171.3641,82.5313 160.7091,87.1273 151.3021,83.3893 C141.8951,79.6523 137.2981,68.9963 141.0361,59.5893 C144.7741,50.1823 155.4291,45.5863 164.8361,49.3233" id="Fill-71" fill="#FFFFFF"></path>
            <path d="M164.8361,49.3233 C174.2431,53.0603 178.8401,63.7173 175.1021,73.1243 C171.3641,82.5313 160.7091,87.1273 151.3021,83.3893 C141.8951,79.6523 137.2981,68.9963 141.0361,59.5893 C144.7741,50.1823 155.4291,45.5863 164.8361,49.3233 Z" id="Stroke-73" stroke="#ACD3EF" stroke-width="2"></path>
            <path d="M168.1515,65.46 C168.3925,65.473 168.5625,65.468 168.6175,65.468 C168.6255,65.464 168.6125,65.473 168.6175,65.468 C168.6175,65.468 168.6195,65.469 168.6175,65.468 C168.6195,65.468 168.6175,65.469 168.6175,65.469 C163.7845,64.105 162.8955,60.704 160.1485,58.634 C160.1045,58.61 160.0575,58.582 160.0065,58.546 C159.9455,58.501 159.8805,58.458 159.8125,58.42 C159.0095,57.955 157.8785,57.91 156.5815,58.161 C156.5735,58.161 156.5665,58.164 156.5595,58.165 C156.4525,58.185 156.3425,58.209 156.2335,58.233 C156.2335,58.233 156.2315,58.235 156.2295,58.234 C156.0295,58.281 155.8255,58.334 155.6175,58.393 C155.5965,58.398 155.5745,58.403 155.5525,58.41 C155.4965,58.427 155.4395,58.445 155.3825,58.462 C155.3235,58.48 155.2645,58.496 155.2075,58.515 C155.1485,58.534 155.0915,58.552 155.0345,58.571 C154.9735,58.591 154.9155,58.61 154.8545,58.631 C154.8145,58.645 154.7715,58.66 154.7285,58.675 C153.1175,59.239 151.3955,60.123 149.8045,61.127 C149.8045,61.127 149.7845,61.131 149.8045,61.127 C151.6255,61.634 153.3815,62.304 154.7135,63.024 C156.3175,63.894 158.0395,65.274 159.4835,66.816 C158.5465,68.71 157.2975,70.53 156.0115,71.826 C154.9365,72.909 153.4635,74.054 151.8545,75.068 C152.0055,75.11 152.1565,75.149 152.3075,75.19 C152.3525,75.202 152.3975,75.213 152.4435,75.225 C152.5515,75.252 152.6595,75.28 152.7695,75.306 C152.8195,75.318 152.8695,75.331 152.9205,75.342 C153.0305,75.368 153.1385,75.394 153.2485,75.417 C153.2925,75.427 153.3375,75.437 153.3815,75.447 C153.5205,75.478 153.6585,75.507 153.7975,75.534 C153.8115,75.538 153.8245,75.541 153.8385,75.543 C153.9995,75.576 154.1595,75.606 154.3195,75.636 C154.3325,75.64 154.3435,75.641 154.3565,75.643 C154.5015,75.669 154.6435,75.693 154.7875,75.717 C154.8165,75.723 154.8455,75.727 154.8745,75.732 C155.0055,75.753 155.1365,75.773 155.2675,75.792 C155.2935,75.795 155.3185,75.798 155.3445,75.803 C155.4965,75.823 155.6465,75.844 155.7965,75.862 C155.7975,75.861 155.7985,75.862 155.7985,75.862 C156.2805,75.919 156.7525,75.96 157.2105,75.983 C157.2155,75.983 157.2205,75.983 157.2265,75.984 C157.9935,76.02 158.7185,76.002 159.3805,75.923 C159.4755,75.91 159.5715,75.898 159.6645,75.883 C159.6685,75.882 159.6715,75.883 159.6745,75.882 L159.6755,75.881 C159.7605,75.868 159.8445,75.855 159.9255,75.839 L159.9275,75.838 C159.9275,75.838 159.9335,75.837 159.9365,75.836 C160.0255,75.82 160.1125,75.803 160.1975,75.782 C160.2105,75.779 160.2195,75.777 160.2315,75.773 C160.2325,75.773 160.2335,75.774 160.2345,75.774 C160.3445,75.749 160.4525,75.72 160.5555,75.691 C160.5735,75.685 160.5895,75.68 160.6065,75.675 C160.6125,75.674 160.6185,75.672 160.6265,75.67 C160.7425,75.635 160.8575,75.597 160.9665,75.554 C161.0455,75.525 161.1195,75.494 161.1935,75.463 C161.2245,75.449 161.2545,75.434 161.2845,75.42 C161.3295,75.398 161.3725,75.377 161.4155,75.356 C161.4475,75.339 161.4765,75.321 161.5085,75.304 C161.5475,75.283 161.5865,75.26 161.6245,75.237 C161.6545,75.219 161.6815,75.201 161.7115,75.181 C161.7495,75.157 161.7845,75.133 161.8215,75.107 C161.8465,75.089 161.8745,75.068 161.9005,75.049 C161.9355,75.021 161.9695,74.992 162.0055,74.965 C162.0285,74.945 162.0505,74.925 162.0735,74.905 C162.1095,74.871 162.1435,74.838 162.1785,74.802 C162.1935,74.785 162.2145,74.769 162.2295,74.75 C162.2805,74.696 162.3275,74.641 162.3715,74.584 C162.4015,74.545 162.4285,74.514 162.4575,74.484 C164.5065,71.71 164.4085,68.177 168.6175,65.468" id="Fill-75" fill="#ACD3EF"></path>
            <path d="M182.5558,98.875 L197.7918,60.525" id="Stroke-77" stroke="#ACD3EF" stroke-width="2" stroke-linecap="round"></path>
            <path d="M192.6838,102.8985 L207.9188,64.5485" id="Stroke-79" stroke="#ACD3EF" stroke-width="2" stroke-linecap="round"></path>
            <path d="M124.6945,47.3057 C127.7375,48.5147 129.2235,51.9617 128.0145,55.0047 C126.8055,58.0477 123.3595,59.5347 120.3165,58.3257 C117.2735,57.1167 115.7875,53.6697 116.9965,50.6267 C118.2055,47.5837 121.6515,46.0967 124.6945,47.3057" id="Fill-81" fill="#FFFFFF"></path>
            <path d="M124.6945,47.3057 C127.7375,48.5147 129.2235,51.9617 128.0145,55.0047 C126.8055,58.0477 123.3595,59.5347 120.3165,58.3257 C117.2735,57.1167 115.7875,53.6697 116.9965,50.6267 C118.2055,47.5837 121.6515,46.0967 124.6945,47.3057 Z" id="Stroke-83" stroke="#5E63B6" stroke-width="2"></path>
            <path d="M234.7355,119.3272 L171.8385,181.0862 C171.1235,181.7872 169.9745,181.7772 169.2725,181.0622 L101.5495,112.0902 C99.8505,110.3602 98.9165,108.0222 98.9525,105.5982 L99.7815,50.4452 C99.8275,47.3582 102.3475,44.8852 105.4345,44.8942 L160.5935,45.0732 C163.0175,45.0812 165.3385,46.0592 167.0365,47.7892 L234.7585,116.7622 C235.4615,117.4762 235.4515,118.6252 234.7355,119.3272" id="Fill-85" fill="#FFFFFF"></path>
            <path d="M234.7355,119.3272 L171.8385,181.0862 C171.1235,181.7872 169.9745,181.7772 169.2725,181.0622 L101.5495,112.0902 C99.8505,110.3602 98.9165,108.0222 98.9525,105.5982 L99.7815,50.4452 C99.8275,47.3582 102.3475,44.8852 105.4345,44.8942 L160.5935,45.0732 C163.0175,45.0812 165.3385,46.0592 167.0365,47.7892 L234.7585,116.7622 C235.4615,117.4762 235.4515,118.6252 234.7355,119.3272 Z" id="Stroke-87" stroke="#ACD3EF" stroke-width="2"></path>
            <polygon id="Fill-89" fill="#E1F2FF" points="128.0148 55.0049 160.1488 58.6339 219.3518 119.1179 169.0528 169.4879 90.9068 83.7239"></polygon>
            <path d="M168.5744,85.7627 C177.2544,94.6027 177.1244,108.8057 168.2844,117.4867 C159.4434,126.1657 145.2404,126.0357 136.5604,117.1967 C127.8804,108.3557 128.0104,94.1527 136.8504,85.4727 C145.6904,76.7927 159.8934,76.9217 168.5744,85.7627" id="Fill-91" fill="#E1F2FF"></path>
            <path d="M167.3381,80.6202 C176.0191,89.4612 175.8891,103.6642 167.0481,112.3442 C158.2081,121.0242 144.0051,120.8942 135.3241,112.0542 C126.6451,103.2142 126.7751,89.0112 135.6141,80.3302 C144.4551,71.6502 158.6581,71.7802 167.3381,80.6202" id="Fill-93" fill="#FFFFFF"></path>
            <path d="M167.3381,80.6202 C176.0191,89.4612 175.8891,103.6642 167.0481,112.3442 C158.2081,121.0242 144.0051,120.8942 135.3241,112.0542 C126.6451,103.2142 126.7751,89.0112 135.6141,80.3302 C144.4551,71.6502 158.6581,71.7802 167.3381,80.6202 Z" id="Stroke-95" stroke="#ACD3EF" stroke-width="2"></path>
            <path d="M163.0617,100.3252 C163.3257,100.4582 163.5177,100.5362 163.5797,100.5632 C163.5897,100.5632 163.5717,100.5662 163.5797,100.5632 C163.5797,100.5632 163.5817,100.5652 163.5797,100.5632 C163.5817,100.5642 163.5787,100.5642 163.5787,100.5642 C158.8437,96.6452 159.5327,92.3992 157.4827,88.7212 C157.4447,88.6742 157.4067,88.6192 157.3677,88.5542 C157.3207,88.4722 157.2687,88.3922 157.2117,88.3152 C156.5437,87.3972 155.2987,86.7872 153.7217,86.4272 C153.7137,86.4242 153.7057,86.4232 153.6977,86.4212 C153.5677,86.3892 153.4327,86.3622 153.2977,86.3362 C153.2977,86.3362 153.2947,86.3372 153.2927,86.3352 C153.0457,86.2882 152.7907,86.2462 152.5297,86.2092 C152.5027,86.2052 152.4757,86.1992 152.4497,86.1962 C152.3767,86.1872 152.3037,86.1792 152.2327,86.1702 C152.1577,86.1602 152.0827,86.1502 152.0097,86.1412 C151.9347,86.1352 151.8617,86.1272 151.7887,86.1202 C151.7107,86.1122 151.6357,86.1042 151.5577,86.0972 C151.5057,86.0932 151.4507,86.0902 151.3947,86.0852 C149.3117,85.9192 146.9477,86.0552 144.6687,86.3912 C144.6687,86.3912 144.6447,86.3872 144.6687,86.3912 C146.4567,87.8602 148.0907,89.4802 149.2247,90.9462 C150.5907,92.7132 151.8327,95.1112 152.6877,97.5532 C150.7007,99.2082 148.4017,100.6272 146.3217,101.4412 C144.5817,102.1212 142.3667,102.6742 140.0627,103.0132 C140.2107,103.1352 140.3597,103.2532 140.5087,103.3742 C140.5537,103.4092 140.5987,103.4432 140.6447,103.4792 C140.7517,103.5642 140.8587,103.6482 140.9687,103.7312 C141.0187,103.7702 141.0697,103.8082 141.1207,103.8462 C141.2307,103.9292 141.3397,104.0122 141.4507,104.0932 C141.4947,104.1262 141.5407,104.1592 141.5847,104.1922 C141.7257,104.2952 141.8657,104.3962 142.0067,104.4962 C142.0207,104.5072 142.0347,104.5172 142.0477,104.5262 C142.2117,104.6422 142.3757,104.7572 142.5407,104.8682 C142.5527,104.8782 142.5657,104.8852 142.5797,104.8932 C142.7287,104.9952 142.8747,105.0932 143.0237,105.1902 C143.0547,105.2112 143.0847,105.2302 143.1147,105.2502 C143.2507,105.3392 143.3877,105.4262 143.5247,105.5122 C143.5517,105.5272 143.5787,105.5442 143.6067,105.5622 C143.7657,105.6602 143.9237,105.7592 144.0827,105.8522 C144.0837,105.8522 144.0847,105.8532 144.0847,105.8532 C144.5957,106.1562 145.1037,106.4342 145.6047,106.6872 C145.6117,106.6912 145.6177,106.6932 145.6227,106.6972 C146.4627,107.1162 147.2847,107.4562 148.0637,107.6942 C148.1767,107.7272 148.2907,107.7612 148.4017,107.7902 C148.4067,107.7912 148.4097,107.7942 148.4147,107.7952 L148.4157,107.7942 C148.5167,107.8212 148.6187,107.8472 148.7157,107.8712 L148.7187,107.8712 C148.7187,107.8712 148.7267,107.8722 148.7297,107.8732 C148.8367,107.8992 148.9437,107.9232 149.0477,107.9412 L149.0477,107.9422 C149.0637,107.9452 149.0767,107.9472 149.0907,107.9492 C149.0917,107.9482 149.0927,107.9512 149.0937,107.9512 C149.2297,107.9772 149.3647,107.9982 149.4947,108.0172 C149.5167,108.0182 149.5387,108.0212 149.5587,108.0242 C149.5667,108.0262 149.5747,108.0262 149.5827,108.0282 C149.7317,108.0472 149.8787,108.0612 150.0227,108.0672 C150.1237,108.0742 150.2227,108.0762 150.3217,108.0772 C150.3637,108.0772 150.4037,108.0742 150.4447,108.0732 C150.5047,108.0722 150.5637,108.0692 150.6227,108.0662 C150.6657,108.0642 150.7077,108.0582 150.7527,108.0542 C150.8067,108.0512 150.8617,108.0442 150.9157,108.0382 C150.9577,108.0322 150.9987,108.0252 151.0407,108.0172 C151.0947,108.0102 151.1467,108.0002 151.1997,107.9902 C151.2387,107.9812 151.2787,107.9722 151.3177,107.9632 C151.3717,107.9502 151.4237,107.9342 151.4757,107.9212 C151.5117,107.9112 151.5477,107.8992 151.5827,107.8882 C151.6397,107.8692 151.6947,107.8472 151.7507,107.8252 C151.7767,107.8142 151.8067,107.8042 151.8337,107.7922 C151.9167,107.7582 151.9977,107.7182 152.0747,107.6762 C152.1267,107.6472 152.1737,107.6272 152.2197,107.6062 C155.8877,105.5162 157.5267,101.5122 163.5797,100.5632" id="Fill-97" fill="#ACD3EF"></path>
            <path d="M162.6457,144.8594 L198.6837,109.4734" id="Stroke-99" stroke="#ACD3EF" stroke-width="2" stroke-linecap="round"></path>
            <path d="M171.9894,154.376 L208.0284,118.99" id="Stroke-101" stroke="#ACD3EF" stroke-width="2" stroke-linecap="round"></path>
            <path d="M123.4025,58.4912 C126.2105,61.3502 126.1685,65.9452 123.3085,68.7532 C120.4495,71.5602 115.8555,71.5182 113.0475,68.6592 C110.2395,65.8002 110.2815,61.2052 113.1415,58.3972 C116.0015,55.5902 120.5945,55.6322 123.4025,58.4912" id="Fill-103" fill="#FFFFFF"></path>
            <path d="M123.4025,58.4912 C126.2105,61.3502 126.1685,65.9452 123.3085,68.7532 C120.4495,71.5602 115.8555,71.5182 113.0475,68.6592 C110.2395,65.8002 110.2815,61.2052 113.1415,58.3972 C116.0015,55.5902 120.5945,55.6322 123.4025,58.4912 Z" id="Stroke-105" stroke="#5E63B6" stroke-width="2"></path>
            <path d="M78.757,196.3037 L83.734,196.4497 C85.445,196.4987 87.028,195.4977 87.695,193.9197 C89.594,189.4227 89.276,185.2307 89.592,181.6617 C90.176,175.0517 89.24,171.6287 88.415,166.0617 L80.94,166.0167 C80.94,166.0167 81.494,168.7857 81.676,177.0537 C81.733,179.6117 77.212,189.7467 77.263,194.7857 C77.272,195.6127 77.931,196.2797 78.757,196.3037" id="Fill-107" fill="#9452BA"></path>
            <path d="M78.757,196.3037 L83.734,196.4497 C85.445,196.4987 87.028,195.4977 87.695,193.9197 C89.594,189.4227 89.276,185.2307 89.592,181.6617 C90.176,175.0517 89.24,171.6287 88.415,166.0617 L80.94,166.0167 C80.94,166.0167 81.494,168.7857 81.676,177.0537 C81.733,179.6117 77.212,189.7467 77.263,194.7857 C77.272,195.6127 77.931,196.2797 78.757,196.3037 Z" id="Stroke-109" stroke="#52267D" stroke-width="2"></path>
            <path d="M64.9592,172.2217 L59.1492,165.2317 L55.4352,165.2707 C55.4352,165.2707 54.7482,170.9247 54.4652,173.2917 C53.9682,177.4647 51.9942,185.6127 50.8242,189.1797 C50.4432,190.3397 50.2102,191.4277 50.1252,192.4177 C49.9822,194.0837 51.3342,195.5027 53.0062,195.5517 L57.4152,195.6807 C59.9822,195.7557 62.3162,194.1087 63.0202,191.6377 C65.2112,183.9457 64.9592,172.2217 64.9592,172.2217" id="Fill-111" fill="#9452BA"></path>
            <path d="M64.9592,172.2217 L59.1492,165.2317 L55.4352,165.2707 C55.4352,165.2707 54.7482,170.9247 54.4652,173.2917 C53.9682,177.4647 51.9942,185.6127 50.8242,189.1797 C50.4432,190.3397 50.2102,191.4277 50.1252,192.4177 C49.9822,194.0837 51.3342,195.5027 53.0062,195.5517 L57.4152,195.6807 C59.9822,195.7557 62.3162,194.1087 63.0202,191.6377 C65.2112,183.9457 64.9592,172.2217 64.9592,172.2217 Z" id="Stroke-113" stroke="#52267D" stroke-width="2"></path>
            <polyline id="Stroke-115" stroke="#52267D" stroke-width="0.5" points="56.3722 176.6739 55.3552 177.5159 56.2782 178.3979 57.8412 177.8499 57.5522 177.1629 56.2602 177.4289 56.2652 177.6589 56.5982 177.6529"></polyline>
            <path d="M57.2863,146.6006 C61.6663,146.6386 65.8563,143.7446 74.8023,143.5926 C74.9473,143.0126 75.1203,142.4906 75.3333,142.0636 C77.0513,138.6106 79.6273,128.5896 78.3553,121.9206 L77.3483,116.6436 C77.0183,114.9136 76.8783,113.1506 76.9303,111.3886 C76.9513,110.6546 77.0463,109.9406 77.2083,109.2516 C77.2493,109.0796 77.2933,108.9106 77.3423,108.7416 C77.4883,108.2356 77.6703,107.7466 77.8863,107.2746 C77.9583,107.1176 78.0333,106.9626 78.1123,106.8096 C78.2713,106.5036 78.4433,106.2066 78.6303,105.9196 C78.8163,105.6326 79.0153,105.3556 79.2273,105.0886 C79.8643,104.2876 80.6123,103.5816 81.4493,102.9936 C81.7273,102.7966 82.0163,102.6146 82.3143,102.4456 C83.9503,101.5156 85.8533,101.0076 87.8723,101.0666 L89.6153,101.1186 C92.5523,101.2036 95.1753,102.4706 97.0433,104.4516 C97.2763,104.6996 97.4983,104.9576 97.7073,105.2266 C98.0873,105.7146 98.4223,106.2396 98.7133,106.7896 C98.8223,106.9966 98.9283,107.2056 99.0233,107.4196 C99.0943,107.5776 99.1603,107.7366 99.2233,107.8976 C99.4103,108.3806 99.5633,108.8796 99.6803,109.3936 C99.7963,109.9076 99.8753,110.4336 99.9143,110.9716 C99.9403,111.3296 99.9483,111.6936 99.9373,112.0606 C99.9163,112.7916 99.5993,113.4466 99.1063,113.9126 C98.6123,114.3776 97.9413,114.6556 97.2093,114.6336 L86.3243,114.3156 L87.6953,123.8116 C89.3463,133.5746 88.5753,140.0476 86.9513,144.3306 C86.5893,145.2866 84.5883,148.6496 84.5883,148.6496 C89.7803,157.3976 98.0173,161.3956 106.9113,162.7466 C114.4723,163.8936 131.0543,157.4526 122.8433,149.2016 C114.6313,140.9506 124.6903,146.2256 126.1633,147.2826 C127.6363,148.3396 136.1023,156.0986 126.3543,166.8346 C122.2323,171.3746 117.5943,175.4766 106.6343,178.4056 C104.8763,178.8736 95.3483,179.2886 90.1863,180.6086 C74.8203,184.5376 62.5703,179.4186 55.9213,169.1576 C49.3003,158.9366 55.5573,146.5846 57.2863,146.6006" id="Fill-117" fill="#9452BA"></path>
            <path d="M57.2863,146.6006 C61.6663,146.6386 65.8563,143.7446 74.8023,143.5926 C74.9473,143.0126 75.1203,142.4906 75.3333,142.0636 C77.0513,138.6106 79.6273,128.5896 78.3553,121.9206 L77.3483,116.6436 C77.0183,114.9136 76.8783,113.1506 76.9303,111.3886 C76.9513,110.6546 77.0463,109.9406 77.2083,109.2516 C77.2493,109.0796 77.2933,108.9106 77.3423,108.7416 C77.4883,108.2356 77.6703,107.7466 77.8863,107.2746 C77.9583,107.1176 78.0333,106.9626 78.1123,106.8096 C78.2713,106.5036 78.4433,106.2066 78.6303,105.9196 C78.8163,105.6326 79.0153,105.3556 79.2273,105.0886 C79.8643,104.2876 80.6123,103.5816 81.4493,102.9936 C81.7273,102.7966 82.0163,102.6146 82.3143,102.4456 C83.9503,101.5156 85.8533,101.0076 87.8723,101.0666 L89.6153,101.1186 C92.5523,101.2036 95.1753,102.4706 97.0433,104.4516 C97.2763,104.6996 97.4983,104.9576 97.7073,105.2266 C98.0873,105.7146 98.4223,106.2396 98.7133,106.7896 C98.8223,106.9966 98.9283,107.2056 99.0233,107.4196 C99.0943,107.5776 99.1603,107.7366 99.2233,107.8976 C99.4103,108.3806 99.5633,108.8796 99.6803,109.3936 C99.7963,109.9076 99.8753,110.4336 99.9143,110.9716 C99.9403,111.3296 99.9483,111.6936 99.9373,112.0606 C99.9163,112.7916 99.5993,113.4466 99.1063,113.9126 C98.6123,114.3776 97.9413,114.6556 97.2093,114.6336 L86.3243,114.3156 L87.6953,123.8116 C89.3463,133.5746 88.5753,140.0476 86.9513,144.3306 C86.5893,145.2866 84.5883,148.6496 84.5883,148.6496 C89.7803,157.3976 98.0173,161.3956 106.9113,162.7466 C114.4723,163.8936 131.0543,157.4526 122.8433,149.2016 C114.6313,140.9506 124.6903,146.2256 126.1633,147.2826 C127.6363,148.3396 136.1023,156.0986 126.3543,166.8346 C122.2323,171.3746 117.5943,175.4766 106.6343,178.4056 C104.8763,178.8736 95.3483,179.2886 90.1863,180.6086 C74.8203,184.5376 62.5703,179.4186 55.9213,169.1576 C49.3003,158.9366 55.5573,146.5846 57.2863,146.6006 Z" id="Stroke-119" stroke="#52267D" stroke-width="2"></path>
            <path d="M67.1642,132.4121 C67.8422,121.1671 59.1672,112.0611 49.0692,109.8951 C46.9732,109.4461 46.3072,108.7651 44.0012,108.6971 L42.2342,108.6451 C36.2862,108.4721 31.3222,113.1531 31.1482,119.1021 C31.1052,120.5861 32.2722,121.8231 33.7562,121.8661 C33.7562,121.8661 51.8672,122.3901 51.9522,122.3851 C51.9532,122.3851 53.4282,122.4291 53.4292,122.4291 C53.4272,122.4311 51.9512,122.3891 51.9482,122.3911 C55.9042,124.2081 58.2472,129.3991 58.6062,132.1621 C59.1182,136.0981 58.5652,139.3141 57.1522,141.8891 C56.2122,143.6031 56.0502,145.6971 56.1372,147.3991 C56.1372,147.3991 56.1802,147.4151 56.2392,147.4371 C56.2752,148.3471 56.3932,149.3841 56.6292,150.5701 C58.3692,149.4321 61.0732,147.7211 61.5652,147.4781 C62.6282,146.9571 65.0272,145.7681 66.1022,145.1931 C72.9722,141.5171 66.7782,138.8081 67.1642,132.4121" id="Fill-121" fill="#9452BA"></path>
            <path d="M67.1642,132.4121 C67.8422,121.1671 59.1672,112.0611 49.0692,109.8951 C46.9732,109.4461 46.3072,108.7651 44.0012,108.6971 L42.2342,108.6451 C36.2862,108.4721 31.3222,113.1531 31.1482,119.1021 C31.1052,120.5861 32.2722,121.8231 33.7562,121.8661 C33.7562,121.8661 51.8672,122.3901 51.9522,122.3851 C51.9532,122.3851 53.4282,122.4291 53.4292,122.4291 C53.4272,122.4311 51.9512,122.3891 51.9482,122.3911 C55.9042,124.2081 58.2472,129.3991 58.6062,132.1621 C59.1182,136.0981 58.5652,139.3141 57.1522,141.8891 C56.2122,143.6031 56.0502,145.6971 56.1372,147.3991 C56.1372,147.3991 56.1802,147.4151 56.2392,147.4371 C56.2752,148.3471 56.3932,149.3841 56.6292,150.5701 C58.3692,149.4321 61.0732,147.7211 61.5652,147.4781 C62.6282,146.9571 65.0272,145.7681 66.1022,145.1931 C72.9722,141.5171 66.7782,138.8081 67.1642,132.4121 Z" id="Stroke-123" stroke="#52267D" stroke-width="2"></path>
            <g id="Group-128" transform="translate(51.000000, 120.467000)">
                <path d="M10.0158,24.7811 C9.9778,23.0411 9.7388,22.1401 9.9538,21.4391 C11.1948,17.4001 11.5978,16.1261 11.7228,11.8151 C11.8478,7.5321 9.4908,3.2261 5.8918,0.8681 C5.6948,0.7381 3.0628,0.4751 0.9488,1.9241 C4.9048,3.7411 7.2468,8.9321 7.6068,11.6951 C8.1188,15.6311 7.5658,18.8471 6.1528,21.4221 C5.2118,23.1361 5.0498,25.2301 5.1368,26.9321 C5.1368,26.9321 9.9968,28.9211 10.0158,24.7811" id="Fill-125" fill="#F3E3FF"></path>
                <path d="M10.0158,24.7811 C9.9778,23.0411 9.7388,22.1401 9.9538,21.4391 C11.1948,17.4001 11.5978,16.1261 11.7228,11.8151 C11.8478,7.5321 9.4908,3.2261 5.8918,0.8681 C5.6948,0.7381 3.0628,0.4751 0.9488,1.9241 C4.9048,3.7411 7.2468,8.9321 7.6068,11.6951 C8.1188,15.6311 7.5658,18.8471 6.1528,21.4221 C5.2118,23.1361 5.0498,25.2301 5.1368,26.9321 C5.1368,26.9321 9.9968,28.9211 10.0158,24.7811" id="Stroke-127" stroke="#52267D"></path>
            </g>
            <path d="M36.5295,110.3106 C36.5295,110.3106 36.5805,108.4296 38.4705,107.7366 C39.0485,107.5246 40.1015,107.1316 40.1015,107.1316 C40.1015,107.1316 41.1465,109.5186 39.8675,110.0756 C38.0275,110.8766 36.5295,110.3106 36.5295,110.3106" id="Fill-129" fill="#FFFFFF"></path>
            <path d="M36.5295,110.3106 C36.5295,110.3106 36.5805,108.4296 38.4705,107.7366 C39.0485,107.5246 40.1015,107.1316 40.1015,107.1316 C40.1015,107.1316 41.1465,109.5186 39.8675,110.0756 C38.0275,110.8766 36.5295,110.3106 36.5295,110.3106 Z" id="Stroke-131" stroke="#52267D"></path>
            <path d="M41.2472,109.1241 C41.2472,109.1241 41.3752,106.5621 44.2692,106.2731 C44.8102,106.2191 46.2122,106.2941 46.2122,106.2941 C46.2122,106.2941 46.7802,109.0251 45.2522,109.2411 C43.3742,109.5071 41.2472,109.1241 41.2472,109.1241" id="Fill-133" fill="#FFFFFF"></path>
            <path d="M41.2472,109.1241 C41.2472,109.1241 41.3752,106.5621 44.2692,106.2731 C44.8102,106.2191 46.2122,106.2941 46.2122,106.2941 C46.2122,106.2941 46.7802,109.0251 45.2522,109.2411 C43.3742,109.5071 41.2472,109.1241 41.2472,109.1241 Z" id="Stroke-135" stroke="#52267D"></path>
            <path d="M46.9738,109.5371 C46.9738,109.5371 47.4368,106.7061 49.9678,107.5611 C51.0488,107.9271 51.6298,108.7731 51.6298,108.7731 C51.6298,108.7731 51.0588,110.9241 50.0498,110.6501 C48.2878,110.1741 46.9738,109.5371 46.9738,109.5371" id="Fill-137" fill="#FFFFFF"></path>
            <path d="M46.9738,109.5371 C46.9738,109.5371 47.4368,106.7061 49.9678,107.5611 C51.0488,107.9271 51.6298,108.7731 51.6298,108.7731 C51.6298,108.7731 51.0588,110.9241 50.0498,110.6501 C48.2878,110.1741 46.9738,109.5371 46.9738,109.5371 Z" id="Stroke-139" stroke="#52267D"></path>
            <path d="M53.9865,123.5528 C53.9865,123.5528 60.0345,120.4908 59.0605,115.0118 C59.8325,115.6858 61.8865,117.7338 62.6245,118.7718 C62.5925,119.8378 62.6655,124.0778 56.7355,126.7418 C55.7395,125.6458 54.9115,124.2908 53.9865,123.5528" id="Fill-141" fill="#FFFFFF"></path>
            <path d="M53.9865,123.5528 C53.9865,123.5528 60.0345,120.4908 59.0605,115.0118 C59.8325,115.6858 61.8865,117.7338 62.6245,118.7718 C62.5925,119.8378 62.6655,124.0778 56.7355,126.7418 C55.7395,125.6458 54.9115,124.2908 53.9865,123.5528 Z" id="Stroke-143" stroke="#52267D"></path>
            <path d="M37.3547,109.8164 C37.3547,109.8164 37.3807,108.8424 38.3597,108.4844 C38.6587,108.3754 39.2047,108.1704 39.2047,108.1704 C39.2047,108.1704 39.7457,109.4064 39.0837,109.6944 C38.1297,110.1094 37.3547,109.8164 37.3547,109.8164" id="Fill-145" fill="#F3E3FF"></path>
            <path d="M42.4953,108.5801 C42.4953,108.5801 42.5603,107.2741 44.0363,107.1271 C44.3113,107.1001 45.0263,107.1381 45.0263,107.1381 C45.0263,107.1381 45.3163,108.5301 44.5373,108.6401 C43.5793,108.7751 42.4953,108.5801 42.4953,108.5801" id="Fill-147" fill="#F3E3FF"></path>
            <path d="M47.8986,109.3594 C47.8986,109.3594 48.1436,107.8574 49.4866,108.3114 C50.0606,108.5054 50.3696,108.9544 50.3696,108.9544 C50.3696,108.9544 50.0656,110.0944 49.5306,109.9504 C48.5956,109.6974 47.8986,109.3594 47.8986,109.3594" id="Fill-149" fill="#F3E3FF"></path>
            <path d="M46.0431,120.42 L40.6001,120.261 C40.6801,117.52 42.9671,115.362 45.7091,115.442 L46.1881,115.456 C47.5591,115.496 48.6381,116.64 48.5981,118.011 C48.5581,119.382 47.4141,120.46 46.0431,120.42" id="Fill-151" fill="#F3E3FF"></path>
            <path d="M45.5871,120.3135 L40.6961,120.1705 C40.7591,118.0165 42.5561,116.3215 44.7101,116.3845 L45.7011,116.4135 C46.7781,116.4455 47.6261,117.3435 47.5941,118.4205 C47.5631,119.4975 46.6641,120.3445 45.5871,120.3135" id="Fill-153" fill="#FFFFFF"></path>
            <path d="M45.5871,120.3135 L40.6961,120.1705 C40.7591,118.0165 42.5561,116.3215 44.7101,116.3845 L45.7011,116.4135 C46.7781,116.4455 47.6261,117.3435 47.5941,118.4205 C47.5631,119.4975 46.6641,120.3445 45.5871,120.3135 Z" id="Stroke-155" stroke="#52267D"></path>
            <path d="M41.6134,119.1319 C41.5954,119.7339 42.0694,120.2349 42.6714,120.2519 C43.2724,120.2699 43.7734,119.7969 43.7914,119.1949 C43.8084,118.5939 43.3364,118.0919 42.7344,118.0739 C42.1334,118.0569 41.6314,118.5299 41.6134,119.1319" id="Fill-157" fill="#52267D"></path>
            <path d="M33.5304,121.0411 C33.8424,120.9831 34.1244,120.8191 34.3284,120.5771 L34.7064,120.1291 L33.8884,120.2791 L33.4064,120.3681 C33.2204,120.4021 33.0974,120.5811 33.1324,120.7671 C33.1664,120.9521 33.3444,121.0751 33.5304,121.0411" id="Fill-159" fill="#52267D"></path>
            <path d="M54.9894,123.6905 C54.9894,123.6905 59.6474,121.3545 59.7214,116.3785 C61.6504,117.8725 62.1574,118.8155 62.1574,118.8155 C62.1574,118.8155 61.7454,121.1735 60.6064,122.3365 C58.8604,124.1215 57.0804,124.6335 54.9894,123.6905" id="Fill-161" fill="#E1F2FF"></path>
            <g id="Group-166" transform="translate(55.000000, 122.467000)">
                <path d="M4.3556,0.4764 C4.3556,0.4764 2.4946,2.2634 0.7046,3.0934" id="Fill-163" fill="#FFFFFF"></path>
                <path d="M4.3556,0.4764 C4.3556,0.4764 2.4946,2.2634 0.7046,3.0934" id="Stroke-165" stroke="#52267D"></path>
            </g>
            <g id="Group-170" transform="translate(53.000000, 94.467000)">
                <path d="M23.7746,48.3416 L22.8116,46.2956 C19.2706,36.8066 18.8426,31.2826 21.0836,22.3906 L22.3956,17.1816 C22.8266,15.4726 23.0696,13.7216 23.1216,11.9596 C23.2926,6.0876 18.6706,1.1886 12.7986,1.0166 L11.0826,0.9666 C5.2916,0.7976 0.4596,5.3556 0.2896,11.1476 L0.2806,11.4476 C0.2406,12.8256 1.3256,13.9756 2.7036,14.0166 L13.5716,14.3326 L11.6486,23.7336 C5.8646,48.9056 6.0706,59.1866 16.0586,57.3656" id="Fill-167" fill="#9452BA"></path>
                <path d="M23.7746,48.3416 L22.8116,46.2956 C19.2706,36.8066 18.8426,31.2826 21.0836,22.3906 L22.3956,17.1816 C22.8266,15.4726 23.0696,13.7216 23.1216,11.9596 C23.2926,6.0876 18.6706,1.1886 12.7986,1.0166 L11.0826,0.9666 C5.2916,0.7976 0.4596,5.3556 0.2896,11.1476 L0.2806,11.4476 C0.2406,12.8256 1.3256,13.9756 2.7036,14.0166 L13.5716,14.3326 L11.6486,23.7336 C5.8646,48.9056 6.0706,59.1866 16.0586,57.3656" id="Stroke-169" stroke="#52267D" stroke-width="2"></path>
            </g>
            <path d="M58.799,96.5381 C58.799,96.5381 59.028,94.7011 60.88,94.0211 C61.445,93.8141 62.314,94.0781 62.314,94.0781 C62.314,94.0781 63.322,95.7631 62.07,96.3081 C60.267,97.0931 58.799,96.5381 58.799,96.5381" id="Fill-171" fill="#FFFFFF"></path>
            <path d="M58.799,96.5381 C58.799,96.5381 59.028,94.7011 60.88,94.0211 C61.445,93.8141 62.314,94.0781 62.314,94.0781 C62.314,94.0781 63.322,95.7631 62.07,96.3081 C60.267,97.0931 58.799,96.5381 58.799,96.5381 Z" id="Stroke-173" stroke="#52267D"></path>
            <path d="M63.1769,96.0577 C63.1769,96.0577 63.3219,93.1577 66.5999,92.8287 C67.2109,92.7677 67.9909,92.8507 67.9909,92.8507 C67.9909,92.8507 69.4429,95.9457 67.7119,96.1907 C65.5849,96.4917 63.1769,96.0577 63.1769,96.0577" id="Fill-175" fill="#FFFFFF"></path>
            <path d="M63.1769,96.0577 C63.1769,96.0577 63.3219,93.1577 66.5999,92.8287 C67.2109,92.7677 67.9909,92.8507 67.9909,92.8507 C67.9909,92.8507 69.4429,95.9457 67.7119,96.1907 C65.5849,96.4917 63.1769,96.0577 63.1769,96.0577 Z" id="Stroke-177" stroke="#52267D"></path>
            <path d="M69.0002,96.8887 C69.0002,96.8887 69.5232,94.1267 71.9812,95.0287 C73.0312,95.4137 73.5792,96.2577 73.5792,96.2577 C73.5792,96.2577 72.9662,98.3487 71.9842,98.0557 C70.2712,97.5447 69.0002,96.8887 69.0002,96.8887" id="Fill-179" fill="#FFFFFF"></path>
            <path d="M69.0002,96.8887 C69.0002,96.8887 69.5232,94.1267 71.9812,95.0287 C73.0312,95.4137 73.5792,96.2577 73.5792,96.2577 C73.5792,96.2577 72.9662,98.3487 71.9842,98.0557 C70.2712,97.5447 69.0002,96.8887 69.0002,96.8887 Z" id="Stroke-181" stroke="#52267D"></path>
            <g id="Group-186" transform="translate(57.000000, 144.467000)">
                <path d="M0.5246,1.8045 C1.1576,1.3585 1.7926,1.1095 2.3366,0.9955" id="Fill-183" fill="#F3E3FF"></path>
                <path d="M0.5246,1.8045 C1.1576,1.3585 1.7926,1.1095 2.3366,0.9955" id="Stroke-185" stroke="#52267D"></path>
            </g>
            <g id="Group-190" transform="translate(54.000000, 107.467000)">
                <path d="M7.1252,38.8524 C5.5602,31.5814 9.1672,17.8734 9.8552,14.4944 L12.5862,0.9524 L13.6082,0.9824 C14.9042,1.0204 15.8452,2.4564 15.6232,3.7364 L13.5872,15.4924 C12.8982,19.4724 11.7632,37.9614 18.5922,42.1404 C20.0492,43.0324 22.4742,42.5454 23.3942,42.1394 C26.7402,40.6594 27.8112,36.5704 28.6302,33.2734 C30.3282,26.4514 29.3182,21.0264 29.1452,15.6334 L28.9932,8.8894 C28.9662,7.6704 29.9722,6.4074 31.1882,6.4424 L32.4302,6.4784 L34.2682,20.1534 C34.8262,24.0484 36.1642,37.5394 28.0612,43.6084 C27.9142,43.7174 29.9702,44.2414 29.3392,45.2834 C26.8342,49.4244 19.9132,49.8884 18.5612,51.6534 C13.3542,58.4494 17.6092,73.3744 17.6092,73.3744 C17.6092,73.3744 12.1192,70.9964 8.7692,67.8124 C0.9362,60.3694 0.2202,49.8974 0.2722,46.8224 C0.3352,43.1434 1.3672,40.8904 2.5972,39.5634" id="Fill-187" fill="#F3E3FF"></path>
                <path d="M7.1252,38.8524 C5.5602,31.5814 9.1672,17.8734 9.8552,14.4944 L12.5862,0.9524 L13.6082,0.9824 C14.9042,1.0204 15.8452,2.4564 15.6232,3.7364 L13.5872,15.4924 C12.8982,19.4724 11.7632,37.9614 18.5922,42.1404 C20.0492,43.0324 22.4742,42.5454 23.3942,42.1394 C26.7402,40.6594 27.8112,36.5704 28.6302,33.2734 C30.3282,26.4514 29.3182,21.0264 29.1452,15.6334 L28.9932,8.8894 C28.9662,7.6704 29.9722,6.4074 31.1882,6.4424 L32.4302,6.4784 L34.2682,20.1534 C34.8262,24.0484 36.1642,37.5394 28.0612,43.6084 C27.9142,43.7174 29.9702,44.2414 29.3392,45.2834 C26.8342,49.4244 19.9132,49.8884 18.5612,51.6534 C13.3542,58.4494 17.6092,73.3744 17.6092,73.3744 C17.6092,73.3744 12.1192,70.9964 8.7692,67.8124 C0.9362,60.3694 0.2202,49.8974 0.2722,46.8224 C0.3352,43.1434 1.3672,40.8904 2.5972,39.5634" id="Stroke-189" stroke="#52267D"></path>
            </g>
            <path d="M126.2355,154.2471 C126.2355,154.2471 127.4155,153.0151 126.8225,151.2971 C126.6415,150.7721 125.9485,150.3061 125.9485,150.3061 C125.9485,150.3061 124.1585,150.5651 124.4975,151.7771 C124.9855,153.5211 126.2355,154.2471 126.2355,154.2471" id="Fill-191" fill="#FFFFFF"></path>
            <path d="M126.2355,154.2471 C126.2355,154.2471 127.4155,153.0151 126.8225,151.2971 C126.6415,150.7721 125.9485,150.3061 125.9485,150.3061 C125.9485,150.3061 124.1585,150.5651 124.4975,151.7771 C124.9855,153.5211 126.2355,154.2471 126.2355,154.2471 Z" id="Stroke-193" stroke="#52267D"></path>
            <path d="M125.9093,152.4776 C125.9093,152.4776 126.3223,152.0456 126.1143,151.4436 C126.0513,151.2586 125.8073,151.0956 125.8073,151.0956 C125.8073,151.0956 125.1803,151.1866 125.2993,151.6116 C125.4713,152.2236 125.9093,152.4776 125.9093,152.4776" id="Fill-195" fill="#F3E3FF"></path>
            <path d="M116.6144,163.0381 C116.6144,163.0381 115.6014,160.5311 118.2424,158.9711 C118.7344,158.6801 119.4264,158.4441 119.4264,158.4441 C119.4264,158.4441 121.8634,160.4901 120.4974,161.3751 C118.8184,162.4621 116.6144,163.0381 116.6144,163.0381" id="Fill-197" fill="#FFFFFF"></path>
            <path d="M116.6144,163.0381 C116.6144,163.0381 115.6014,160.5311 118.2424,158.9711 C118.7344,158.6801 119.4264,158.4441 119.4264,158.4441 C119.4264,158.4441 121.8634,160.4901 120.4974,161.3751 C118.8184,162.4621 116.6144,163.0381 116.6144,163.0381 Z" id="Stroke-199" stroke="#52267D"></path>
            <path d="M117.5451,162.1328 C117.5451,162.1328 116.9831,160.7428 118.4471,159.8778 C118.7211,159.7158 119.1051,159.5858 119.1051,159.5858 C119.1051,159.5858 120.4561,160.7208 119.6981,161.2108 C118.7681,161.8138 117.5451,162.1328 117.5451,162.1328" id="Fill-201" fill="#F3E3FF"></path>
            <path d="M124.7658,155.1612 C124.7658,155.1612 126.5968,156.8662 124.7508,158.2892 C123.9628,158.8972 123.0678,158.9102 123.0678,158.9102 C123.0678,158.9102 121.7838,157.4552 122.4698,156.8542 C123.6668,155.8072 124.7658,155.1612 124.7658,155.1612" id="Fill-203" fill="#FFFFFF"></path>
            <path d="M124.7658,155.1612 C124.7658,155.1612 126.5968,156.8662 124.7508,158.2892 C123.9628,158.8972 123.0678,158.9102 123.0678,158.9102 C123.0678,158.9102 121.7838,157.4552 122.4698,156.8542 C123.6668,155.8072 124.7658,155.1612 124.7658,155.1612 Z" id="Stroke-205" stroke="#52267D"></path>
            <path d="M124.4582,156.3233 C124.4582,156.3233 125.2702,157.0783 124.4522,157.7093 C124.1032,157.9773 123.7062,157.9833 123.7062,157.9833 C123.7062,157.9833 123.1372,157.3393 123.4412,157.0733 C123.9722,156.6093 124.4582,156.3233 124.4582,156.3233" id="Fill-207" fill="#F3E3FF"></path>
            <path d="M107.5588,164.0772 C107.5588,164.0772 107.0028,161.8552 109.4548,161.0512 C111.9058,160.2472 112.5358,160.9942 112.5358,160.9942 C112.5358,160.9942 113.8118,163.2912 112.5908,163.9832 C111.3718,164.6752 107.5588,164.0772 107.5588,164.0772" id="Fill-209" fill="#FFFFFF"></path>
            <path d="M107.5588,164.0772 C107.5588,164.0772 107.0028,161.8552 109.4548,161.0512 C111.9058,160.2472 112.5358,160.9942 112.5358,160.9942 C112.5358,160.9942 113.8118,163.2912 112.5908,163.9832 C111.3718,164.6752 107.5588,164.0772 107.5588,164.0772 Z" id="Stroke-211" stroke="#52267D"></path>
            <path d="M108.7111,163.6094 C108.7111,163.6094 108.4231,162.4544 109.6971,162.0364 C110.9721,161.6184 111.3001,162.0054 111.3001,162.0054 C111.3001,162.0054 111.9631,163.2014 111.3281,163.5604 C110.6941,163.9214 108.7111,163.6094 108.7111,163.6094" id="Fill-213" fill="#F3E3FF"></path>
            <path d="M65.9601,111.7227 C65.9601,111.7227 69.7681,114.0247 75.2681,112.2077 C74.8461,113.8857 73.9851,117.2557 73.9851,117.2557 C73.9851,117.2557 68.8981,118.6557 65.0791,116.0937 C65.5431,113.8667 65.9601,111.7227 65.9601,111.7227" id="Fill-215" fill="#FFFFFF"></path>
            <path d="M65.9601,111.7227 C65.9601,111.7227 69.7681,114.0247 75.2681,112.2077 C74.8461,113.8857 73.9851,117.2557 73.9851,117.2557 C73.9851,117.2557 68.8981,118.6557 65.0791,116.0937 C65.5431,113.8667 65.9601,111.7227 65.9601,111.7227 Z" id="Stroke-217" stroke="#52267D"></path>
            <path d="M95.214,102.7315 C95.214,102.7315 95.092,100.8695 93.269,100.0785 C92.713,99.8355 91.194,99.7305 91.194,99.7305 C91.194,99.7305 90.71,101.6845 91.938,102.3075 C93.705,103.2035 95.214,102.7315 95.214,102.7315" id="Fill-219" fill="#FFFFFF"></path>
            <path d="M95.214,102.7315 C95.214,102.7315 95.092,100.8695 93.269,100.0785 C92.713,99.8355 91.194,99.7305 91.194,99.7305 C91.194,99.7305 90.71,101.6845 91.938,102.3075 C93.705,103.2035 95.214,102.7315 95.214,102.7315 Z" id="Stroke-221" stroke="#52267D"></path>
            <path d="M90.5607,101.6465 C90.5607,101.6465 90.5817,99.1155 87.7467,98.6635 C87.2177,98.5785 86.5347,98.6115 86.5347,98.6115 C86.5347,98.6115 85.1147,101.2305 86.6077,101.5315 C88.4437,101.9015 90.5607,101.6465 90.5607,101.6465" id="Fill-223" fill="#FFFFFF"></path>
            <path d="M90.5607,101.6465 C90.5607,101.6465 90.5817,99.1155 87.7467,98.6635 C87.2177,98.5785 86.5347,98.6115 86.5347,98.6115 C86.5347,98.6115 85.1147,101.2305 86.6077,101.5315 C88.4437,101.9015 90.5607,101.6465 90.5607,101.6465 Z" id="Stroke-225" stroke="#52267D"></path>
            <path d="M85.1642,101.6729 C85.1642,101.6729 84.8002,98.8639 82.2742,99.6259 C81.1962,99.9519 80.5952,100.7689 80.5952,100.7689 C80.5952,100.7689 81.0892,102.9069 82.0932,102.6709 C83.8472,102.2579 85.1642,101.6729 85.1642,101.6729" id="Fill-227" fill="#FFFFFF"></path>
            <path d="M85.1642,101.6729 C85.1642,101.6729 84.8002,98.8639 82.2742,99.6259 C81.1962,99.9519 80.5952,100.7689 80.5952,100.7689 C80.5952,100.7689 81.0892,102.9069 82.0932,102.6709 C83.8472,102.2579 85.1642,101.6729 85.1642,101.6729 Z" id="Stroke-229" stroke="#52267D"></path>
            <path d="M59.7717,96.1006 C59.7717,96.1006 59.8937,95.1196 60.8827,94.7556 C61.1847,94.6456 61.6487,94.7866 61.6487,94.7866 C61.6487,94.7866 62.1877,95.6866 61.5187,95.9776 C60.5557,96.3966 59.7717,96.1006 59.7717,96.1006" id="Fill-231" fill="#F3E3FF"></path>
            <path d="M64.2658,95.6016 C64.2658,95.6016 64.3568,93.7826 66.4118,93.5776 C66.7948,93.5386 67.2848,93.5906 67.2848,93.5906 C67.2848,93.5906 68.1948,95.5316 67.1098,95.6846 C65.7758,95.8726 64.2658,95.6016 64.2658,95.6016" id="Fill-233" fill="#F3E3FF"></path>
            <path d="M70.0861,96.6416 C70.0861,96.6416 70.3881,95.0476 71.8071,95.5676 C72.4121,95.7896 72.7291,96.2766 72.7291,96.2766 C72.7291,96.2766 72.3751,97.4836 71.8091,97.3146 C70.8191,97.0206 70.0861,96.6416 70.0861,96.6416" id="Fill-235" fill="#F3E3FF"></path>
            <path d="M94.3117,102.2305 C94.3117,102.2305 94.2477,101.2465 93.2837,100.8275 C92.9897,100.6995 92.1867,100.6435 92.1867,100.6435 C92.1867,100.6435 91.9307,101.6765 92.5797,102.0055 C93.5137,102.4795 94.3117,102.2305 94.3117,102.2305" id="Fill-237" fill="#F3E3FF"></path>
            <path d="M89.4699,101.168 C89.4699,101.168 89.4819,99.769 87.9129,99.519 C87.6209,99.472 87.2429,99.49 87.2429,99.49 C87.2429,99.49 86.4579,100.938 87.2839,101.105 C88.2989,101.309 89.4699,101.168 89.4699,101.168" id="Fill-239" fill="#F3E3FF"></path>
            <path d="M84.175,101.4532 C84.175,101.4532 83.976,99.9172 82.594,100.3342 C82.004,100.5122 81.675,100.9592 81.675,100.9592 C81.675,100.9592 81.946,102.1292 82.494,102.0002 C83.454,101.7742 84.175,101.4532 84.175,101.4532" id="Fill-241" fill="#F3E3FF"></path>
            <path d="M77.3888,116.8545 C77.3888,116.8545 82.1618,117.7425 86.7538,116.7555 C87.1258,119.2475 87.3568,121.1255 87.3568,121.1255 C87.3568,121.1255 84.1308,123.1805 78.3258,121.7645 C77.7298,118.5625 77.3888,116.8545 77.3888,116.8545" id="Fill-243" fill="#FFFFFF"></path>
            <path d="M77.3888,116.8545 C77.3888,116.8545 82.1618,117.7425 86.7538,116.7555 C87.1258,119.2475 87.3568,121.1255 87.3568,121.1255 C87.3568,121.1255 84.1308,123.1805 78.3258,121.7645 C77.7298,118.5625 77.3888,116.8545 77.3888,116.8545 Z" id="Stroke-245" stroke="#52267D"></path>
            <path d="M85.4592,112.2705 L90.9022,112.4295 C90.9822,109.6875 88.8252,107.4005 86.0832,107.3205 L85.6052,107.3065 C84.2332,107.2665 83.0902,108.3455 83.0502,109.7155 C83.0102,111.0865 84.0892,112.2305 85.4592,112.2705" id="Fill-247" fill="#F3E3FF"></path>
            <path d="M86.0588,112.1944 L90.8118,112.3344 C90.8738,110.1794 89.1788,108.3824 87.0258,108.3194 L85.8968,108.2874 C84.8958,108.2574 84.0608,109.0454 84.0318,110.0464 C83.9978,111.1994 84.9058,112.1614 86.0588,112.1944" id="Fill-249" fill="#FFFFFF"></path>
            <path d="M86.0588,112.1944 L90.8118,112.3344 C90.8738,110.1794 89.1788,108.3824 87.0258,108.3194 L85.8968,108.2874 C84.8958,108.2574 84.0608,109.0454 84.0318,110.0464 C83.9978,111.1994 84.9058,112.1614 86.0588,112.1944 Z" id="Stroke-251" stroke="#52267D"></path>
            <path d="M89.6164,110.0518 C89.5984,110.6538 89.0964,111.1268 88.4954,111.1098 C87.8934,111.0918 87.4204,110.5898 87.4374,109.9888 C87.4554,109.3868 87.9574,108.9128 88.5584,108.9308 C89.1604,108.9478 89.6344,109.4498 89.6164,110.0518" id="Fill-253" fill="#52267D"></path>
            <path d="M66.7619,107.0147 L61.3189,106.8557 C61.3989,104.1147 63.6869,101.9557 66.4279,102.0357 L66.9069,102.0507 C68.2779,102.0897 69.3569,103.2347 69.3169,104.6047 C69.2769,105.9757 68.1329,107.0547 66.7619,107.0147" id="Fill-255" fill="#F3E3FF"></path>
            <path d="M66.3058,106.9082 L61.4148,106.7642 C61.4778,104.6112 63.2758,102.9162 65.4288,102.9782 L66.4198,103.0082 C67.4968,103.0392 68.3448,103.9372 68.3138,105.0142 C68.2818,106.0922 67.3828,106.9392 66.3058,106.9082" id="Fill-257" fill="#FFFFFF"></path>
            <path d="M66.3058,106.9082 L61.4148,106.7642 C61.4778,104.6112 63.2758,102.9162 65.4288,102.9782 L66.4198,103.0082 C67.4968,103.0392 68.3448,103.9372 68.3138,105.0142 C68.2818,106.0922 67.3828,106.9392 66.3058,106.9082 Z" id="Stroke-259" stroke="#52267D"></path>
            <path d="M65.0197,105.7139 C65.0017,106.3159 65.4757,106.8179 66.0777,106.8349 C66.6787,106.8529 67.1807,106.3789 67.1987,105.7769 C67.2157,105.1759 66.7427,104.6739 66.1407,104.6559 C65.5397,104.6389 65.0377,105.1119 65.0197,105.7139" id="Fill-261" fill="#52267D"></path>
            <path d="M97.4269,113.7539 C97.1189,113.6779 96.8479,113.4979 96.6569,113.2449 L96.3059,112.7749 L97.1149,112.9729 L97.5899,113.0899 C97.7739,113.1349 97.8849,113.3189 97.8399,113.5029 C97.7949,113.6869 97.6109,113.7989 97.4269,113.7539" id="Fill-263" fill="#52267D"></path>
            <path d="M55.5881,107.4336 C55.9001,107.3756 56.1811,107.2126 56.3861,106.9706 L56.7641,106.5226 L55.9451,106.6726 L55.4641,106.7616 C55.2781,106.7956 55.1551,106.9736 55.1901,107.1596 C55.2241,107.3446 55.4021,107.4676 55.5881,107.4336" id="Fill-265" fill="#52267D"></path>
            <path d="M66.4035,112.4434 C66.4035,112.4434 70.4105,114.2904 74.5485,112.8304 C74.0495,115.2174 73.6315,116.4314 73.6315,116.4314 C73.6315,116.4314 71.1645,116.5054 69.5445,116.1354 C67.2295,115.6094 66.3425,114.5244 66.4035,112.4434" id="Fill-267" fill="#E1F2FF"></path>
            <g id="Group-272" transform="translate(65.000000, 113.467000)">
                <path d="M6.9582,2.2186 C6.9582,2.2186 3.2572,2.4176 0.4432,0.8536" id="Fill-269" fill="#FFFFFF"></path>
                <path d="M6.9582,2.2186 C6.9582,2.2186 3.2572,2.4176 0.4432,0.8536" id="Stroke-271" stroke="#52267D"></path>
            </g>
            <path d="M84.9709,117.6172 C84.9709,117.6172 81.3429,118.5352 78.1869,117.8072 C78.7169,120.1882 79.0129,120.9382 79.0129,120.9382 C79.0129,120.9382 83.7939,120.4422 84.9709,117.6172" id="Fill-273" fill="#E1F2FF"></path>
            <g id="Group-278" transform="translate(81.000000, 150.467000)">
                <path d="M1.0597,0.659 C1.0597,0.659 0.8367,0.809 0.5227,0.986" id="Fill-275" fill="#F3E3FF"></path>
                <path d="M1.0597,0.659 C1.0597,0.659 0.8367,0.809 0.5227,0.986" id="Stroke-277" stroke="#52267D" stroke-width="0.5"></path>
            </g>
            <g id="Group-282" transform="translate(77.000000, 118.467000)">
                <path d="M8.2785,0.5213 C8.2785,0.5213 4.6355,1.1013 0.8035,0.5313" id="Fill-279" fill="#FFFFFF"></path>
                <path d="M8.2785,0.5213 C8.2785,0.5213 4.6355,1.1013 0.8035,0.5313" id="Stroke-281" stroke="#52267D"></path>
            </g>
            <path d="M77.1662,193.333 C77.1662,193.333 76.2292,192.522 74.9212,193.534 C73.7262,194.458 72.8052,195.913 73.3242,196.077 C73.8432,196.242 74.7592,196.413 75.7302,196.265 C76.5762,196.135 77.3142,196.318 77.7032,194.568 C77.8852,193.753 77.1662,193.333 77.1662,193.333" id="Fill-283" fill="#FFFFFF"></path>
            <path d="M77.1662,193.333 C77.1662,193.333 76.2292,192.522 74.9212,193.534 C73.7262,194.458 72.8052,195.913 73.3242,196.077 C73.8432,196.242 74.7592,196.413 75.7302,196.265 C76.5762,196.135 77.3142,196.318 77.7032,194.568 C77.8852,193.753 77.1662,193.333 77.1662,193.333 Z" id="Stroke-285" stroke="#52267D" stroke-width="0.5"></path>
            <path d="M76.9396,193.6123 C76.9396,193.6123 76.3556,193.1073 75.5426,193.7373 C74.7976,194.3123 74.2256,195.2173 74.5476,195.3203 C74.8716,195.4223 75.4406,195.5293 76.0456,195.4363 C76.5716,195.3553 77.0316,195.4693 77.2736,194.3813 C77.3856,193.8733 76.9396,193.6123 76.9396,193.6123" id="Fill-287" fill="#E1F2FF"></path>
            <path d="M78.5304,193.3555 C79.0404,193.3025 79.7384,194.4255 79.6454,194.7595 C79.5514,195.0935 79.4624,196.2025 78.6364,196.2985 C78.0294,196.3705 75.8644,196.5315 75.4064,196.0485 C74.9844,195.6035 75.8934,193.6305 78.5304,193.3555" id="Fill-289" fill="#FFFFFF"></path>
            <path d="M78.5304,193.3555 C79.0404,193.3025 79.7384,194.4255 79.6454,194.7595 C79.5514,195.0935 79.4624,196.2025 78.6364,196.2985 C78.0294,196.3705 75.8644,196.5315 75.4064,196.0485 C74.9844,195.6035 75.8934,193.6305 78.5304,193.3555 Z" id="Stroke-291" stroke="#52267D" stroke-width="0.5"></path>
            <path d="M78.6642,193.6651 C78.9652,193.6341 79.3772,194.2971 79.3212,194.4941 C79.2672,194.6911 79.2132,195.3451 78.7262,195.4021 C78.3682,195.4441 77.0902,195.5391 76.8202,195.2551 C76.5712,194.9921 77.1072,193.8281 78.6642,193.6651" id="Fill-293" fill="#E1F2FF"></path>
            <path d="M80.672,193.6328 C80.672,193.6328 80.24,193.3918 79.358,193.8618 C78.577,194.2788 77.412,194.9458 77.688,195.8268 C77.964,196.7078 80.397,196.4538 80.941,196.2858 C81.484,196.1168 81.84,195.5398 81.76,195.0248 C81.585,193.8988 80.672,193.6328 80.672,193.6328" id="Fill-295" fill="#FFFFFF"></path>
            <path d="M80.672,193.6328 C80.672,193.6328 80.24,193.3918 79.358,193.8618 C78.577,194.2788 77.412,194.9458 77.688,195.8268 C77.964,196.7078 80.397,196.4538 80.941,196.2858 C81.484,196.1168 81.84,195.5398 81.76,195.0248 C81.585,193.8988 80.672,193.6328 80.672,193.6328 Z" id="Stroke-297" stroke="#52267D" stroke-width="0.5"></path>
            <path d="M80.8273,193.9463 C80.8273,193.9463 80.5713,193.8033 80.0493,194.0823 C79.5873,194.3293 78.8973,194.7243 79.0603,195.2463 C79.2233,195.7673 80.6643,195.6173 80.9863,195.5173 C81.3083,195.4173 81.5193,195.0763 81.4723,194.7703 C81.3683,194.1033 80.8273,193.9463 80.8273,193.9463" id="Fill-299" fill="#E1F2FF"></path>
            <g id="Group-304" transform="translate(66.000000, 165.467000)">
                <path d="M5.3498,0.0682 C5.3498,0.0682 5.6798,5.6982 3.9948,14.4832 C2.4258,22.6602 -0.0052,25.1692 0.1048,27.3032 C0.1908,28.9582 0.8428,30.4892 2.4978,30.5372 L7.4368,30.6812 C9.7428,30.7492 11.8188,29.3372 12.6228,27.1742 C13.2718,25.4332 13.9628,23.0592 14.4218,20.0462 C14.9218,15.9422 14.9608,11.8122 14.9628,9.3872" id="Fill-301" fill="#9452BA"></path>
                <path d="M5.3498,0.0682 C5.3498,0.0682 5.6798,5.6982 3.9948,14.4832 C2.4258,22.6602 -0.0052,25.1692 0.1048,27.3032 C0.1908,28.9582 0.8428,30.4892 2.4978,30.5372 L7.4368,30.6812 C9.7428,30.7492 11.8188,29.3372 12.6228,27.1742 C13.2718,25.4332 13.9628,23.0592 14.4218,20.0462 C14.9218,15.9422 14.9608,11.8122 14.9628,9.3872" id="Stroke-303" stroke="#52267D" stroke-width="2"></path>
            </g>
            <g id="Group-308" transform="translate(91.000000, 169.467000)">
                <path d="M5.5627,0.5223 C3.8857,1.8823 2.9697,4.1643 2.9207,6.2833 C2.8557,9.1123 4.3917,12.7603 3.2137,17.4313 C2.1657,21.5913 0.2987,22.2763 0.7457,26.0483 C0.8257,26.7303 1.4197,27.2353 2.1057,27.2553 L7.6087,27.4173 C10.1417,27.4903 12.3637,25.7173 12.8507,23.2303 C14.1517,16.5903 13.4907,10.2683 12.7427,5.4093" id="Fill-305" fill="#9452BA"></path>
                <path d="M5.5627,0.5223 C3.8857,1.8823 2.9697,4.1643 2.9207,6.2833 C2.8557,9.1123 4.3917,12.7603 3.2137,17.4313 C2.1657,21.5913 0.2987,22.2763 0.7457,26.0483 C0.8257,26.7303 1.4197,27.2353 2.1057,27.2553 L7.6087,27.4173 C10.1417,27.4903 12.3637,25.7173 12.8507,23.2303 C14.1517,16.5903 13.4907,10.2683 12.7427,5.4093" id="Stroke-307" stroke="#52267D" stroke-width="2"></path>
            </g>
            <polyline id="Stroke-309" stroke="#52267D" stroke-width="0.5" points="97.4621 176.2549 97.7921 176.0309 98.8311 176.2969 97.6481 177.0049 96.2691 176.2759 97.7561 175.1559 98.4101 175.3969"></polyline>
            <path d="M67.1769,193.0411 C67.1769,193.0411 66.2389,192.2301 64.9309,193.2421 C63.7369,194.1661 62.8159,195.6221 63.3339,195.7861 C63.8529,195.9501 64.7689,196.1221 65.7409,195.9731 C66.5859,195.8431 67.3249,196.0271 67.7139,194.2761 C67.8949,193.4611 67.1769,193.0411 67.1769,193.0411" id="Fill-311" fill="#FFFFFF"></path>
            <path d="M67.1769,193.0411 C67.1769,193.0411 66.2389,192.2301 64.9309,193.2421 C63.7369,194.1661 62.8159,195.6221 63.3339,195.7861 C63.8529,195.9501 64.7689,196.1221 65.7409,195.9731 C66.5859,195.8431 67.3249,196.0271 67.7139,194.2761 C67.8949,193.4611 67.1769,193.0411 67.1769,193.0411 Z" id="Stroke-313" stroke="#52267D"></path>
            <path d="M66.9494,193.3203 C66.9494,193.3203 66.3654,192.8153 65.5524,193.4453 C64.8084,194.0203 64.2354,194.9253 64.5584,195.0283 C64.8814,195.1313 65.4514,195.2373 66.0554,195.1443 C66.5824,195.0633 67.0424,195.1783 67.2834,194.0893 C67.3964,193.5823 66.9494,193.3203 66.9494,193.3203" id="Fill-315" fill="#E1F2FF"></path>
            <polyline id="Stroke-317" stroke="#52267D" stroke-width="0.5" points="75.1554 178.71 73.1704 179.266 73.3774 181.096 75.3874 181.302 76.3574 180.244 75.1714 179.54 74.1644 179.801 74.7784 180.524"></polyline>
            <g id="Group-381" transform="translate(33.000000, 102.467000)" stroke="#F3E3FF" stroke-width="0.25">
                <path d="M1.7551,15.0057 C1.7461,15.3017 1.9801,15.5487 2.2761,15.5577 C2.5701,15.5657 2.8171,15.3327 2.8261,15.0367" id="Stroke-319"></path>
                <path d="M0.6838,14.9744 C0.6748,15.2704 0.9088,15.5174 1.2048,15.5264 C1.4998,15.5344 1.7458,15.3014 1.7548,15.0054" id="Stroke-321"></path>
                <path d="M1.2043,15.5262 C1.1953,15.8212 1.4283,16.0682 1.7243,16.0772 C2.0193,16.0862 2.2663,15.8532 2.2753,15.5572" id="Stroke-323"></path>
                <path d="M22.2912,15.1033 C22.6552,15.3443 23.1452,15.2453 23.3862,14.8803 C23.6272,14.5173 23.5272,14.0273 23.1632,13.7873" id="Stroke-325"></path>
                <path d="M22.5138,16.1981 C22.8768,16.4381 23.3678,16.3391 23.6078,15.9751 C23.8488,15.6121 23.7488,15.1221 23.3858,14.8811" id="Stroke-327"></path>
                <path d="M47.1828,33.8377 C47.1708,34.2337 47.4838,34.5657 47.8798,34.5767 C48.2768,34.5887 48.6078,34.2757 48.6198,33.8797" id="Stroke-329"></path>
                <path d="M45.7463,33.7957 C45.7343,34.1917 46.0463,34.5237 46.4433,34.5347 C46.8403,34.5467 47.1713,34.2337 47.1833,33.8377" id="Stroke-331"></path>
                <path d="M46.4435,34.535 C46.4315,34.932 46.7445,35.263 47.1405,35.274 C47.5375,35.286 47.8685,34.973 47.8805,34.577" id="Stroke-333"></path>
                <path d="M24.3986,78.7235 C24.3866,79.1195 24.6996,79.4515 25.0956,79.4625 C25.4926,79.4745 25.8236,79.1615 25.8356,78.7655" id="Stroke-335"></path>
                <path d="M22.9621,78.6815 C22.9501,79.0775 23.2631,79.4095 23.6591,79.4205 C24.0561,79.4325 24.3871,79.1195 24.3991,78.7235" id="Stroke-337"></path>
                <path d="M23.6593,79.4207 C23.6473,79.8167 23.9603,80.1487 24.3563,80.1597 C24.7533,80.1717 25.0843,79.8587 25.0963,79.4627" id="Stroke-339"></path>
                <path d="M46.7384,10.91 C46.7254,11.347 47.0684,11.71 47.5044,11.722 C47.9404,11.735 48.3034,11.392 48.3164,10.957" id="Stroke-341"></path>
                <path d="M45.9259,11.6766 C45.9129,12.1126 46.2559,12.4766 46.6919,12.4886 C47.1279,12.5016 47.4909,12.1586 47.5039,11.7226" id="Stroke-343"></path>
                <path d="M36.2414,24.5565 C36.2254,25.0865 36.6424,25.5285 37.1734,25.5435 C37.7024,25.5595 38.1444,25.1425 38.1594,24.6125" id="Stroke-345"></path>
                <path d="M35.2541,25.4881 C35.2391,26.0171 35.6561,26.4591 36.1861,26.4741 C36.7151,26.4901 37.1571,26.0731 37.1731,25.5441" id="Stroke-347"></path>
                <path d="M23.006,0.3026 C22.995,0.6566 23.275,0.9526 23.629,0.9636 C23.984,0.9736 24.278,0.6956 24.289,0.3406" id="Stroke-349"></path>
                <path d="M22.3459,0.9256 C22.3349,1.2796 22.6149,1.5756 22.9689,1.5856 C23.3229,1.5966 23.6179,1.3176 23.6289,0.9636" id="Stroke-351"></path>
                <path d="M81.4963,66.743 C81.7503,67.062 82.2163,67.114 82.5343,66.859 C82.8533,66.605 82.9053,66.14 82.6503,65.821" id="Stroke-353"></path>
                <path d="M81.3791,67.7811 C81.6341,68.1001 82.0991,68.1521 82.4181,67.8981 C82.7361,67.6431 82.7891,67.1781 82.5341,66.8591" id="Stroke-355"></path>
                <path d="M52.4377,55.6893 C52.6237,56.1293 53.1317,56.3363 53.5727,56.1513 C54.0137,55.9653 54.2207,55.4573 54.0357,55.0163" id="Stroke-357"></path>
                <path d="M50.84,56.3621 C51.026,56.8031 51.534,57.0101 51.975,56.8241 C52.416,56.6381 52.623,56.1301 52.438,55.6891" id="Stroke-359"></path>
                <path d="M51.9748,56.8241 C52.1618,57.2651 52.6688,57.4721 53.1108,57.2871 C53.5518,57.1001 53.7588,56.5931 53.5728,56.1511" id="Stroke-361"></path>
                <path d="M50.3771,57.4979 C50.5641,57.9379 51.0711,58.1449 51.5131,57.9599 C51.9541,57.7739 52.1611,57.2659 51.9751,56.8239" id="Stroke-363"></path>
                <path d="M53.1105,57.2869 C53.2965,57.7269 53.8045,57.9339 54.2465,57.7489 C54.6865,57.5629 54.8935,57.0549 54.7085,56.6129" id="Stroke-365"></path>
                <path d="M38.7511,7.2528 C38.7371,7.7358 39.1171,8.1388 39.6011,8.1528 C40.0831,8.1668 40.4851,7.7868 40.5001,7.3048" id="Stroke-367"></path>
                <path d="M37.4836,40.2821 C37.4696,40.7651 37.8496,41.1681 38.3326,41.1821 C38.8156,41.1961 39.2176,40.8161 39.2326,40.3341" id="Stroke-369"></path>
                <path d="M47.924,22.3602 C47.913,22.7252 48.201,23.0312 48.567,23.0422 C48.933,23.0522 49.238,22.7642 49.249,22.3982" id="Stroke-371"></path>
                <path d="M64.1359,7.7694 C64.1269,8.0434 64.3439,8.2734 64.6179,8.2814 C64.8929,8.2894 65.1209,8.0734 65.1289,7.7984" id="Stroke-373"></path>
                <path d="M66.1369,80.9608 C66.2059,81.4388 66.6489,81.7708 67.1269,81.7018 C67.6059,81.6328 67.9369,81.1898 67.8679,80.7118" id="Stroke-375"></path>
                <path d="M41.798,86.6951 C41.782,87.2241 42.199,87.6671 42.729,87.6811 C43.259,87.6971 43.7,87.2801 43.716,86.7511" id="Stroke-377"></path>
                <path d="M40.8107,87.6258 C40.7947,88.1548 41.2117,88.5978 41.7427,88.6128 C42.2717,88.6288 42.7137,88.2118 42.7287,87.6818" id="Stroke-379"></path>
            </g>
            <path d="M68.5402,193.0645 C69.0502,193.0105 69.7492,194.1345 69.6552,194.4675 C69.5622,194.8015 69.4722,195.9105 68.6472,196.0065 C68.0392,196.0785 65.8742,196.2395 65.4172,195.7565 C64.9952,195.3115 65.9032,193.3385 68.5402,193.0645" id="Fill-382" fill="#FFFFFF"></path>
            <path d="M68.5402,193.0645 C69.0502,193.0105 69.7492,194.1345 69.6552,194.4675 C69.5622,194.8015 69.4722,195.9105 68.6472,196.0065 C68.0392,196.0785 65.8742,196.2395 65.4172,195.7565 C64.9952,195.3115 65.9032,193.3385 68.5402,193.0645 Z" id="Stroke-384" stroke="#52267D"></path>
            <path d="M68.674,193.3741 C68.975,193.3431 69.387,194.0051 69.332,194.2021 C69.277,194.3991 69.224,195.0531 68.737,195.1101 C68.378,195.1521 67.101,195.2481 66.83,194.9631 C66.582,194.7001 67.118,193.5361 68.674,193.3741" id="Fill-386" fill="#E1F2FF"></path>
            <path d="M70.3283,193.6592 C70.3283,193.6592 69.9463,193.4452 69.1663,193.8622 C68.4753,194.2302 67.4453,194.8212 67.6893,195.5992 C67.9333,196.3792 70.0853,196.1542 70.5663,196.0052 C71.0473,195.8562 71.3613,195.3462 71.2903,194.8892 C71.1363,193.8932 70.3283,193.6592 70.3283,193.6592" id="Fill-388" fill="#FFFFFF"></path>
            <path d="M70.3283,193.6592 C70.3283,193.6592 69.9463,193.4452 69.1663,193.8622 C68.4753,194.2302 67.4453,194.8212 67.6893,195.5992 C67.9333,196.3792 70.0853,196.1542 70.5663,196.0052 C71.0473,195.8562 71.3613,195.3462 71.2903,194.8892 C71.1363,193.8932 70.3283,193.6592 70.3283,193.6592 Z" id="Stroke-390" stroke="#52267D"></path>
            <path d="M70.466,193.9366 C70.466,193.9366 70.239,193.8096 69.778,194.0566 C69.369,194.2746 68.759,194.6236 68.904,195.0856 C69.048,195.5466 70.321,195.4146 70.607,195.3266 C70.892,195.2376 71.077,194.9356 71.035,194.6656 C70.945,194.0756 70.466,193.9366 70.466,193.9366" id="Fill-392" fill="#E1F2FF"></path>
            <path d="M50.0519,193.2813 C50.0519,193.2813 49.6699,193.0673 48.8899,193.4843 C48.1999,193.8523 47.1689,194.4433 47.4129,195.2213 C47.6569,196.0013 49.8089,195.7763 50.2899,195.6273 C50.7709,195.4783 51.0849,194.9683 51.0149,194.5113 C50.8599,193.5153 50.0519,193.2813 50.0519,193.2813" id="Fill-394" fill="#FFFFFF"></path>
            <path d="M50.0519,193.2813 C50.0519,193.2813 49.6699,193.0673 48.8899,193.4843 C48.1999,193.8523 47.1689,194.4433 47.4129,195.2213 C47.6569,196.0013 49.8089,195.7763 50.2899,195.6273 C50.7709,195.4783 51.0849,194.9683 51.0149,194.5113 C50.8599,193.5153 50.0519,193.2813 50.0519,193.2813 Z" id="Stroke-396" stroke="#52267D"></path>
            <path d="M50.1896,193.5586 C50.1896,193.5586 49.9636,193.4316 49.5016,193.6786 C49.0926,193.8966 48.4826,194.2456 48.6276,194.7076 C48.7716,195.1686 50.0456,195.0366 50.3306,194.9476 C50.6156,194.8596 50.8016,194.5576 50.7596,194.2876 C50.6686,193.6976 50.1896,193.5586 50.1896,193.5586" id="Fill-398" fill="#E1F2FF"></path>
            <path d="M52.4123,192.8067 C52.9223,192.7537 53.6203,193.8777 53.5273,194.2107 C53.4333,194.5447 53.3443,195.6537 52.5183,195.7497 C51.9113,195.8217 49.7463,195.9827 49.2883,195.4997 C48.8663,195.0547 49.7753,193.0817 52.4123,192.8067" id="Fill-400" fill="#FFFFFF"></path>
            <path d="M52.4123,192.8067 C52.9223,192.7537 53.6203,193.8777 53.5273,194.2107 C53.4333,194.5447 53.3443,195.6537 52.5183,195.7497 C51.9113,195.8217 49.7463,195.9827 49.2883,195.4997 C48.8663,195.0547 49.7753,193.0817 52.4123,192.8067 Z" id="Stroke-402" stroke="#52267D"></path>
            <path d="M52.5461,193.1172 C52.8471,193.0852 53.2591,193.7482 53.2031,193.9452 C53.1491,194.1422 53.0951,194.7962 52.6081,194.8532 C52.2501,194.8952 50.9731,194.9902 50.7021,194.7062 C50.4531,194.4432 50.9891,193.2792 52.5461,193.1172" id="Fill-404" fill="#E1F2FF"></path>
            <path d="M93.8947,193.8213 C93.8947,193.8213 92.9577,193.0103 91.6497,194.0223 C90.4547,194.9463 89.5337,196.4013 90.0527,196.5663 C90.5717,196.7303 91.4877,196.9013 92.4587,196.7533 C93.3047,196.6233 94.0427,196.8063 94.4317,195.0563 C94.6137,194.2413 93.8947,193.8213 93.8947,193.8213" id="Fill-406" fill="#FFFFFF"></path>
            <path d="M93.8947,193.8213 C93.8947,193.8213 92.9577,193.0103 91.6497,194.0223 C90.4547,194.9463 89.5337,196.4013 90.0527,196.5663 C90.5717,196.7303 91.4877,196.9013 92.4587,196.7533 C93.3047,196.6233 94.0427,196.8063 94.4317,195.0563 C94.6137,194.2413 93.8947,193.8213 93.8947,193.8213 Z" id="Stroke-408" stroke="#52267D" stroke-width="0.5"></path>
            <path d="M93.6681,194.1006 C93.6681,194.1006 93.0841,193.5956 92.2711,194.2256 C91.5261,194.8006 90.9541,195.7056 91.2761,195.8086 C91.6001,195.9106 92.1691,196.0176 92.7741,195.9246 C93.3001,195.8436 93.7601,195.9576 94.0021,194.8696 C94.1141,194.3616 93.6681,194.1006 93.6681,194.1006" id="Fill-410" fill="#E1F2FF"></path>
            <path d="M95.259,193.8438 C95.769,193.7908 96.467,194.9148 96.374,195.2478 C96.28,195.5818 96.191,196.6908 95.365,196.7868 C94.758,196.8588 92.593,197.0198 92.135,196.5368 C91.713,196.0918 92.622,194.1188 95.259,193.8438" id="Fill-412" fill="#FFFFFF"></path>
            <path d="M95.259,193.8438 C95.769,193.7908 96.467,194.9148 96.374,195.2478 C96.28,195.5818 96.191,196.6908 95.365,196.7868 C94.758,196.8588 92.593,197.0198 92.135,196.5368 C91.713,196.0918 92.622,194.1188 95.259,193.8438 Z" id="Stroke-414" stroke="#52267D" stroke-width="0.5"></path>
            <path d="M95.3927,194.1543 C95.6937,194.1223 96.1057,194.7853 96.0497,194.9823 C95.9957,195.1793 95.9417,195.8333 95.4547,195.8903 C95.0967,195.9323 93.8187,196.0273 93.5487,195.7433 C93.2997,195.4803 93.8357,194.3163 95.3927,194.1543" id="Fill-416" fill="#E1F2FF"></path>
            <path d="M97.0461,194.4395 C97.0461,194.4395 96.6641,194.2255 95.8841,194.6425 C95.1941,195.0105 94.1641,195.6015 94.4071,196.3795 C94.6511,197.1595 96.8031,196.9345 97.2841,196.7855 C97.7661,196.6365 98.0801,196.1265 98.0091,195.6695 C97.8551,194.6735 97.0461,194.4395 97.0461,194.4395" id="Fill-418" fill="#FFFFFF"></path>
            <path d="M97.0461,194.4395 C97.0461,194.4395 96.6641,194.2255 95.8841,194.6425 C95.1941,195.0105 94.1641,195.6015 94.4071,196.3795 C94.6511,197.1595 96.8031,196.9345 97.2841,196.7855 C97.7661,196.6365 98.0801,196.1265 98.0091,195.6695 C97.8551,194.6735 97.0461,194.4395 97.0461,194.4395 Z" id="Stroke-420" stroke="#52267D" stroke-width="0.5"></path>
            <path d="M97.1838,194.7168 C97.1838,194.7168 96.9578,194.5898 96.4968,194.8368 C96.0868,195.0548 95.4778,195.4038 95.6218,195.8658 C95.7658,196.3268 97.0398,196.1948 97.3258,196.1058 C97.6098,196.0178 97.7958,195.7158 97.7538,195.4458 C97.6628,194.8558 97.1838,194.7168 97.1838,194.7168" id="Fill-422" fill="#E1F2FF"></path>
            <path d="M59.0646,193.4766 C59.2276,193.3466 59.4186,193.3156 59.5736,193.3936 C60.1476,193.6856 61.5976,194.5106 61.2626,195.5596 C61.0016,196.3766 60.5046,196.1146 59.5426,196.1046 L58.8156,196.0966 C58.6666,196.0946 58.5346,196.0136 58.4566,195.8726 C58.0586,195.1636 58.3166,194.0726 59.0136,193.5176 L59.0646,193.4766 Z" id="Fill-424" fill="#FFFFFF"></path>
            <path d="M59.0646,193.4766 C59.2276,193.3466 59.4186,193.3156 59.5736,193.3936 C60.1476,193.6856 61.5976,194.5106 61.2626,195.5596 C61.0016,196.3766 60.5046,196.1146 59.5426,196.1046 L58.8156,196.0966 C58.6666,196.0946 58.5346,196.0136 58.4566,195.8726 C58.0586,195.1636 58.3166,194.0726 59.0136,193.5176 L59.0646,193.4766 Z" id="Stroke-426" stroke="#52267D"></path>
            <path d="M59.133,193.7159 C59.251,193.6209 59.39,193.5989 59.502,193.6549 C59.92,193.8669 60.974,194.4669 60.731,195.2299 C60.54,195.8229 60.18,195.6329 59.48,195.6249 L58.952,195.6189 C58.843,195.6179 58.748,195.5599 58.691,195.4569 C58.402,194.9419 58.589,194.1489 59.096,193.7449 L59.133,193.7159 Z" id="Fill-428" fill="#E1F2FF"></path>
            <path d="M55.6662,193.0606 C55.6662,193.0606 54.8002,192.1726 53.4112,193.0706 C52.1432,193.8896 51.1022,195.2616 51.6042,195.4686 C52.1072,195.6766 53.0052,195.9256 53.9862,195.8596 C54.8402,195.8016 55.5612,196.0476 56.0972,194.3366 C56.3462,193.5396 55.6662,193.0606 55.6662,193.0606" id="Fill-430" fill="#FFFFFF"></path>
            <path d="M55.6662,193.0606 C55.6662,193.0606 54.8002,192.1726 53.4112,193.0706 C52.1432,193.8896 51.1022,195.2616 51.6042,195.4686 C52.1072,195.6766 53.0052,195.9256 53.9862,195.8596 C54.8402,195.8016 55.5612,196.0476 56.0972,194.3366 C56.3462,193.5396 55.6662,193.0606 55.6662,193.0606 Z" id="Stroke-432" stroke="#52267D"></path>
            <path d="M55.4162,193.3194 C55.4162,193.3194 54.8772,192.7664 54.0132,193.3254 C53.2242,193.8354 52.5752,194.6884 52.8892,194.8184 C53.2012,194.9474 53.7602,195.1014 54.3712,195.0604 C54.9012,195.0254 55.3502,195.1784 55.6842,194.1134 C55.8392,193.6174 55.4162,193.3194 55.4162,193.3194" id="Fill-434" fill="#E1F2FF"></path>
            <path d="M110.5793,55.7647 C100.8703,38.7157 49.4263,5.0997 49.4263,5.0997" id="Stroke-436" stroke="#ACD3EF" stroke-width="2"></path>
            <path d="M163.6623,196.2383 L66.4773,196.2383 C65.3733,196.2383 64.4773,195.3423 64.4773,194.2383 L64.4773,87.6683 C64.4773,84.9953 65.5473,82.4333 67.4483,80.5543 L110.7023,37.8063 C113.1233,35.4153 117.0163,35.4153 119.4363,37.8063 L162.6913,80.5543 C164.5933,82.4333 165.6623,84.9953 165.6623,87.6683 L165.6623,194.2383 C165.6623,195.3423 164.7663,196.2383 163.6623,196.2383" id="Fill-438" fill="#FFFFFF"></path>
            <path d="M163.6623,196.2383 L66.4773,196.2383 C65.3733,196.2383 64.4773,195.3423 64.4773,194.2383 L64.4773,87.6683 C64.4773,84.9953 65.5473,82.4333 67.4483,80.5543 L110.7023,37.8063 C113.1233,35.4153 117.0163,35.4153 119.4363,37.8063 L162.6913,80.5543 C164.5933,82.4333 165.6623,84.9953 165.6623,87.6683 L165.6623,194.2383 C165.6623,195.3423 164.7663,196.2383 163.6623,196.2383 Z" id="Stroke-440" stroke="#5E63B6" stroke-width="2"></path>
            <path d="M137.5402,118.7286 C137.5402,132.3876 126.4672,143.4606 112.8082,143.4606 C99.1482,143.4606 88.0752,132.3876 88.0752,118.7286 C88.0752,105.0696 99.1482,93.9966 112.8082,93.9966 C126.4672,93.9966 137.5402,105.0696 137.5402,118.7286" id="Fill-442" fill="#E1F2FF"></path>
            <path d="M140.5402,113.7286 C140.5402,127.3876 129.4672,138.4606 115.8082,138.4606 C102.1482,138.4606 91.0752,127.3876 91.0752,113.7286 C91.0752,100.0696 102.1482,88.9966 115.8082,88.9966 C129.4672,88.9966 140.5402,100.0696 140.5402,113.7286" id="Fill-444" fill="#FFFFFF"></path>
            <path d="M140.5402,113.7286 C140.5402,127.3876 129.4672,138.4606 115.8082,138.4606 C102.1482,138.4606 91.0752,127.3876 91.0752,113.7286 C91.0752,100.0696 102.1482,88.9966 115.8082,88.9966 C129.4672,88.9966 140.5402,100.0696 140.5402,113.7286 Z" id="Stroke-446" stroke="#5E63B6" stroke-width="2"></path>
            <path d="M121.9552,125.9258 C122.0592,126.2348 122.1502,126.4448 122.1782,126.5148 C122.1862,126.5218 122.1702,126.5108 122.1782,126.5148 C122.1782,126.5148 122.1782,126.5168 122.1782,126.5148 C122.1792,126.5158 122.1772,126.5148 122.1772,126.5148 C121.4782,119.7738 125.3012,116.9648 126.5292,112.4878 C126.5352,112.4218 126.5482,112.3498 126.5682,112.2678 C126.5942,112.1678 126.6142,112.0648 126.6302,111.9608 C126.8122,110.7218 126.3052,109.2798 125.3442,107.7788 C125.3402,107.7698 125.3332,107.7628 125.3282,107.7548 C125.2502,107.6298 125.1652,107.5048 125.0802,107.3798 C125.0802,107.3798 125.0772,107.3778 125.0762,107.3748 C124.9192,107.1478 124.7502,106.9168 124.5732,106.6858 C124.5562,106.6628 124.5382,106.6378 124.5192,106.6138 C124.4702,106.5518 124.4182,106.4888 124.3702,106.4258 C124.3182,106.3608 124.2682,106.2948 124.2172,106.2328 C124.1632,106.1678 124.1112,106.1058 124.0592,106.0438 C124.0042,105.9778 123.9502,105.9138 123.8942,105.8488 C123.8572,105.8038 123.8162,105.7588 123.7762,105.7118 C122.2662,103.9728 120.3002,102.2538 118.2482,100.7588 C118.2482,100.7588 118.2322,100.7358 118.2482,100.7588 C118.5192,103.2948 118.5552,105.8308 118.3142,107.8598 C118.0242,110.3048 117.1492,113.1518 115.9352,115.7318 C113.0942,115.4988 110.1882,114.8408 107.9242,113.8738 C106.0292,113.0648 103.8602,111.7888 101.7862,110.2758 C101.8092,110.4858 101.8342,110.6948 101.8582,110.9048 C101.8662,110.9668 101.8752,111.0298 101.8832,111.0918 C101.9022,111.2418 101.9212,111.3908 101.9442,111.5408 C101.9532,111.6108 101.9632,111.6798 101.9742,111.7478 C101.9962,111.8998 102.0182,112.0478 102.0432,112.1968 C102.0532,112.2578 102.0622,112.3188 102.0722,112.3798 C102.1032,112.5698 102.1352,112.7568 102.1702,112.9448 C102.1722,112.9638 102.1752,112.9828 102.1792,112.9998 C102.2182,113.2178 102.2592,113.4348 102.3032,113.6508 C102.3042,113.6668 102.3092,113.6818 102.3122,113.6988 C102.3512,113.8938 102.3922,114.0838 102.4342,114.2768 C102.4412,114.3168 102.4502,114.3548 102.4582,114.3938 C102.4972,114.5688 102.5382,114.7418 102.5792,114.9158 C102.5892,114.9488 102.5972,114.9828 102.6042,115.0188 C102.6542,115.2188 102.7022,115.4178 102.7552,115.6138 C102.7562,115.6148 102.7562,115.6168 102.7562,115.6168 C102.9242,116.2498 103.1082,116.8618 103.3082,117.4468 C103.3092,117.4548 103.3122,117.4608 103.3132,117.4688 C103.6512,118.4468 104.0352,119.3498 104.4642,120.1388 C104.5272,120.2528 104.5922,120.3658 104.6562,120.4758 C104.6592,120.4798 104.6592,120.4848 104.6622,120.4888 L104.6632,120.4888 C104.7222,120.5888 104.7812,120.6878 104.8412,120.7818 L104.8432,120.7828 C104.8432,120.7828 104.8482,120.7908 104.8502,120.7938 C104.9142,120.8978 104.9792,120.9978 105.0482,121.0938 L105.0482,121.0948 C105.0572,121.1088 105.0652,121.1188 105.0752,121.1328 C105.0772,121.1338 105.0752,121.1358 105.0762,121.1368 C105.1632,121.2618 105.2522,121.3818 105.3402,121.4978 C105.3562,121.5168 105.3712,121.5348 105.3862,121.5538 C105.3902,121.5608 105.3952,121.5668 105.4012,121.5748 C105.5042,121.7038 105.6082,121.8288 105.7172,121.9458 C105.7912,122.0298 105.8682,122.1068 105.9442,122.1838 C105.9772,122.2158 106.0122,122.2448 106.0442,122.2768 C106.0922,122.3218 106.1412,122.3638 106.1892,122.4078 C106.2262,122.4408 106.2632,122.4678 106.3012,122.4988 C106.3472,122.5378 106.3952,122.5738 106.4422,122.6118 C106.4792,122.6398 106.5172,122.6658 106.5562,122.6928 C106.6042,122.7278 106.6522,122.7608 106.7022,122.7938 C106.7392,122.8168 106.7782,122.8408 106.8162,122.8638 C106.8682,122.8948 106.9222,122.9228 106.9732,122.9528 C107.0102,122.9728 107.0472,122.9908 107.0822,123.0098 C107.1422,123.0378 107.2022,123.0638 107.2642,123.0898 C107.2922,123.1008 107.3232,123.1168 107.3542,123.1278 C107.4472,123.1648 107.5402,123.1968 107.6342,123.2228 C107.6962,123.2408 107.7502,123.2608 107.8012,123.2798 C112.3022,124.4688 116.6832,122.5848 122.1782,126.5148" id="Fill-448" fill="#9452BA"></path>
            <path d="M87.2277,160.6387 L142.9117,160.6387" id="Stroke-450" stroke="#5E63B6" stroke-width="2" stroke-linecap="round"></path>
            <path d="M87.2277,175.3438 L142.9117,175.3438" id="Stroke-452" stroke="#5E63B6" stroke-width="2" stroke-linecap="round"></path>
            <path d="M123.0695,62.3828 C123.0695,66.8008 119.4885,70.3828 115.0695,70.3828 C110.6515,70.3828 107.0695,66.8008 107.0695,62.3828 C107.0695,57.9648 110.6515,54.3828 115.0695,54.3828 C119.4885,54.3828 123.0695,57.9648 123.0695,62.3828" id="Fill-454" fill="#FFFFFF"></path>
            <path d="M123.0695,62.3828 C123.0695,66.8008 119.4885,70.3828 115.0695,70.3828 C110.6515,70.3828 107.0695,66.8008 107.0695,62.3828 C107.0695,57.9648 110.6515,54.3828 115.0695,54.3828 C119.4885,54.3828 123.0695,57.9648 123.0695,62.3828 Z" id="Stroke-456" stroke="#5E63B6" stroke-width="2"></path>
            <path d="M55.009,0.2237 C55.009,0.2237 57.095,9.3397 59.938,12.4627 C65.6,18.6827 73.07,25.0827 80.002,36.0127 C92.295,55.3927 99.525,74.1387 110.426,63.7727 C111.887,62.3827 112.808,58.5987 111.119,56.7937" id="Stroke-458" stroke="#ACD3EF" stroke-width="2"></path>
            <path d="M64.2482,15.8125 C64.2482,15.8125 59.4332,17.5535 57.9332,15.8125 C56.4332,14.0715 66.0642,6.5535 64.2482,15.8125 Z" id="Stroke-460" stroke="#ACD3EF" stroke-width="2"></path>
        </g>
    </g>
</svg>