<?xml version="1.0" encoding="UTF-8" standalone="no"?>
<svg width="256px" height="256px" viewBox="0 0 256 256" version="1.1" xmlns="http://www.w3.org/2000/svg" xmlns:xlink="http://www.w3.org/1999/xlink">
    <!-- Generator: Sketch 50.2 (55047) - http://www.bohemiancoding.com/sketch -->
    <title>Common/Illustrations/Draft</title>
    <desc>Created with Sketch.</desc>
    <defs></defs>
    <g id="Common/Illustrations/Draft" stroke="none" stroke-width="1" fill="none" fill-rule="evenodd">
        <g id="Group" transform="translate(3.000000, 30.000000)">
            <path d="M223.5257,186.2913 L230.4987,186.2913 L223.5257,186.2913 Z" id="Fill-1" fill="#FFFFFF"></path>
            <path d="M223.5256,186.2913 L230.4996,186.2913" id="Stroke-2" stroke="#5E63B6" stroke-width="2" stroke-linecap="round" stroke-linejoin="round"></path>
            <g id="Group-480" transform="translate(0.000000, 0.608000)">
                <path d="M20.2044,194.9245 C20.2044,137.7315 66.5684,91.3665 123.7624,91.3665 C180.9554,91.3665 227.3194,137.7315 227.3194,194.9245 L20.2044,194.9245 Z" id="Fill-3" fill="#E1F2FF"></path>
                <path d="M162.2239,185.5505 L167.2029,185.5505 C168.9149,185.5505 170.4689,184.5025 171.0879,182.9065 C172.8559,178.3565 172.4149,174.1755 172.6259,170.5995 C173.0179,163.9745 171.9829,160.5795 170.9949,155.0385 L163.5219,155.2115 C163.5219,155.2115 164.1569,157.9645 164.5799,166.2235 C164.7109,168.7785 160.4889,179.0415 160.6869,184.0765 C160.7189,184.9025 161.3979,185.5505 162.2239,185.5505" id="Fill-5" fill="#9452BA"></path>
                <path d="M162.2239,185.5505 L167.2029,185.5505 C168.9149,185.5505 170.4689,184.5025 171.0879,182.9065 C172.8559,178.3565 172.4149,174.1755 172.6259,170.5995 C173.0179,163.9745 171.9829,160.5795 170.9949,155.0385 L163.5219,155.2115 C163.5219,155.2115 164.1569,157.9645 164.5799,166.2235 C164.7109,168.7785 160.4889,179.0415 160.6869,184.0765 C160.7189,184.9025 161.3979,185.5505 162.2239,185.5505 Z" id="Stroke-7" stroke="#52267D"></path>
                <path d="M147.7297,161.8815 L141.7177,155.0645 L138.0057,155.2115 C138.0057,155.2115 137.4847,160.8825 137.2717,163.2575 C136.8957,167.4435 135.1607,175.6455 134.0947,179.2445 C133.7487,180.4155 133.5467,181.5095 133.4917,182.5015 C133.3967,184.1715 134.7897,185.5505 136.4617,185.5505 L140.8727,185.5505 C143.4417,185.5505 145.7257,183.8355 146.3577,181.3455 C148.3237,173.5915 147.7297,161.8815 147.7297,161.8815" id="Fill-9" fill="#9452BA"></path>
                <path d="M147.7297,161.8815 L141.7177,155.0645 L138.0057,155.2115 C138.0057,155.2115 137.4847,160.8825 137.2717,163.2575 C136.8957,167.4435 135.1607,175.6455 134.0947,179.2445 C133.7487,180.4155 133.5467,181.5095 133.4917,182.5015 C133.3967,184.1715 134.7897,185.5505 136.4617,185.5505 L140.8727,185.5505 C143.4417,185.5505 145.7257,183.8355 146.3577,181.3455 C148.3237,173.5915 147.7297,161.8815 147.7297,161.8815 Z" id="Stroke-11" stroke="#52267D"></path>
                <polyline id="Stroke-13" stroke="#52267D" stroke-width="0.25" points="139.2766 166.5817 138.2846 167.4527 139.2326 168.3087 140.7786 167.7147 140.4686 167.0367 139.1856 167.3407 139.1976 167.5697 139.5296 167.5547"></polyline>
                <path d="M139.3118,136.4948 C143.6918,136.4048 147.7948,133.3898 156.7318,132.9768 C156.8618,132.3928 157.0188,131.8658 157.2178,131.4328 C158.8348,127.9318 161.1178,117.8408 159.6518,111.2108 L158.4918,105.9658 C158.1118,104.2448 157.9188,102.4868 157.9188,100.7238 C157.9188,99.9898 157.9938,99.2728 158.1348,98.5808 C158.1708,98.4078 158.2098,98.2358 158.2538,98.0658 C158.3848,97.5568 158.5528,97.0608 158.7548,96.5848 C158.8228,96.4258 158.8938,96.2678 158.9678,96.1128 C159.1178,95.8038 159.2818,95.5018 159.4588,95.2088 C159.6368,94.9168 159.8288,94.6338 160.0328,94.3608 C160.6448,93.5408 161.3738,92.8138 162.1918,92.2008 C162.4648,91.9968 162.7488,91.8058 163.0408,91.6278 C164.6488,90.6508 166.5368,90.0878 168.5558,90.0878 L170.2998,90.0878 C173.2378,90.0878 175.8968,91.2788 177.8218,93.2028 C178.0618,93.4438 178.2908,93.6958 178.5078,93.9588 C178.9018,94.4358 179.2518,94.9498 179.5598,95.4918 C179.6748,95.6948 179.7868,95.9018 179.8878,96.1128 C179.9618,96.2678 180.0338,96.4258 180.1008,96.5848 C180.3028,97.0608 180.4708,97.5568 180.6018,98.0658 C180.7328,98.5758 180.8278,99.0998 180.8818,99.6378 C180.9178,99.9948 180.9368,100.3568 180.9368,100.7238 C180.9368,101.4568 180.6398,102.1198 180.1608,102.5988 C179.6798,103.0798 179.0168,103.3768 178.2858,103.3768 L167.3948,103.3768 L169.0428,112.8288 C170.9778,122.5388 170.3968,129.0318 168.8978,133.3608 C168.5638,134.3258 166.6618,137.7458 166.6618,137.7458 C172.1078,146.3388 180.4578,150.0948 189.3868,151.1838 C196.9778,152.1118 213.3658,145.1888 204.9158,137.1818 C196.4668,129.1738 206.6768,134.1528 208.1798,135.1668 C209.6828,136.1798 218.3728,143.6878 208.9418,154.7048 C204.9538,159.3638 200.4358,163.5988 189.5668,166.8458 C187.8238,167.3658 178.3118,168.0578 173.1918,169.5268 C157.9458,173.9038 145.5508,169.1448 138.6058,159.0818 C131.6888,149.0578 137.5828,136.5298 139.3118,136.4948" id="Fill-15" fill="#9452BA"></path>
                <path d="M139.3118,136.4948 C143.6918,136.4048 147.7948,133.3898 156.7318,132.9768 C156.8618,132.3928 157.0188,131.8658 157.2178,131.4328 C158.8348,127.9318 161.1178,117.8408 159.6518,111.2108 L158.4918,105.9658 C158.1118,104.2448 157.9188,102.4868 157.9188,100.7238 C157.9188,99.9898 157.9938,99.2728 158.1348,98.5808 C158.1708,98.4078 158.2098,98.2358 158.2538,98.0658 C158.3848,97.5568 158.5528,97.0608 158.7548,96.5848 C158.8228,96.4258 158.8938,96.2678 158.9678,96.1128 C159.1178,95.8038 159.2818,95.5018 159.4588,95.2088 C159.6368,94.9168 159.8288,94.6338 160.0328,94.3608 C160.6448,93.5408 161.3738,92.8138 162.1918,92.2008 C162.4648,91.9968 162.7488,91.8058 163.0408,91.6278 C164.6488,90.6508 166.5368,90.0878 168.5558,90.0878 L170.2998,90.0878 C173.2378,90.0878 175.8968,91.2788 177.8218,93.2028 C178.0618,93.4438 178.2908,93.6958 178.5078,93.9588 C178.9018,94.4358 179.2518,94.9498 179.5598,95.4918 C179.6748,95.6948 179.7868,95.9018 179.8878,96.1128 C179.9618,96.2678 180.0338,96.4258 180.1008,96.5848 C180.3028,97.0608 180.4708,97.5568 180.6018,98.0658 C180.7328,98.5758 180.8278,99.0998 180.8818,99.6378 C180.9178,99.9948 180.9368,100.3568 180.9368,100.7238 C180.9368,101.4568 180.6398,102.1198 180.1608,102.5988 C179.6798,103.0798 179.0168,103.3768 178.2858,103.3768 L167.3948,103.3768 L169.0428,112.8288 C170.9778,122.5388 170.3968,129.0318 168.8978,133.3608 C168.5638,134.3258 166.6618,137.7458 166.6618,137.7458 C172.1078,146.3388 180.4578,150.0948 189.3868,151.1838 C196.9778,152.1118 213.3658,145.1888 204.9158,137.1818 C196.4668,129.1738 206.6768,134.1528 208.1798,135.1668 C209.6828,136.1798 218.3728,143.6878 208.9418,154.7048 C204.9538,159.3638 200.4358,163.5988 189.5668,166.8458 C187.8238,167.3658 178.3118,168.0578 173.1918,169.5268 C157.9458,173.9038 145.5508,169.1448 138.6058,159.0818 C131.6888,149.0578 137.5828,136.5298 139.3118,136.4948 Z" id="Stroke-17" stroke="#52267D" stroke-width="2"></path>
                <path d="M148.7708,122.0241 C149.1208,110.7641 140.1838,101.9151 130.0278,100.0451 C127.9188,99.6571 127.2328,98.9951 124.9258,98.9951 L123.1598,98.9951 C117.2078,98.9951 112.3828,103.8201 112.3828,109.7711 C112.3828,111.2541 113.5858,112.4581 115.0698,112.4581 C115.0698,112.4581 133.1888,112.4531 133.2738,112.4451 C133.2748,112.4451 134.7498,112.4461 134.7508,112.4461 C134.7488,112.4481 133.2718,112.4491 133.2698,112.4511 C137.2768,114.1521 139.7708,119.2721 140.2098,122.0241 C140.8358,125.9421 140.3778,129.1741 139.0418,131.7891 C138.1508,133.5301 138.0498,135.6281 138.1868,137.3271 C138.1868,137.3271 138.2298,137.3411 138.2908,137.3621 C138.3528,138.2701 138.4998,139.3031 138.7708,140.4821 C140.4768,139.2931 143.1298,137.5041 143.6158,137.2481 C144.6618,136.6951 147.0258,135.4371 148.0838,134.8321 C154.8418,130.9571 148.5728,128.4281 148.7708,122.0241" id="Fill-19" fill="#9452BA"></path>
                <path d="M148.7708,122.0241 C149.1208,110.7641 140.1838,101.9151 130.0278,100.0451 C127.9188,99.6571 127.2328,98.9951 124.9258,98.9951 L123.1598,98.9951 C117.2078,98.9951 112.3828,103.8201 112.3828,109.7711 C112.3828,111.2541 113.5858,112.4581 115.0698,112.4581 C115.0698,112.4581 133.1888,112.4531 133.2738,112.4451 C133.2748,112.4451 134.7498,112.4461 134.7508,112.4461 C134.7488,112.4481 133.2718,112.4491 133.2698,112.4511 C137.2768,114.1521 139.7708,119.2721 140.2098,122.0241 C140.8358,125.9421 140.3778,129.1741 139.0418,131.7891 C138.1508,133.5301 138.0498,135.6281 138.1868,137.3271 C138.1868,137.3271 138.2298,137.3411 138.2908,137.3621 C138.3528,138.2701 138.4998,139.3031 138.7708,140.4821 C140.4768,139.2931 143.1298,137.5041 143.6158,137.2481 C144.6618,136.6951 147.0258,135.4371 148.0838,134.8321 C154.8418,130.9571 148.5728,128.4281 148.7708,122.0241 Z" id="Stroke-21" stroke="#52267D"></path>
                <g id="Group-26" transform="translate(133.000000, 111.000000)">
                    <path d="M10.0002,24.0349 C9.9112,22.2959 9.6462,21.4029 9.8412,20.6949 C10.9632,16.6219 11.3282,15.3369 11.3282,11.0239 C11.3282,6.7389 8.8462,2.5039 5.1812,0.2509 C4.9792,0.1279 2.3412,-0.0591 0.2702,1.4509 C4.2762,3.1519 6.7712,8.2719 7.2102,11.0239 C7.8362,14.9419 7.3772,18.1749 6.0412,20.7889 C5.1502,22.5299 5.0492,24.6279 5.1872,26.3269 C5.1872,26.3269 10.1032,28.1729 10.0002,24.0349" id="Fill-23" fill="#F3E3FF"></path>
                    <path d="M10.0002,24.0349 C9.9112,22.2959 9.6462,21.4029 9.8412,20.6949 C10.9632,16.6219 11.3282,15.3369 11.3282,11.0239 C11.3282,6.7389 8.8462,2.5039 5.1812,0.2509 C4.9792,0.1279 2.3412,-0.0591 0.2702,1.4509 C4.2762,3.1519 6.7712,8.2719 7.2102,11.0239 C7.8362,14.9419 7.3772,18.1749 6.0412,20.7889 C5.1502,22.5299 5.0492,24.6279 5.1872,26.3269 C5.1872,26.3269 10.1032,28.1729 10.0002,24.0349" id="Stroke-25" stroke="#52267D" stroke-width="0.5"></path>
                </g>
                <path d="M117.5042,100.8259 C117.5042,100.8259 117.5002,98.9439 119.3702,98.1959 C119.9412,97.9689 120.9832,97.5439 120.9832,97.5439 C120.9832,97.5439 122.0972,99.8989 120.8352,100.4939 C119.0192,101.3479 117.5042,100.8259 117.5042,100.8259" id="Fill-27" fill="#FFFFFF"></path>
                <path d="M117.5042,100.8259 C117.5042,100.8259 117.5002,98.9439 119.3702,98.1959 C119.9412,97.9689 120.9832,97.5439 120.9832,97.5439 C120.9832,97.5439 122.0972,99.8989 120.8352,100.4939 C119.0192,101.3479 117.5042,100.8259 117.5042,100.8259 Z" id="Stroke-29" stroke="#52267D" stroke-width="0.5"></path>
                <path d="M122.1858,99.5026 C122.1858,99.5026 122.2398,96.9386 125.1238,96.5646 C125.6628,96.4946 127.0658,96.5286 127.0658,96.5286 C127.0658,96.5286 127.7138,99.2416 126.1928,99.5026 C124.3228,99.8226 122.1858,99.5026 122.1858,99.5026" id="Fill-31" fill="#FFFFFF"></path>
                <path d="M122.1858,99.5026 C122.1858,99.5026 122.2398,96.9386 125.1238,96.5646 C125.6628,96.4946 127.0658,96.5286 127.0658,96.5286 C127.0658,96.5286 127.7138,99.2416 126.1928,99.5026 C124.3228,99.8226 122.1858,99.5026 122.1858,99.5026 Z" id="Stroke-33" stroke="#52267D" stroke-width="0.5"></path>
                <path d="M127.9221,99.7477 C127.9221,99.7477 128.3021,96.9037 130.8571,97.6857 C131.9481,98.0197 132.5541,98.8497 132.5541,98.8497 C132.5541,98.8497 132.0461,101.0157 131.0291,100.7707 C129.2551,100.3467 127.9221,99.7477 127.9221,99.7477" id="Fill-35" fill="#FFFFFF"></path>
                <path d="M127.9221,99.7477 C127.9221,99.7477 128.3021,96.9037 130.8571,97.6857 C131.9481,98.0197 132.5541,98.8497 132.5541,98.8497 C132.5541,98.8497 132.0461,101.0157 131.0291,100.7707 C129.2551,100.3467 127.9221,99.7477 127.9221,99.7477 Z" id="Stroke-37" stroke="#52267D" stroke-width="0.5"></path>
                <path d="M135.3411,113.5534 C135.3411,113.5534 141.2961,110.3164 140.1631,104.8674 C140.9541,105.5194 143.0691,107.5054 143.8351,108.5224 C143.8351,109.5884 144.0301,113.8244 138.1821,116.6604 C137.1531,115.5944 136.2871,114.2634 135.3411,113.5534" id="Fill-39" fill="#FFFFFF"></path>
                <path d="M135.3411,113.5534 C135.3411,113.5534 141.2961,110.3164 140.1631,104.8674 C140.9541,105.5194 143.0691,107.5054 143.8351,108.5224 C143.8351,109.5884 144.0301,113.8244 138.1821,116.6604 C137.1531,115.5944 136.2871,114.2634 135.3411,113.5534 Z" id="Stroke-41" stroke="#52267D" stroke-width="0.5"></path>
                <path d="M118.0559,100.5251 C118.0559,100.5251 118.0539,99.4261 119.1449,98.9901 C119.4779,98.8571 120.0859,98.6091 120.0859,98.6091 C120.0859,98.6091 120.7359,99.9841 119.9989,100.3311 C118.9399,100.8301 118.0559,100.5251 118.0559,100.5251" id="Fill-43" fill="#F3E3FF"></path>
                <path d="M123.0374,99.1481 C123.0374,99.1481 123.0684,97.6471 124.7584,97.4271 C125.0734,97.3871 125.8944,97.4071 125.8944,97.4071 C125.8944,97.4071 126.2744,98.9961 125.3844,99.1481 C124.2894,99.3351 123.0374,99.1481 123.0374,99.1481" id="Fill-45" fill="#F3E3FF"></path>
                <path d="M128.553,99.6628 C128.553,99.6628 128.778,97.9798 130.288,98.4428 C130.934,98.6408 131.292,99.1308 131.292,99.1308 C131.292,99.1308 130.991,100.4118 130.391,100.2678 C129.341,100.0168 128.553,99.6628 128.553,99.6628" id="Fill-47" fill="#F3E3FF"></path>
                <path d="M128.51,110.654 L121.864,110.654 L121.864,107.789 C121.864,106.629 122.805,105.687 123.965,105.687 L128.51,105.687 C129.218,105.687 129.792,106.261 129.792,106.969 L129.792,109.372 C129.792,110.08 129.218,110.654 128.51,110.654" id="Fill-49" fill="#F3E3FF"></path>
                <path d="M127.7942,110.5602 L121.9572,110.5602 L121.9572,108.6732 C121.9572,107.5612 122.8592,106.6592 123.9722,106.6592 L127.7942,106.6592 C128.3512,106.6592 128.8022,107.1102 128.8022,107.6662 L128.8022,109.5532 C128.8022,110.1092 128.3512,110.5602 127.7942,110.5602" id="Fill-51" fill="#FFFFFF"></path>
                <path d="M127.7942,110.5602 L121.9572,110.5602 L121.9572,108.6732 C121.9572,107.5612 122.8592,106.6592 123.9722,106.6592 L127.7942,106.6592 C128.3512,106.6592 128.8022,107.1102 128.8022,107.6662 L128.8022,109.5532 C128.8022,110.1092 128.3512,110.5602 127.7942,110.5602 Z" id="Stroke-53" stroke="#52267D" stroke-width="0.5"></path>
                <path d="M122.844,108.5573 C122.844,109.1593 123.331,109.6473 123.934,109.6473 C124.535,109.6473 125.023,109.1593 125.023,108.5573 C125.023,107.9553 124.535,107.4673 123.934,107.4673 C123.331,107.4673 122.844,107.9553 122.844,108.5573" id="Fill-55" fill="#52267D"></path>
                <path d="M114.8206,111.6393 C115.1306,111.5733 115.4066,111.4013 115.6036,111.1533 L115.9686,110.6943 L115.1556,110.8683 L114.6766,110.9703 C114.4926,111.0103 114.3756,111.1923 114.4146,111.3763 C114.4546,111.5613 114.6356,111.6783 114.8206,111.6393" id="Fill-57" fill="#52267D"></path>
                <path d="M136.3469,113.6608 C136.3469,113.6608 140.9349,111.1908 140.8649,106.2148 C142.8359,107.6508 143.3699,108.5798 143.3699,108.5798 C143.3699,108.5798 143.0269,110.9478 141.9229,112.1438 C140.2289,113.9788 138.4639,114.5438 136.3469,113.6608" id="Fill-59" fill="#E1F2FF"></path>
                <g id="Group-64" transform="translate(137.000000, 112.000000)">
                    <path d="M3.6907,0.7878 C3.6907,0.7878 1.8807,2.6278 0.1167,3.5108" id="Fill-61" fill="#FFFFFF"></path>
                    <path d="M3.6907,0.7878 C3.6907,0.7878 1.8807,2.6278 0.1167,3.5108" id="Stroke-63" stroke="#52267D" stroke-width="0.5"></path>
                </g>
                <g id="Group-68" transform="translate(134.000000, 85.000000)">
                    <path d="M24.6819,47.1354 L23.6599,45.1184 C19.8419,35.7374 19.2539,30.2284 21.2339,21.2744 L22.3939,16.0294 C22.7739,14.3084 22.9659,12.5504 22.9659,10.7874 C22.9659,4.9134 18.2029,0.1514 12.3289,0.1514 L10.6119,0.1514 C4.8179,0.1514 0.1199,4.8484 0.1199,10.6424 L0.1199,10.9444 C0.1199,12.3224 1.2389,13.4404 2.6169,13.4404 L13.4909,13.4404 L11.8419,22.8924 C6.7949,48.2224 7.3009,58.4924 17.2329,56.3814" id="Fill-65" fill="#9452BA"></path>
                    <path d="M24.6819,47.1354 L23.6599,45.1184 C19.8419,35.7374 19.2539,30.2284 21.2339,21.2744 L22.3939,16.0294 C22.7739,14.3084 22.9659,12.5504 22.9659,10.7874 C22.9659,4.9134 18.2029,0.1514 12.3289,0.1514 L10.6119,0.1514 C4.8179,0.1514 0.1199,4.8484 0.1199,10.6424 L0.1199,10.9444 C0.1199,12.3224 1.2389,13.4404 2.6169,13.4404 L13.4909,13.4404 L11.8419,22.8924 C6.7949,48.2224 7.3009,58.4924 17.2329,56.3814" id="Stroke-67" stroke="#52267D"></path>
                </g>
                <path d="M139.3625,86.4098 C139.3625,86.4098 139.5375,84.5658 141.3695,83.8338 C141.9275,83.6098 142.8035,83.8478 142.8035,83.8478 C142.8035,83.8478 143.8615,85.5018 142.6255,86.0838 C140.8455,86.9218 139.3625,86.4098 139.3625,86.4098" id="Fill-69" fill="#FFFFFF"></path>
                <path d="M139.3625,86.4098 C139.3625,86.4098 139.5375,84.5658 141.3695,83.8338 C141.9275,83.6098 142.8035,83.8478 142.8035,83.8478 C142.8035,83.8478 143.8615,85.5018 142.6255,86.0838 C140.8455,86.9218 139.3625,86.4098 139.3625,86.4098 Z" id="Stroke-71" stroke="#52267D" stroke-width="0.5"></path>
                <path d="M143.7249,85.8019 C143.7249,85.8019 143.7859,82.8979 147.0519,82.4739 C147.6619,82.3949 148.4439,82.4549 148.4439,82.4549 C148.4439,82.4549 149.9849,85.5069 148.2619,85.8019 C146.1449,86.1649 143.7249,85.8019 143.7249,85.8019" id="Fill-73" fill="#FFFFFF"></path>
                <path d="M143.7249,85.8019 C143.7249,85.8019 143.7859,82.8979 147.0519,82.4739 C147.6619,82.3949 148.4439,82.4549 148.4439,82.4549 C148.4439,82.4549 149.9849,85.5069 148.2619,85.8019 C146.1449,86.1649 143.7249,85.8019 143.7249,85.8019 Z" id="Stroke-75" stroke="#52267D" stroke-width="0.5"></path>
                <path d="M149.5696,86.4626 C149.5696,86.4626 150.0126,83.6866 152.4956,84.5156 C153.5556,84.8706 154.1296,85.6976 154.1296,85.6976 C154.1296,85.6976 153.5766,87.8056 152.5876,87.5426 C150.8606,87.0816 149.5696,86.4626 149.5696,86.4626" id="Fill-77" fill="#FFFFFF"></path>
                <path d="M149.5696,86.4626 C149.5696,86.4626 150.0126,83.6866 152.4956,84.5156 C153.5556,84.8706 154.1296,85.6976 154.1296,85.6976 C154.1296,85.6976 153.5766,87.8056 152.5876,87.5426 C150.8606,87.0816 149.5696,86.4626 149.5696,86.4626 Z" id="Stroke-79" stroke="#52267D" stroke-width="0.5"></path>
                <g id="Group-84" transform="translate(139.000000, 135.000000)">
                    <path d="M0.5403,1.1589 C1.1603,0.6949 1.7873,0.4269 2.3273,0.2979" id="Fill-81" fill="#F3E3FF"></path>
                    <path d="M0.5403,1.1589 C1.1603,0.6949 1.7873,0.4269 2.3273,0.2979" id="Stroke-83" stroke="#52267D" stroke-width="0.5"></path>
                </g>
                <g id="Group-88" transform="translate(136.000000, 98.000000)">
                    <path d="M7.1409,38.1022 C5.3639,30.8792 8.5699,17.0722 9.1599,13.6732 L11.4939,0.0582 L12.5169,0.0582 C13.8129,0.0582 14.7939,1.4672 14.6109,2.7522 L12.9179,14.5622 C12.3459,18.5612 11.7499,37.0772 18.6989,41.0532 C20.1809,41.9022 22.5899,41.3452 23.4979,40.9122 C26.8009,39.3342 27.7499,35.2172 28.4739,31.8982 C29.9719,25.0282 28.8049,19.6352 28.4739,14.2502 L28.1249,7.5132 C28.0629,6.2952 29.0319,5.0032 30.2479,5.0032 L31.4899,5.0032 L33.7259,18.6192 C34.3989,22.4962 36.1289,35.9412 28.2069,42.2442 C28.0639,42.3582 30.1329,42.8212 29.5339,43.8812 C27.1509,48.0932 20.2449,48.7592 18.9459,50.5632 C13.9389,57.5072 18.6279,72.3042 18.6279,72.3042 C18.6279,72.3042 13.0709,70.0862 9.6289,67.0012 C1.5819,59.7892 0.5609,49.3432 0.5239,46.2682 C0.4789,42.5892 1.4459,40.3072 2.6349,38.9452" id="Fill-85" fill="#F3E3FF"></path>
                    <path d="M7.1409,38.1022 C5.3639,30.8792 8.5699,17.0722 9.1599,13.6732 L11.4939,0.0582 L12.5169,0.0582 C13.8129,0.0582 14.7939,1.4672 14.6109,2.7522 L12.9179,14.5622 C12.3459,18.5612 11.7499,37.0772 18.6989,41.0532 C20.1809,41.9022 22.5899,41.3452 23.4979,40.9122 C26.8009,39.3342 27.7499,35.2172 28.4739,31.8982 C29.9719,25.0282 28.8049,19.6352 28.4739,14.2502 L28.1249,7.5132 C28.0629,6.2952 29.0319,5.0032 30.2479,5.0032 L31.4899,5.0032 L33.7259,18.6192 C34.3989,22.4962 36.1289,35.9412 28.2069,42.2442 C28.0639,42.3582 30.1329,42.8212 29.5339,43.8812 C27.1509,48.0932 20.2449,48.7592 18.9459,50.5632 C13.9389,57.5072 18.6279,72.3042 18.6279,72.3042 C18.6279,72.3042 13.0709,70.0862 9.6289,67.0012 C1.5819,59.7892 0.5609,49.3432 0.5239,46.2682 C0.4789,42.5892 1.4459,40.3072 2.6349,38.9452" id="Stroke-87" stroke="#52267D" stroke-width="0.5"></path>
                </g>
                <path d="M208.4553,142.1257 C208.4553,142.1257 209.5983,140.8597 208.9553,139.1597 C208.7593,138.6417 208.0533,138.1947 208.0533,138.1947 C208.0533,138.1947 206.2703,138.5057 206.6453,139.7077 C207.1843,141.4377 208.4553,142.1257 208.4553,142.1257" id="Fill-89" fill="#FFFFFF"></path>
                <path d="M208.4553,142.1257 C208.4553,142.1257 209.5983,140.8597 208.9553,139.1597 C208.7593,138.6417 208.0533,138.1947 208.0533,138.1947 C208.0533,138.1947 206.2703,138.5057 206.6453,139.7077 C207.1843,141.4377 208.4553,142.1257 208.4553,142.1257 Z" id="Stroke-91" stroke="#52267D"></path>
                <path d="M208.0764,140.3669 C208.0764,140.3669 208.4774,139.9229 208.2524,139.3269 C208.1834,139.1439 207.9354,138.9879 207.9354,138.9879 C207.9354,138.9879 207.3104,139.0969 207.4424,139.5179 C207.6314,140.1249 208.0764,140.3669 208.0764,140.3669" id="Fill-93" fill="#F3E3FF"></path>
                <path d="M199.095,151.194 C199.095,151.194 198.009,148.717 200.603,147.081 C201.086,146.775 201.771,146.52 201.771,146.52 C201.771,146.52 204.267,148.494 202.927,149.418 C201.281,150.553 199.095,151.194 199.095,151.194" id="Fill-95" fill="#FFFFFF"></path>
                <path d="M199.095,151.194 C199.095,151.194 198.009,148.717 200.603,147.081 C201.086,146.775 201.771,146.52 201.771,146.52 C201.771,146.52 204.267,148.494 202.927,149.418 C201.281,150.553 199.095,151.194 199.095,151.194 Z" id="Stroke-97" stroke="#52267D"></path>
                <path d="M199.9983,150.2624 C199.9983,150.2624 199.3963,148.8884 200.8353,147.9814 C201.1023,147.8124 201.4823,147.6704 201.4823,147.6704 C201.4823,147.6704 202.8663,148.7654 202.1243,149.2774 C201.2113,149.9074 199.9983,150.2624 199.9983,150.2624" id="Fill-99" fill="#F3E3FF"></path>
                <path d="M207.0129,143.0817 C207.0129,143.0817 208.8929,144.7327 207.0889,146.2097 C206.3189,146.8407 205.4239,146.8787 205.4239,146.8787 C205.4239,146.8787 204.0979,145.4617 204.7669,144.8427 C205.9339,143.7597 207.0129,143.0817 207.0129,143.0817" id="Fill-101" fill="#FFFFFF"></path>
                <path d="M207.0129,143.0817 C207.0129,143.0817 208.8929,144.7327 207.0889,146.2097 C206.3189,146.8407 205.4239,146.8787 205.4239,146.8787 C205.4239,146.8787 204.0979,145.4617 204.7669,144.8427 C205.9339,143.7597 207.0129,143.0817 207.0129,143.0817 Z" id="Stroke-103" stroke="#52267D"></path>
                <path d="M206.7395,144.2526 C206.7395,144.2526 207.5715,144.9836 206.7725,145.6376 C206.4315,145.9166 206.0355,145.9346 206.0355,145.9346 C206.0355,145.9346 205.4485,145.3066 205.7445,145.0316 C206.2605,144.5526 206.7395,144.2526 206.7395,144.2526" id="Fill-105" fill="#F3E3FF"></path>
                <path d="M190.0725,152.4968 C190.0725,152.4968 189.4535,150.2918 191.8795,149.4168 C194.3055,148.5418 194.9585,149.2688 194.9585,149.2688 C194.9585,149.2688 196.3005,151.5288 195.1005,152.2558 C193.9015,152.9828 190.0725,152.4968 190.0725,152.4968" id="Fill-107" fill="#FFFFFF"></path>
                <path d="M190.0725,152.4968 C190.0725,152.4968 189.4535,150.2918 191.8795,149.4168 C194.3055,148.5418 194.9585,149.2688 194.9585,149.2688 C194.9585,149.2688 196.3005,151.5288 195.1005,152.2558 C193.9015,152.9828 190.0725,152.4968 190.0725,152.4968 Z" id="Stroke-109" stroke="#52267D"></path>
                <path d="M191.2112,151.9958 C191.2112,151.9958 190.8892,150.8498 192.1512,150.3938 C193.4132,149.9388 193.7522,150.3178 193.7522,150.3178 C193.7522,150.3178 194.4502,151.4928 193.8262,151.8708 C193.2022,152.2488 191.2112,151.9958 191.2112,151.9958" id="Fill-111" fill="#F3E3FF"></path>
                <path d="M146.9641,101.3786 C146.9641,101.3786 150.8371,103.5686 156.2821,101.5916 C155.9081,103.2806 155.1471,106.6756 155.1471,106.6756 C155.1471,106.6756 150.1031,108.2226 146.2111,105.7746 C146.6101,103.5326 146.9641,101.3786 146.9641,101.3786" id="Fill-113" fill="#FFFFFF"></path>
                <path d="M146.9641,101.3786 C146.9641,101.3786 150.8371,103.5686 156.2821,101.5916 C155.9081,103.2806 155.1471,106.6756 155.1471,106.6756 C155.1471,106.6756 150.1031,108.2226 146.2111,105.7746 C146.6101,103.5326 146.9641,101.3786 146.9641,101.3786 Z" id="Stroke-115" stroke="#52267D" stroke-width="0.5"></path>
                <path d="M175.9436,91.5373 C175.9436,91.5373 175.7666,89.6803 173.9216,88.9413 C173.3586,88.7163 171.8376,88.6553 171.8376,88.6553 C171.8376,88.6553 171.4106,90.6223 172.6556,91.2093 C174.4486,92.0533 175.9436,91.5373 175.9436,91.5373" id="Fill-117" fill="#FFFFFF"></path>
                <path d="M175.9436,91.5373 C175.9436,91.5373 175.7666,89.6803 173.9216,88.9413 C173.3586,88.7163 171.8376,88.6553 171.8376,88.6553 C171.8376,88.6553 171.4106,90.6223 172.6556,91.2093 C174.4486,92.0533 175.9436,91.5373 175.9436,91.5373 Z" id="Stroke-119" stroke="#52267D" stroke-width="0.5"></path>
                <path d="M171.26,90.589 C171.26,90.589 171.207,88.058 168.361,87.689 C167.829,87.62 167.147,87.672 167.147,87.672 C167.147,87.672 165.804,90.331 167.306,90.589 C169.152,90.905 171.26,90.589 171.26,90.589" id="Fill-121" fill="#FFFFFF"></path>
                <path d="M171.26,90.589 C171.26,90.589 171.207,88.058 168.361,87.689 C167.829,87.62 167.147,87.672 167.147,87.672 C167.147,87.672 165.804,90.331 167.306,90.589 C169.152,90.905 171.26,90.589 171.26,90.589 Z" id="Stroke-123" stroke="#52267D" stroke-width="0.5"></path>
                <path d="M165.8665,90.7721 C165.8665,90.7721 165.4205,87.9761 162.9195,88.8111 C161.8505,89.1681 161.2735,90.0011 161.2735,90.0011 C161.2735,90.0011 161.8295,92.1261 162.8265,91.8601 C164.5665,91.3961 165.8665,90.7721 165.8665,90.7721" id="Fill-125" fill="#FFFFFF"></path>
                <path d="M165.8665,90.7721 C165.8665,90.7721 165.4205,87.9761 162.9195,88.8111 C161.8505,89.1681 161.2735,90.0011 161.2735,90.0011 C161.2735,90.0011 161.8295,92.1261 162.8265,91.8601 C164.5665,91.3961 165.8665,90.7721 165.8665,90.7721 Z" id="Stroke-127" stroke="#52267D" stroke-width="0.5"></path>
                <path d="M140.2024,86.0265 C140.2024,86.0265 140.3014,84.9845 141.3374,84.5705 C141.6524,84.4435 142.1474,84.5785 142.1474,84.5785 C142.1474,84.5785 142.7454,85.5135 142.0464,85.8425 C141.0414,86.3155 140.2024,86.0265 140.2024,86.0265" id="Fill-129" fill="#F3E3FF"></path>
                <path d="M144.6389,85.4147 C144.6389,85.4147 144.6789,83.5067 146.8259,83.2287 C147.2259,83.1767 147.7399,83.2167 147.7399,83.2167 C147.7399,83.2167 148.7519,85.2207 147.6199,85.4147 C146.2289,85.6537 144.6389,85.4147 144.6389,85.4147" id="Fill-131" fill="#F3E3FF"></path>
                <path d="M150.3704,86.2897 C150.3704,86.2897 150.6524,84.5237 152.2324,85.0507 C152.9074,85.2767 153.2714,85.8027 153.2714,85.8027 C153.2714,85.8027 152.9204,87.1447 152.2904,86.9767 C151.1914,86.6837 150.3704,86.2897 150.3704,86.2897" id="Fill-133" fill="#F3E3FF"></path>
                <path d="M175.1458,91.1452 C175.1458,91.1452 175.0478,90.1102 174.0198,89.6992 C173.7058,89.5732 172.8588,89.5392 172.8588,89.5392 C172.8588,89.5392 172.6208,90.6352 173.3138,90.9622 C174.3128,91.4322 175.1458,91.1452 175.1458,91.1452" id="Fill-135" fill="#F3E3FF"></path>
                <path d="M170.2795,90.2204 C170.2795,90.2204 170.2485,88.7534 168.5985,88.5394 C168.2915,88.5004 167.8955,88.5304 167.8955,88.5304 C167.8955,88.5304 167.1185,90.0714 167.9875,90.2204 C169.0565,90.4034 170.2795,90.2204 170.2795,90.2204" id="Fill-137" fill="#F3E3FF"></path>
                <path d="M165.0813,90.6628 C165.0813,90.6628 164.8163,89.0088 163.3373,89.5028 C162.7053,89.7138 162.3633,90.2068 162.3633,90.2068 C162.3633,90.2068 162.6923,91.4638 163.2823,91.3068 C164.3113,91.0318 165.0813,90.6628 165.0813,90.6628" id="Fill-139" fill="#F3E3FF"></path>
                <path d="M158.5383,106.1745 C158.5383,106.1745 163.3343,106.9225 167.8953,105.8035 C168.3403,108.2815 168.6263,110.1535 168.6263,110.1535 C168.6263,110.1535 165.4623,112.3015 159.6173,111.0555 C158.9283,107.8715 158.5383,106.1745 158.5383,106.1745" id="Fill-141" fill="#FFFFFF"></path>
                <path d="M158.5383,106.1745 C158.5383,106.1745 163.3343,106.9225 167.8953,105.8035 C168.3403,108.2815 168.6263,110.1535 168.6263,110.1535 C168.6263,110.1535 165.4623,112.3015 159.6173,111.0555 C158.9283,107.8715 158.5383,106.1745 158.5383,106.1745 Z" id="Stroke-143" stroke="#52267D" stroke-width="0.5"></path>
                <path d="M165.2698,101.3571 L171.9158,101.3571 L171.9158,98.4921 C171.9158,97.3321 170.9758,96.3911 169.8148,96.3911 L165.2698,96.3911 C164.5618,96.3911 163.9878,96.9651 163.9878,97.6731 L163.9878,100.0751 C163.9878,100.7831 164.5618,101.3571 165.2698,101.3571" id="Fill-145" fill="#F3E3FF"></path>
                <path d="M165.9866,101.2643 L171.8226,101.2643 L171.8226,99.3773 C171.8226,98.2643 170.9216,97.3623 169.8076,97.3623 L165.9866,97.3623 C165.4296,97.3623 164.9786,97.8133 164.9786,98.3693 L164.9786,100.2563 C164.9786,100.8133 165.4296,101.2643 165.9866,101.2643" id="Fill-147" fill="#FFFFFF"></path>
                <path d="M165.9866,101.2643 L171.8226,101.2643 L171.8226,99.3773 C171.8226,98.2643 170.9216,97.3623 169.8076,97.3623 L165.9866,97.3623 C165.4296,97.3623 164.9786,97.8133 164.9786,98.3693 L164.9786,100.2563 C164.9786,100.8133 165.4296,101.2643 165.9866,101.2643 Z" id="Stroke-149" stroke="#52267D" stroke-width="0.5"></path>
                <path d="M170.9368,100.1081 C170.9368,100.7101 170.4488,101.1981 169.8468,101.1981 C169.2458,101.1981 168.7568,100.7101 168.7568,100.1081 C168.7568,99.5051 169.2458,99.0181 169.8468,99.0181 C170.4488,99.0181 170.9368,99.5051 170.9368,100.1081" id="Fill-151" fill="#52267D"></path>
                <path d="M148.8293,96.6491 L142.1833,96.6491 L142.1833,93.7841 C142.1833,92.6241 143.1233,91.6831 144.2843,91.6831 L148.8293,91.6831 C149.5373,91.6831 150.1113,92.2571 150.1113,92.9651 L150.1113,95.3671 C150.1113,96.0751 149.5373,96.6491 148.8293,96.6491" id="Fill-153" fill="#F3E3FF"></path>
                <path d="M148.1125,96.5553 L142.2765,96.5553 L142.2765,94.6683 C142.2765,93.5553 143.1785,92.6543 144.2915,92.6543 L148.1125,92.6543 C148.6695,92.6543 149.1205,93.1053 149.1205,93.6613 L149.1205,95.5483 C149.1205,96.1043 148.6695,96.5553 148.1125,96.5553" id="Fill-155" fill="#FFFFFF"></path>
                <path d="M148.1125,96.5553 L142.2765,96.5553 L142.2765,94.6683 C142.2765,93.5553 143.1785,92.6543 144.2915,92.6543 L148.1125,92.6543 C148.6695,92.6543 149.1205,93.1053 149.1205,93.6613 L149.1205,95.5483 C149.1205,96.1043 148.6695,96.5553 148.1125,96.5553 Z" id="Stroke-157" stroke="#52267D" stroke-width="0.5"></path>
                <path d="M143.1624,95.3991 C143.1624,96.0021 143.6504,96.4891 144.2524,96.4891 C144.8534,96.4891 145.3424,96.0021 145.3424,95.3991 C145.3424,94.7971 144.8534,94.3101 144.2524,94.3101 C143.6504,94.3101 143.1624,94.7971 143.1624,95.3991" id="Fill-159" fill="#52267D"></path>
                <path d="M178.4768,102.4899 C178.1668,102.4239 177.8898,102.2519 177.6928,102.0049 L177.3288,101.5449 L178.1408,101.7189 L178.6208,101.8219 C178.8048,101.8609 178.9218,102.0439 178.8828,102.2279 C178.8428,102.4129 178.6618,102.5299 178.4768,102.4899" id="Fill-161" fill="#52267D"></path>
                <path d="M136.4709,97.3942 C136.7809,97.3282 137.0579,97.1562 137.2549,96.9082 L137.6199,96.4492 L136.8069,96.6232 L136.3269,96.7262 C136.1429,96.7652 136.0259,96.9472 136.0649,97.1312 C136.1049,97.3162 136.2859,97.4342 136.4709,97.3942" id="Fill-163" fill="#52267D"></path>
                <path d="M147.429,102.0856 C147.429,102.0856 151.487,103.8146 155.58,102.2346 C155.152,104.6366 154.769,105.8616 154.769,105.8616 C154.769,105.8616 152.306,106.0066 150.675,105.6856 C148.346,105.2266 147.429,104.1676 147.429,102.0856" id="Fill-165" fill="#E1F2FF"></path>
                <g id="Group-170" transform="translate(146.000000, 103.000000)">
                    <path d="M7.0754,2.1647 C7.0754,2.1647 3.3824,2.4727 0.5234,0.9897" id="Fill-167" fill="#FFFFFF"></path>
                    <path d="M7.0754,2.1647 C7.0754,2.1647 3.3824,2.4727 0.5234,0.9897" id="Stroke-169" stroke="#52267D" stroke-width="0.5"></path>
                </g>
                <path d="M166.1389,106.7155 C166.1389,106.7155 162.5389,107.7385 159.3629,107.1045 C159.9629,109.4685 160.2809,110.2095 160.2809,110.2095 C160.2809,110.2095 165.0439,109.5745 166.1389,106.7155" id="Fill-171" fill="#E1F2FF"></path>
                <g id="Group-176" transform="translate(163.000000, 140.000000)">
                    <path d="M1.2073,0.2946 C1.2073,0.2946 0.9893,0.4516 0.6803,0.6386" id="Fill-173" fill="#F3E3FF"></path>
                    <path d="M1.2073,0.2946 C1.2073,0.2946 0.9893,0.4516 0.6803,0.6386" id="Stroke-175" stroke="#52267D" stroke-width="0.5"></path>
                </g>
                <g id="Group-180" transform="translate(159.000000, 108.000000)">
                    <path d="M7.4856,0.0768 C7.4856,0.0768 3.8626,0.7638 0.0156,0.3058" id="Fill-177" fill="#FFFFFF"></path>
                    <path d="M7.4856,0.0768 C7.4856,0.0768 3.8626,0.7638 0.0156,0.3058" id="Stroke-179" stroke="#52267D" stroke-width="0.5"></path>
                </g>
                <path d="M160.5471,182.6276 C160.5471,182.6276 159.5861,181.8446 158.3091,182.8936 C157.1421,183.8526 156.2641,185.3336 156.7861,185.4826 C157.3101,185.6316 158.2311,185.7756 159.1971,185.5996 C160.0391,185.4446 160.7821,185.6066 161.1201,183.8466 C161.2771,183.0256 160.5471,182.6276 160.5471,182.6276" id="Fill-181" fill="#FFFFFF"></path>
                <path d="M160.5471,182.6276 C160.5471,182.6276 159.5861,181.8446 158.3091,182.8936 C157.1421,183.8526 156.2641,185.3336 156.7861,185.4826 C157.3101,185.6316 158.2311,185.7756 159.1971,185.5996 C160.0391,185.4446 160.7821,185.6066 161.1201,183.8466 C161.2771,183.0256 160.5471,182.6276 160.5471,182.6276 Z" id="Stroke-183" stroke="#52267D" stroke-width="0.5"></path>
                <path d="M160.3284,182.9128 C160.3284,182.9128 159.7304,182.4258 158.9344,183.0788 C158.2094,183.6758 157.6624,184.5978 157.9884,184.6898 C158.3134,184.7818 158.8874,184.8728 159.4884,184.7628 C160.0124,184.6658 160.4744,184.7668 160.6844,183.6718 C160.7824,183.1608 160.3284,182.9128 160.3284,182.9128" id="Fill-185" fill="#E1F2FF"></path>
                <path d="M161.9114,182.61 C162.4194,182.542 163.1504,183.645 163.0664,183.981 C162.9834,184.317 162.9254,185.427 162.1034,185.548 C161.4984,185.637 159.3394,185.862 158.8674,185.393 C158.4324,184.961 159.2834,182.962 161.9114,182.61" id="Fill-187" fill="#FFFFFF"></path>
                <path d="M161.9114,182.61 C162.4194,182.542 163.1504,183.645 163.0664,183.981 C162.9834,184.317 162.9254,185.427 162.1034,185.548 C161.4984,185.637 159.3394,185.862 158.8674,185.393 C158.4324,184.961 159.2834,182.962 161.9114,182.61 Z" id="Stroke-189" stroke="#52267D" stroke-width="0.5"></path>
                <path d="M162.054,182.9157 C162.354,182.8757 162.785,183.5257 162.736,183.7247 C162.687,183.9237 162.653,184.5787 162.167,184.6497 C161.81,184.7017 160.535,184.8347 160.258,184.5587 C160.001,184.3027 160.503,183.1237 162.054,182.9157" id="Fill-191" fill="#E1F2FF"></path>
                <path d="M164.0598,182.8249 C164.0598,182.8249 163.6218,182.5959 162.7528,183.0929 C161.9858,183.5309 160.8398,184.2329 161.1418,185.1049 C161.4428,185.9769 163.8678,185.6529 164.4068,185.4689 C164.9458,185.2839 165.2838,184.6969 165.1888,184.1829 C164.9808,183.0629 164.0598,182.8249 164.0598,182.8249" id="Fill-193" fill="#FFFFFF"></path>
                <path d="M164.0598,182.8249 C164.0598,182.8249 163.6218,182.5959 162.7528,183.0929 C161.9858,183.5309 160.8398,184.2329 161.1418,185.1049 C161.4428,185.9769 163.8678,185.6529 164.4068,185.4689 C164.9458,185.2839 165.2838,184.6969 165.1888,184.1829 C164.9808,183.0629 164.0598,182.8249 164.0598,182.8249 Z" id="Stroke-195" stroke="#52267D" stroke-width="0.5"></path>
                <path d="M164.2249,183.1335 C164.2249,183.1335 163.9649,182.9975 163.4509,183.2915 C162.9959,183.5525 162.3189,183.9675 162.4959,184.4845 C162.6749,185.0005 164.1109,184.8085 164.4299,184.6985 C164.7489,184.5895 164.9499,184.2415 164.8929,183.9385 C164.7699,183.2755 164.2249,183.1335 164.2249,183.1335" id="Fill-197" fill="#E1F2FF"></path>
                <g id="Group-202" transform="translate(149.000000, 155.000000)">
                    <path d="M4.9221,0.0114 C4.9221,0.0114 5.4161,5.6284 3.9871,14.4584 C2.6581,22.6784 0.3011,25.2564 0.4751,27.3884 C0.6091,29.0384 1.3051,30.5504 2.9611,30.5504 L7.9011,30.5504 C10.2081,30.5504 12.2421,29.0774 12.9841,26.8934 C13.5811,25.1344 14.2021,22.7404 14.5731,19.7144 C14.9531,15.5984 14.8711,11.4704 14.8041,9.0454" id="Fill-199" fill="#9452BA"></path>
                    <path d="M4.9221,0.0114 C4.9221,0.0114 5.4161,5.6284 3.9871,14.4584 C2.6581,22.6784 0.3011,25.2564 0.4751,27.3884 C0.6091,29.0384 1.3051,30.5504 2.9611,30.5504 L7.9011,30.5504 C10.2081,30.5504 12.2421,29.0774 12.9841,26.8934 C13.5811,25.1344 14.2021,22.7404 14.5731,19.7144 C14.9531,15.5984 14.8711,11.4704 14.8041,9.0454" id="Stroke-201" stroke="#52267D"></path>
                </g>
                <g id="Group-206" transform="translate(175.000000, 158.000000)">
                    <path d="M4.2542,0.7272 C2.6172,2.1362 1.7692,4.4432 1.7812,6.5622 C1.7992,9.3922 3.4412,12.9952 2.4002,17.6972 C1.4732,21.8862 -0.3728,22.6252 0.1842,26.3832 C0.2832,27.0622 0.8932,27.5502 1.5782,27.5502 L7.0842,27.5502 C9.6182,27.5502 11.7872,25.7122 12.2012,23.2132 C13.3082,16.5382 12.4632,10.2372 11.5732,5.4022" id="Fill-203" fill="#9452BA"></path>
                    <path d="M4.2542,0.7272 C2.6172,2.1362 1.7692,4.4432 1.7812,6.5622 C1.7992,9.3922 3.4412,12.9952 2.4002,17.6972 C1.4732,21.8862 -0.3728,22.6252 0.1842,26.3832 C0.2832,27.0622 0.8932,27.5502 1.5782,27.5502 L7.0842,27.5502 C9.6182,27.5502 11.7872,25.7122 12.2012,23.2132 C13.3082,16.5382 12.4632,10.2372 11.5732,5.4022" id="Stroke-205" stroke="#52267D"></path>
                </g>
                <polyline id="Stroke-207" stroke="#52267D" stroke-width="0.25" points="180.3352 164.9636 180.6592 164.7316 181.7052 164.9666 180.5432 165.7086 179.1442 165.0196 180.5982 163.8576 181.2592 164.0786"></polyline>
                <path d="M150.554,182.6276 C150.554,182.6276 149.592,181.8446 148.315,182.8936 C147.148,183.8526 146.27,185.3336 146.792,185.4826 C147.316,185.6316 148.237,185.7756 149.204,185.5996 C150.045,185.4446 150.789,185.6066 151.126,183.8466 C151.283,183.0256 150.554,182.6276 150.554,182.6276" id="Fill-209" fill="#FFFFFF"></path>
                <path d="M150.554,182.6276 C150.554,182.6276 149.592,181.8446 148.315,182.8936 C147.148,183.8526 146.27,185.3336 146.792,185.4826 C147.316,185.6316 148.237,185.7756 149.204,185.5996 C150.045,185.4446 150.789,185.6066 151.126,183.8466 C151.283,183.0256 150.554,182.6276 150.554,182.6276 Z" id="Stroke-211" stroke="#52267D" stroke-width="0.5"></path>
                <path d="M150.3342,182.9128 C150.3342,182.9128 149.7362,182.4258 148.9412,183.0788 C148.2152,183.6758 147.6692,184.5978 147.9942,184.6898 C148.3192,184.7818 148.8932,184.8728 149.4942,184.7628 C150.0182,184.6658 150.4802,184.7668 150.6902,183.6718 C150.7892,183.1608 150.3342,182.9128 150.3342,182.9128" id="Fill-213" fill="#E1F2FF"></path>
                <polyline id="Stroke-215" stroke="#52267D" stroke-width="0.25" points="158.1106 168.069 156.1416 168.682 156.4026 170.506 158.4186 170.652 159.3576 169.568 158.1496 168.898 157.1516 169.188 157.7866 169.894"></polyline>
                <g id="Group-279" transform="translate(114.000000, 92.000000)" stroke="#F3E3FF" stroke-width="0.25">
                    <path d="M1.9407,16.0368 C1.9407,16.3328 2.1797,16.5728 2.4757,16.5728 C2.7717,16.5728 3.0117,16.3328 3.0117,16.0368" id="Stroke-217"></path>
                    <path d="M0.8684,16.0368 C0.8684,16.3328 1.1084,16.5728 1.4044,16.5728 C1.7004,16.5728 1.9404,16.3328 1.9404,16.0368" id="Stroke-219"></path>
                    <path d="M1.4046,16.5729 C1.4046,16.8689 1.6446,17.1089 1.9406,17.1089 C2.2366,17.1089 2.4756,16.8689 2.4756,16.5729" id="Stroke-221"></path>
                    <path d="M22.4709,15.5348 C22.8409,15.7648 23.3279,15.6508 23.5579,15.2808 C23.7879,14.9108 23.6739,14.4238 23.3039,14.1938" id="Stroke-223"></path>
                    <path d="M22.7249,16.6227 C23.0949,16.8517 23.5819,16.7387 23.8119,16.3687 C24.0419,15.9977 23.9289,15.5117 23.5579,15.2807" id="Stroke-225"></path>
                    <path d="M47.8977,33.5348 C47.8977,33.9318 48.2197,34.2538 48.6167,34.2538 C49.0137,34.2538 49.3347,33.9318 49.3347,33.5348" id="Stroke-227"></path>
                    <path d="M46.4602,33.5348 C46.4602,33.9318 46.7822,34.2538 47.1792,34.2538 C47.5762,34.2538 47.8972,33.9318 47.8972,33.5348" id="Stroke-229"></path>
                    <path d="M47.179,34.2536 C47.179,34.6506 47.501,34.9726 47.898,34.9726 C48.295,34.9726 48.616,34.6506 48.616,34.2536" id="Stroke-231"></path>
                    <path d="M26.4338,79.0661 C26.4338,79.4631 26.7548,79.7851 27.1528,79.7851 C27.5488,79.7851 27.8708,79.4631 27.8708,79.0661" id="Stroke-233"></path>
                    <path d="M24.9963,79.0661 C24.9963,79.4631 25.3173,79.7851 25.7153,79.7851 C26.1113,79.7851 26.4333,79.4631 26.4333,79.0661" id="Stroke-235"></path>
                    <path d="M25.7151,79.7849 C25.7151,80.1819 26.0361,80.5039 26.4341,80.5039 C26.8301,80.5039 27.1521,80.1819 27.1521,79.7849" id="Stroke-237"></path>
                    <path d="M46.7844,10.6305 C46.7844,11.0675 47.1384,11.4205 47.5744,11.4205 C48.0104,11.4205 48.3634,11.0675 48.3634,10.6305" id="Stroke-239"></path>
                    <path d="M45.9944,11.4206 C45.9944,11.8566 46.3484,12.2096 46.7844,12.2096 C47.2214,12.2096 47.5744,11.8566 47.5744,11.4206" id="Stroke-241"></path>
                    <path d="M36.6907,24.5768 C36.6907,25.1068 37.1207,25.5368 37.6507,25.5368 C38.1797,25.5368 38.6097,25.1068 38.6097,24.5768" id="Stroke-243"></path>
                    <path d="M35.7317,25.5368 C35.7317,26.0668 36.1607,26.4958 36.6907,26.4958 C37.2207,26.4958 37.6507,26.0668 37.6507,25.5368" id="Stroke-245"></path>
                    <path d="M22.7532,0.7204 C22.7532,1.0744 23.0402,1.3624 23.3952,1.3624 C23.7492,1.3624 24.0362,1.0744 24.0362,0.7204" id="Stroke-247"></path>
                    <path d="M22.1106,1.362 C22.1106,1.716 22.3986,2.004 22.7536,2.004 C23.1076,2.004 23.3946,1.716 23.3946,1.362" id="Stroke-249"></path>
                    <path d="M83.1575,65.4255 C83.4215,65.7365 83.8865,65.7755 84.1985,65.5115 C84.5105,65.2475 84.5485,64.7805 84.2845,64.4695" id="Stroke-251"></path>
                    <path d="M83.0706,66.4665 C83.3356,66.7785 83.8006,66.8165 84.1126,66.5525 C84.4246,66.2885 84.4626,65.8225 84.1986,65.5115" id="Stroke-253"></path>
                    <path d="M53.7883,55.2233 C53.9863,55.6593 54.5013,55.8513 54.9363,55.6533 C55.3723,55.4533 55.5643,54.9403 55.3653,54.5043" id="Stroke-255"></path>
                    <path d="M52.2112,55.9431 C52.4092,56.3791 52.9242,56.5711 53.3592,56.3721 C53.7952,56.1731 53.9862,55.6591 53.7882,55.2231" id="Stroke-257"></path>
                    <path d="M53.3596,56.3718 C53.5576,56.8078 54.0726,56.9998 54.5076,56.8018 C54.9436,56.6018 55.1346,56.0888 54.9366,55.6528" id="Stroke-259"></path>
                    <path d="M51.7825,57.0915 C51.9805,57.5275 52.4955,57.7195 52.9305,57.5205 C53.3665,57.3215 53.5575,56.8075 53.3595,56.3715" id="Stroke-261"></path>
                    <path d="M54.5081,56.8015 C54.7061,57.2375 55.2211,57.4285 55.6561,57.2305 C56.0921,57.0305 56.2831,56.5175 56.0851,56.0815" id="Stroke-263"></path>
                    <path d="M38.6946,7.2077 C38.6946,7.6907 39.0866,8.0827 39.5696,8.0827 C40.0516,8.0827 40.4436,7.6907 40.4436,7.2077" id="Stroke-265"></path>
                    <path d="M38.3918,40.2604 C38.3918,40.7424 38.7838,41.1344 39.2658,41.1344 C39.7488,41.1344 40.1408,40.7424 40.1408,40.2604" id="Stroke-267"></path>
                    <path d="M48.304,22.0407 C48.304,22.4057 48.601,22.7027 48.967,22.7027 C49.332,22.7027 49.629,22.4057 49.629,22.0407" id="Stroke-269"></path>
                    <path d="M64.0833,6.9831 C64.0833,7.2571 64.3063,7.4801 64.5803,7.4801 C64.8543,7.4801 65.0773,7.2571 65.0773,6.9831" id="Stroke-271"></path>
                    <path d="M68.22,80.0847 C68.302,80.5607 68.755,80.8797 69.231,80.7967 C69.707,80.7137 70.026,80.2617 69.943,79.7847" id="Stroke-273"></path>
                    <path d="M44.0579,86.527 C44.0579,87.056 44.4879,87.486 45.0179,87.486 C45.5479,87.486 45.9779,87.056 45.9779,86.527" id="Stroke-275"></path>
                    <path d="M43.0989,87.486 C43.0989,88.016 43.5289,88.446 44.0579,88.446 C44.5879,88.446 45.0179,88.016 45.0179,87.486" id="Stroke-277"></path>
                </g>
                <path d="M151.9172,182.61 C152.4252,182.542 153.1562,183.645 153.0732,183.981 C152.9892,184.317 152.9322,185.427 152.1102,185.548 C151.5042,185.637 149.3452,185.862 148.8732,185.393 C148.4382,184.961 149.2902,182.962 151.9172,182.61" id="Fill-280" fill="#FFFFFF"></path>
                <path d="M151.9172,182.61 C152.4252,182.542 153.1562,183.645 153.0732,183.981 C152.9892,184.317 152.9322,185.427 152.1102,185.548 C151.5042,185.637 149.3452,185.862 148.8732,185.393 C148.4382,184.961 149.2902,182.962 151.9172,182.61 Z" id="Stroke-282" stroke="#52267D" stroke-width="0.5"></path>
                <path d="M152.0598,182.9157 C152.3598,182.8757 152.7908,183.5257 152.7418,183.7247 C152.6928,183.9237 152.6588,184.5787 152.1728,184.6497 C151.8168,184.7017 150.5418,184.8347 150.2638,184.5587 C150.0068,184.3027 150.5088,183.1237 152.0598,182.9157" id="Fill-284" fill="#E1F2FF"></path>
                <path d="M153.7219,183.153 C153.7219,183.153 153.3339,182.95 152.5659,183.389 C151.8869,183.778 150.8739,184.398 151.1409,185.17 C151.4079,185.941 153.5509,185.654 154.0279,185.491 C154.5039,185.328 154.8039,184.809 154.7199,184.354 C154.5359,183.364 153.7219,183.153 153.7219,183.153" id="Fill-286" fill="#FFFFFF"></path>
                <path d="M153.7219,183.153 C153.7219,183.153 153.3339,182.95 152.5659,183.389 C151.8869,183.778 150.8739,184.398 151.1409,185.17 C151.4079,185.941 153.5509,185.654 154.0279,185.491 C154.5039,185.328 154.8039,184.809 154.7199,184.354 C154.5359,183.364 153.7219,183.153 153.7219,183.153 Z" id="Stroke-288" stroke="#52267D" stroke-width="0.5"></path>
                <path d="M153.8674,183.4255 C153.8674,183.4255 153.6384,183.3065 153.1824,183.5665 C152.7814,183.7955 152.1804,184.1635 152.3394,184.6195 C152.4974,185.0765 153.7664,184.9065 154.0494,184.8105 C154.3314,184.7135 154.5084,184.4065 154.4584,184.1375 C154.3494,183.5505 153.8674,183.4255 153.8674,183.4255" id="Fill-290" fill="#E1F2FF"></path>
                <path d="M133.4426,183.3669 C133.4426,183.3669 133.0546,183.1639 132.2876,183.6029 C131.6086,183.9919 130.5956,184.6119 130.8626,185.3839 C131.1296,186.1549 133.2726,185.8679 133.7496,185.7049 C134.2256,185.5419 134.5256,185.0229 134.4406,184.5679 C134.2566,183.5779 133.4426,183.3669 133.4426,183.3669" id="Fill-292" fill="#FFFFFF"></path>
                <path d="M133.4426,183.3669 C133.4426,183.3669 133.0546,183.1639 132.2876,183.6029 C131.6086,183.9919 130.5956,184.6119 130.8626,185.3839 C131.1296,186.1549 133.2726,185.8679 133.7496,185.7049 C134.2256,185.5419 134.5256,185.0229 134.4406,184.5679 C134.2566,183.5779 133.4426,183.3669 133.4426,183.3669 Z" id="Stroke-294" stroke="#52267D" stroke-width="0.5"></path>
                <path d="M133.5891,183.6393 C133.5891,183.6393 133.3601,183.5203 132.9041,183.7803 C132.5021,184.0103 131.9021,184.3773 132.0611,184.8333 C132.2181,185.2903 133.4871,185.1203 133.7701,185.0243 C134.0521,184.9273 134.2301,184.6203 134.1801,184.3513 C134.0701,183.7643 133.5891,183.6393 133.5891,183.6393" id="Fill-296" fill="#E1F2FF"></path>
                <path d="M135.7883,182.8239 C136.2963,182.7559 137.0273,183.8589 136.9443,184.1949 C136.8603,184.5309 136.8033,185.6409 135.9813,185.7619 C135.3753,185.8509 133.2163,186.0759 132.7443,185.6069 C132.3093,185.1749 133.1613,183.1759 135.7883,182.8239" id="Fill-298" fill="#FFFFFF"></path>
                <path d="M135.7883,182.8239 C136.2963,182.7559 137.0273,183.8589 136.9443,184.1949 C136.8603,184.5309 136.8033,185.6409 135.9813,185.7619 C135.3753,185.8509 133.2163,186.0759 132.7443,185.6069 C132.3093,185.1749 133.1613,183.1759 135.7883,182.8239 Z" id="Stroke-300" stroke="#52267D" stroke-width="0.5"></path>
                <path d="M135.9309,183.1296 C136.2309,183.0896 136.6619,183.7396 136.6129,183.9386 C136.5639,184.1376 136.5299,184.7926 136.0439,184.8636 C135.6879,184.9156 134.4129,185.0486 134.1349,184.7726 C133.8779,184.5166 134.3799,183.3376 135.9309,183.1296" id="Fill-302" fill="#E1F2FF"></path>
                <path d="M177.2834,182.6276 C177.2834,182.6276 176.3214,181.8446 175.0444,182.8936 C173.8774,183.8526 172.9994,185.3336 173.5224,185.4826 C174.0454,185.6316 174.9664,185.7756 175.9334,185.5996 C176.7744,185.4446 177.5184,185.6066 177.8554,183.8466 C178.0124,183.0256 177.2834,182.6276 177.2834,182.6276" id="Fill-304" fill="#FFFFFF"></path>
                <path d="M177.2834,182.6276 C177.2834,182.6276 176.3214,181.8446 175.0444,182.8936 C173.8774,183.8526 172.9994,185.3336 173.5224,185.4826 C174.0454,185.6316 174.9664,185.7756 175.9334,185.5996 C176.7744,185.4446 177.5184,185.6066 177.8554,183.8466 C178.0124,183.0256 177.2834,182.6276 177.2834,182.6276 Z" id="Stroke-306" stroke="#52267D" stroke-width="0.5"></path>
                <path d="M177.0637,182.9128 C177.0637,182.9128 176.4657,182.4258 175.6707,183.0788 C174.9447,183.6758 174.3987,184.5978 174.7237,184.6898 C175.0487,184.7818 175.6227,184.8728 176.2237,184.7628 C176.7487,184.6658 177.2097,184.7668 177.4207,183.6718 C177.5187,183.1608 177.0637,182.9128 177.0637,182.9128" id="Fill-308" fill="#E1F2FF"></path>
                <path d="M178.6477,182.61 C179.1557,182.542 179.8857,183.645 179.8027,183.981 C179.7187,184.317 179.6617,185.427 178.8397,185.548 C178.2347,185.637 176.0747,185.862 175.6037,185.393 C175.1687,184.961 176.0197,182.962 178.6477,182.61" id="Fill-310" fill="#FFFFFF"></path>
                <path d="M178.6477,182.61 C179.1557,182.542 179.8857,183.645 179.8027,183.981 C179.7187,184.317 179.6617,185.427 178.8397,185.548 C178.2347,185.637 176.0747,185.862 175.6037,185.393 C175.1687,184.961 176.0197,182.962 178.6477,182.61 Z" id="Stroke-312" stroke="#52267D" stroke-width="0.5"></path>
                <path d="M178.7893,182.9157 C179.0893,182.8757 179.5203,183.5257 179.4713,183.7247 C179.4223,183.9237 179.3883,184.5787 178.9033,184.6497 C178.5463,184.7017 177.2713,184.8347 176.9933,184.5587 C176.7363,184.3027 177.2383,183.1237 178.7893,182.9157" id="Fill-314" fill="#E1F2FF"></path>
                <path d="M180.4514,183.153 C180.4514,183.153 180.0634,182.95 179.2954,183.389 C178.6164,183.778 177.6034,184.398 177.8704,185.17 C178.1374,185.941 180.2804,185.654 180.7584,185.491 C181.2344,185.328 181.5334,184.809 181.4494,184.354 C181.2654,183.364 180.4514,183.153 180.4514,183.153" id="Fill-316" fill="#FFFFFF"></path>
                <path d="M180.4514,183.153 C180.4514,183.153 180.0634,182.95 179.2954,183.389 C178.6164,183.778 177.6034,184.398 177.8704,185.17 C178.1374,185.941 180.2804,185.654 180.7584,185.491 C181.2344,185.328 181.5334,184.809 181.4494,184.354 C181.2654,183.364 180.4514,183.153 180.4514,183.153 Z" id="Stroke-318" stroke="#52267D" stroke-width="0.5"></path>
                <path d="M180.5969,183.4255 C180.5969,183.4255 180.3679,183.3065 179.9119,183.5665 C179.5109,183.7955 178.9109,184.1635 179.0689,184.6195 C179.2269,185.0765 180.4959,184.9065 180.7789,184.8105 C181.0609,184.7135 181.2379,184.4065 181.1879,184.1375 C181.0789,183.5505 180.5969,183.4255 180.5969,183.4255" id="Fill-320" fill="#E1F2FF"></path>
                <path d="M142.4583,183.2985 C142.6163,183.1645 142.8073,183.1275 142.9633,183.2005 C143.5463,183.4765 145.0203,184.2585 144.7163,185.3175 C144.4793,186.1425 143.9753,185.8945 143.0123,185.9115 L142.2853,185.9255 C142.1353,185.9285 142.0023,185.8505 141.9193,185.7125 C141.5013,185.0145 141.7283,183.9155 142.4073,183.3415 L142.4583,183.2985 Z" id="Fill-322" fill="#FFFFFF"></path>
                <path d="M142.4583,183.2985 C142.6163,183.1645 142.8073,183.1275 142.9633,183.2005 C143.5463,183.4765 145.0203,184.2585 144.7163,185.3175 C144.4793,186.1425 143.9753,185.8945 143.0123,185.9115 L142.2853,185.9255 C142.1353,185.9285 142.0023,185.8505 141.9193,185.7125 C141.5013,185.0145 141.7283,183.9155 142.4073,183.3415 L142.4583,183.2985 Z" id="Stroke-324" stroke="#52267D" stroke-width="0.5"></path>
                <path d="M142.5325,183.5358 C142.6485,183.4378 142.7865,183.4108 142.9005,183.4648 C143.3245,183.6648 144.3945,184.2328 144.1735,185.0028 C144.0015,185.6018 143.6355,185.4218 142.9355,185.4338 L142.4075,185.4438 C142.2985,185.4458 142.2015,185.3898 142.1415,185.2898 C141.8385,184.7818 142.0025,183.9838 142.4965,183.5668 L142.5325,183.5358 Z" id="Fill-326" fill="#E1F2FF"></path>
                <path d="M139.0481,182.9821 C139.0481,182.9821 138.1571,182.1211 136.7951,183.0571 C135.5511,183.9141 134.5501,185.3151 135.0591,185.5081 C135.5681,185.7011 136.4731,185.9231 137.4511,185.8291 C138.3031,185.7471 139.0291,185.9711 139.5161,184.2461 C139.7421,183.4421 139.0481,182.9821 139.0481,182.9821" id="Fill-328" fill="#FFFFFF"></path>
                <path d="M139.0481,182.9821 C139.0481,182.9821 138.1571,182.1211 136.7951,183.0571 C135.5511,183.9141 134.5501,185.3151 135.0591,185.5081 C135.5681,185.7011 136.4731,185.9231 137.4511,185.8291 C138.3031,185.7471 139.0291,185.9711 139.5161,184.2461 C139.7421,183.4421 139.0481,182.9821 139.0481,182.9821 Z" id="Stroke-330" stroke="#52267D" stroke-width="0.5"></path>
                <path d="M138.8059,183.2487 C138.8059,183.2487 138.2509,182.7117 137.4039,183.2957 C136.6289,183.8277 136.0069,184.6997 136.3239,184.8197 C136.6399,184.9397 137.2029,185.0787 137.8119,185.0197 C138.3419,184.9687 138.7939,185.1077 139.0969,184.0347 C139.2379,183.5337 138.8059,183.2487 138.8059,183.2487" id="Fill-332" fill="#E1F2FF"></path>
                <g id="Group-337" transform="translate(16.000000, 185.000000)">
                    <path d="M0.9778,0.9245 L36.9778,0.9245" id="Fill-334" fill="#FFFFFF"></path>
                    <path d="M0.9778,0.9245 L36.9778,0.9245" id="Stroke-336" stroke="#5E63B6" stroke-width="2" stroke-linecap="round" stroke-linejoin="round"></path>
                </g>
                <g id="Group-341" transform="translate(192.000000, 185.000000)">
                    <path d="M0.3196,0.9245 L44.3196,0.9245" id="Fill-338" fill="#FFFFFF"></path>
                    <path d="M0.3196,0.9245 L44.3196,0.9245" id="Stroke-340" stroke="#5E63B6" stroke-width="2" stroke-linecap="round" stroke-linejoin="round"></path>
                </g>
                <path d="M185.8284,186.9245 L61.6944,186.9245 C60.4494,186.9245 59.4394,185.9145 59.4394,184.6695 L59.4394,2.6465 C59.4394,1.4015 60.4494,0.3915 61.6944,0.3915 L185.8284,0.3915 C187.0734,0.3915 188.0834,1.4015 188.0834,2.6465 L188.0834,184.6695 C188.0834,185.9145 187.0734,186.9245 185.8284,186.9245" id="Fill-342" fill="#FFFFFF"></path>
                <path d="M185.8284,186.9245 L61.6944,186.9245 C60.4494,186.9245 59.4394,185.9145 59.4394,184.6695 L59.4394,2.6465 C59.4394,1.4015 60.4494,0.3915 61.6944,0.3915 L185.8284,0.3915 C187.0734,0.3915 188.0834,1.4015 188.0834,2.6465 L188.0834,184.6695 C188.0834,185.9145 187.0734,186.9245 185.8284,186.9245 Z" id="Stroke-344" stroke="#5E63B6" stroke-width="2"></path>
                <path d="M203.9778,32.9333 L203.9778,39.9333" id="Stroke-346" stroke="#5E63B6" stroke-width="2" stroke-linecap="round" stroke-linejoin="round"></path>
                <path d="M207.4778,36.4333 L200.4778,36.4333" id="Stroke-348" stroke="#5E63B6" stroke-width="2" stroke-linecap="round" stroke-linejoin="round"></path>
                <path d="M39.7278,153.2145 L39.7278,157.1525" id="Stroke-350" stroke="#5E63B6" stroke-linecap="round"></path>
                <path d="M41.6965,155.1833 L37.7585,155.1833" id="Stroke-352" stroke="#5E63B6" stroke-linecap="round"></path>
                <path d="M214.7278,93.2145 L214.7278,97.1525" id="Stroke-354" stroke="#5E63B6" stroke-linecap="round" stroke-linejoin="round"></path>
                <path d="M216.6965,95.1833 L212.7585,95.1833" id="Stroke-356" stroke="#5E63B6" stroke-linecap="round" stroke-linejoin="round"></path>
                <path d="M45.7278,53.2145 L45.7278,57.1525" id="Stroke-358" stroke="#5E63B6" stroke-linecap="round"></path>
                <path d="M47.6965,55.1833 L43.7585,55.1833" id="Stroke-360" stroke="#5E63B6" stroke-linecap="round"></path>
                <g id="Group-365" transform="translate(23.000000, 91.000000)">
                    <path d="M0.4153,0.8083 L0.4153,8.9333" id="Fill-362" fill="#FFFFFF"></path>
                    <path d="M0.4153,0.8083 L0.4153,8.9333" id="Stroke-364" stroke="#5E63B6" stroke-width="2" stroke-linecap="round"></path>
                </g>
                <g id="Group-369" transform="translate(19.000000, 95.000000)">
                    <path d="M8.4778,0.8708 L0.3528,0.8708" id="Fill-366" fill="#FFFFFF"></path>
                    <path d="M8.4778,0.8708 L0.3528,0.8708" id="Stroke-368" stroke="#5E63B6" stroke-width="2" stroke-linecap="round"></path>
                </g>
                <g id="Group-373" transform="translate(243.000000, 185.000000)">
                    <path d="M0.1663,0.6833 L7.1403,0.6833" id="Fill-370" fill="#FFFFFF"></path>
                    <path d="M0.1663,0.6833 L7.1403,0.6833" id="Stroke-372" stroke="#5E63B6" stroke-width="2" stroke-linecap="round" stroke-linejoin="round"></path>
                </g>
                <g id="Group-377" transform="translate(0.000000, 185.000000)">
                    <path d="M0.0003,0.6833 L8.9733,0.6833" id="Fill-374" fill="#FFFFFF"></path>
                    <path d="M0.0003,0.6833 L8.9733,0.6833" id="Stroke-376" stroke="#5E63B6" stroke-width="2" stroke-linecap="round" stroke-linejoin="round"></path>
                </g>
                <g id="Group-381" transform="translate(92.000000, 195.000000)">
                    <path d="M0.3821,-0.0003 L67.5691,-0.0003" id="Fill-378" fill="#FFFFFF"></path>
                    <path d="M0.3821,-0.0003 L67.5691,-0.0003" id="Stroke-380" stroke="#5E63B6" stroke-width="2" stroke-linecap="round" stroke-linejoin="round"></path>
                </g>
                <g id="Group-385" transform="translate(168.000000, 195.000000)">
                    <path d="M0.1868,-0.0003 L9.3288,-0.0003" id="Fill-382" fill="#FFFFFF"></path>
                    <path d="M0.1868,-0.0003 L9.3288,-0.0003" id="Stroke-384" stroke="#5E63B6" stroke-width="2" stroke-linecap="round" stroke-linejoin="round"></path>
                </g>
                <g id="Group-389" transform="translate(79.000000, 194.000000)">
                    <path d="M5.5003,0.9245 L0.5003,0.9995" id="Fill-386" fill="#FFFFFF"></path>
                    <path d="M5.5003,0.9245 L0.5003,0.9995" id="Stroke-388" stroke="#5E63B6" stroke-width="2" stroke-linecap="round" stroke-linejoin="round"></path>
                </g>
                <path d="M154.1643,83.2624 C154.1643,101.7254 139.1973,116.6924 120.7343,116.6924 C102.2713,116.6924 87.3043,101.7254 87.3043,83.2624 C87.3043,64.7994 102.2713,49.8324 120.7343,49.8324 C139.1973,49.8324 154.1643,64.7994 154.1643,83.2624" id="Fill-390" fill="#E1F2FF"></path>
                <path d="M158.219,76.5041 C158.219,94.9671 143.252,109.9341 124.789,109.9341 C106.326,109.9341 91.36,94.9671 91.36,76.5041 C91.36,58.0411 106.326,43.0741 124.789,43.0741 C143.252,43.0741 158.219,58.0411 158.219,76.5041" id="Fill-392" fill="#FFFFFF"></path>
                <path d="M158.219,76.5041 C158.219,94.9671 143.252,109.9341 124.789,109.9341 C106.326,109.9341 91.36,94.9671 91.36,76.5041 C91.36,58.0411 106.326,43.0741 124.789,43.0741 C143.252,43.0741 158.219,58.0411 158.219,76.5041 Z" id="Stroke-394" stroke="#5E63B6" stroke-width="2" stroke-dasharray="50,5,70,2"></path>
                <path d="M133.5159,91.4606 C133.6579,91.8776 133.7809,92.1616 133.8179,92.2556 C133.8289,92.2656 133.8059,92.2506 133.8179,92.2556 C133.8179,92.2556 133.8179,92.2586 133.8179,92.2556 C133.8189,92.2576 133.8159,92.2556 133.8159,92.2556 C132.8719,83.1446 138.0379,79.3486 139.6999,73.2966 C139.7069,73.2066 139.7249,73.1086 139.7519,72.9986 C139.7869,72.8636 139.8149,72.7236 139.8349,72.5846 C140.0819,70.9096 139.3959,68.9606 138.0959,66.9316 C138.0909,66.9196 138.0819,66.9096 138.0769,66.8986 C137.9699,66.7296 137.8549,66.5616 137.7409,66.3926 C137.7409,66.3926 137.7359,66.3896 137.7359,66.3856 C137.5229,66.0776 137.2939,65.7666 137.0549,65.4546 C137.0309,65.4226 137.0079,65.3886 136.9829,65.3566 C136.9149,65.2726 136.8459,65.1886 136.7809,65.1026 C136.7099,65.0146 136.6419,64.9256 136.5729,64.8406 C136.4999,64.7546 136.4309,64.6696 136.3599,64.5866 C136.2869,64.4966 136.2129,64.4106 136.1379,64.3216 C136.0879,64.2626 136.0329,64.2006 135.9779,64.1376 C133.9369,61.7866 131.2799,59.4626 128.5059,57.4416 C128.5059,57.4416 128.4849,57.4106 128.5059,57.4416 C128.8729,60.8706 128.9199,64.2996 128.5949,67.0406 C128.2039,70.3456 127.0199,74.1936 125.3789,77.6806 C121.5379,77.3666 117.6129,76.4766 114.5499,75.1696 C111.9909,74.0766 109.0579,72.3516 106.2539,70.3056 C106.2859,70.5906 106.3199,70.8716 106.3529,71.1566 C106.3629,71.2406 106.3749,71.3246 106.3859,71.4096 C106.4119,71.6126 106.4369,71.8136 106.4679,72.0166 C106.4799,72.1096 106.4939,72.2036 106.5089,72.2966 C106.5379,72.5006 106.5689,72.7026 106.6019,72.9036 C106.6149,72.9846 106.6279,73.0676 106.6409,73.1496 C106.6829,73.4056 106.7269,73.6596 106.7739,73.9136 C106.7759,73.9396 106.7799,73.9646 106.7859,73.9886 C106.8369,74.2836 106.8939,74.5756 106.9529,74.8676 C106.9539,74.8896 106.9609,74.9106 106.9659,74.9346 C107.0199,75.1966 107.0729,75.4546 107.1289,75.7136 C107.1409,75.7676 107.1529,75.8196 107.1629,75.8726 C107.2159,76.1086 107.2709,76.3436 107.3259,76.5786 C107.3389,76.6236 107.3509,76.6686 107.3609,76.7166 C107.4279,76.9866 107.4939,77.2566 107.5639,77.5226 C107.5659,77.5236 107.5659,77.5266 107.5659,77.5266 C107.7929,78.3816 108.0409,79.2076 108.3109,79.9996 C108.3149,80.0106 108.3189,80.0186 108.3199,80.0286 C108.7759,81.3516 109.2949,82.5706 109.8739,83.6376 C109.9599,83.7916 110.0459,83.9446 110.1339,84.0926 C110.1379,84.0986 110.1379,84.1056 110.1429,84.1106 L110.1439,84.1106 C110.2229,84.2466 110.3039,84.3796 110.3839,84.5066 L110.3869,84.5096 C110.3869,84.5096 110.3929,84.5186 110.3959,84.5236 C110.4829,84.6626 110.5719,84.7996 110.6629,84.9286 L110.6629,84.9296 C110.6759,84.9476 110.6869,84.9636 110.7009,84.9816 C110.7029,84.9816 110.7009,84.9846 110.7029,84.9856 C110.8189,85.1556 110.9399,85.3186 111.0579,85.4746 C111.0809,85.5006 111.1009,85.5256 111.1199,85.5496 C111.1259,85.5596 111.1339,85.5676 111.1409,85.5796 C111.2799,85.7536 111.4209,85.9226 111.5689,86.0806 C111.6679,86.1926 111.7719,86.2976 111.8759,86.4016 C111.9199,86.4456 111.9659,86.4856 112.0099,86.5266 C112.0759,86.5886 112.1409,86.6466 112.2059,86.7056 C112.2549,86.7486 112.3059,86.7866 112.3579,86.8286 C112.4189,86.8806 112.4849,86.9306 112.5479,86.9806 C112.5989,87.0186 112.6489,87.0536 112.7019,87.0896 C112.7679,87.1376 112.8319,87.1826 112.8999,87.2276 C112.9499,87.2576 113.0019,87.2906 113.0539,87.3216 C113.1239,87.3626 113.1969,87.4016 113.2659,87.4416 C113.3149,87.4686 113.3659,87.4936 113.4129,87.5186 C113.4949,87.5566 113.5759,87.5916 113.6589,87.6276 C113.6969,87.6416 113.7399,87.6636 113.7819,87.6776 C113.9069,87.7296 114.0329,87.7706 114.1589,87.8056 C114.2439,87.8316 114.3159,87.8576 114.3849,87.8846 C120.4679,89.4906 126.3899,86.9446 133.8179,92.2556" id="Fill-396" fill="#9452BA"></path>
                <path d="M73.8684,117.8122 C73.8684,117.8122 73.3974,103.3572 87.4494,96.4852" id="Stroke-398" stroke="#E1F2FF" stroke-width="2" stroke-linecap="round" stroke-linejoin="round"></path>
                <polygon id="Fill-400" fill="#E1F2FF" points="85.8411 107.068 83.9301 106.47 86.8841 97.062 77.2831 94.803 77.7431 92.855 89.4351 95.608"></polygon>
                <path d="M95.1555,25.7258 C95.1555,25.7258 109.5975,26.4908 115.2465,41.0768" id="Stroke-402" stroke="#E1F2FF" stroke-width="2" stroke-linecap="round" stroke-linejoin="round"></path>
                <polygon id="Fill-404" fill="#E1F2FF" points="104.8401 38.571 105.5981 36.718 114.7201 40.464 117.7891 31.091 119.6911 31.715 115.9511 43.13"></polygon>
                <path d="M76.2883,18.1384 L86.5113,28.3614" id="Stroke-406" stroke="#ACD3EF" stroke-width="2" stroke-linecap="round" stroke-linejoin="round"></path>
                <path d="M86.511,18.1384 L76.288,28.3614" id="Stroke-408" stroke="#ACD3EF" stroke-width="2" stroke-linecap="round" stroke-linejoin="round"></path>
                <path d="M167.0774,29.5495 C167.0774,29.3535 167.1154,29.1685 167.1894,28.9925 C167.2634,28.8175 167.3664,28.6665 167.4974,28.5385 C167.6274,28.4105 167.7814,28.3095 167.9564,28.2355 C168.1314,28.1615 168.3224,28.1235 168.5314,28.1235 C168.7324,28.1235 168.9234,28.1615 169.1004,28.2355 C169.2794,28.3095 169.4334,28.4105 169.5654,28.5385 C169.6954,28.6665 169.7974,28.8175 169.8734,28.9925 C169.9464,29.1685 169.9834,29.3535 169.9834,29.5495 C169.9834,29.7515 169.9464,29.9385 169.8734,30.1115 C169.7974,30.2835 169.6954,30.4325 169.5654,30.5605 C169.4334,30.6895 169.2794,30.7885 169.1004,30.8595 C168.9234,30.9305 168.7324,30.9665 168.5314,30.9665 C168.3224,30.9665 168.1314,30.9305 167.9564,30.8595 C167.7814,30.7885 167.6274,30.6895 167.4974,30.5605 C167.3664,30.4325 167.2634,30.2835 167.1894,30.1115 C167.1154,29.9385 167.0774,29.7515 167.0774,29.5495 Z M165.4124,19.0865 C165.6254,18.9025 165.8564,18.7295 166.1024,18.5705 C166.3494,18.4085 166.6164,18.2695 166.9044,18.1505 C167.1924,18.0315 167.5044,17.9385 167.8414,17.8695 C168.1764,17.8005 168.5374,17.7675 168.9234,17.7675 C169.4584,17.7675 169.9424,17.8405 170.3764,17.9855 C170.8094,18.1315 171.1814,18.3395 171.4904,18.6095 C171.7994,18.8805 172.0384,19.2055 172.2074,19.5855 C172.3774,19.9655 172.4614,20.3905 172.4614,20.8605 C172.4614,21.3115 172.3964,21.7015 172.2694,22.0325 C172.1414,22.3615 171.9814,22.6495 171.7894,22.8925 C171.5954,23.1365 171.3834,23.3465 171.1504,23.5255 C170.9194,23.7035 170.6994,23.8685 170.4924,24.0245 C170.2834,24.1775 170.1034,24.3315 169.9524,24.4825 C169.8004,24.6345 169.7074,24.8015 169.6714,24.9865 L169.4494,26.2605 L167.7644,26.2605 L167.5964,24.8175 C167.5534,24.5315 167.5904,24.2835 167.7024,24.0735 C167.8144,23.8615 167.9674,23.6685 168.1564,23.4935 C168.3474,23.3195 168.5584,23.1495 168.7944,22.9855 C169.0284,22.8215 169.2474,22.6475 169.4534,22.4605 C169.6584,22.2735 169.8314,22.0615 169.9704,21.8265 C170.1094,21.5925 170.1814,21.3145 170.1814,20.9935 C170.1814,20.6025 170.0444,20.2905 169.7744,20.0585 C169.5044,19.8255 169.1454,19.7105 168.7004,19.7105 C168.3734,19.7105 168.0984,19.7465 167.8754,19.8175 C167.6534,19.8885 167.4624,19.9665 167.3014,20.0535 C167.1394,20.1395 167.0034,20.2175 166.8904,20.2905 C166.7784,20.3615 166.6714,20.3965 166.5694,20.3965 C166.3454,20.3965 166.1754,20.2995 166.0614,20.1015 L165.4124,19.0865 Z" id="Fill-410" fill="#ACD3EF"></path>
                <path d="M75.9085,124.4079 C75.9085,125.3609 75.1365,126.1339 74.1825,126.1339 C73.2295,126.1339 72.4575,125.3609 72.4575,124.4079 C72.4575,123.4549 73.2295,122.6819 74.1825,122.6819 C75.1365,122.6819 75.9085,123.4549 75.9085,124.4079" id="Fill-412" fill="#ACD3EF"></path>
                <path d="M81.1673,124.4079 C81.1673,125.3609 80.3953,126.1339 79.4413,126.1339 C78.4883,126.1339 77.7163,125.3609 77.7163,124.4079 C77.7163,123.4549 78.4883,122.6819 79.4413,122.6819 C80.3953,122.6819 81.1673,123.4549 81.1673,124.4079" id="Fill-414" fill="#ACD3EF"></path>
                <path d="M86.426,124.4079 C86.426,125.3609 85.654,126.1339 84.7,126.1339 C83.747,126.1339 82.975,125.3609 82.975,124.4079 C82.975,123.4549 83.747,122.6819 84.7,122.6819 C85.654,122.6819 86.426,123.4549 86.426,124.4079" id="Fill-416" fill="#ACD3EF"></path>
                <path d="M161.2717,44.8322 C161.2717,51.5482 155.8277,56.9932 149.1117,56.9932 C142.3957,56.9932 136.9517,51.5482 136.9517,44.8322 C136.9517,38.1162 142.3957,32.6722 149.1117,32.6722 C155.8277,32.6722 161.2717,38.1162 161.2717,44.8322 Z" id="Stroke-418" stroke="#E1F2FF" stroke-width="2"></path>
                <path d="M150.0735,91.756 C150.0735,91.756 170.6725,102.683 160.1375,125.11" id="Stroke-420" stroke="#E1F2FF" stroke-width="2" stroke-linecap="round" stroke-linejoin="round"></path>
                <polygon id="Fill-422" fill="#E1F2FF" points="155.0042 115.7809 156.8822 115.0869 160.2932 124.3399 169.2732 120.2609 170.0992 122.0849 159.1612 127.0499"></polygon>
                <g id="Group-427" transform="translate(165.000000, 65.000000)">
                    <path d="M0.8987,0.8156 L11.6227,0.8156" id="Fill-424" fill="#FFFFFF"></path>
                    <path d="M0.8987,0.8156 L11.6227,0.8156" id="Stroke-426" stroke="#E1F2FF" stroke-width="2" stroke-linecap="round" stroke-linejoin="round"></path>
                </g>
                <g id="Group-431" transform="translate(165.000000, 69.000000)">
                    <path d="M0.8987,0.8444 L11.6227,0.8444" id="Fill-428" fill="#FFFFFF"></path>
                    <path d="M0.8987,0.8444 L11.6227,0.8444" id="Stroke-430" stroke="#E1F2FF" stroke-width="2" stroke-linecap="round" stroke-linejoin="round"></path>
                </g>
                <g id="Group-435" transform="translate(165.000000, 73.000000)">
                    <path d="M0.8987,0.8737 L6.7187,0.8737" id="Fill-432" fill="#FFFFFF"></path>
                    <path d="M0.8987,0.8737 L6.7187,0.8737" id="Stroke-434" stroke="#E1F2FF" stroke-width="2" stroke-linecap="round" stroke-linejoin="round"></path>
                </g>
                <g id="Group-439" transform="translate(165.000000, 77.000000)">
                    <path d="M0.8987,0.8425 L9.1697,0.8425" id="Fill-436" fill="#FFFFFF"></path>
                    <path d="M0.8987,0.8425 L9.1697,0.8425" id="Stroke-438" stroke="#E1F2FF" stroke-width="2" stroke-linecap="round" stroke-linejoin="round"></path>
                </g>
                <g id="Group-443" transform="translate(165.000000, 81.000000)">
                    <path d="M0.8987,0.8717 L11.6227,0.8717" id="Fill-440" fill="#FFFFFF"></path>
                    <path d="M0.8987,0.8717 L11.6227,0.8717" id="Stroke-442" stroke="#E1F2FF" stroke-width="2" stroke-linecap="round" stroke-linejoin="round"></path>
                </g>
                <g id="Group-447" transform="translate(73.000000, 39.000000)">
                    <path d="M0.6067,0.8322 L13.7277,0.8322" id="Fill-444" fill="#FFFFFF"></path>
                    <path d="M0.6067,0.8322 L13.7277,0.8322" id="Stroke-446" stroke="#E1F2FF" stroke-width="2" stroke-linecap="round" stroke-linejoin="round"></path>
                </g>
                <g id="Group-451" transform="translate(73.000000, 43.000000)">
                    <path d="M0.6067,0.8615 L10.7277,0.8615" id="Fill-448" fill="#FFFFFF"></path>
                    <path d="M0.6067,0.8615 L10.7277,0.8615" id="Stroke-450" stroke="#E1F2FF" stroke-width="2" stroke-linecap="round" stroke-linejoin="round"></path>
                </g>
                <g id="Group-455" transform="translate(73.000000, 47.000000)">
                    <path d="M0.6067,0.8908 L7.7277,0.8908" id="Fill-452" fill="#FFFFFF"></path>
                    <path d="M0.6067,0.8908 L7.7277,0.8908" id="Stroke-454" stroke="#E1F2FF" stroke-width="2" stroke-linecap="round" stroke-linejoin="round"></path>
                </g>
                <g id="Group-459" transform="translate(73.000000, 52.000000)">
                    <path d="M0.6067,0.154 L13.7277,0.154" id="Fill-456" fill="#FFFFFF"></path>
                    <path d="M0.6067,0.154 L13.7277,0.154" id="Stroke-458" stroke="#E1F2FF" stroke-width="2" stroke-linecap="round" stroke-linejoin="round"></path>
                </g>
                <g id="Group-463" transform="translate(73.000000, 56.000000)">
                    <path d="M0.6067,0.1833 L13.7277,0.1833" id="Fill-460" fill="#FFFFFF"></path>
                    <path d="M0.6067,0.1833 L13.7277,0.1833" id="Stroke-462" stroke="#E1F2FF" stroke-width="2" stroke-linecap="round" stroke-linejoin="round"></path>
                </g>
                <g id="Group-467" transform="translate(73.000000, 60.000000)">
                    <path d="M0.6067,0.2126 L7.7277,0.2126" id="Fill-464" fill="#FFFFFF"></path>
                    <path d="M0.6067,0.2126 L7.7277,0.2126" id="Stroke-466" stroke="#E1F2FF" stroke-width="2" stroke-linecap="round" stroke-linejoin="round"></path>
                </g>
                <path d="M98.0315,144.2682 L93.7045,144.2682 C92.5995,144.2682 91.7045,143.3722 91.7045,142.2682 L91.7045,137.9412 C91.7045,136.8362 92.5995,135.9412 93.7045,135.9412 L98.0315,135.9412 C99.1355,135.9412 100.0315,136.8362 100.0315,137.9412 L100.0315,142.2682 C100.0315,143.3722 99.1355,144.2682 98.0315,144.2682" id="Fill-468" fill="#E1F2FF"></path>
                <path d="M98.0315,157.8571 L93.7045,157.8571 C92.5995,157.8571 91.7045,156.9611 91.7045,155.8571 L91.7045,151.5311 C91.7045,150.4251 92.5995,149.5311 93.7045,149.5311 L98.0315,149.5311 C99.1355,149.5311 100.0315,150.4251 100.0315,151.5311 L100.0315,155.8571 C100.0315,156.9611 99.1355,157.8571 98.0315,157.8571" id="Fill-470" fill="#E1F2FF"></path>
                <path d="M98.0315,171.446 L93.7045,171.446 C92.5995,171.446 91.7045,170.55 91.7045,169.446 L91.7045,165.12 C91.7045,164.015 92.5995,163.12 93.7045,163.12 L98.0315,163.12 C99.1355,163.12 100.0315,164.015 100.0315,165.12 L100.0315,169.446 C100.0315,170.55 99.1355,171.446 98.0315,171.446" id="Fill-472" fill="#E1F2FF"></path>
                <path d="M109.4973,141.5495 C111.1053,140.4325 112.7003,139.2195 114.3553,138.1745 C115.2233,137.3835 116.2193,136.8315 117.3413,136.5205 C118.4583,135.5945 119.2833,135.8445 119.8163,137.2715 C121.1783,138.3185 121.5003,141.0265 123.1643,141.6255 C124.1053,141.9655 125.0353,141.5395 125.8023,141.0575 C126.4213,140.6685 126.7083,139.8325 127.2893,139.4635 C128.9073,138.4345 130.3383,139.1205 131.8113,139.6705 C133.2693,140.2145 133.4583,140.6315 135.0613,140.5345 C135.6253,140.5005 136.0533,139.7965 136.5563,139.6475 C138.3563,139.1115 138.9863,139.7605 140.3713,140.2685 C144.7253,141.8645 147.9763,140.6735 152.6033,139.6145 C154.0153,139.2915 153.4173,137.1215 152.0063,137.4455 C150.4883,137.7925 148.9193,138.3075 147.3723,138.5055 C144.7213,138.8455 142.5473,137.9865 140.2373,137.1455 C139.0493,136.7125 138.6543,136.2645 137.2823,136.3715 C136.7363,136.4135 136.2553,137.0325 135.7773,137.2335 C132.6363,138.5465 133.7443,137.8945 131.6213,136.6935 C130.3923,135.9975 129.2473,135.5665 127.8533,136.0765 C126.6753,136.5095 125.7573,138.7025 124.8293,138.9185 C122.9873,139.3455 121.1693,134.6765 119.7663,133.9145 C116.2563,132.0105 110.9453,137.8125 108.3623,139.6065 C107.1813,140.4265 108.3053,142.3775 109.4973,141.5495" id="Fill-474" fill="#ACD3EF"></path>
                <path d="M109.7649,169.2126 C115.0609,166.4656 118.1429,165.6906 123.7299,168.0046 C126.5469,169.1716 127.6469,167.6956 130.9269,167.8516 C133.6459,167.9806 135.7619,168.8476 138.4649,167.8846 C141.6229,166.7596 141.1089,165.7706 145.7639,166.1676 C148.2269,166.3776 150.8579,167.3426 153.2699,167.8996 C154.6789,168.2246 155.2809,166.0556 153.8689,165.7296 C150.1089,164.8616 145.2609,162.7666 141.3659,163.9516 C138.1709,164.9226 136.4449,166.4156 132.7689,165.8686 C131.1869,165.6336 129.8639,165.4006 128.2339,165.5116 C126.3499,165.6386 126.0339,166.0506 123.8869,165.3006 C122.5859,164.8466 121.5689,164.3066 120.1569,164.1256 C115.9979,163.5956 112.2219,165.4056 108.6289,167.2706 C107.3439,167.9376 108.4799,169.8796 109.7649,169.2126" id="Fill-476" fill="#ACD3EF"></path>
                <path d="M116.0566,153.8908 C118.4206,153.3608 119.9866,152.9428 122.3486,153.9108 C123.3846,154.3358 124.0266,154.8278 124.9186,155.1968 C126.9546,156.0398 127.3036,155.7808 129.0186,154.6388 C130.5816,153.5968 130.1946,153.1838 132.1846,154.2738 C133.2236,154.8448 133.9886,155.9008 135.2426,156.0638 C137.7936,156.3958 138.144702,154.144922 139.836702,152.836922 C142.608702,155.559922 144.0026,153.9278 147.5836,153.8608 C149.1026,153.8328 150.2746,153.9988 151.7766,153.6488 C152.8636,153.3958 153.1986,152.1728 154.1496,152.9768 C155.2496,153.9058 156.8486,152.3218 155.7416,151.3858 C154.7466,150.5458 154.6256,150.4768 153.3556,150.0898 C152.8456,149.9348 152.3716,150.2038 152.0856,150.6068 C150.9106,152.2628 141.3576,151.9508 140.2946,150.9068 C139.8206,150.4408 139.1886,150.5318 138.7036,150.9068 C137.3426,151.9588 136.7656,153.6458 134.5566,153.2608 C133.2716,153.0368 132.3946,151.1188 130.9876,150.8638 C129.5396,150.6018 129.3756,151.3018 128.2276,151.7648 C127.0246,152.2488 127.1026,152.8048 124.8676,152.1908 C123.6686,151.8618 123.3516,151.2798 122.0176,151.0078 C118.1726,150.2208 114.2716,152.3758 110.4856,152.6218 C109.0486,152.7148 109.0376,154.9658 110.4856,154.8718 C112.4376,154.7448 114.1476,154.3188 116.0566,153.8908 Z" id="Fill-478" fill="#ACD3EF"></path>
            </g>
        </g>
    </g>
</svg>