<?xml version="1.0" encoding="UTF-8" standalone="no"?>
<svg width="256px" height="256px" viewBox="0 0 256 256" version="1.1" xmlns="http://www.w3.org/2000/svg" xmlns:xlink="http://www.w3.org/1999/xlink">
    <!-- Generator: Sketch 50.2 (55047) - http://www.bohemiancoding.com/sketch -->
    <title>Common/Illustrations/Attribute</title>
    <desc>Created with Sketch.</desc>
    <defs></defs>
    <g id="Common/Illustrations/Attribute" stroke="none" stroke-width="1" fill="none" fill-rule="evenodd">
        <g id="Group" transform="translate(3.000000, 18.000000)">
            <path d="M20.2043,205.3916 C20.2043,148.1986 66.5683,101.8336 123.7623,101.8336 C180.9553,101.8336 227.3193,148.1986 227.3193,205.3916 L20.2043,205.3916 Z" id="Fill-1" fill="#E1F2FF"></path>
            <g id="Group-6" transform="translate(16.000000, 195.467000)">
                <path d="M0.9778,0.9246 L36.9778,0.9246" id="Fill-3" fill="#FFFFFF"></path>
                <path d="M0.9778,0.9246 L36.9778,0.9246" id="Stroke-5" stroke="#5E63B6" stroke-width="2" stroke-linecap="round" stroke-linejoin="round"></path>
            </g>
            <g id="Group-10" transform="translate(59.000000, 195.467000)">
                <path d="M0.426,0.9246 L177.32,0.9246" id="Fill-7" fill="#FFFFFF"></path>
                <path d="M0.426,0.9246 L177.32,0.9246" id="Stroke-9" stroke="#5E63B6" stroke-width="2" stroke-linecap="round" stroke-linejoin="round"></path>
            </g>
            <path d="M203.9778,43.4004 L203.9778,50.4004" id="Stroke-11" stroke="#5E63B6" stroke-width="2" stroke-linecap="round" stroke-linejoin="round"></path>
            <path d="M207.4778,46.9004 L200.4778,46.9004" id="Stroke-13" stroke="#5E63B6" stroke-width="2" stroke-linecap="round" stroke-linejoin="round"></path>
            <path d="M39.7278,163.6817 L39.7278,167.6197" id="Stroke-15" stroke="#5E63B6" stroke-linecap="round"></path>
            <path d="M41.6965,165.6504 L37.7585,165.6504" id="Stroke-17" stroke="#5E63B6" stroke-linecap="round"></path>
            <path d="M214.7278,103.6817 L214.7278,107.6197" id="Stroke-19" stroke="#5E63B6" stroke-linecap="round" stroke-linejoin="round"></path>
            <path d="M216.6965,105.6504 L212.7585,105.6504" id="Stroke-21" stroke="#5E63B6" stroke-linecap="round" stroke-linejoin="round"></path>
            <path d="M45.7278,63.6817 L45.7278,67.6197" id="Stroke-23" stroke="#5E63B6" stroke-linecap="round"></path>
            <path d="M47.6965,65.6504 L43.7585,65.6504" id="Stroke-25" stroke="#5E63B6" stroke-linecap="round"></path>
            <g id="Group-30" transform="translate(23.000000, 101.467000)">
                <path d="M0.4153,0.8084 L0.4153,8.9334" id="Fill-27" fill="#FFFFFF"></path>
                <path d="M0.4153,0.8084 L0.4153,8.9334" id="Stroke-29" stroke="#5E63B6" stroke-width="2" stroke-linecap="round"></path>
            </g>
            <g id="Group-34" transform="translate(19.000000, 105.467000)">
                <path d="M8.4778,0.8709 L0.3528,0.8709" id="Fill-31" fill="#FFFFFF"></path>
                <path d="M8.4778,0.8709 L0.3528,0.8709" id="Stroke-33" stroke="#5E63B6" stroke-width="2" stroke-linecap="round"></path>
            </g>
            <g id="Group-38" transform="translate(243.000000, 195.467000)">
                <path d="M0.1662,0.6834 L7.1402,0.6834" id="Fill-35" fill="#FFFFFF"></path>
                <path d="M0.1662,0.6834 L7.1402,0.6834" id="Stroke-37" stroke="#5E63B6" stroke-width="2" stroke-linecap="round" stroke-linejoin="round"></path>
            </g>
            <g id="Group-42" transform="translate(0.000000, 195.467000)">
                <path d="M0.0002,0.6834 L8.9732,0.6834" id="Fill-39" fill="#FFFFFF"></path>
                <path d="M0.0002,0.6834 L8.9732,0.6834" id="Stroke-41" stroke="#5E63B6" stroke-width="2" stroke-linecap="round" stroke-linejoin="round"></path>
            </g>
            <g id="Group-46" transform="translate(92.000000, 205.467000)">
                <path d="M0.3821,-0.0002 L67.5691,-0.0002" id="Fill-43" fill="#FFFFFF"></path>
                <path d="M0.3821,-0.0002 L67.5691,-0.0002" id="Stroke-45" stroke="#5E63B6" stroke-width="2" stroke-linecap="round" stroke-linejoin="round"></path>
            </g>
            <g id="Group-50" transform="translate(168.000000, 205.467000)">
                <path d="M0.1868,-0.0002 L9.3288,-0.0002" id="Fill-47" fill="#FFFFFF"></path>
                <path d="M0.1868,-0.0002 L9.3288,-0.0002" id="Stroke-49" stroke="#5E63B6" stroke-width="2" stroke-linecap="round" stroke-linejoin="round"></path>
            </g>
            <g id="Group-54" transform="translate(79.000000, 204.467000)">
                <path d="M5.5002,0.9246 L0.5002,0.9996" id="Fill-51" fill="#FFFFFF"></path>
                <path d="M5.5002,0.9246 L0.5002,0.9996" id="Stroke-53" stroke="#5E63B6" stroke-width="2" stroke-linecap="round" stroke-linejoin="round"></path>
            </g>
            <path d="M145.2571,194.8037 L150.2341,194.9497 C151.9451,194.9987 153.5281,193.9977 154.1951,192.4197 C156.0941,187.9227 155.7761,183.7307 156.0911,180.1627 C156.6761,173.5517 155.7401,170.1287 154.9151,164.5617 L147.4391,164.5167 C147.4391,164.5167 147.9931,167.2857 148.1761,175.5537 C148.2331,178.1117 143.7121,188.2467 143.7631,193.2857 C143.7721,194.1127 144.4311,194.7797 145.2571,194.8037" id="Fill-55" fill="#9452BA"></path>
            <path d="M145.2571,194.8037 L150.2341,194.9497 C151.9451,194.9987 153.5281,193.9977 154.1951,192.4197 C156.0941,187.9227 155.7761,183.7307 156.0911,180.1627 C156.6761,173.5517 155.7401,170.1287 154.9151,164.5617 L147.4391,164.5167 C147.4391,164.5167 147.9931,167.2857 148.1761,175.5537 C148.2331,178.1117 143.7121,188.2467 143.7631,193.2857 C143.7721,194.1127 144.4311,194.7797 145.2571,194.8037 Z" id="Stroke-57" stroke="#52267D" stroke-width="2"></path>
            <path d="M131.4592,170.7217 L125.6482,163.7317 L121.9352,163.7707 C121.9352,163.7707 121.2482,169.4247 120.9652,171.7917 C120.4672,175.9647 118.4942,184.1127 117.3242,187.6797 C116.9432,188.8397 116.7102,189.9277 116.6252,190.9177 C116.4822,192.5837 117.8342,194.0027 119.5062,194.0517 L123.9152,194.1807 C126.4822,194.2557 128.8152,192.6087 129.5202,190.1377 C131.7112,182.4457 131.4592,170.7217 131.4592,170.7217" id="Fill-59" fill="#9452BA"></path>
            <path d="M131.4592,170.7217 L125.6482,163.7317 L121.9352,163.7707 C121.9352,163.7707 121.2482,169.4247 120.9652,171.7917 C120.4672,175.9647 118.4942,184.1127 117.3242,187.6797 C116.9432,188.8397 116.7102,189.9277 116.6252,190.9177 C116.4822,192.5837 117.8342,194.0027 119.5062,194.0517 L123.9152,194.1807 C126.4822,194.2557 128.8152,192.6087 129.5202,190.1377 C131.7112,182.4457 131.4592,170.7217 131.4592,170.7217 Z" id="Stroke-61" stroke="#52267D" stroke-width="2"></path>
            <polyline id="Stroke-63" stroke="#52267D" stroke-width="0.5" points="122.8723 175.1739 121.8553 176.0159 122.7783 176.8979 124.3413 176.3499 124.0513 175.6629 122.7603 175.9289 122.7653 176.1589 123.0983 176.1529"></polyline>
            <path d="M123.7864,145.1006 C128.1664,145.1386 132.3564,142.2446 141.3024,142.0926 C141.4474,141.5126 141.6204,140.9906 141.8324,140.5636 C143.5514,137.1106 146.1274,127.0896 144.8554,120.4206 L143.8484,115.1436 C143.5184,113.4136 143.3784,111.6506 143.4304,109.8886 C143.4514,109.1546 143.5464,108.4406 143.7084,107.7516 C143.7494,107.5796 143.7934,107.4106 143.8424,107.2416 C143.9884,106.7356 144.1704,106.2466 144.3864,105.7746 C144.4584,105.6176 144.5334,105.4626 144.6124,105.3096 C144.7704,105.0036 144.9434,104.7066 145.1304,104.4206 C145.3154,104.1336 145.5154,103.8556 145.7274,103.5886 C146.3634,102.7876 147.1124,102.0816 147.9494,101.4936 C148.2274,101.2966 148.5164,101.1146 148.8144,100.9456 C150.4504,100.0156 152.3534,99.5076 154.3724,99.5676 L156.1154,99.6186 C159.0524,99.7036 161.6754,100.9706 163.5434,102.9516 C163.7764,103.1996 163.9984,103.4576 164.2074,103.7266 C164.5874,104.2146 164.9224,104.7396 165.2134,105.2896 C165.3224,105.4966 165.4284,105.7056 165.5234,105.9196 C165.5944,106.0776 165.6604,106.2366 165.7234,106.3976 C165.9104,106.8806 166.0634,107.3796 166.1804,107.8936 C166.2964,108.4076 166.3754,108.9336 166.4144,109.4716 C166.4394,109.8296 166.4484,110.1936 166.4374,110.5606 C166.4164,111.2916 166.0994,111.9466 165.6064,112.4126 C165.1124,112.8776 164.4414,113.1556 163.7094,113.1336 L152.8244,112.8156 L154.1954,122.3116 C155.8464,132.0746 155.0754,138.5476 153.4514,142.8306 C153.0894,143.7866 151.0884,147.1496 151.0884,147.1496 C156.2804,155.8976 164.5174,159.8956 173.4114,161.2466 C180.9724,162.3936 197.5544,155.9536 189.3434,147.7016 C181.1314,139.4506 191.1904,144.7256 192.6634,145.7826 C194.1364,146.8396 202.6024,154.5986 192.8544,165.3346 C188.7324,169.8746 184.0934,173.9766 173.1344,176.9056 C171.3764,177.3736 161.8484,177.7886 156.6864,179.1086 C141.3194,183.0376 129.0694,177.9186 122.4214,167.6576 C115.7994,157.4366 122.0564,145.0846 123.7864,145.1006" id="Fill-65" fill="#9452BA"></path>
            <path d="M123.7864,145.1006 C128.1664,145.1386 132.3564,142.2446 141.3024,142.0926 C141.4474,141.5126 141.6204,140.9906 141.8324,140.5636 C143.5514,137.1106 146.1274,127.0896 144.8554,120.4206 L143.8484,115.1436 C143.5184,113.4136 143.3784,111.6506 143.4304,109.8886 C143.4514,109.1546 143.5464,108.4406 143.7084,107.7516 C143.7494,107.5796 143.7934,107.4106 143.8424,107.2416 C143.9884,106.7356 144.1704,106.2466 144.3864,105.7746 C144.4584,105.6176 144.5334,105.4626 144.6124,105.3096 C144.7704,105.0036 144.9434,104.7066 145.1304,104.4206 C145.3154,104.1336 145.5154,103.8556 145.7274,103.5886 C146.3634,102.7876 147.1124,102.0816 147.9494,101.4936 C148.2274,101.2966 148.5164,101.1146 148.8144,100.9456 C150.4504,100.0156 152.3534,99.5076 154.3724,99.5676 L156.1154,99.6186 C159.0524,99.7036 161.6754,100.9706 163.5434,102.9516 C163.7764,103.1996 163.9984,103.4576 164.2074,103.7266 C164.5874,104.2146 164.9224,104.7396 165.2134,105.2896 C165.3224,105.4966 165.4284,105.7056 165.5234,105.9196 C165.5944,106.0776 165.6604,106.2366 165.7234,106.3976 C165.9104,106.8806 166.0634,107.3796 166.1804,107.8936 C166.2964,108.4076 166.3754,108.9336 166.4144,109.4716 C166.4394,109.8296 166.4484,110.1936 166.4374,110.5606 C166.4164,111.2916 166.0994,111.9466 165.6064,112.4126 C165.1124,112.8776 164.4414,113.1556 163.7094,113.1336 L152.8244,112.8156 L154.1954,122.3116 C155.8464,132.0746 155.0754,138.5476 153.4514,142.8306 C153.0894,143.7866 151.0884,147.1496 151.0884,147.1496 C156.2804,155.8976 164.5174,159.8956 173.4114,161.2466 C180.9724,162.3936 197.5544,155.9536 189.3434,147.7016 C181.1314,139.4506 191.1904,144.7256 192.6634,145.7826 C194.1364,146.8396 202.6024,154.5986 192.8544,165.3346 C188.7324,169.8746 184.0934,173.9766 173.1344,176.9056 C171.3764,177.3736 161.8484,177.7886 156.6864,179.1086 C141.3194,183.0376 129.0694,177.9186 122.4214,167.6576 C115.7994,157.4366 122.0564,145.0846 123.7864,145.1006 Z" id="Stroke-67" stroke="#52267D" stroke-width="2"></path>
            <path d="M133.6633,130.9121 C134.3423,119.6671 125.6673,110.5611 115.5693,108.3951 C113.4733,107.9461 112.8073,107.2651 110.5013,107.1971 L108.7343,107.1451 C102.7853,106.9721 97.8223,111.6531 97.6483,117.6021 C97.6053,119.0861 98.7723,120.3231 100.2563,120.3661 C100.2563,120.3661 118.3673,120.8901 118.4523,120.8851 C118.4533,120.8851 119.9283,120.9291 119.9293,120.9291 C119.9273,120.9311 118.4503,120.8891 118.4483,120.8911 C122.4043,122.7081 124.7473,127.8991 125.1063,130.6621 C125.6183,134.5981 125.0653,137.8141 123.6523,140.3891 C122.7123,142.1031 122.5503,144.1971 122.6373,145.8991 C122.6373,145.8991 122.6803,145.9151 122.7393,145.9371 C122.7753,146.8471 122.8923,147.8841 123.1283,149.0701 C124.8683,147.9321 127.5733,146.2211 128.0653,145.9781 C129.1283,145.4571 131.5273,144.2681 132.6013,143.6931 C139.4723,140.0171 133.2783,137.3081 133.6633,130.9121" id="Fill-69" fill="#9452BA"></path>
            <path d="M133.6633,130.9121 C134.3423,119.6671 125.6673,110.5611 115.5693,108.3951 C113.4733,107.9461 112.8073,107.2651 110.5013,107.1971 L108.7343,107.1451 C102.7853,106.9721 97.8223,111.6531 97.6483,117.6021 C97.6053,119.0861 98.7723,120.3231 100.2563,120.3661 C100.2563,120.3661 118.3673,120.8901 118.4523,120.8851 C118.4533,120.8851 119.9283,120.9291 119.9293,120.9291 C119.9273,120.9311 118.4503,120.8891 118.4483,120.8911 C122.4043,122.7081 124.7473,127.8991 125.1063,130.6621 C125.6183,134.5981 125.0653,137.8141 123.6523,140.3891 C122.7123,142.1031 122.5503,144.1971 122.6373,145.8991 C122.6373,145.8991 122.6803,145.9151 122.7393,145.9371 C122.7753,146.8471 122.8923,147.8841 123.1283,149.0701 C124.8683,147.9321 127.5733,146.2211 128.0653,145.9781 C129.1283,145.4571 131.5273,144.2681 132.6013,143.6931 C139.4723,140.0171 133.2783,137.3081 133.6633,130.9121 Z" id="Stroke-71" stroke="#52267D" stroke-width="2"></path>
            <g id="Group-76" transform="translate(118.000000, 119.467000)">
                <path d="M9.5159,24.2811 C9.4779,22.5411 9.2379,21.6401 9.4539,20.9391 C10.6949,16.9001 11.0969,15.6261 11.2229,11.3151 C11.3479,7.0321 8.9909,2.7261 5.3919,0.3681 C5.1949,0.2381 2.5629,-0.0249 0.4489,1.4241 C4.4049,3.2411 6.7469,8.4321 7.1069,11.1951 C7.6189,15.1311 7.0649,18.3481 5.6529,20.9221 C4.7119,22.6361 4.5499,24.7301 4.6369,26.4321 C4.6369,26.4321 9.4969,28.4211 9.5159,24.2811" id="Fill-73" fill="#F3E3FF"></path>
                <path d="M9.5159,24.2811 C9.4779,22.5411 9.2379,21.6401 9.4539,20.9391 C10.6949,16.9001 11.0969,15.6261 11.2229,11.3151 C11.3479,7.0321 8.9909,2.7261 5.3919,0.3681 C5.1949,0.2381 2.5629,-0.0249 0.4489,1.4241 C4.4049,3.2411 6.7469,8.4321 7.1069,11.1951 C7.6189,15.1311 7.0649,18.3481 5.6529,20.9221 C4.7119,22.6361 4.5499,24.7301 4.6369,26.4321 C4.6369,26.4321 9.4969,28.4211 9.5159,24.2811" id="Stroke-75" stroke="#52267D"></path>
            </g>
            <path d="M103.0295,108.8106 C103.0295,108.8106 103.0805,106.9296 104.9705,106.2366 C105.5485,106.0246 106.6015,105.6316 106.6015,105.6316 C106.6015,105.6316 107.6465,108.0186 106.3675,108.5756 C104.5275,109.3766 103.0295,108.8106 103.0295,108.8106" id="Fill-77" fill="#FFFFFF"></path>
            <path d="M103.0295,108.8106 C103.0295,108.8106 103.0805,106.9296 104.9705,106.2366 C105.5485,106.0246 106.6015,105.6316 106.6015,105.6316 C106.6015,105.6316 107.6465,108.0186 106.3675,108.5756 C104.5275,109.3766 103.0295,108.8106 103.0295,108.8106 Z" id="Stroke-79" stroke="#52267D"></path>
            <path d="M107.7473,107.6241 C107.7473,107.6241 107.8753,105.0621 110.7693,104.7731 C111.3103,104.7191 112.7123,104.7941 112.7123,104.7941 C112.7123,104.7941 113.2803,107.5251 111.7523,107.7411 C109.8743,108.0071 107.7473,107.6241 107.7473,107.6241" id="Fill-81" fill="#FFFFFF"></path>
            <path d="M107.7473,107.6241 C107.7473,107.6241 107.8753,105.0621 110.7693,104.7731 C111.3103,104.7191 112.7123,104.7941 112.7123,104.7941 C112.7123,104.7941 113.2803,107.5251 111.7523,107.7411 C109.8743,108.0071 107.7473,107.6241 107.7473,107.6241 Z" id="Stroke-83" stroke="#52267D"></path>
            <path d="M113.4739,108.0371 C113.4739,108.0371 113.9369,105.2061 116.4669,106.0611 C117.5489,106.4271 118.1299,107.2731 118.1299,107.2731 C118.1299,107.2731 117.5589,109.4241 116.5499,109.1501 C114.7879,108.6741 113.4739,108.0371 113.4739,108.0371" id="Fill-85" fill="#FFFFFF"></path>
            <path d="M113.4739,108.0371 C113.4739,108.0371 113.9369,105.2061 116.4669,106.0611 C117.5489,106.4271 118.1299,107.2731 118.1299,107.2731 C118.1299,107.2731 117.5589,109.4241 116.5499,109.1501 C114.7879,108.6741 113.4739,108.0371 113.4739,108.0371 Z" id="Stroke-87" stroke="#52267D"></path>
            <path d="M120.4866,122.0528 C120.4866,122.0528 126.5346,118.9908 125.5606,113.5118 C126.3326,114.1858 128.3866,116.2338 129.1246,117.2718 C129.0926,118.3378 129.1656,122.5778 123.2356,125.2418 C122.2396,124.1458 121.4116,122.7908 120.4866,122.0528" id="Fill-89" fill="#FFFFFF"></path>
            <path d="M120.4866,122.0528 C120.4866,122.0528 126.5346,118.9908 125.5606,113.5118 C126.3326,114.1858 128.3866,116.2338 129.1246,117.2718 C129.0926,118.3378 129.1656,122.5778 123.2356,125.2418 C122.2396,124.1458 121.4116,122.7908 120.4866,122.0528 Z" id="Stroke-91" stroke="#52267D"></path>
            <path d="M103.8547,108.3164 C103.8547,108.3164 103.8807,107.3424 104.8597,106.9844 C105.1587,106.8754 105.7047,106.6704 105.7047,106.6704 C105.7047,106.6704 106.2447,107.9064 105.5837,108.1944 C104.6297,108.6094 103.8547,108.3164 103.8547,108.3164" id="Fill-93" fill="#F3E3FF"></path>
            <path d="M108.9953,107.0801 C108.9953,107.0801 109.0603,105.7741 110.5363,105.6271 C110.8113,105.6001 111.5263,105.6381 111.5263,105.6381 C111.5263,105.6381 111.8163,107.0301 111.0373,107.1401 C110.0793,107.2751 108.9953,107.0801 108.9953,107.0801" id="Fill-95" fill="#F3E3FF"></path>
            <path d="M114.3977,107.8594 C114.3977,107.8594 114.6437,106.3574 115.9867,106.8114 C116.5597,107.0054 116.8687,107.4544 116.8687,107.4544 C116.8687,107.4544 116.5657,108.5944 116.0307,108.4504 C115.0957,108.1974 114.3977,107.8594 114.3977,107.8594" id="Fill-97" fill="#F3E3FF"></path>
            <path d="M112.5432,118.92 L107.1002,118.762 C107.1802,116.02 109.4672,113.862 112.2092,113.942 L112.6882,113.956 C114.0592,113.996 115.1382,115.14 115.0982,116.511 C115.0582,117.882 113.9132,118.96 112.5432,118.92" id="Fill-99" fill="#F3E3FF"></path>
            <path d="M112.0871,118.8135 L107.1961,118.6705 C107.2591,116.5165 109.0561,114.8215 111.2101,114.8845 L112.2011,114.9135 C113.2781,114.9455 114.1251,115.8435 114.0941,116.9205 C114.0631,117.9975 113.1641,118.8445 112.0871,118.8135" id="Fill-101" fill="#FFFFFF"></path>
            <path d="M112.0871,118.8135 L107.1961,118.6705 C107.2591,116.5165 109.0561,114.8215 111.2101,114.8845 L112.2011,114.9135 C113.2781,114.9455 114.1251,115.8435 114.0941,116.9205 C114.0631,117.9975 113.1641,118.8445 112.0871,118.8135 Z" id="Stroke-103" stroke="#52267D"></path>
            <path d="M108.1135,117.6319 C108.0955,118.2339 108.5685,118.7349 109.1705,118.7519 C109.7715,118.7699 110.2735,118.2969 110.2915,117.6949 C110.3085,117.0939 109.8365,116.5919 109.2345,116.5739 C108.6335,116.5569 108.1315,117.0299 108.1135,117.6319" id="Fill-105" fill="#52267D"></path>
            <path d="M100.0305,119.5411 C100.3425,119.4831 100.6245,119.3191 100.8285,119.0771 L101.2065,118.6291 L100.3885,118.7791 L99.9065,118.8681 C99.7205,118.9021 99.5975,119.0811 99.6325,119.2671 C99.6665,119.4521 99.8445,119.5751 100.0305,119.5411" id="Fill-107" fill="#52267D"></path>
            <path d="M121.4895,122.1905 C121.4895,122.1905 126.1465,119.8545 126.2215,114.8785 C128.1505,116.3725 128.6575,117.3155 128.6575,117.3155 C128.6575,117.3155 128.2455,119.6735 127.1065,120.8365 C125.3605,122.6215 123.5805,123.1335 121.4895,122.1905" id="Fill-109" fill="#E1F2FF"></path>
            <g id="Group-114" transform="translate(122.000000, 120.467000)">
                <path d="M3.8557,0.9764 C3.8557,0.9764 1.9947,2.7634 0.2047,3.5934" id="Fill-111" fill="#FFFFFF"></path>
                <path d="M3.8557,0.9764 C3.8557,0.9764 1.9947,2.7634 0.2047,3.5934" id="Stroke-113" stroke="#52267D"></path>
            </g>
            <g id="Group-118" transform="translate(119.000000, 93.467000)">
                <path d="M24.2746,47.8416 L23.3116,45.7956 C19.7706,36.3066 19.3426,30.7826 21.5836,21.8906 L22.8956,16.6816 C23.3266,14.9726 23.5696,13.2216 23.6206,11.4596 C23.7926,5.5876 19.1706,0.6886 13.2986,0.5166 L11.5826,0.4666 C5.7906,0.2976 0.9586,4.8556 0.7896,10.6476 L0.7806,10.9476 C0.7406,12.3256 1.8256,13.4756 3.2026,13.5166 L14.0716,13.8336 L12.1486,23.2336 C6.3646,48.4056 6.5706,58.6866 16.5586,56.8656" id="Fill-115" fill="#9452BA"></path>
                <path d="M24.2746,47.8416 L23.3116,45.7956 C19.7706,36.3066 19.3426,30.7826 21.5836,21.8906 L22.8956,16.6816 C23.3266,14.9726 23.5696,13.2216 23.6206,11.4596 C23.7926,5.5876 19.1706,0.6886 13.2986,0.5166 L11.5826,0.4666 C5.7906,0.2976 0.9586,4.8556 0.7896,10.6476 L0.7806,10.9476 C0.7406,12.3256 1.8256,13.4756 3.2026,13.5166 L14.0716,13.8336 L12.1486,23.2336 C6.3646,48.4056 6.5706,58.6866 16.5586,56.8656" id="Stroke-117" stroke="#52267D" stroke-width="2"></path>
            </g>
            <path d="M125.2991,95.0381 C125.2991,95.0381 125.5281,93.2011 127.3801,92.5211 C127.9451,92.3141 128.8141,92.5781 128.8141,92.5781 C128.8141,92.5781 129.8221,94.2631 128.5701,94.8081 C126.7671,95.5931 125.2991,95.0381 125.2991,95.0381" id="Fill-119" fill="#FFFFFF"></path>
            <path d="M125.2991,95.0381 C125.2991,95.0381 125.5281,93.2011 127.3801,92.5211 C127.9451,92.3141 128.8141,92.5781 128.8141,92.5781 C128.8141,92.5781 129.8221,94.2631 128.5701,94.8081 C126.7671,95.5931 125.2991,95.0381 125.2991,95.0381 Z" id="Stroke-121" stroke="#52267D"></path>
            <path d="M129.677,94.5577 C129.677,94.5577 129.822,91.6577 133.1,91.3287 C133.711,91.2677 134.491,91.3507 134.491,91.3507 C134.491,91.3507 135.943,94.4457 134.212,94.6907 C132.085,94.9917 129.677,94.5577 129.677,94.5577" id="Fill-123" fill="#FFFFFF"></path>
            <path d="M129.677,94.5577 C129.677,94.5577 129.822,91.6577 133.1,91.3287 C133.711,91.2677 134.491,91.3507 134.491,91.3507 C134.491,91.3507 135.943,94.4457 134.212,94.6907 C132.085,94.9917 129.677,94.5577 129.677,94.5577 Z" id="Stroke-125" stroke="#52267D"></path>
            <path d="M135.5002,95.3887 C135.5002,95.3887 136.0232,92.6267 138.4812,93.5287 C139.5312,93.9137 140.0792,94.7577 140.0792,94.7577 C140.0792,94.7577 139.4662,96.8487 138.4842,96.5567 C136.7712,96.0457 135.5002,95.3887 135.5002,95.3887" id="Fill-127" fill="#FFFFFF"></path>
            <path d="M135.5002,95.3887 C135.5002,95.3887 136.0232,92.6267 138.4812,93.5287 C139.5312,93.9137 140.0792,94.7577 140.0792,94.7577 C140.0792,94.7577 139.4662,96.8487 138.4842,96.5567 C136.7712,96.0457 135.5002,95.3887 135.5002,95.3887 Z" id="Stroke-129" stroke="#52267D"></path>
            <g id="Group-134" transform="translate(124.000000, 143.467000)">
                <path d="M0.0237,1.3045 C0.6577,0.8585 1.2927,0.6095 1.8357,0.4955" id="Fill-131" fill="#F3E3FF"></path>
                <path d="M0.0237,1.3045 C0.6577,0.8585 1.2927,0.6095 1.8357,0.4955" id="Stroke-133" stroke="#52267D"></path>
            </g>
            <g id="Group-138" transform="translate(120.000000, 106.467000)">
                <path d="M7.6252,38.3524 C6.0592,31.0814 9.6672,17.3734 10.3552,13.9944 L13.0862,0.4524 L14.1082,0.4824 C15.4042,0.5204 16.3452,1.9564 16.1232,3.2364 L14.0872,14.9924 C13.3982,18.9724 12.2632,37.4614 19.0922,41.6404 C20.5482,42.5324 22.9742,42.0454 23.8942,41.6394 C27.2402,40.1594 28.3102,36.0704 29.1302,32.7744 C30.8282,25.9514 29.8182,20.5264 29.6452,15.1334 L29.4932,8.3894 C29.4662,7.1704 30.4722,5.9074 31.6882,5.9424 L32.9302,5.9784 L34.7682,19.6534 C35.3262,23.5484 36.6642,37.0394 28.5612,43.1084 C28.4142,43.2174 30.4702,43.7414 29.8392,44.7844 C27.3342,48.9244 20.4132,49.3884 19.0612,51.1534 C13.8542,57.9494 18.1082,72.8744 18.1082,72.8744 C18.1082,72.8744 12.6192,70.4964 9.2692,67.3124 C1.4362,59.8694 0.7202,49.3974 0.7722,46.3224 C0.8352,42.6434 1.8672,40.3904 3.0972,39.0634" id="Fill-135" fill="#F3E3FF"></path>
                <path d="M7.6252,38.3524 C6.0592,31.0814 9.6672,17.3734 10.3552,13.9944 L13.0862,0.4524 L14.1082,0.4824 C15.4042,0.5204 16.3452,1.9564 16.1232,3.2364 L14.0872,14.9924 C13.3982,18.9724 12.2632,37.4614 19.0922,41.6404 C20.5482,42.5324 22.9742,42.0454 23.8942,41.6394 C27.2402,40.1594 28.3102,36.0704 29.1302,32.7744 C30.8282,25.9514 29.8182,20.5264 29.6452,15.1334 L29.4932,8.3894 C29.4662,7.1704 30.4722,5.9074 31.6882,5.9424 L32.9302,5.9784 L34.7682,19.6534 C35.3262,23.5484 36.6642,37.0394 28.5612,43.1084 C28.4142,43.2174 30.4702,43.7414 29.8392,44.7844 C27.3342,48.9244 20.4132,49.3884 19.0612,51.1534 C13.8542,57.9494 18.1082,72.8744 18.1082,72.8744 C18.1082,72.8744 12.6192,70.4964 9.2692,67.3124 C1.4362,59.8694 0.7202,49.3974 0.7722,46.3224 C0.8352,42.6434 1.8672,40.3904 3.0972,39.0634" id="Stroke-137" stroke="#52267D"></path>
            </g>
            <path d="M192.7356,152.7471 C192.7356,152.7471 193.9156,151.5151 193.3226,149.7971 C193.1416,149.2721 192.4486,148.8061 192.4486,148.8061 C192.4486,148.8061 190.6586,149.0651 190.9976,150.2771 C191.4856,152.0211 192.7356,152.7471 192.7356,152.7471" id="Fill-139" fill="#FFFFFF"></path>
            <path d="M192.7356,152.7471 C192.7356,152.7471 193.9156,151.5151 193.3226,149.7971 C193.1416,149.2721 192.4486,148.8061 192.4486,148.8061 C192.4486,148.8061 190.6586,149.0651 190.9976,150.2771 C191.4856,152.0211 192.7356,152.7471 192.7356,152.7471 Z" id="Stroke-141" stroke="#52267D"></path>
            <path d="M192.4094,150.9776 C192.4094,150.9776 192.8224,150.5456 192.6144,149.9436 C192.5514,149.7586 192.3074,149.5956 192.3074,149.5956 C192.3074,149.5956 191.6804,149.6866 191.7994,150.1116 C191.9714,150.7236 192.4094,150.9776 192.4094,150.9776" id="Fill-143" fill="#F3E3FF"></path>
            <path d="M183.1145,161.5381 C183.1145,161.5381 182.1015,159.0311 184.7425,157.4711 C185.2345,157.1801 185.9265,156.9441 185.9265,156.9441 C185.9265,156.9441 188.3635,158.9901 186.9975,159.8751 C185.3185,160.9621 183.1145,161.5381 183.1145,161.5381" id="Fill-145" fill="#FFFFFF"></path>
            <path d="M183.1145,161.5381 C183.1145,161.5381 182.1015,159.0311 184.7425,157.4711 C185.2345,157.1801 185.9265,156.9441 185.9265,156.9441 C185.9265,156.9441 188.3635,158.9901 186.9975,159.8751 C185.3185,160.9621 183.1145,161.5381 183.1145,161.5381 Z" id="Stroke-147" stroke="#52267D"></path>
            <path d="M184.0452,160.6328 C184.0452,160.6328 183.4832,159.2428 184.9472,158.3778 C185.2212,158.2158 185.6052,158.0858 185.6052,158.0858 C185.6052,158.0858 186.9562,159.2208 186.1982,159.7108 C185.2682,160.3138 184.0452,160.6328 184.0452,160.6328" id="Fill-149" fill="#F3E3FF"></path>
            <path d="M191.2659,153.6612 C191.2659,153.6612 193.0969,155.3662 191.2509,156.7892 C190.4629,157.3972 189.5679,157.4102 189.5679,157.4102 C189.5679,157.4102 188.2839,155.9552 188.9689,155.3542 C190.1669,154.3072 191.2659,153.6612 191.2659,153.6612" id="Fill-151" fill="#FFFFFF"></path>
            <path d="M191.2659,153.6612 C191.2659,153.6612 193.0969,155.3662 191.2509,156.7892 C190.4629,157.3972 189.5679,157.4102 189.5679,157.4102 C189.5679,157.4102 188.2839,155.9552 188.9689,155.3542 C190.1669,154.3072 191.2659,153.6612 191.2659,153.6612 Z" id="Stroke-153" stroke="#52267D"></path>
            <path d="M190.9582,154.8233 C190.9582,154.8233 191.7702,155.5783 190.9522,156.2093 C190.6032,156.4773 190.2062,156.4833 190.2062,156.4833 C190.2062,156.4833 189.6372,155.8393 189.9402,155.5733 C190.4722,155.1093 190.9582,154.8233 190.9582,154.8233" id="Fill-155" fill="#F3E3FF"></path>
            <path d="M174.0588,162.5772 C174.0588,162.5772 173.5028,160.3552 175.9548,159.5512 C178.4058,158.7472 179.0358,159.4942 179.0358,159.4942 C179.0358,159.4942 180.3118,161.7912 179.0908,162.4832 C177.8718,163.1752 174.0588,162.5772 174.0588,162.5772" id="Fill-157" fill="#FFFFFF"></path>
            <path d="M174.0588,162.5772 C174.0588,162.5772 173.5028,160.3552 175.9548,159.5512 C178.4058,158.7472 179.0358,159.4942 179.0358,159.4942 C179.0358,159.4942 180.3118,161.7912 179.0908,162.4832 C177.8718,163.1752 174.0588,162.5772 174.0588,162.5772 Z" id="Stroke-159" stroke="#52267D"></path>
            <path d="M175.2112,162.1094 C175.2112,162.1094 174.9232,160.9544 176.1972,160.5364 C177.4722,160.1184 177.8002,160.5054 177.8002,160.5054 C177.8002,160.5054 178.4632,161.7014 177.8282,162.0604 C177.1942,162.4214 175.2112,162.1094 175.2112,162.1094" id="Fill-161" fill="#F3E3FF"></path>
            <path d="M132.4592,110.2227 C132.4592,110.2227 136.2682,112.5247 141.7682,110.7077 C141.3452,112.3857 140.4852,115.7557 140.4852,115.7557 C140.4852,115.7557 135.3972,117.1557 131.5792,114.5937 C132.0432,112.3667 132.4592,110.2227 132.4592,110.2227" id="Fill-163" fill="#FFFFFF"></path>
            <path d="M132.4592,110.2227 C132.4592,110.2227 136.2682,112.5247 141.7682,110.7077 C141.3452,112.3857 140.4852,115.7557 140.4852,115.7557 C140.4852,115.7557 135.3972,117.1557 131.5792,114.5937 C132.0432,112.3667 132.4592,110.2227 132.4592,110.2227 Z" id="Stroke-165" stroke="#52267D"></path>
            <path d="M161.7141,101.2315 C161.7141,101.2315 161.5921,99.3695 159.7691,98.5785 C159.2121,98.3355 157.6941,98.2305 157.6941,98.2305 C157.6941,98.2305 157.2101,100.1845 158.4381,100.8075 C160.2051,101.7035 161.7141,101.2315 161.7141,101.2315" id="Fill-167" fill="#FFFFFF"></path>
            <path d="M161.7141,101.2315 C161.7141,101.2315 161.5921,99.3695 159.7691,98.5785 C159.2121,98.3355 157.6941,98.2305 157.6941,98.2305 C157.6941,98.2305 157.2101,100.1845 158.4381,100.8075 C160.2051,101.7035 161.7141,101.2315 161.7141,101.2315 Z" id="Stroke-169" stroke="#52267D"></path>
            <path d="M157.0608,100.1465 C157.0608,100.1465 157.0818,97.6155 154.2468,97.1635 C153.7178,97.0785 153.0348,97.1115 153.0348,97.1115 C153.0348,97.1115 151.6148,99.7305 153.1078,100.0315 C154.9438,100.4015 157.0608,100.1465 157.0608,100.1465" id="Fill-171" fill="#FFFFFF"></path>
            <path d="M157.0608,100.1465 C157.0608,100.1465 157.0818,97.6155 154.2468,97.1635 C153.7178,97.0785 153.0348,97.1115 153.0348,97.1115 C153.0348,97.1115 151.6148,99.7305 153.1078,100.0315 C154.9438,100.4015 157.0608,100.1465 157.0608,100.1465 Z" id="Stroke-173" stroke="#52267D"></path>
            <path d="M151.6643,100.1729 C151.6643,100.1729 151.3003,97.3639 148.7743,98.1259 C147.6963,98.4519 147.0953,99.2689 147.0953,99.2689 C147.0953,99.2689 147.5893,101.4069 148.5933,101.1709 C150.3463,100.7579 151.6643,100.1729 151.6643,100.1729" id="Fill-175" fill="#FFFFFF"></path>
            <path d="M151.6643,100.1729 C151.6643,100.1729 151.3003,97.3639 148.7743,98.1259 C147.6963,98.4519 147.0953,99.2689 147.0953,99.2689 C147.0953,99.2689 147.5893,101.4069 148.5933,101.1709 C150.3463,100.7579 151.6643,100.1729 151.6643,100.1729 Z" id="Stroke-177" stroke="#52267D"></path>
            <path d="M126.2717,94.6006 C126.2717,94.6006 126.3937,93.6196 127.3827,93.2556 C127.6847,93.1456 128.1487,93.2866 128.1487,93.2866 C128.1487,93.2866 128.6877,94.1866 128.0187,94.4776 C127.0557,94.8966 126.2717,94.6006 126.2717,94.6006" id="Fill-179" fill="#F3E3FF"></path>
            <path d="M130.7659,94.1016 C130.7659,94.1016 130.8569,92.2826 132.9119,92.0776 C133.2949,92.0386 133.7849,92.0906 133.7849,92.0906 C133.7849,92.0906 134.6949,94.0316 133.6099,94.1846 C132.2759,94.3726 130.7659,94.1016 130.7659,94.1016" id="Fill-181" fill="#F3E3FF"></path>
            <path d="M136.5862,95.1416 C136.5862,95.1416 136.8882,93.5476 138.3072,94.0676 C138.9122,94.2896 139.2292,94.7766 139.2292,94.7766 C139.2292,94.7766 138.8742,95.9836 138.3092,95.8146 C137.3192,95.5206 136.5862,95.1416 136.5862,95.1416" id="Fill-183" fill="#F3E3FF"></path>
            <path d="M160.8118,100.7305 C160.8118,100.7305 160.7478,99.7465 159.7838,99.3275 C159.4898,99.2005 158.6868,99.1435 158.6868,99.1435 C158.6868,99.1435 158.4308,100.1765 159.0798,100.5055 C160.0138,100.9795 160.8118,100.7305 160.8118,100.7305" id="Fill-185" fill="#F3E3FF"></path>
            <path d="M155.97,99.668 C155.97,99.668 155.982,98.269 154.413,98.019 C154.121,97.972 153.743,97.99 153.743,97.99 C153.743,97.99 152.958,99.438 153.784,99.605 C154.799,99.809 155.97,99.668 155.97,99.668" id="Fill-187" fill="#F3E3FF"></path>
            <path d="M150.675,99.9532 C150.675,99.9532 150.475,98.4172 149.094,98.8342 C148.504,99.0122 148.175,99.4592 148.175,99.4592 C148.175,99.4592 148.446,100.6292 148.994,100.5002 C149.953,100.2742 150.675,99.9532 150.675,99.9532" id="Fill-189" fill="#F3E3FF"></path>
            <path d="M143.8889,115.3545 C143.8889,115.3545 148.6609,116.2425 153.2539,115.2555 C153.6259,117.7475 153.8569,119.6255 153.8569,119.6255 C153.8569,119.6255 150.6309,121.6805 144.8259,120.2645 C144.2289,117.0625 143.8889,115.3545 143.8889,115.3545" id="Fill-191" fill="#FFFFFF"></path>
            <path d="M143.8889,115.3545 C143.8889,115.3545 148.6609,116.2425 153.2539,115.2555 C153.6259,117.7475 153.8569,119.6255 153.8569,119.6255 C153.8569,119.6255 150.6309,121.6805 144.8259,120.2645 C144.2289,117.0625 143.8889,115.3545 143.8889,115.3545 Z" id="Stroke-193" stroke="#52267D"></path>
            <path d="M151.9592,110.7705 L157.4022,110.9295 C157.4822,108.1875 155.3242,105.9005 152.5832,105.8205 L152.1052,105.8065 C150.7332,105.7665 149.5902,106.8455 149.5502,108.2155 C149.5102,109.5865 150.5882,110.7305 151.9592,110.7705" id="Fill-195" fill="#F3E3FF"></path>
            <path d="M152.5578,110.6944 L157.3118,110.8344 C157.3738,108.6794 155.6788,106.8824 153.5258,106.8194 L152.3968,106.7874 C151.3958,106.7574 150.5608,107.5454 150.5318,108.5464 C150.4978,109.6994 151.4058,110.6614 152.5578,110.6944" id="Fill-197" fill="#FFFFFF"></path>
            <path d="M152.5578,110.6944 L157.3118,110.8344 C157.3738,108.6794 155.6788,106.8824 153.5258,106.8194 L152.3968,106.7874 C151.3958,106.7574 150.5608,107.5454 150.5318,108.5464 C150.4978,109.6994 151.4058,110.6614 152.5578,110.6944 Z" id="Stroke-199" stroke="#52267D"></path>
            <path d="M156.1164,108.5518 C156.0984,109.1538 155.5964,109.6268 154.9954,109.6098 C154.3934,109.5918 153.9204,109.0898 153.9374,108.4888 C153.9554,107.8868 154.4574,107.4128 155.0584,107.4308 C155.6604,107.4478 156.1344,107.9498 156.1164,108.5518" id="Fill-201" fill="#52267D"></path>
            <path d="M133.2619,105.5147 L127.8189,105.3557 C127.8989,102.6147 130.1869,100.4557 132.9279,100.5357 L133.4069,100.5507 C134.7779,100.5907 135.8569,101.7347 135.8169,103.1047 C135.7769,104.4757 134.6329,105.5547 133.2619,105.5147" id="Fill-203" fill="#F3E3FF"></path>
            <path d="M132.8059,105.4082 L127.9149,105.2642 C127.9779,103.1112 129.7759,101.4162 131.9289,101.4782 L132.9199,101.5082 C133.9969,101.5392 134.8449,102.4372 134.8129,103.5142 C134.7819,104.5922 133.8829,105.4392 132.8059,105.4082" id="Fill-205" fill="#FFFFFF"></path>
            <path d="M132.8059,105.4082 L127.9149,105.2642 C127.9779,103.1112 129.7759,101.4162 131.9289,101.4782 L132.9199,101.5082 C133.9969,101.5392 134.8449,102.4372 134.8129,103.5142 C134.7819,104.5922 133.8829,105.4392 132.8059,105.4082 Z" id="Stroke-207" stroke="#52267D"></path>
            <path d="M131.5198,104.2139 C131.5018,104.8159 131.9758,105.3179 132.5778,105.3349 C133.1788,105.3529 133.6808,104.8789 133.6988,104.2769 C133.7158,103.6759 133.2428,103.1739 132.6408,103.1559 C132.0398,103.1389 131.5378,103.6119 131.5198,104.2139" id="Fill-209" fill="#52267D"></path>
            <path d="M163.927,112.2539 C163.619,112.1779 163.348,111.9979 163.157,111.7449 L162.806,111.2749 L163.615,111.4729 L164.09,111.5899 C164.274,111.6349 164.385,111.8189 164.34,112.0029 C164.295,112.1869 164.111,112.2989 163.927,112.2539" id="Fill-211" fill="#52267D"></path>
            <path d="M122.0881,105.9336 C122.4001,105.8756 122.6811,105.7126 122.8861,105.4706 L123.2641,105.0226 L122.4451,105.1726 L121.9641,105.2616 C121.7781,105.2956 121.6551,105.4736 121.6901,105.6596 C121.7241,105.8446 121.9021,105.9676 122.0881,105.9336" id="Fill-213" fill="#52267D"></path>
            <path d="M132.9035,110.9434 C132.9035,110.9434 136.9105,112.7904 141.0485,111.3304 C140.5495,113.7174 140.1315,114.9314 140.1315,114.9314 C140.1315,114.9314 137.6645,115.0054 136.0445,114.6354 C133.7285,114.1094 132.8425,113.0244 132.9035,110.9434" id="Fill-215" fill="#E1F2FF"></path>
            <g id="Group-220" transform="translate(131.000000, 112.467000)">
                <path d="M7.4582,1.7186 C7.4582,1.7186 3.7572,1.9176 0.9432,0.3536" id="Fill-217" fill="#FFFFFF"></path>
                <path d="M7.4582,1.7186 C7.4582,1.7186 3.7572,1.9176 0.9432,0.3536" id="Stroke-219" stroke="#52267D"></path>
            </g>
            <path d="M151.4709,116.1172 C151.4709,116.1172 147.8429,117.0352 144.6869,116.3072 C145.2169,118.6882 145.5129,119.4382 145.5129,119.4382 C145.5129,119.4382 150.2939,118.9422 151.4709,116.1172" id="Fill-221" fill="#E1F2FF"></path>
            <g id="Group-226" transform="translate(148.000000, 149.467000)">
                <path d="M0.5598,0.159 C0.5598,0.159 0.3368,0.309 0.0228,0.486" id="Fill-223" fill="#F3E3FF"></path>
                <path d="M0.5598,0.159 C0.5598,0.159 0.3368,0.309 0.0228,0.486" id="Stroke-225" stroke="#52267D" stroke-width="0.5"></path>
            </g>
            <g id="Group-230" transform="translate(144.000000, 117.467000)">
                <path d="M7.7785,0.0213 C7.7785,0.0213 4.1355,0.6013 0.3035,0.0313" id="Fill-227" fill="#FFFFFF"></path>
                <path d="M7.7785,0.0213 C7.7785,0.0213 4.1355,0.6013 0.3035,0.0313" id="Stroke-229" stroke="#52267D"></path>
            </g>
            <path d="M143.6662,191.833 C143.6662,191.833 142.7292,191.022 141.4212,192.034 C140.2262,192.958 139.3052,194.413 139.8232,194.577 C140.3422,194.742 141.2592,194.913 142.2302,194.765 C143.0762,194.635 143.8142,194.818 144.2032,193.068 C144.3852,192.253 143.6662,191.833 143.6662,191.833" id="Fill-231" fill="#FFFFFF"></path>
            <path d="M143.6662,191.833 C143.6662,191.833 142.7292,191.022 141.4212,192.034 C140.2262,192.958 139.3052,194.413 139.8232,194.577 C140.3422,194.742 141.2592,194.913 142.2302,194.765 C143.0762,194.635 143.8142,194.818 144.2032,193.068 C144.3852,192.253 143.6662,191.833 143.6662,191.833 Z" id="Stroke-233" stroke="#52267D" stroke-width="0.5"></path>
            <path d="M143.4387,192.1123 C143.4387,192.1123 142.8557,191.6073 142.0417,192.2373 C141.2977,192.8123 140.7257,193.7173 141.0477,193.8203 C141.3707,193.9223 141.9407,194.0293 142.5457,193.9363 C143.0717,193.8553 143.5317,193.9693 143.7737,192.8813 C143.8857,192.3733 143.4387,192.1123 143.4387,192.1123" id="Fill-235" fill="#E1F2FF"></path>
            <path d="M145.0305,191.8555 C145.5405,191.8025 146.2385,192.9255 146.1455,193.2595 C146.0515,193.5935 145.9625,194.7025 145.1365,194.7985 C144.5295,194.8705 142.3645,195.0315 141.9065,194.5485 C141.4845,194.1035 142.3935,192.1305 145.0305,191.8555" id="Fill-237" fill="#FFFFFF"></path>
            <path d="M145.0305,191.8555 C145.5405,191.8025 146.2385,192.9255 146.1455,193.2595 C146.0515,193.5935 145.9625,194.7025 145.1365,194.7985 C144.5295,194.8705 142.3645,195.0315 141.9065,194.5485 C141.4845,194.1035 142.3935,192.1305 145.0305,191.8555 Z" id="Stroke-239" stroke="#52267D" stroke-width="0.5"></path>
            <path d="M145.1633,192.1651 C145.4643,192.1341 145.8773,192.7971 145.8213,192.9941 C145.7673,193.1911 145.7133,193.8451 145.2263,193.9021 C144.8683,193.9441 143.5903,194.0391 143.3203,193.7551 C143.0713,193.4921 143.6073,192.3281 145.1633,192.1651" id="Fill-241" fill="#E1F2FF"></path>
            <path d="M147.1721,192.1328 C147.1721,192.1328 146.7401,191.8918 145.8581,192.3618 C145.0771,192.7788 143.9121,193.4458 144.1881,194.3268 C144.4641,195.2078 146.8971,194.9538 147.4411,194.7858 C147.9841,194.6168 148.3401,194.0398 148.2601,193.5248 C148.0851,192.3988 147.1721,192.1328 147.1721,192.1328" id="Fill-243" fill="#FFFFFF"></path>
            <path d="M147.1721,192.1328 C147.1721,192.1328 146.7401,191.8918 145.8581,192.3618 C145.0771,192.7788 143.9121,193.4458 144.1881,194.3268 C144.4641,195.2078 146.8971,194.9538 147.4411,194.7858 C147.9841,194.6168 148.3401,194.0398 148.2601,193.5248 C148.0851,192.3988 147.1721,192.1328 147.1721,192.1328 Z" id="Stroke-245" stroke="#52267D" stroke-width="0.5"></path>
            <path d="M147.3274,192.4463 C147.3274,192.4463 147.0714,192.3033 146.5494,192.5823 C146.0874,192.8293 145.3974,193.2243 145.5604,193.7463 C145.7234,194.2673 147.1644,194.1173 147.4864,194.0173 C147.8084,193.9173 148.0194,193.5763 147.9724,193.2703 C147.8684,192.6033 147.3274,192.4463 147.3274,192.4463" id="Fill-247" fill="#E1F2FF"></path>
            <g id="Group-252" transform="translate(132.000000, 163.467000)">
                <path d="M5.8498,0.5682 C5.8498,0.5682 6.1798,6.1982 4.4948,14.9832 C2.9248,23.1602 0.4948,25.6692 0.6048,27.8032 C0.6908,29.4582 1.3428,30.9892 2.9978,31.0372 L7.9368,31.1812 C10.2428,31.2492 12.3188,29.8372 13.1228,27.6742 C13.7718,25.9332 14.4628,23.5592 14.9218,20.5462 C15.4218,16.4422 15.4608,12.3122 15.4628,9.8872" id="Fill-249" fill="#9452BA"></path>
                <path d="M5.8498,0.5682 C5.8498,0.5682 6.1798,6.1982 4.4948,14.9832 C2.9248,23.1602 0.4948,25.6692 0.6048,27.8032 C0.6908,29.4582 1.3428,30.9892 2.9978,31.0372 L7.9368,31.1812 C10.2428,31.2492 12.3188,29.8372 13.1228,27.6742 C13.7718,25.9332 14.4628,23.5592 14.9218,20.5462 C15.4218,16.4422 15.4608,12.3122 15.4628,9.8872" id="Stroke-251" stroke="#52267D" stroke-width="2"></path>
            </g>
            <g id="Group-256" transform="translate(158.000000, 168.467000)">
                <path d="M5.0627,0.0223 C3.3857,1.3823 2.4697,3.6643 2.4207,5.7833 C2.3557,8.6123 3.8917,12.2603 2.7137,16.9313 C1.6657,21.0913 -0.2013,21.7763 0.2447,25.5483 C0.3257,26.2303 0.9197,26.7353 1.6057,26.7553 L7.1087,26.9173 C9.6417,26.9903 11.8637,25.2173 12.3507,22.7303 C13.6517,16.0903 12.9907,9.7683 12.2427,4.9093" id="Fill-253" fill="#9452BA"></path>
                <path d="M5.0627,0.0223 C3.3857,1.3823 2.4697,3.6643 2.4207,5.7833 C2.3557,8.6123 3.8917,12.2603 2.7137,16.9313 C1.6657,21.0913 -0.2013,21.7763 0.2447,25.5483 C0.3257,26.2303 0.9197,26.7353 1.6057,26.7553 L7.1087,26.9173 C9.6417,26.9903 11.8637,25.2173 12.3507,22.7303 C13.6517,16.0903 12.9907,9.7683 12.2427,4.9093" id="Stroke-255" stroke="#52267D" stroke-width="2"></path>
            </g>
            <polyline id="Stroke-257" stroke="#52267D" stroke-width="0.5" points="163.9612 174.7549 164.2922 174.5309 165.3312 174.7979 164.1472 175.5049 162.7692 174.7759 164.2562 173.6559 164.9102 173.8969"></polyline>
            <path d="M133.677,191.542 C133.677,191.542 132.739,190.73 131.431,191.742 C130.237,192.666 129.316,194.122 129.834,194.286 C130.353,194.45 131.269,194.622 132.24,194.473 C133.086,194.343 133.825,194.527 134.214,192.776 C134.395,191.961 133.677,191.542 133.677,191.542" id="Fill-259" fill="#FFFFFF"></path>
            <path d="M133.677,191.542 C133.677,191.542 132.739,190.73 131.431,191.742 C130.237,192.666 129.316,194.122 129.834,194.286 C130.353,194.45 131.269,194.622 132.24,194.473 C133.086,194.343 133.825,194.527 134.214,192.776 C134.395,191.961 133.677,191.542 133.677,191.542 Z" id="Stroke-261" stroke="#52267D"></path>
            <path d="M133.4494,191.8203 C133.4494,191.8203 132.8654,191.3153 132.0524,191.9453 C131.3084,192.5203 130.7354,193.4253 131.0584,193.5283 C131.3814,193.6313 131.9514,193.7373 132.5554,193.6443 C133.0824,193.5633 133.5414,193.6783 133.7834,192.5893 C133.8964,192.0823 133.4494,191.8203 133.4494,191.8203" id="Fill-263" fill="#E1F2FF"></path>
            <polyline id="Stroke-265" stroke="#52267D" stroke-width="0.5" points="141.6555 177.21 139.6705 177.766 139.8775 179.596 141.8875 179.802 142.8575 178.744 141.6705 178.04 140.6645 178.301 141.2785 179.024"></polyline>
            <g id="Group-329" transform="translate(100.000000, 100.467000)" stroke="#F3E3FF" stroke-width="0.25">
                <path d="M1.2551,15.5057 C1.2461,15.8017 1.4801,16.0487 1.7751,16.0577 C2.0701,16.0657 2.3171,15.8327 2.3261,15.5367" id="Stroke-267"></path>
                <path d="M0.1838,15.4744 C0.1748,15.7704 0.4088,16.0174 0.7048,16.0264 C0.9988,16.0344 1.2458,15.8014 1.2548,15.5054" id="Stroke-269"></path>
                <path d="M0.7043,16.0262 C0.6953,16.3222 0.9283,16.5682 1.2243,16.5772 C1.5193,16.5862 1.7663,16.3532 1.7743,16.0572" id="Stroke-271"></path>
                <path d="M21.7912,15.6033 C22.1542,15.8443 22.6452,15.7453 22.8862,15.3803 C23.1272,15.0173 23.0272,14.5273 22.6632,14.2873" id="Stroke-273"></path>
                <path d="M22.0139,16.6981 C22.3769,16.9381 22.8679,16.8391 23.1079,16.4751 C23.3489,16.1121 23.2489,15.6221 22.8859,15.3811" id="Stroke-275"></path>
                <path d="M46.6828,34.3377 C46.6708,34.7337 46.9838,35.0657 47.3798,35.0767 C47.7768,35.0887 48.1078,34.7757 48.1198,34.3797" id="Stroke-277"></path>
                <path d="M45.2463,34.2957 C45.2343,34.6917 45.5463,35.0237 45.9433,35.0347 C46.3403,35.0467 46.6713,34.7337 46.6833,34.3377" id="Stroke-279"></path>
                <path d="M45.9436,35.035 C45.9316,35.432 46.2446,35.763 46.6406,35.774 C47.0376,35.786 47.3686,35.473 47.3806,35.077" id="Stroke-281"></path>
                <path d="M23.8987,79.2235 C23.8867,79.6195 24.1997,79.9515 24.5957,79.9625 C24.9927,79.9745 25.3237,79.6615 25.3357,79.2655" id="Stroke-283"></path>
                <path d="M22.4621,79.1815 C22.4501,79.5775 22.7631,79.9095 23.1591,79.9205 C23.5561,79.9325 23.8871,79.6195 23.8991,79.2235" id="Stroke-285"></path>
                <path d="M23.1594,79.9207 C23.1474,80.3167 23.4604,80.6487 23.8564,80.6597 C24.2534,80.6717 24.5844,80.3587 24.5964,79.9627" id="Stroke-287"></path>
                <path d="M46.2385,11.41 C46.2255,11.847 46.5685,12.21 47.0045,12.222 C47.4405,12.235 47.8035,11.892 47.8165,11.457" id="Stroke-289"></path>
                <path d="M45.426,12.1766 C45.413,12.6126 45.756,12.9766 46.192,12.9886 C46.628,13.0016 46.991,12.6586 47.004,12.2226" id="Stroke-291"></path>
                <path d="M35.7414,25.0565 C35.7254,25.5865 36.1424,26.0285 36.6734,26.0435 C37.2024,26.0595 37.6444,25.6425 37.6594,25.1125" id="Stroke-293"></path>
                <path d="M34.7541,25.9881 C34.7391,26.5171 35.1551,26.9591 35.6861,26.9741 C36.2151,26.9901 36.6571,26.5731 36.6731,26.0441" id="Stroke-295"></path>
                <path d="M22.5061,0.8026 C22.4951,1.1566 22.7751,1.4526 23.1291,1.4636 C23.4841,1.4736 23.7781,1.1956 23.7891,0.8406" id="Stroke-297"></path>
                <path d="M21.8459,1.4256 C21.8349,1.7796 22.1149,2.0756 22.4689,2.0856 C22.8229,2.0966 23.1179,1.8176 23.1289,1.4636" id="Stroke-299"></path>
                <path d="M80.9963,67.243 C81.2503,67.562 81.7153,67.614 82.0343,67.359 C82.3533,67.105 82.4053,66.64 82.1503,66.321" id="Stroke-301"></path>
                <path d="M80.8791,68.2821 C81.1341,68.6001 81.5991,68.6531 81.9181,68.3981 C82.2361,68.1431 82.2891,67.6781 82.0341,67.3591" id="Stroke-303"></path>
                <path d="M51.9377,56.1893 C52.1237,56.6303 52.6317,56.8363 53.0727,56.6513 C53.5137,56.4653 53.7207,55.9573 53.5357,55.5163" id="Stroke-305"></path>
                <path d="M50.3401,56.8621 C50.5261,57.3031 51.0341,57.5101 51.4751,57.3241 C51.9161,57.1381 52.1231,56.6311 51.9381,56.1891" id="Stroke-307"></path>
                <path d="M51.4748,57.3241 C51.6618,57.7651 52.1688,57.9721 52.6108,57.7871 C53.0518,57.6001 53.2588,57.0931 53.0728,56.6511" id="Stroke-309"></path>
                <path d="M49.8772,57.9979 C50.0642,58.4379 50.5712,58.6449 51.0132,58.4599 C51.4542,58.2739 51.6612,57.7659 51.4752,57.3239" id="Stroke-311"></path>
                <path d="M52.6106,57.7869 C52.7966,58.2269 53.3046,58.4339 53.7466,58.2489 C54.1866,58.0629 54.3936,57.5549 54.2086,57.1139" id="Stroke-313"></path>
                <path d="M38.2512,7.7528 C38.2372,8.2358 38.6172,8.6388 39.1002,8.6528 C39.5832,8.6668 39.9852,8.2868 40.0002,7.8048" id="Stroke-315"></path>
                <path d="M36.9836,40.7821 C36.9696,41.2651 37.3496,41.6681 37.8326,41.6821 C38.3156,41.6961 38.7176,41.3161 38.7326,40.8341" id="Stroke-317"></path>
                <path d="M47.4241,22.8602 C47.4131,23.2252 47.7011,23.5312 48.0671,23.5422 C48.4331,23.5522 48.7381,23.2642 48.7491,22.8982" id="Stroke-319"></path>
                <path d="M63.636,8.2694 C63.627,8.5434 63.844,8.7734 64.118,8.7814 C64.393,8.7894 64.621,8.5734 64.629,8.2984" id="Stroke-321"></path>
                <path d="M65.6369,81.4608 C65.7049,81.9388 66.1489,82.2708 66.6269,82.2018 C67.1059,82.1328 67.4369,81.6898 67.3679,81.2118" id="Stroke-323"></path>
                <path d="M41.2981,87.1951 C41.2821,87.7241 41.6991,88.1671 42.2291,88.1811 C42.7591,88.1971 43.2001,87.7801 43.2161,87.2511" id="Stroke-325"></path>
                <path d="M40.3108,88.1258 C40.2948,88.6548 40.7118,89.0978 41.2428,89.1128 C41.7718,89.1288 42.2128,88.7118 42.2288,88.1818" id="Stroke-327"></path>
            </g>
            <path d="M135.0403,191.5645 C135.5503,191.5105 136.2493,192.6345 136.1553,192.9685 C136.0623,193.3015 135.9723,194.4105 135.1473,194.5065 C134.5393,194.5785 132.3743,194.7395 131.9173,194.2565 C131.4953,193.8115 132.4033,191.8385 135.0403,191.5645" id="Fill-330" fill="#FFFFFF"></path>
            <path d="M135.0403,191.5645 C135.5503,191.5105 136.2493,192.6345 136.1553,192.9685 C136.0623,193.3015 135.9723,194.4105 135.1473,194.5065 C134.5393,194.5785 132.3743,194.7395 131.9173,194.2565 C131.4953,193.8115 132.4033,191.8385 135.0403,191.5645 Z" id="Stroke-332" stroke="#52267D"></path>
            <path d="M135.1741,191.8741 C135.4751,191.8431 135.8871,192.5061 135.8321,192.7021 C135.7771,192.8991 135.7241,193.5541 135.2361,193.6101 C134.8781,193.6521 133.6011,193.7481 133.3301,193.4631 C133.0821,193.2001 133.6181,192.0361 135.1741,191.8741" id="Fill-334" fill="#E1F2FF"></path>
            <path d="M136.8284,192.1592 C136.8284,192.1592 136.4464,191.9452 135.6654,192.3622 C134.9754,192.7302 133.9454,193.3212 134.1894,194.0992 C134.4334,194.8792 136.5854,194.6542 137.0654,194.5052 C137.5474,194.3562 137.8614,193.8462 137.7904,193.3892 C137.6364,192.3932 136.8284,192.1592 136.8284,192.1592" id="Fill-336" fill="#FFFFFF"></path>
            <path d="M136.8284,192.1592 C136.8284,192.1592 136.4464,191.9452 135.6654,192.3622 C134.9754,192.7302 133.9454,193.3212 134.1894,194.0992 C134.4334,194.8792 136.5854,194.6542 137.0654,194.5052 C137.5474,194.3562 137.8614,193.8462 137.7904,193.3892 C137.6364,192.3932 136.8284,192.1592 136.8284,192.1592 Z" id="Stroke-338" stroke="#52267D"></path>
            <path d="M136.966,192.4366 C136.966,192.4366 136.739,192.3096 136.278,192.5566 C135.869,192.7746 135.259,193.1236 135.404,193.5856 C135.548,194.0466 136.821,193.9146 137.107,193.8266 C137.392,193.7376 137.577,193.4356 137.535,193.1656 C137.445,192.5756 136.966,192.4366 136.966,192.4366" id="Fill-340" fill="#E1F2FF"></path>
            <path d="M116.552,191.7813 C116.552,191.7813 116.17,191.5673 115.39,191.9843 C114.7,192.3523 113.669,192.9433 113.913,193.7213 C114.157,194.5013 116.309,194.2763 116.79,194.1273 C117.271,193.9783 117.585,193.4683 117.515,193.0113 C117.36,192.0153 116.552,191.7813 116.552,191.7813" id="Fill-342" fill="#FFFFFF"></path>
            <path d="M116.552,191.7813 C116.552,191.7813 116.17,191.5673 115.39,191.9843 C114.7,192.3523 113.669,192.9433 113.913,193.7213 C114.157,194.5013 116.309,194.2763 116.79,194.1273 C117.271,193.9783 117.585,193.4683 117.515,193.0113 C117.36,192.0153 116.552,191.7813 116.552,191.7813 Z" id="Stroke-344" stroke="#52267D"></path>
            <path d="M116.6897,192.0586 C116.6897,192.0586 116.4627,191.9316 116.0017,192.1786 C115.5927,192.3966 114.9827,192.7456 115.1277,193.2076 C115.2717,193.6686 116.5457,193.5366 116.8307,193.4476 C117.1157,193.3596 117.3017,193.0576 117.2597,192.7876 C117.1687,192.1976 116.6897,192.0586 116.6897,192.0586" id="Fill-346" fill="#E1F2FF"></path>
            <path d="M118.9123,191.3067 C119.4223,191.2537 120.1203,192.3777 120.0273,192.7107 C119.9333,193.0447 119.8443,194.1537 119.0183,194.2497 C118.4113,194.3217 116.2463,194.4827 115.7883,193.9997 C115.3663,193.5547 116.2753,191.5817 118.9123,191.3067" id="Fill-348" fill="#FFFFFF"></path>
            <path d="M118.9123,191.3067 C119.4223,191.2537 120.1203,192.3777 120.0273,192.7107 C119.9333,193.0447 119.8443,194.1537 119.0183,194.2497 C118.4113,194.3217 116.2463,194.4827 115.7883,193.9997 C115.3663,193.5547 116.2753,191.5817 118.9123,191.3067 Z" id="Stroke-350" stroke="#52267D"></path>
            <path d="M119.0461,191.6172 C119.3471,191.5852 119.7591,192.2482 119.7031,192.4452 C119.6491,192.6422 119.5951,193.2962 119.1081,193.3532 C118.7501,193.3952 117.4721,193.4902 117.2021,193.2062 C116.9531,192.9432 117.4891,191.7792 119.0461,191.6172" id="Fill-352" fill="#E1F2FF"></path>
            <path d="M160.3948,192.3213 C160.3948,192.3213 159.4578,191.5103 158.1498,192.5223 C156.9548,193.4463 156.0338,194.9013 156.5518,195.0663 C157.0718,195.2303 157.9878,195.4013 158.9588,195.2533 C159.8048,195.1233 160.5428,195.3063 160.9318,193.5563 C161.1138,192.7413 160.3948,192.3213 160.3948,192.3213" id="Fill-354" fill="#FFFFFF"></path>
            <path d="M160.3948,192.3213 C160.3948,192.3213 159.4578,191.5103 158.1498,192.5223 C156.9548,193.4463 156.0338,194.9013 156.5518,195.0663 C157.0718,195.2303 157.9878,195.4013 158.9588,195.2533 C159.8048,195.1233 160.5428,195.3063 160.9318,193.5563 C161.1138,192.7413 160.3948,192.3213 160.3948,192.3213 Z" id="Stroke-356" stroke="#52267D" stroke-width="0.5"></path>
            <path d="M160.1672,192.6006 C160.1672,192.6006 159.5842,192.0956 158.7702,192.7256 C158.0262,193.3006 157.4542,194.2056 157.7762,194.3086 C158.0992,194.4106 158.6692,194.5176 159.2742,194.4246 C159.8002,194.3436 160.2602,194.4576 160.5022,193.3696 C160.6142,192.8616 160.1672,192.6006 160.1672,192.6006" id="Fill-358" fill="#E1F2FF"></path>
            <path d="M161.759,192.3438 C162.269,192.2908 162.967,193.4148 162.874,193.7478 C162.78,194.0818 162.691,195.1908 161.865,195.2868 C161.258,195.3588 159.093,195.5198 158.635,195.0368 C158.213,194.5918 159.122,192.6188 161.759,192.3438" id="Fill-360" fill="#FFFFFF"></path>
            <path d="M161.759,192.3438 C162.269,192.2908 162.967,193.4148 162.874,193.7478 C162.78,194.0818 162.691,195.1908 161.865,195.2868 C161.258,195.3588 159.093,195.5198 158.635,195.0368 C158.213,194.5918 159.122,192.6188 161.759,192.3438 Z" id="Stroke-362" stroke="#52267D" stroke-width="0.5"></path>
            <path d="M161.8918,192.6543 C162.1928,192.6223 162.6058,193.2853 162.5498,193.4823 C162.4958,193.6793 162.4418,194.3333 161.9548,194.3903 C161.5968,194.4323 160.3188,194.5273 160.0488,194.2433 C159.7998,193.9803 160.3358,192.8163 161.8918,192.6543" id="Fill-364" fill="#E1F2FF"></path>
            <path d="M163.5461,192.9395 C163.5461,192.9395 163.1641,192.7255 162.3841,193.1425 C161.6941,193.5105 160.6641,194.1015 160.9071,194.8795 C161.1511,195.6595 163.3031,195.4345 163.7841,195.2855 C164.2661,195.1365 164.5791,194.6265 164.5091,194.1695 C164.3551,193.1735 163.5461,192.9395 163.5461,192.9395" id="Fill-366" fill="#FFFFFF"></path>
            <path d="M163.5461,192.9395 C163.5461,192.9395 163.1641,192.7255 162.3841,193.1425 C161.6941,193.5105 160.6641,194.1015 160.9071,194.8795 C161.1511,195.6595 163.3031,195.4345 163.7841,195.2855 C164.2661,195.1365 164.5791,194.6265 164.5091,194.1695 C164.3551,193.1735 163.5461,192.9395 163.5461,192.9395 Z" id="Stroke-368" stroke="#52267D" stroke-width="0.5"></path>
            <path d="M163.6838,193.2168 C163.6838,193.2168 163.4578,193.0898 162.9958,193.3368 C162.5868,193.5548 161.9768,193.9038 162.1218,194.3658 C162.2658,194.8268 163.5398,194.6948 163.8258,194.6058 C164.1098,194.5178 164.2958,194.2158 164.2538,193.9458 C164.1628,193.3558 163.6838,193.2168 163.6838,193.2168" id="Fill-370" fill="#E1F2FF"></path>
            <path d="M125.5647,191.9766 C125.7277,191.8466 125.9187,191.8156 126.0727,191.8936 C126.6477,192.1856 128.0977,193.0106 127.7627,194.0596 C127.5017,194.8766 127.0047,194.6146 126.0427,194.6046 L125.3157,194.5966 C125.1657,194.5946 125.0347,194.5136 124.9567,194.3726 C124.5587,193.6636 124.8167,192.5726 125.5137,192.0176 L125.5647,191.9766 Z" id="Fill-372" fill="#FFFFFF"></path>
            <path d="M125.5647,191.9766 C125.7277,191.8466 125.9187,191.8156 126.0727,191.8936 C126.6477,192.1856 128.0977,193.0106 127.7627,194.0596 C127.5017,194.8766 127.0047,194.6146 126.0427,194.6046 L125.3157,194.5966 C125.1657,194.5946 125.0347,194.5136 124.9567,194.3726 C124.5587,193.6636 124.8167,192.5726 125.5137,192.0176 L125.5647,191.9766 Z" id="Stroke-374" stroke="#52267D"></path>
            <path d="M125.633,192.2159 C125.751,192.1209 125.89,192.0989 126.002,192.1549 C126.42,192.3669 127.474,192.9669 127.23,193.7299 C127.04,194.3229 126.68,194.1329 125.98,194.1249 L125.452,194.1189 C125.343,194.1179 125.248,194.0599 125.191,193.9569 C124.902,193.4419 125.089,192.6489 125.596,192.2449 L125.633,192.2159 Z" id="Fill-376" fill="#E1F2FF"></path>
            <path d="M122.1662,191.5606 C122.1662,191.5606 121.3002,190.6726 119.9112,191.5706 C118.6432,192.3896 117.6022,193.7616 118.1042,193.9686 C118.6072,194.1766 119.5052,194.4256 120.4862,194.3596 C121.3402,194.3016 122.0612,194.5476 122.5972,192.8366 C122.8462,192.0396 122.1662,191.5606 122.1662,191.5606" id="Fill-378" fill="#FFFFFF"></path>
            <path d="M122.1662,191.5606 C122.1662,191.5606 121.3002,190.6726 119.9112,191.5706 C118.6432,192.3896 117.6022,193.7616 118.1042,193.9686 C118.6072,194.1766 119.5052,194.4256 120.4862,194.3596 C121.3402,194.3016 122.0612,194.5476 122.5972,192.8366 C122.8462,192.0396 122.1662,191.5606 122.1662,191.5606 Z" id="Stroke-380" stroke="#52267D"></path>
            <path d="M121.9162,191.8194 C121.9162,191.8194 121.3772,191.2664 120.5132,191.8254 C119.7242,192.3354 119.0752,193.1884 119.3892,193.3184 C119.7012,193.4474 120.2602,193.6014 120.8712,193.5604 C121.4012,193.5254 121.8502,193.6784 122.1842,192.6134 C122.3392,192.1184 121.9162,191.8194 121.9162,191.8194" id="Fill-382" fill="#E1F2FF"></path>
            <path d="M120.5793,55.7647 C110.8703,38.7157 59.4263,5.0997 59.4263,5.0997" id="Stroke-384" stroke="#ACD3EF" stroke-width="2"></path>
            <path d="M173.6623,196.2383 L76.4773,196.2383 C75.3723,196.2383 74.4773,195.3423 74.4773,194.2383 L74.4773,87.6683 C74.4773,84.9953 75.5473,82.4333 77.4483,80.5543 L120.7023,37.8063 C123.1233,35.4153 127.0163,35.4153 129.4363,37.8063 L172.6913,80.5543 C174.5933,82.4333 175.6623,84.9953 175.6623,87.6683 L175.6623,194.2383 C175.6623,195.3423 174.7663,196.2383 173.6623,196.2383" id="Fill-386" fill="#FFFFFF"></path>
            <path d="M173.6623,196.2383 L76.4773,196.2383 C75.3723,196.2383 74.4773,195.3423 74.4773,194.2383 L74.4773,87.6683 C74.4773,84.9953 75.5473,82.4333 77.4483,80.5543 L120.7023,37.8063 C123.1233,35.4153 127.0163,35.4153 129.4363,37.8063 L172.6913,80.5543 C174.5933,82.4333 175.6623,84.9953 175.6623,87.6683 L175.6623,194.2383 C175.6623,195.3423 174.7663,196.2383 173.6623,196.2383 Z" id="Stroke-388" stroke="#5E63B6" stroke-width="2"></path>
            <path d="M147.5403,118.7286 C147.5403,132.3876 136.4673,143.4606 122.8083,143.4606 C109.1483,143.4606 98.0753,132.3876 98.0753,118.7286 C98.0753,105.0696 109.1483,93.9966 122.8083,93.9966 C136.4673,93.9966 147.5403,105.0696 147.5403,118.7286" id="Fill-390" fill="#E1F2FF"></path>
            <path d="M150.5403,113.7286 C150.5403,127.3876 139.4673,138.4606 125.8083,138.4606 C112.1483,138.4606 101.0753,127.3876 101.0753,113.7286 C101.0753,100.0696 112.1483,88.9966 125.8083,88.9966 C139.4673,88.9966 150.5403,100.0696 150.5403,113.7286" id="Fill-392" fill="#FFFFFF"></path>
            <path d="M150.5403,113.7286 C150.5403,127.3876 139.4673,138.4606 125.8083,138.4606 C112.1483,138.4606 101.0753,127.3876 101.0753,113.7286 C101.0753,100.0696 112.1483,88.9966 125.8083,88.9966 C139.4673,88.9966 150.5403,100.0696 150.5403,113.7286 Z" id="Stroke-394" stroke="#5E63B6" stroke-width="2"></path>
            <path d="M131.9553,125.9258 C132.0593,126.2348 132.1503,126.4448 132.1783,126.5148 C132.1863,126.5218 132.1693,126.5108 132.1783,126.5148 C132.1783,126.5148 132.1783,126.5168 132.1783,126.5148 C132.1793,126.5158 132.1773,126.5148 132.1773,126.5148 C131.4783,119.7738 135.3013,116.9648 136.5293,112.4878 C136.5353,112.4218 136.5483,112.3498 136.5683,112.2678 C136.5943,112.1678 136.6143,112.0648 136.6303,111.9608 C136.8123,110.7218 136.3053,109.2798 135.3443,107.7788 C135.3403,107.7698 135.3333,107.7628 135.3283,107.7548 C135.2503,107.6298 135.1653,107.5048 135.0803,107.3798 C135.0803,107.3798 135.0773,107.3778 135.0763,107.3748 C134.9193,107.1478 134.7503,106.9168 134.5733,106.6858 C134.5553,106.6628 134.5383,106.6378 134.5193,106.6138 C134.4703,106.5518 134.4183,106.4888 134.3703,106.4258 C134.3183,106.3608 134.2683,106.2948 134.2173,106.2328 C134.1633,106.1678 134.1113,106.1058 134.0593,106.0438 C134.0043,105.9778 133.9503,105.9138 133.8943,105.8488 C133.8573,105.8038 133.8163,105.7588 133.7763,105.7118 C132.2663,103.9728 130.3003,102.2538 128.2483,100.7588 C128.2483,100.7588 128.2323,100.7358 128.2483,100.7588 C128.5193,103.2948 128.5553,105.8308 128.3143,107.8598 C128.0243,110.3048 127.1493,113.1518 125.9353,115.7318 C123.0933,115.4988 120.1883,114.8408 117.9243,113.8738 C116.0293,113.0648 113.8603,111.7888 111.7863,110.2758 C111.8093,110.4858 111.8343,110.6948 111.8583,110.9048 C111.8663,110.9668 111.8753,111.0298 111.8833,111.0918 C111.9023,111.2418 111.9213,111.3908 111.9443,111.5408 C111.9533,111.6108 111.9633,111.6798 111.9743,111.7478 C111.9963,111.8998 112.0183,112.0478 112.0433,112.1968 C112.0533,112.2578 112.0623,112.3188 112.0723,112.3798 C112.1033,112.5698 112.1353,112.7568 112.1703,112.9448 C112.1723,112.9638 112.1753,112.9828 112.1793,112.9998 C112.2183,113.2178 112.2593,113.4348 112.3023,113.6508 C112.3043,113.6668 112.3093,113.6818 112.3123,113.6988 C112.3513,113.8938 112.3923,114.0838 112.4343,114.2768 C112.4413,114.3168 112.4503,114.3548 112.4583,114.3938 C112.4973,114.5688 112.5383,114.7418 112.5783,114.9158 C112.5893,114.9488 112.5973,114.9828 112.6043,115.0188 C112.6543,115.2188 112.7023,115.4178 112.7553,115.6138 C112.7563,115.6148 112.7563,115.6168 112.7563,115.6168 C112.9243,116.2498 113.1083,116.8618 113.3083,117.4468 C113.3093,117.4548 113.3123,117.4608 113.3133,117.4688 C113.6513,118.4468 114.0353,119.3498 114.4643,120.1388 C114.5273,120.2528 114.5923,120.3658 114.6563,120.4758 C114.6593,120.4798 114.6593,120.4848 114.6623,120.4888 L114.6633,120.4888 C114.7223,120.5888 114.7813,120.6878 114.8413,120.7818 L114.8433,120.7828 C114.8433,120.7828 114.8483,120.7908 114.8503,120.7938 C114.9143,120.8978 114.9793,120.9978 115.0483,121.0938 L115.0483,121.0948 C115.0573,121.1088 115.0653,121.1188 115.0753,121.1328 C115.0763,121.1338 115.0753,121.1358 115.0763,121.1368 C115.1633,121.2618 115.2523,121.3818 115.3403,121.4978 C115.3563,121.5168 115.3713,121.5348 115.3863,121.5538 C115.3903,121.5608 115.3953,121.5668 115.4013,121.5748 C115.5043,121.7038 115.6083,121.8288 115.7173,121.9458 C115.7913,122.0298 115.8683,122.1068 115.9443,122.1838 C115.9773,122.2158 116.0123,122.2448 116.0443,122.2768 C116.0923,122.3218 116.1413,122.3638 116.1893,122.4078 C116.2263,122.4408 116.2633,122.4678 116.3013,122.4988 C116.3473,122.5378 116.3943,122.5738 116.4423,122.6118 C116.4793,122.6398 116.5173,122.6658 116.5563,122.6928 C116.6043,122.7278 116.6523,122.7608 116.7023,122.7938 C116.7393,122.8168 116.7783,122.8408 116.8163,122.8638 C116.8683,122.8948 116.9223,122.9228 116.9733,122.9528 C117.0103,122.9728 117.0473,122.9908 117.0823,123.0098 C117.1423,123.0378 117.2023,123.0638 117.2643,123.0898 C117.2923,123.1008 117.3233,123.1168 117.3543,123.1278 C117.4473,123.1648 117.5403,123.1968 117.6343,123.2228 C117.6963,123.2408 117.7503,123.2608 117.8013,123.2798 C122.3023,124.4688 126.6833,122.5848 132.1783,126.5148" id="Fill-396" fill="#9452BA"></path>
            <path d="M97.2278,160.6387 L152.9118,160.6387" id="Stroke-398" stroke="#ACD3EF" stroke-width="2" stroke-linecap="round"></path>
            <path d="M97.2278,175.3438 L152.9118,175.3438" id="Stroke-400" stroke="#ACD3EF" stroke-width="2" stroke-linecap="round"></path>
            <path d="M133.0696,62.3828 C133.0696,66.8008 129.4886,70.3828 125.0696,70.3828 C120.6516,70.3828 117.0696,66.8008 117.0696,62.3828 C117.0696,57.9648 120.6516,54.3828 125.0696,54.3828 C129.4886,54.3828 133.0696,57.9648 133.0696,62.3828" id="Fill-402" fill="#FFFFFF"></path>
            <path d="M133.0696,62.3828 C133.0696,66.8008 129.4886,70.3828 125.0696,70.3828 C120.6516,70.3828 117.0696,66.8008 117.0696,62.3828 C117.0696,57.9648 120.6516,54.3828 125.0696,54.3828 C129.4886,54.3828 133.0696,57.9648 133.0696,62.3828 Z" id="Stroke-404" stroke="#5E63B6" stroke-width="2"></path>
            <path d="M65.009,0.2237 C65.009,0.2237 67.095,9.3397 69.938,12.4627 C75.6,18.6827 83.07,25.0827 90.002,36.0127 C102.295,55.3927 109.525,74.1387 120.426,63.7727 C121.887,62.3827 122.808,58.5987 121.119,56.7937" id="Stroke-406" stroke="#ACD3EF" stroke-width="2"></path>
            <path d="M74.2483,15.8125 C74.2483,15.8125 69.4333,17.5535 67.9333,15.8125 C66.4333,14.0715 76.0643,6.5535 74.2483,15.8125 Z" id="Stroke-408" stroke="#ACD3EF" stroke-width="2"></path>
        </g>
    </g>
</svg>