<?xml version="1.0" encoding="UTF-8" standalone="no"?>
<svg width="256px" height="256px" viewBox="0 0 256 256" version="1.1" xmlns="http://www.w3.org/2000/svg" xmlns:xlink="http://www.w3.org/1999/xlink">
    <!-- Generator: Sketch 50.2 (55047) - http://www.bohemiancoding.com/sketch -->
    <title>icon--swagger</title>
    <desc>Created with Sketch.</desc>
    <defs></defs>
    <g id="icon--swagger" stroke="none" stroke-width="1" fill="none" fill-rule="evenodd">
        <g id="Group-4" transform="translate(3.000000, 24.000000)">
            <path d="M22,204.559998 C22.0000012,147.36539 68.3653922,101 125.56,101 C182.754608,101 229.119999,147.36539 229.12,204.559998 L22,204.559998 Z" id="Shape" fill="#E1F2FF" fill-rule="nonzero"></path>
            <g id="Group-2" transform="translate(0.000000, 196.000000)" fill="#FFFFFF" fill-rule="nonzero" stroke="#5E63B6" stroke-linecap="round" stroke-linejoin="round" stroke-width="3">
                <path d="M17,0 L53,0" id="Shape"></path>
                <path d="M59,0 L235.89,0" id="Shape"></path>
                <path d="M243,0 L249.97,0" id="Shape"></path>
                <path d="M0,0 L8.97,0" id="Shape"></path>
                <path d="M92,10 L159.19,10" id="Shape"></path>
                <path d="M168,10 L177.14,10" id="Shape"></path>
                <path d="M84,9 L79,9.08" id="Shape"></path>
            </g>
            <g id="Group-2" transform="translate(19.000000, 0.000000)" stroke="#5E63B6" stroke-linecap="round">
                <path d="M184.98,44.4 L184.98,51.4" id="Shape" stroke-width="2" stroke-linejoin="round"></path>
                <path d="M188.48,47.9 L181.48,47.9" id="Shape" stroke-width="2" stroke-linejoin="round"></path>
                <path d="M58,0 L58,7" id="Shape" stroke-width="2" stroke-linejoin="round"></path>
                <path d="M62,4 L55,4" id="Shape" stroke-width="2" stroke-linejoin="round"></path>
                <path d="M20.73,164.68 L20.73,168.62" id="Shape"></path>
                <path d="M22.7,166.65 L18.76,166.65" id="Shape"></path>
                <path d="M195.73,104.68 L195.73,108.62" id="Shape" stroke-linejoin="round"></path>
                <path d="M197.7,106.65 L193.76,106.65" id="Shape" stroke-linejoin="round"></path>
                <path d="M26.73,64.68 L26.73,68.62" id="Shape"></path>
                <path d="M28.7,66.65 L24.76,66.65" id="Shape"></path>
                <path d="M4.42,103.28 L4.42,111.4" id="Shape" stroke-width="2" fill="#FFFFFF" fill-rule="nonzero"></path>
                <path d="M8.48,107.34 L0.35,107.34" id="Shape" stroke-width="2" fill="#FFFFFF" fill-rule="nonzero"></path>
            </g>
        </g>
        <g id="Group" transform="translate(30.000000, 115.000000)">
            <path d="M50.08,103.51 L55.08,103.51 C56.7964215,103.514453 58.3402375,102.466722 58.97,100.87 C60.74,96.32 60.3,92.14 60.51,88.56 C60.9,81.93 59.87,78.56 58.88,73 L51.41,73.17 C51.41,73.17 52.05,75.92 52.47,84.17 C52.6,86.73 48.38,96.99 48.58,102.02 C48.6012361,102.837818 49.2620582,103.494235 50.08,103.51 Z" id="Shape" stroke="#52267D" stroke-width="2" fill="#9452BA" fill-rule="nonzero"></path>
            <path d="M35.59,79.85 L29.59,73.03 L25.88,73.18 C25.88,73.18 25.36,78.85 25.15,81.18 C24.4798038,86.5834563 23.416993,91.9309321 21.97,97.18 C21.6456117,98.2400536 21.4442874,99.3339155 21.37,100.44 C21.3534875,101.240597 21.6642527,102.013291 22.2304809,102.579519 C22.7967092,103.145747 23.5694026,103.456512 24.37,103.44 L28.78,103.44 C31.3503011,103.452264 33.6037747,101.725149 34.26,99.24 C36.18,91.56 35.59,79.85 35.59,79.85 Z" id="Shape" stroke="#52267D" stroke-width="2" fill="#9452BA" fill-rule="nonzero"></path>
            <polyline id="Shape" stroke="#52267D" stroke-width="0.5" points="27.14 84.54 26.14 85.42 27.09 86.27 28.64 85.68 28.33 85 27.05 85.3 27.06 85.53 27.39 85.52"></polyline>
            <path d="M27.17,54.46 C31.55,54.37 35.65,51.35 44.59,50.94 C44.6990772,50.4109561 44.8633078,49.8948027 45.08,49.4 C46.7,45.9 48.98,35.81 47.51,29.18 L46.35,23.93 C45.9703322,22.209206 45.7792053,20.4521802 45.78,18.69 C45.7811197,17.9710802 45.8548269,17.2541106 46,16.55 C46.0333333,16.3766667 46.0733333,16.2066667 46.12,16.04 C46.2498978,15.5349986 46.4170216,15.040312 46.62,14.56 C46.6866667,14.4 46.7566667,14.2433333 46.83,14.09 C46.9766667,13.7833333 47.14,13.4833333 47.32,13.19 C47.5,12.8966667 47.69,12.6133333 47.89,12.34 C48.5029906,11.5204015 49.2304015,10.7929906 50.05,10.18 C50.3233333,9.97333333 50.6066667,9.78333333 50.9,9.61 C52.5634953,8.5991014 54.4734341,8.06625616 56.42,8.07 L58.16,8.07 C60.9820477,8.06750717 63.6885931,9.19043555 65.68,11.19 C65.92,11.43 66.15,11.6833333 66.37,11.95 C66.7638081,12.4285094 67.1151389,12.9404485 67.42,13.48 C67.54,13.68 67.65,13.89 67.75,14.1 C67.85,14.31 67.9,14.41 67.96,14.57 C68.3707926,15.5420305 68.6337081,16.5700972 68.74,17.62 C68.7750902,17.9822539 68.7917783,18.3460549 68.79,18.71 C68.79,19.4128237 68.5108044,20.0868616 68.013833,20.583833 C67.5168616,21.0808044 66.8428237,21.36 66.14,21.36 L55.25,21.36 L56.9,30.81 C58.83,40.52 58.25,47.01 56.75,51.34 C56.42,52.34 54.51,55.73 54.51,55.73 C59.96,64.32 68.31,68.08 77.24,69.17 C84.83,70.1 101.24,63.17 92.77,55.17 C84.3,47.17 94.53,52.17 96.03,53.17 C97.53,54.17 106.22,61.69 96.79,72.71 C92.79,77.37 88.28,81.6 77.42,84.85 C75.68,85.37 66.17,86.06 61.04,87.53 C45.79,91.91 33.4,87.15 26.45,77.08 C19.5,67.01 25.44,54.49 27.17,54.46 Z" id="Shape" stroke="#52267D" stroke-width="2" fill="#9452BA" fill-rule="nonzero"></path>
            <path d="M36.63,40 C37,28.73 28,19.88 17.89,18 C15.78,17.61 15.1,17 12.79,17 L11,17 C5.0463704,17 0.22,21.8263704 0.22,27.78 C0.22,29.265646 1.42435402,30.47 2.91,30.47 L21.11,30.47 C25.11,32.17 27.61,37.29 28.05,40.04 C28.7205227,43.3344685 28.3101966,46.7573595 26.88,49.8 C26.1023436,51.5362498 25.8086452,53.4504723 26.03,55.34 L26.13,55.34 C26.2084906,56.3909148 26.3689791,57.4340898 26.61,58.46 C28.32,57.27 30.97,55.46 31.45,55.23 C32.45,54.68 34.86,53.42 35.92,52.81 C42.7,48.92 36.43,46.39 36.63,40 Z" id="Shape" stroke="#52267D" stroke-width="2" fill="#9452BA" fill-rule="nonzero"></path>
            <path d="M30.86,53 C30.77,51.26 30.51,50.37 30.7,49.66 C31.82,45.59 32.19,44.3 32.19,39.99 C32.0896647,35.5790738 29.7589572,31.5201034 26,29.21 C24.2705718,28.9765805 22.5168081,29.4051989 21.09,30.41 C25.09,32.11 27.59,37.23 28.03,39.98 C28.7005227,43.2744685 28.2901966,46.6973595 26.86,49.74 C26.0823436,51.4762498 25.7886452,53.3904723 26.01,55.28 C26.01,55.28 31,57.14 30.86,53" id="Shape" stroke="#52267D" fill="#F3E3FF" fill-rule="nonzero"></path>
            <path d="M5.36,18.79 C5.41859041,17.6241861 6.14808948,16.5982061 7.23,16.16 L8.84,15.51 C8.84,15.51 9.95,17.87 8.69,18.46 C7.65677798,18.9702927 6.47328111,19.0875762 5.36,18.79 Z" id="Shape" stroke="#52267D" fill="#FFFFFF" fill-rule="nonzero"></path>
            <path d="M10,17.47 C10.1008486,15.866939 11.3952289,14.5984463 13,14.53 C13.54,14.46 14.94,14.53 14.94,14.53 C14.94,14.53 15.59,17.24 14.07,17.53 C12.7170941,17.6984482 11.3473526,17.6782554 10,17.47 Z" id="Shape" stroke="#52267D" fill="#FFFFFF" fill-rule="nonzero"></path>
            <path d="M15.78,17.71 C15.78,17.71 16.16,14.87 18.71,15.65 C19.3782511,15.8614039 19.9694901,16.2648376 20.41,16.81 C20.41,16.81 19.9,18.98 18.89,18.73 C17.8265937,18.4777092 16.7862672,18.1365089 15.78,17.71 Z" id="Shape" stroke="#52267D" fill="#FFFFFF" fill-rule="nonzero"></path>
            <path d="M23.2,31.52 C23.2,31.52 29.2,28.28 28.02,22.83 C29.3385419,23.9470357 30.5657759,25.1675817 31.69,26.48 C31.69,27.55 31.89,31.78 26.04,34.62 C25.1606217,33.5269787 24.2120057,32.4915175 23.2,31.52 Z" id="Shape" stroke="#52267D" fill="#FFFFFF" fill-rule="nonzero"></path>
            <path d="M6.18,18.27 C6.21046557,17.6571576 6.60411289,17.1217972 7.18,16.91 L8.01,16.57 C8.01,16.57 8.59,17.79 7.93,18.1 C7.38752679,18.3703129 6.76435755,18.4308494 6.18,18.27 Z" id="Shape" fill="#F3E3FF" fill-rule="nonzero"></path>
            <path d="M11.28,16.89 C11.3290561,16.0827649 11.9727649,15.4390561 12.78,15.39 C13.05,15.39 13.78,15.39 13.78,15.39 C13.78,15.39 14.11,16.77 13.33,16.91 C12.648965,16.9970721 11.9592065,16.9903428 11.28,16.89 Z" id="Shape" fill="#F3E3FF" fill-rule="nonzero"></path>
            <path d="M16.7,17.51 C16.7,17.51 16.9,16 18.26,16.42 C18.6145099,16.5335276 18.9276019,16.7492132 19.16,17.04 C19.16,17.04 18.89,18.19 18.35,18.04 C17.7861504,17.9097717 17.2342161,17.7324837 16.7,17.51 Z" id="Shape" fill="#F3E3FF" fill-rule="nonzero"></path>
            <path d="M14.69,23.65 L15.17,23.65 C16.5396662,23.65 17.65,24.7603338 17.65,26.13 C17.65,27.4996662 16.5396662,28.61 15.17,28.61 L9.72,28.61 C9.72,25.8485763 11.9585763,23.61 14.72,23.61 L14.69,23.65 Z" id="Shape" fill="#F3E3FF" fill-rule="nonzero" opacity="0.3"></path>
            <path d="M13.72,24.62 L14.72,24.62 C15.8245695,24.62 16.72,25.5154305 16.72,26.62 C16.72,27.7245695 15.8245695,28.62 14.72,28.62 L9.82,28.62 C9.793028,27.5684399 10.1919815,26.550574 10.9263172,25.7974093 C11.6606529,25.0442445 12.6680941,24.6196541 13.72,24.62 Z" id="Shape" stroke="#52267D" fill="#FFFFFF" fill-rule="nonzero"></path>
            <circle id="Oval" fill="#52267D" fill-rule="nonzero" cx="11.79" cy="27.46" r="1.09"></circle>
            <path d="M2.68,29.6 C2.98876249,29.5315898 3.26434892,29.358465 3.46,29.11 L3.83,28.65 L3.02,28.82 L2.54,28.92 C2.45069526,28.9390828 2.37282125,28.9932884 2.32391512,29.0704096 C2.27500898,29.1475308 2.25918258,29.2410836 2.28,29.33 C2.29693143,29.4190108 2.34869084,29.4975817 2.4237902,29.5482738 C2.49888957,29.5989658 2.59111608,29.6175855 2.68,29.6 Z" id="Shape" fill="#52267D" fill-rule="nonzero"></path>
            <path d="M24.21,31.63 C24.21,31.63 28.8,29.16 28.73,24.18 C29.7053424,24.8047662 30.5563923,25.6049566 31.24,26.54 C31.0531813,27.8268762 30.5554815,29.0488151 29.79,30.1 C28.09,31.94 26.32,32.51 24.21,31.63 Z" id="Shape" fill="#EAF3FB" fill-rule="nonzero"></path>
            <path d="M28.55,30.75 C27.4958406,31.813857 26.3014993,32.728958 25,33.47" id="Shape" stroke="#52267D" fill="#FFFFFF" fill-rule="nonzero"></path>
            <path d="M46.54,50.1 L45.54,48.1 C41.72,38.72 41.13,33.21 43.11,24.26 L44.25,19 C44.6296678,17.279206 44.8207947,15.5221802 44.82,13.76 C44.82,7.88369026 40.0563097,3.12 34.18,3.12 L32.47,3.12 C26.684345,3.13103082 21.9999895,7.82433448 22,13.61 L22,13.91 C22,15.2907119 23.1192881,16.41 24.5,16.41 L35.35,16.41 L33.7,25.86 C28.7,51.19 29.16,61.46 39.09,59.35" id="Shape" stroke="#52267D" stroke-width="2" fill="#9452BA" fill-rule="nonzero"></path>
            <path d="M27.22,4.37 C27.3809786,3.2157627 28.1423279,2.23362213 29.22,1.79 C29.6885723,1.66576912 30.1814277,1.66576912 30.65,1.79 C30.65,1.79 31.71,3.44 30.47,4.03 C29.4634757,4.53278675 28.3087908,4.65358455 27.22,4.37 Z" id="Shape" stroke="#52267D" fill="#FFFFFF" fill-rule="nonzero"></path>
            <path d="M31.58,3.77 C31.6880308,1.97754488 33.1175449,0.548030752 34.91,0.44 C35.37249,0.400465345 35.83751,0.400465345 36.3,0.44 C36.3,0.44 37.84,3.49 36.12,3.79 C34.612828,3.99028029 33.085349,3.9835513 31.58,3.77 Z" id="Shape" stroke="#52267D" fill="#FFFFFF" fill-rule="nonzero"></path>
            <path d="M37.43,4.43 C37.43,4.43 37.87,1.65 40.36,2.48 C41.0107764,2.70356765 41.5812143,3.11400469 42,3.66 C42,3.66 41.45,5.77 40.46,5.5 C39.4217649,5.22898774 38.4081862,4.87105733 37.43,4.43 Z" id="Shape" stroke="#52267D" fill="#FFFFFF" fill-rule="nonzero"></path>
            <path d="M27.4,54.12 C27.9321554,53.714884 28.5411757,53.422282 29.19,53.26" id="Shape" stroke="#52267D" fill="#F3E3FF" fill-rule="nonzero"></path>
            <path d="M31,54.07 C29.22,46.85 32.43,33.07 33,29.64 L35.35,16 L36.35,16 C36.9907206,16.0639917 37.5771174,16.3880875 37.972177,16.8965614 C38.3672366,17.4050352 38.5363488,18.053341 38.44,18.69 L36.75,30.5 C36.18,34.5 35.58,53.01 42.53,56.99 C44.01,57.84 46.42,57.28 47.33,56.85 C50.63,55.27 51.58,51.15 52.33,47.85 C53.83,40.98 52.66,35.59 52.33,30.2 L52,23.48 C51.9342509,22.2245474 52.8602263,21.1361972 54.11,21 L55.35,21 L57.59,34.62 C58.26,38.5 59.99,51.94 52.07,58.25 C51.93,58.36 54,58.83 53.4,59.89 C51.02,64.1 44.11,64.77 42.81,66.57 C37.81,73.51 42.49,88.31 42.49,88.31 C39.247864,86.9911315 36.2158362,85.205604 33.49,83.01 C25.49,75.8 24.42,65.35 24.38,62.28 C24.38,58.6 25.3,56.28 26.49,54.96" id="Shape" stroke="#52267D" fill="#F3E3FF" fill-rule="nonzero"></path>
            <path d="M96.31,60.09 C97.008778,59.2548538 97.200148,58.1066338 96.81,57.09 C96.6041179,56.682664 96.2934736,56.3375037 95.91,56.09 C95.91,56.09 94.13,56.4 94.5,57.6 C94.7745143,58.6253373 95.4193998,59.5125003 96.31,60.09 Z" id="Shape" stroke="#52267D" fill="#FFFFFF" fill-rule="nonzero"></path>
            <path d="M95.94,58.33 C96.1662593,58.049015 96.2340778,57.6722457 96.12,57.33 C96.0451002,57.1904898 95.934719,57.0732098 95.8,56.99 C95.8,56.99 95.18,57.1 95.31,57.52 C95.4182433,57.8556685 95.6413043,58.1424611 95.94,58.33 Z" id="Shape" fill="#F3E3FF" fill-rule="nonzero"></path>
            <path d="M87,69.16 C86.3958459,67.6052297 87.042979,65.8438276 88.51,65.05 C88.8833058,64.8302892 89.2747348,64.6429386 89.68,64.49 C89.68,64.49 92.18,66.49 90.84,67.39 C89.6466801,68.1523063 88.3547083,68.7478245 87,69.16 Z" id="Shape" stroke="#52267D" fill="#FFFFFF" fill-rule="nonzero"></path>
            <path d="M87.86,68.23 C87.5222592,67.3669411 87.8830517,66.3876472 88.7,65.95 C88.907415,65.8282914 89.124877,65.7245788 89.35,65.64 C89.35,65.64 90.73,66.73 89.99,67.25 C89.3280077,67.6722625 88.6113647,68.0019856 87.86,68.23 Z" id="Shape" fill="#F3E3FF" fill-rule="nonzero"></path>
            <path d="M94.87,61 C94.87,61 96.75,62.65 94.95,64.13 C94.4715143,64.513011 93.8905252,64.7461024 93.28,64.8 C93.28,64.8 91.95,63.38 92.62,62.8 C93.3177085,62.1374062 94.0704115,61.5352438 94.87,61 Z" id="Shape" stroke="#52267D" fill="#FFFFFF" fill-rule="nonzero"></path>
            <path d="M94.6,62.22 C94.6,62.22 95.43,62.95 94.6,63.61 C94.3882862,63.7807377 94.1308403,63.8851076 93.86,63.91 C93.86,63.91 93.27,63.28 93.57,63.01 C93.8899853,62.7175474 94.2345953,62.4532349 94.6,62.22 Z" id="Shape" fill="#F3E3FF" fill-rule="nonzero"></path>
            <path d="M77.93,70.46 C77.5931993,69.1116358 78.3981504,67.7418847 79.74,67.38 C82.17,66.5 82.82,67.23 82.82,67.23 C82.82,67.23 84.16,69.49 82.96,70.23 C81.76,70.97 77.93,70.46 77.93,70.46 Z" id="Shape" stroke="#52267D" fill="#FFFFFF" fill-rule="nonzero"></path>
            <path d="M79.07,70 C78.8980431,69.3000684 79.3148952,68.5905328 80.01,68.4 C81.27,67.94 81.61,68.32 81.61,68.32 C81.61,68.32 82.31,69.49 81.68,69.87 C80.8281569,70.0920963 79.9396967,70.1363491 79.07,70 Z" id="Shape" fill="#F3E3FF" fill-rule="nonzero"></path>
            <path d="M34.82,19.34 C37.7648064,20.6921313 41.1372802,20.7681205 44.14,19.55 C43.77,21.24 43,24.63 43,24.63 C43,24.63 38,26.18 34.06,23.73 C34.47,21.5 34.82,19.34 34.82,19.34 Z" id="Shape" stroke="#52267D" fill="#FFFFFF" fill-rule="nonzero"></path>
            <path d="M63.8,9.5 C63.6417786,8.33990167 62.8807,7.35049941 61.8,6.9 C61.1192813,6.72795184 60.4218188,6.63070946 59.72,6.61 C59.72,6.61 59.29,8.61 60.54,9.16 C61.5504097,9.66172009 62.7078078,9.78243032 63.8,9.5 Z" id="Shape" stroke="#52267D" fill="#FFFFFF" fill-rule="nonzero"></path>
            <path d="M59.12,8.55 C59.0266158,6.98868972 57.7813103,5.74338423 56.22,5.65 C55.8173994,5.61561744 55.4126006,5.61561744 55.01,5.65 C55.01,5.65 53.67,8.31 55.17,8.57 C56.4814464,8.74304505 57.8103732,8.73631631 59.12,8.55 Z" id="Shape" stroke="#52267D" fill="#FFFFFF" fill-rule="nonzero"></path>
            <path d="M53.73,8.74 C53.73,8.74 53.28,5.94 50.78,6.74 C50.1158341,6.98456662 49.5408188,7.42366923 49.13,8 C49.13,8 49.69,10.12 50.68,9.86 C51.7263985,9.57324138 52.7466948,9.1985752 53.73,8.74 Z" id="Shape" stroke="#52267D" fill="#FFFFFF" fill-rule="nonzero"></path>
            <path d="M28.18,3.91 C28.265287,3.29220107 28.672914,2.76647656 29.25,2.53 C29.5022333,2.46253456 29.7677667,2.46253456 30.02,2.53 C30.02,2.53 30.59,3.41 29.92,3.72 C29.382106,3.99181907 28.7638811,4.05932638 28.18,3.91 Z" id="Shape" fill="#F3E3FF" fill-rule="nonzero"></path>
            <path d="M32.66,3.28 C32.7286422,2.1553834 33.6253834,1.25864224 34.75,1.19 C35.0394727,1.16526822 35.3305273,1.16526822 35.62,1.19 C35.62,1.19 36.62,3.1 35.51,3.29 C34.5639931,3.41671083 33.6050944,3.41334627 32.66,3.28 Z" id="Shape" fill="#F3E3FF" fill-rule="nonzero"></path>
            <path d="M38.51,4.15 C38.51,4.15 38.77,2.55 40.2,3.03 C40.573638,3.15881148 40.9007363,3.39543575 41.14,3.71 C41.14,3.71 40.82,4.93 40.25,4.77 C39.653643,4.61248283 39.0715914,4.40508513 38.51,4.15 Z" id="Shape" fill="#F3E3FF" fill-rule="nonzero"></path>
            <path d="M62.89,9 C62.8033404,8.38512239 62.395572,7.86302635 61.82,7.63 C61.459884,7.54012163 61.0910325,7.4898237 60.72,7.48 C60.72,7.48 60.49,8.48 61.15,8.83 C61.690135,9.09600231 62.3085932,9.15642639 62.89,9 Z" id="Shape" fill="#F3E3FF" fill-rule="nonzero"></path>
            <path d="M58,8.11 C57.9462237,7.24960275 57.2603973,6.56377628 56.4,6.51 C56.1770738,6.49092797 55.9529262,6.49092797 55.73,6.51 C55.73,6.51 54.99,7.98 55.82,8.12 C56.5437188,8.21615549 57.2771938,8.21279092 58,8.11 Z" id="Shape" fill="#F3E3FF" fill-rule="nonzero"></path>
            <path d="M52.73,8.55 C52.73,8.55 52.49,7.02 51.12,7.48 C50.762814,7.60384485 50.4498646,7.82986388 50.22,8.13 C50.22,8.13 50.52,9.29 51.07,9.13 C51.6385227,8.98324156 52.1937878,8.78923325 52.73,8.55 Z" id="Shape" fill="#F3E3FF" fill-rule="nonzero"></path>
            <path d="M46.4,24.14 C49.5179011,24.5592858 52.6849248,24.4340936 55.76,23.77 C56.2,26.25 56.49,28.12 56.49,28.12 C56.49,28.12 53.33,30.27 47.49,29.02 C46.79,25.84 46.4,24.14 46.4,24.14 Z" id="Shape" stroke="#52267D" fill="#FFFFFF" fill-rule="nonzero"></path>
            <path d="M51.87,14.41 L57.32,14.41 C58.6896662,14.41 59.8,15.5203338 59.8,16.89 C59.8,18.2596662 58.6896662,19.37 57.32,19.37 L56.84,19.37 C54.0785763,19.37 51.84,17.1314237 51.84,14.37 L51.87,14.41 Z" id="Shape" fill="#F3E3FF" fill-rule="nonzero" opacity="0.3" transform="translate(55.820000, 16.870000) rotate(-180.000000) translate(-55.820000, -16.870000) "></path>
            <path d="M52.83,15.32 L57.59,15.32 C58.7442751,15.32 59.68,16.2557249 59.68,17.41 C59.68,18.4096354 58.8696354,19.22 57.87,19.22 L56.73,19.22 C54.5760895,19.22 52.83,17.4739105 52.83,15.32 Z" id="Shape" stroke="#52267D" fill="#FFFFFF" fill-rule="nonzero" transform="translate(56.255000, 17.270000) rotate(-180.000000) translate(-56.255000, -17.270000) "></path>
            <circle id="Oval" fill="#52267D" fill-rule="nonzero" cx="57.33" cy="16.98" r="1.09"></circle>
            <path d="M35,9.65 L35.48,9.65 C36.1446399,9.6392786 36.7857626,9.8958228 37.2595402,10.3620801 C37.7333178,10.8283375 38.0000865,11.4652736 38,12.13 C38,13.4996662 36.8896662,14.61 35.52,14.61 L30,14.61 C30,11.8485763 32.2385763,9.61 35,9.61 L35,9.65 Z" id="Shape" fill="#F3E3FF" fill-rule="nonzero" opacity="0.3"></path>
            <path d="M34,10.62 L35,10.62 C36.1045695,10.62 37,11.5154305 37,12.62 C37,13.7245695 36.1045695,14.62 35,14.62 L30.14,14.62 C30.1131536,13.5753426 30.5066703,12.5636111 31.2323219,11.8116406 C31.9579734,11.0596701 32.9550492,10.6303731 34,10.62 Z" id="Shape" stroke="#52267D" fill="#FFFFFF" fill-rule="nonzero"></path>
            <circle id="Oval" fill="#52267D" fill-rule="nonzero" cx="34.8" cy="13.36" r="1.09"></circle>
            <path d="M66.34,20.45 C66.0312375,20.3815898 65.7556511,20.208465 65.56,19.96 L65.19,19.5 L66,19.67 L66.48,19.77 C66.5693047,19.7890828 66.6471787,19.8432884 66.6960849,19.9204096 C66.744991,19.9975308 66.7608174,20.0910836 66.74,20.18 C66.7230686,20.2690108 66.6713092,20.3475817 66.5962098,20.3982738 C66.5211104,20.4489658 66.4288839,20.4675855 66.34,20.45 Z" id="Shape" fill="#52267D" fill-rule="nonzero"></path>
            <path d="M24.33,15.36 C24.6387625,15.2915898 24.9143489,15.118465 25.11,14.87 L25.48,14.41 L24.67,14.58 L24.19,14.68 C24.1006953,14.6990828 24.0228213,14.7532884 23.9739151,14.8304096 C23.925009,14.9075308 23.9091826,15.0010836 23.93,15.09 C23.9469314,15.1790108 23.9986908,15.2575817 24.0737902,15.3082738 C24.1488896,15.3589658 24.2411161,15.3775855 24.33,15.36 Z" id="Shape" fill="#52267D" fill-rule="nonzero"></path>
            <path d="M35.29,20 C37.9047937,21.0053406 40.7899833,21.0584423 43.44,20.15 C43.23831,21.3742369 42.9678824,22.5861531 42.63,23.78 C41.2640813,23.8575011 39.8938293,23.7971966 38.54,23.6 C36.21,23.19 35.29,22.13 35.29,20 Z" id="Shape" fill="#EAF3FB" fill-rule="nonzero"></path>
            <path d="M40.93,23.13 C38.6872906,23.2909901 36.4391269,22.9031389 34.38,22" id="Shape" stroke="#52267D" fill="#FFFFFF" fill-rule="nonzero"></path>
            <path d="M54,24.68 C51.7902945,25.2713153 49.4829338,25.4040396 47.22,25.07 C47.459597,26.1253386 47.7668994,27.1641544 48.14,28.18 C48.14,28.18 52.9,27.54 54,24.68 Z" id="Shape" fill="#EAF3FB" fill-rule="nonzero"></path>
            <path d="M52.07,58.26 C52.07,58.26 51.85,58.42 51.54,58.6" id="Shape" stroke="#52267D" stroke-width="0.5" fill="#F3E3FF" fill-rule="nonzero"></path>
            <path d="M54.35,26 C51.8818348,26.4138843 49.3689526,26.4912555 46.88,26.23" id="Shape" stroke="#52267D" fill="#FFFFFF" fill-rule="nonzero"></path>
            <path d="M48.41,100.59 C47.6982433,100.118124 46.7492441,100.232512 46.17,100.86 C45,101.86 44.17,103.3 44.65,103.45 C45.4348628,103.665939 46.2575682,103.706904 47.06,103.57 C47.9,103.42 48.64,103.57 48.98,101.82 C49.0679722,101.330876 48.8400577,100.839061 48.41,100.59 Z" id="Shape" stroke="#52267D" stroke-width="0.5" fill="#FFFFFF" fill-rule="nonzero"></path>
            <path d="M48.19,100.88 C47.747723,100.587909 47.1588472,100.65993 46.8,101.05 C46.07,101.65 45.53,102.57 45.85,102.66 C46.3388468,102.79286 46.8509045,102.816756 47.35,102.73 C47.87,102.63 48.35,102.73 48.55,101.64 C48.6026276,101.33605 48.4585219,101.031827 48.19,100.88 Z" id="Shape" fill="#EAF3FB" fill-rule="nonzero"></path>
            <path d="M49.77,100.57 C50.28,100.5 51.01,101.57 50.93,101.94 C50.85,102.31 50.79,103.39 49.93,103.51 C49.32,103.6 47.16,103.82 46.69,103.35 C46.22,102.88 47.14,100.93 49.77,100.57 Z" id="Shape" stroke="#52267D" stroke-width="0.5" fill="#FFFFFF" fill-rule="nonzero"></path>
            <path d="M49.91,100.88 C50.21,100.88 50.64,101.49 50.59,101.69 C50.54,101.89 50.51,102.54 50.02,102.61 C49.53,102.68 48.39,102.8 48.11,102.52 C47.83,102.24 48.36,101.09 49.91,100.88 Z" id="Shape" fill="#EAF3FB" fill-rule="nonzero"></path>
            <path d="M51.92,100.79 C51.92,100.79 51.48,100.56 50.61,101.06 C49.74,101.56 48.7,102.2 49,103.06 C49.3,103.92 51.73,103.61 52.26,103.42 C52.793936,103.230508 53.1202386,102.690854 53.04,102.13 C52.9464043,101.509134 52.5144052,100.992278 51.92,100.79 Z" id="Shape" stroke="#52267D" stroke-width="0.5" fill="#FFFFFF" fill-rule="nonzero"></path>
            <path d="M52.08,101.1 C52.08,101.1 51.82,100.96 51.31,101.26 C50.8,101.56 50.18,101.94 50.31,102.45 C50.44,102.96 51.92,102.77 52.24,102.67 C52.5524585,102.555731 52.7436684,102.239819 52.7,101.91 C52.6569287,101.546969 52.4191891,101.236373 52.08,101.1 Z" id="Shape" fill="#EAF3FB" fill-rule="nonzero"></path>
            <path d="M41.78,73 C42.0130146,77.8363027 41.7010517,82.6834676 40.85,87.45 C39.52,95.67 37.16,98.25 37.34,100.38 C37.47,102.03 38.17,103.54 39.83,103.54 L44.77,103.54 C47.0729598,103.535512 49.1166582,102.063084 49.85,99.88 C50.6241086,97.5473287 51.156897,95.1414038 51.44,92.7 C51.7229998,89.1407287 51.7964599,85.5678957 51.66,82" id="Shape" stroke="#52267D" stroke-width="2" fill="#9452BA" fill-rule="nonzero"></path>
            <path d="M67.11,76.69 C65.4984176,78.1960048 64.6008237,80.3146171 64.64,82.52 C64.64,85.35 66.3,88.95 65.26,93.65 C64.33,97.84 62.49,98.58 63.04,102.34 C63.1535693,103.022292 63.7483843,103.519387 64.44,103.51 L69.95,103.51 C72.4883433,103.510038 74.654279,101.674069 75.07,99.17 C75.8963622,93.2418204 75.6831723,87.2149732 74.44,81.36" id="Shape" stroke="#52267D" stroke-width="2" fill="#9452BA" fill-rule="nonzero"></path>
            <polyline id="Shape" stroke="#52267D" stroke-width="0.5" points="68.19 82.93 68.52 82.69 69.56 82.93 68.4 83.67 67 82.98 68.46 81.82 69.12 82.04"></polyline>
            <path d="M38.41,100.59 C37.6982433,100.118124 36.7492441,100.232512 36.17,100.86 C35,101.86 34.17,103.3 34.65,103.45 C35.4348628,103.665939 36.2575682,103.706904 37.06,103.57 C37.9,103.42 38.64,103.57 38.98,101.82 C39.0679722,101.330876 38.8400577,100.839061 38.41,100.59 Z" id="Shape" stroke="#52267D" fill="#FFFFFF" fill-rule="nonzero"></path>
            <path d="M38.19,100.88 C37.747723,100.587909 37.1588472,100.65993 36.8,101.05 C36.07,101.65 35.53,102.57 35.85,102.66 C36.3388468,102.79286 36.8509045,102.816756 37.35,102.73 C37.87,102.63 38.35,102.73 38.55,101.64 C38.6026276,101.33605 38.4585219,101.031827 38.19,100.88 Z" id="Shape" fill="#EAF3FB" fill-rule="nonzero"></path>
            <polyline id="Shape" stroke="#52267D" stroke-width="0.5" points="45.97 86.03 44 86.65 44.26 88.47 46.28 88.62 47.22 87.53 46.01 86.86 45.01 87.15 45.65 87.86"></polyline>
            <g opacity="0.3" transform="translate(2.000000, 10.000000)" id="Shape" stroke="#F3E3FF" stroke-width="0.25">
                <path d="M1.8,16 C1.77141424,16.2086 1.86667985,16.4147926 2.04405584,16.5282336 C2.22143184,16.6416747 2.44856816,16.6416747 2.62594416,16.5282336 C2.80332015,16.4147926 2.89858576,16.2086 2.87,16"></path>
                <path d="M0.73,16 C0.701414237,16.2086 0.796679852,16.4147926 0.974055845,16.5282336 C1.15143184,16.6416747 1.37856816,16.6416747 1.55594416,16.5282336 C1.73332015,16.4147926 1.82858576,16.2086 1.8,16"></path>
                <path d="M1.26,16.54 C1.29664397,16.8074035 1.52509738,17.0066856 1.795,17.0066856 C2.06490262,17.0066856 2.29335603,16.8074035 2.33,16.54"></path>
                <path d="M22.33,15.5 C22.5696938,15.6724481 22.8855506,15.696827 23.148868,15.5632029 C23.4121855,15.4295789 23.5790018,15.160261 23.5813443,14.8649883 C23.5836867,14.5697155 23.4211643,14.2977849 23.16,14.16"></path>
                <path d="M22.58,16.59 C22.8196938,16.7624481 23.1355506,16.786827 23.398868,16.6532029 C23.6621855,16.5195789 23.8290018,16.250261 23.8313443,15.9549883 C23.8336867,15.6597155 23.6711643,15.3877849 23.41,15.25"></path>
                <path d="M47.76,33.5 C47.76,33.897645 48.082355,34.22 48.48,34.22 C48.877645,34.22 49.2,33.897645 49.2,33.5"></path>
                <path d="M46.32,33.5 C46.32,33.897645 46.642355,34.22 47.04,34.22 C47.437645,34.22 47.76,33.897645 47.76,33.5"></path>
                <path d="M47,34.22 C47,34.617645 47.322355,34.9399999 47.72,34.9399999 C48.117645,34.9399999 48.44,34.617645 48.44,34.22"></path>
                <path d="M26.29,79 C26.29,79.397645 26.612355,79.72 27.01,79.72 C27.407645,79.72 27.73,79.397645 27.73,79"></path>
                <path d="M24.86,79 C24.86,79.397645 25.182355,79.72 25.58,79.72 C25.977645,79.72 26.3,79.397645 26.3,79"></path>
                <path d="M25.57,79.75 C25.57,80.147645 25.892355,80.4699999 26.29,80.4699999 C26.687645,80.4699999 27.01,80.147645 27.01,79.75"></path>
                <path d="M46.64,10.59 C46.64,11.026305 46.993695,11.38 47.43,11.38 C47.866305,11.38 48.22,11.026305 48.22,10.59"></path>
                <path d="M45.85,11.38 C45.85,11.816305 46.203695,12.17 46.64,12.17 C47.076305,12.17 47.43,11.816305 47.43,11.38"></path>
                <path d="M36.55,24.54 C36.4307821,24.9487471 36.5834561,25.388158 36.9304334,25.6349248 C37.2774106,25.8816917 37.7425894,25.8816917 38.0895666,25.6349248 C38.4365439,25.388158 38.5892179,24.9487471 38.47,24.54"></path>
                <path d="M35.59,25.5 C35.7144444,25.9266667 36.1055556,26.22 36.55,26.22 C36.9944444,26.22 37.3855556,25.9266667 37.51,25.5"></path>
                <path d="M22.61,0.68 C22.61,1.03346224 22.8965378,1.32 23.25,1.32 C23.6034622,1.32 23.89,1.03346224 23.89,0.68"></path>
                <path d="M22,1.33 C22,1.68346224 22.2865378,1.97 22.64,1.97 C22.9934622,1.97 23.28,1.68346224 23.28,1.33"></path>
                <path d="M83,65.39 C83.2761424,65.7020409 83.7529591,65.7311423 84.065,65.455 C84.3770408,65.1788576 84.4061423,64.7020409 84.13,64.39"></path>
                <path d="M82.93,66.43 C83.2061424,66.7420409 83.6829591,66.7711423 83.995,66.495 C84.3070408,66.2188576 84.3361423,65.7420409 84.06,65.43"></path>
                <path d="M53.65,55.19 C53.8668651,55.5940004 54.3600598,55.7603371 54.7773061,55.5701995 C55.1945525,55.3800619 55.3926053,54.8987264 55.23,54.47"></path>
                <path d="M52.07,55.91 C52.2868651,56.3140004 52.7800598,56.4803371 53.1973061,56.2901995 C53.6145525,56.1000619 53.8126053,55.6187264 53.65,55.19"></path>
                <path d="M53.22,56.34 C53.4368651,56.7440004 53.9300598,56.9103371 54.3473061,56.7201995 C54.7645525,56.5300619 54.9626053,56.0487264 54.8,55.62"></path>
                <path d="M51.64,57.06 C51.8568651,57.4640004 52.3500598,57.6303371 52.7673061,57.4401995 C53.1845525,57.2500619 53.3826053,56.7687264 53.22,56.34"></path>
                <path d="M54.37,56.76 C54.4850206,57.0632641 54.759189,57.2773664 55.0812885,57.3154558 C55.4033879,57.3535453 55.7199326,57.209297 55.9025157,56.9412257 C56.0850989,56.6731543 56.1034018,56.3257739 55.95,56.04"></path>
                <path d="M38.55,7.17 C38.55,7.65324916 38.9417508,8.045 39.425,8.045 C39.9082492,8.045 40.3,7.65324916 40.3,7.17"></path>
                <path d="M38.25,40.22 C38.25,40.7032492 38.6417508,41.095 39.125,41.095 C39.6082492,41.095 40,40.7032492 40,40.22"></path>
                <path d="M48.16,22 C48.16,22.3672694 48.4577306,22.665 48.825,22.665 C49.1922694,22.665 49.49,22.3672694 49.49,22"></path>
                <path d="M63.94,6.95 C63.94,7.22614237 64.1638576,7.45 64.44,7.45 C64.7161424,7.45 64.94,7.22614237 64.94,6.95"></path>
                <path d="M68.08,80 C68.1628427,80.4749649 68.6150351,80.7928427 69.09,80.71 C69.5649649,80.6271573 69.8828427,80.1749649 69.8,79.7"></path>
                <path d="M43.92,86.49 C44.0444444,86.9166667 44.4355556,87.21 44.88,87.21 C45.3244444,87.21 45.7155556,86.9166667 45.84,86.49"></path>
                <path d="M43,87.45 C43.1244444,87.8766667 43.5155556,88.17 43.96,88.17 C44.4044444,88.17 44.7955556,87.8766667 44.92,87.45"></path>
            </g>
            <path d="M39.78,100.57 C40.29,100.5 41.02,101.57 40.94,101.94 C40.86,102.31 40.8,103.39 39.94,103.51 C39.33,103.6 37.17,103.82 36.7,103.35 C36.23,102.88 37.15,100.93 39.78,100.57 Z" id="Shape" stroke="#52267D" fill="#FFFFFF" fill-rule="nonzero"></path>
            <path d="M39.92,100.88 C40.22,100.88 40.65,101.49 40.6,101.69 C40.55,101.89 40.52,102.54 40.03,102.61 C39.54,102.68 38.4,102.8 38.12,102.52 C37.84,102.24 38.37,101.09 39.92,100.88 Z" id="Shape" fill="#EAF3FB" fill-rule="nonzero"></path>
            <path d="M41.58,101.12 C41.58,101.12 41.19,100.92 40.42,101.36 C39.65,101.8 38.73,102.36 39,103.14 C39.27,103.92 41.41,103.62 41.89,103.46 C42.3625545,103.293324 42.6514835,102.815963 42.58,102.32 C42.4998551,101.763328 42.113094,101.299215 41.58,101.12 Z" id="Shape" stroke="#52267D" fill="#FFFFFF" fill-rule="nonzero"></path>
            <path d="M41.73,101.39 C41.73,101.39 41.5,101.27 41.05,101.53 C40.6,101.79 40.05,102.13 40.21,102.58 C40.37,103.03 41.64,102.87 41.92,102.77 C42.198753,102.672765 42.3702805,102.392464 42.33,102.1 C42.2815133,101.76839 42.0488802,101.493108 41.73,101.39 Z" id="Shape" fill="#EAF3FB" fill-rule="nonzero"></path>
            <path d="M21.3,101.33 C21.3,101.33 20.91,101.13 20.14,101.57 C19.37,102.01 18.45,102.57 18.72,103.35 C18.99,104.13 21.13,103.83 21.61,103.67 C22.0825545,103.503324 22.3714835,103.025963 22.3,102.53 C22.2198551,101.973328 21.833094,101.509215 21.3,101.33 Z" id="Shape" stroke="#52267D" fill="#FFFFFF" fill-rule="nonzero"></path>
            <path d="M21.45,101.6 C21.45,101.6 21.22,101.48 20.77,101.74 C20.32,102 19.77,102.34 19.93,102.79 C20.09,103.24 21.36,103.08 21.64,102.98 C21.918753,102.882765 22.0902805,102.602464 22.05,102.31 C22.0015133,101.97839 21.7688802,101.703108 21.45,101.6 Z" id="Shape" fill="#EAF3FB" fill-rule="nonzero"></path>
            <path d="M23.65,100.79 C24.16,100.72 24.89,101.79 24.81,102.16 C24.73,102.53 24.67,103.61 23.81,103.73 C23.2,103.82 21.04,104.04 20.57,103.57 C20.1,103.1 21,101.14 23.65,100.79 Z" id="Shape" stroke="#52267D" fill="#FFFFFF" fill-rule="nonzero"></path>
            <path d="M23.79,101.09 C24.09,101.09 24.52,101.7 24.47,101.9 C24.42,102.1 24.39,102.75 23.9,102.82 C23.41,102.89 22.27,103.01 21.99,102.73 C21.71,102.45 22.24,101.3 23.79,101.09 Z" id="Shape" fill="#EAF3FB" fill-rule="nonzero"></path>
            <path d="M65.14,100.59 C64.4282433,100.118124 63.4792441,100.232512 62.9,100.86 C61.73,101.86 60.9,103.3 61.38,103.45 C62.1648628,103.665939 62.9875682,103.706904 63.79,103.57 C64.63,103.42 65.37,103.57 65.71,101.82 C65.7979722,101.330876 65.5700577,100.839061 65.14,100.59 Z" id="Shape" stroke="#52267D" stroke-width="0.5" fill="#FFFFFF" fill-rule="nonzero"></path>
            <path d="M64.92,100.88 C64.477723,100.587909 63.8888472,100.65993 63.53,101.05 C62.8,101.65 62.26,102.57 62.58,102.66 C63.0688468,102.79286 63.5809045,102.816756 64.08,102.73 C64.6,102.63 65.08,102.73 65.28,101.64 C65.3326276,101.33605 65.1885219,101.031827 64.92,100.88 Z" id="Shape" fill="#EAF3FB" fill-rule="nonzero"></path>
            <path d="M66.51,100.57 C67.02,100.5 67.75,101.57 67.67,101.94 C67.59,102.31 67.53,103.39 66.67,103.51 C66.06,103.6 63.9,103.82 63.43,103.35 C62.96,102.88 63.88,100.93 66.51,100.57 Z" id="Shape" stroke="#52267D" stroke-width="0.5" fill="#FFFFFF" fill-rule="nonzero"></path>
            <path d="M66.65,100.88 C66.95,100.88 67.38,101.49 67.33,101.69 C67.28,101.89 67.25,102.54 66.76,102.61 C66.27,102.68 65.13,102.8 64.85,102.52 C64.57,102.24 65.1,101.09 66.65,100.88 Z" id="Shape" fill="#EAF3FB" fill-rule="nonzero"></path>
            <path d="M68.31,101.12 C68.31,101.12 67.92,100.92 67.15,101.36 C66.38,101.8 65.46,102.36 65.73,103.14 C66,103.92 68.14,103.62 68.62,103.46 C69.0925545,103.293324 69.3814835,102.815963 69.31,102.32 C69.2298551,101.763328 68.843094,101.299215 68.31,101.12 Z" id="Shape" stroke="#52267D" stroke-width="0.5" fill="#FFFFFF" fill-rule="nonzero"></path>
            <path d="M68.46,101.39 C68.46,101.39 68.23,101.27 67.78,101.53 C67.33,101.79 66.78,102.13 66.94,102.58 C67.1,103.03 68.37,102.87 68.65,102.77 C68.928753,102.672765 69.1002805,102.392464 69.06,102.1 C69.0115133,101.76839 68.7788802,101.493108 68.46,101.39 Z" id="Shape" fill="#EAF3FB" fill-rule="nonzero"></path>
            <path d="M30.32,101.26 C30.4544321,101.127159 30.6553565,101.087762 30.83,101.16 C31.41,101.44 32.89,102.22 32.58,103.28 C32.34,104.1 31.84,103.86 30.88,103.87 L30.15,103.87 C29.9971565,103.874472 29.8545243,103.793519 29.78,103.66 C29.3925957,102.8496 29.5929928,101.880332 30.27,101.29 L30.32,101.26 Z" id="Shape" stroke="#52267D" fill="#FFFFFF" fill-rule="nonzero"></path>
            <path d="M30.39,101.5 C30.4879714,101.404263 30.6338264,101.376669 30.76,101.43 C31.18,101.63 32.25,102.2 32.03,102.97 C31.86,103.57 31.49,103.39 30.79,103.4 L30.26,103.4 C30.1491974,103.40373 30.0453699,103.346048 29.99,103.25 C29.7033788,102.663602 29.8470103,101.957756 30.34,101.53 L30.39,101.5 Z" id="Shape" fill="#EAF3FB" fill-rule="nonzero"></path>
            <path d="M26.91,100.95 C26.2414756,100.422477 25.2893708,100.456329 24.66,101.03 C23.42,101.89 22.42,103.29 22.92,103.48 C23.6836658,103.760216 24.4995167,103.869452 25.31,103.8 C26.16,103.72 26.89,103.94 27.37,102.22 C27.4980858,101.742093 27.3144249,101.235029 26.91,100.95 Z" id="Shape" stroke="#52267D" fill="#FFFFFF" fill-rule="nonzero"></path>
            <path d="M26.67,101.21 C26.2665138,100.866581 25.6734862,100.866581 25.27,101.21 C24.5,101.74 23.87,102.61 24.19,102.73 C24.6660055,102.905065 25.1746778,102.973344 25.68,102.93 C26.21,102.88 26.68,103.02 26.96,101.93 C27.0095112,101.654235 26.8968254,101.374463 26.67,101.21 Z" id="Shape" fill="#EAF3FB" fill-rule="nonzero"></path>
        </g>
        <g id="Group-28" transform="translate(70.000000, 80.000000)">
            <path d="M127.216908,96 L10.7830922,96 C4.82701247,96 0,91.1677483 0,85.2074379 L0,10.7925621 C0,4.83125163 4.82701247,0 10.7830922,0 L127.216908,0 C133.171988,0 138,4.83125163 138,10.7925621 L138,85.2074379 C138,91.1677483 133.171988,96 127.216908,96" id="Fill-573" fill="#FFFFFF"></path>
            <path d="M127.216908,96 L10.7830922,96 C4.82701247,96 0,91.1677483 0,85.2074379 L0,10.7925621 C0,4.83125163 4.82701247,0 10.7830922,0 L127.216908,0 C133.171988,0 138,4.83125163 138,10.7925621 L138,85.2074379 C138,91.1677483 133.171988,96 127.216908,96 Z" id="Stroke-574" stroke="#5E63B6" stroke-width="3"></path>
            <polygon id="Fill-575" fill="#FFFFFF" points="9 88 123 88 123 8 9 8"></polygon>
            <polygon id="Stroke-576" fill="#E1F2FF" points="9 12 123 12 123 8 9 8"></polygon>
            <polygon id="Stroke-576" fill="#E1F2FF" points="9 87 13 87 13 9 9 9"></polygon>
            <polygon id="Stroke-576" stroke="#5E63B6" stroke-width="2" points="9 88 123 88 123 8 9 8"></polygon>
            <path d="M134,48.4994878 C134,50.4326065 132.432606,52 130.499488,52 C128.566369,52 127,50.4326065 127,48.4994878 C127,46.5663691 128.566369,45 130.499488,45 C132.432606,45 134,46.5663691 134,48.4994878 Z" id="Stroke-577" stroke="#5E63B6" stroke-width="2"></path>
            <g id="Group-5" transform="translate(29.000000, 35.000000)" fill="#9452BA">
                <path d="M3.666,25.9707 C3.666,24.6247 3.643,23.4877 3.596,22.5587 C3.549,21.6297 3.41,20.8347 3.179,20.1737 C2.946,19.5117 2.592,18.9497 2.117,18.4847 C1.641,18.0207 0.973,17.5677 0.114,17.1267 L0.114,16.6737 C0.741,16.3497 1.281,16.0067 1.733,15.6467 C2.186,15.2867 2.552,14.8747 2.831,14.4097 C3.109,13.9467 3.312,13.4177 3.44,12.8257 C3.567,12.2347 3.631,11.5437 3.631,10.7547 C3.631,9.1067 3.684,7.6557 3.788,6.4027 C3.893,5.1487 4.171,4.0987 4.624,3.2507 C5.076,2.4037 5.755,1.7657 6.661,1.3357 C7.566,0.9067 8.808,0.6917 10.386,0.6917 L10.874,0.6917 C10.92,0.9237 10.955,1.1507 10.978,1.3697 C11.001,1.5917 11.013,1.8287 11.013,2.0837 C11.013,2.3397 11.001,2.5777 10.978,2.7977 C10.955,3.0187 10.92,3.2337 10.874,3.4427 C9.991,3.4427 9.295,3.5347 8.785,3.7207 C8.273,3.9077 7.885,4.2137 7.618,4.6437 C7.351,5.0737 7.177,5.6237 7.096,6.2977 C7.014,6.9707 6.974,7.7947 6.974,8.7697 L6.974,8.9787 C6.974,10.2557 6.927,11.3347 6.834,12.2167 C6.742,13.0997 6.579,13.8357 6.347,14.4277 C6.115,15.0197 5.808,15.5067 5.424,15.8907 C5.041,16.2737 4.571,16.6047 4.014,16.8827 C4.571,17.1847 5.041,17.5277 5.424,17.9097 C5.808,18.2927 6.115,18.7807 6.347,19.3717 C6.579,19.9637 6.742,20.7017 6.834,21.5837 C6.927,22.4657 6.974,23.5447 6.974,24.8217 L6.974,25.0657 C6.974,26.0177 7.014,26.8297 7.096,27.5027 C7.177,28.1757 7.351,28.7217 7.618,29.1397 C7.885,29.5577 8.273,29.8657 8.785,30.0627 C9.295,30.2587 9.991,30.3587 10.874,30.3587 C10.92,30.5677 10.955,30.7817 10.978,31.0017 C11.001,31.2227 11.013,31.4607 11.013,31.7157 C11.013,31.9487 11.001,32.1807 10.978,32.4127 C10.955,32.6447 10.92,32.8767 10.874,33.1097 C9.481,33.1097 8.326,32.9697 7.409,32.6917 C6.492,32.4127 5.755,31.9827 5.198,31.4027 C4.641,30.8227 4.246,30.0787 4.014,29.1737 C3.782,28.2697 3.666,27.2007 3.666,25.9707" id="Fill-578"></path>
                <path d="M71.8306,7.8301 C71.8306,9.1761 71.8536,10.3131 71.9006,11.2421 C71.9476,12.1701 72.0866,12.9661 72.3176,13.6271 C72.5506,14.2891 72.9046,14.8511 73.3796,15.3151 C73.8556,15.7801 74.5236,16.2321 75.3826,16.6741 L75.3826,17.1271 C74.7556,17.4511 74.2156,17.7941 73.7636,18.1531 C73.3106,18.5141 72.9446,18.9261 72.6666,19.3901 C72.3876,19.8541 72.1846,20.3821 72.0566,20.9751 C71.9296,21.5661 71.8656,22.2571 71.8656,23.0461 C71.8656,24.6941 71.8136,26.1441 71.7086,27.3981 C71.6036,28.6521 71.3256,29.7021 70.8726,30.5501 C70.4206,31.3961 69.7416,32.0351 68.8356,32.4651 C67.9306,32.8941 66.6886,33.1091 65.1106,33.1091 L64.6226,33.1091 C64.5766,32.8771 64.5416,32.6501 64.5186,32.4311 C64.4956,32.2091 64.4836,31.9721 64.4836,31.7171 C64.4836,31.4611 64.4956,31.2231 64.5186,31.0031 C64.5416,30.7811 64.5766,30.5671 64.6226,30.3581 C65.5056,30.3581 66.2016,30.2661 66.7116,30.0801 C67.2236,29.8931 67.6116,29.5861 67.8786,29.1571 C68.1456,28.7271 68.3196,28.1761 68.4006,27.5031 C68.4826,26.8291 68.5226,26.0061 68.5226,25.0311 L68.5226,24.8221 C68.5226,23.5451 68.5696,22.4661 68.6626,21.5841 C68.7546,20.7011 68.9176,19.9651 69.1496,19.3731 C69.3816,18.7801 69.6896,18.2931 70.0726,17.9101 C70.4556,17.5271 70.9256,17.1961 71.4826,16.9181 C70.9256,16.6161 70.4556,16.2731 70.0726,15.8911 C69.6896,15.5081 69.3816,15.0201 69.1496,14.4281 C68.9176,13.8361 68.7546,13.0991 68.6626,12.2171 C68.5696,11.3351 68.5226,10.2551 68.5226,8.9781 L68.5226,8.7351 C68.5226,7.7831 68.4826,6.9711 68.4006,6.2981 C68.3196,5.6241 68.1456,5.0791 67.8786,4.6611 C67.6116,4.2431 67.2236,3.9351 66.7116,3.7381 C66.2016,3.5411 65.5056,3.4421 64.6226,3.4421 C64.5766,3.2331 64.5416,3.0191 64.5186,2.7981 C64.4956,2.5781 64.4836,2.3401 64.4836,2.0841 C64.4836,1.8521 64.4956,1.6201 64.5186,1.3881 C64.5416,1.1561 64.5766,0.9241 64.6226,0.6911 C66.0156,0.6911 67.1706,0.8311 68.0876,1.1091 C69.0046,1.3881 69.7416,1.8171 70.2986,2.3971 C70.8556,2.9781 71.2506,3.7211 71.4826,4.6261 C71.7146,5.5311 71.8306,6.5991 71.8306,7.8301" id="Fill-579"></path>
                <path d="M18.002,19.3516 C17.943,18.9436 17.893,18.5416 17.849,18.1476 C17.805,17.7536 17.784,17.3536 17.784,16.9446 C17.784,16.5366 17.805,16.1206 17.849,15.6966 C17.893,15.2746 17.943,14.8586 18.002,14.4496 C18.411,14.3906 18.812,14.3476 19.206,14.3186 C19.6,14.2896 20.001,14.2746 20.41,14.2746 C20.818,14.2746 21.226,14.2896 21.635,14.3186 C22.044,14.3476 22.452,14.3906 22.86,14.4496 C22.919,14.8586 22.97,15.2666 23.014,15.6746 C23.058,16.0836 23.08,16.4926 23.08,16.9006 C23.08,17.3096 23.058,17.7176 23.014,18.1256 C22.97,18.5356 22.919,18.9436 22.86,19.3516 C22.452,19.4096 22.051,19.4536 21.657,19.4826 C21.263,19.5116 20.862,19.5266 20.454,19.5266 C20.044,19.5266 19.636,19.5116 19.228,19.4826 C18.819,19.4536 18.411,19.4096 18.002,19.3516" id="Fill-580"></path>
                <path d="M35.3931,19.3516 C35.3341,18.9436 35.2841,18.5416 35.2401,18.1476 C35.1961,17.7536 35.1741,17.3536 35.1741,16.9446 C35.1741,16.5366 35.1961,16.1206 35.2401,15.6966 C35.2841,15.2746 35.3341,14.8586 35.3931,14.4496 C35.8021,14.3906 36.2031,14.3476 36.5971,14.3186 C36.9911,14.2896 37.3921,14.2746 37.8001,14.2746 C38.2081,14.2746 38.6171,14.2896 39.0261,14.3186 C39.4351,14.3476 39.8431,14.3906 40.2511,14.4496 C40.3101,14.8586 40.3611,15.2666 40.4051,15.6746 C40.4481,16.0836 40.4701,16.4926 40.4701,16.9006 C40.4701,17.3096 40.4481,17.7176 40.4051,18.1256 C40.3611,18.5356 40.3101,18.9436 40.2511,19.3516 C39.8431,19.4096 39.4421,19.4536 39.0481,19.4826 C38.6541,19.5116 38.2521,19.5266 37.8441,19.5266 C37.4351,19.5266 37.0271,19.5116 36.6191,19.4826 C36.2101,19.4536 35.8021,19.4096 35.3931,19.3516" id="Fill-581"></path>
                <path d="M52.7837,19.3516 C52.7247,18.9436 52.6747,18.5416 52.6307,18.1476 C52.5867,17.7536 52.5657,17.3536 52.5657,16.9446 C52.5657,16.5366 52.5867,16.1206 52.6307,15.6966 C52.6747,15.2746 52.7247,14.8586 52.7837,14.4496 C53.1927,14.3906 53.5937,14.3476 53.9877,14.3186 C54.3817,14.2896 54.7827,14.2746 55.1917,14.2746 C55.5997,14.2746 56.0077,14.2896 56.4167,14.3186 C56.8257,14.3476 57.2337,14.3906 57.6427,14.4496 C57.7007,14.8586 57.7517,15.2666 57.7957,15.6746 C57.8397,16.0836 57.8617,16.4926 57.8617,16.9006 C57.8617,17.3096 57.8397,17.7176 57.7957,18.1256 C57.7517,18.5356 57.7007,18.9436 57.6427,19.3516 C57.2337,19.4096 56.8327,19.4536 56.4387,19.4826 C56.0447,19.5116 55.6437,19.5266 55.2357,19.5266 C54.8257,19.5266 54.4177,19.5116 54.0097,19.4826 C53.6007,19.4536 53.1927,19.4096 52.7837,19.3516" id="Fill-582"></path>
            </g>
        </g>
        <g id="Group" transform="translate(169.000000, 145.000000)" fill="#FFFFFF" fill-rule="nonzero" stroke="#5E63B6" stroke-linecap="round" stroke-linejoin="round" stroke-width="3">
            <path d="M0.5,8.5 L6.5,15.5" id="Shape"></path>
            <path d="M17.5,0.5 L6.5,15.5" id="Shape"></path>
        </g>
    </g>
</svg>