<?xml version="1.0" encoding="UTF-8" standalone="no"?>
<svg width="256px" height="256px" viewBox="0 0 256 256" version="1.1" xmlns="http://www.w3.org/2000/svg" xmlns:xlink="http://www.w3.org/1999/xlink">
    <!-- Generator: Sketch 50.2 (55047) - http://www.bohemiancoding.com/sketch -->
    <title>icon--lock</title>
    <desc>Created with Sketch.</desc>
    <defs></defs>
    <g id="icon--lock" stroke="none" stroke-width="1" fill="none" fill-rule="evenodd">
        <g id="Group-4" transform="translate(3.000000, 24.000000)">
            <path d="M22,204.559998 C22.0000012,147.36539 68.3653922,101 125.56,101 C182.754608,101 229.119999,147.36539 229.12,204.559998 L22,204.559998 Z" id="Shape" fill="#E1F2FF" fill-rule="nonzero"></path>
            <g id="Group" transform="translate(58.000000, 36.000000)" fill-rule="nonzero">
                <g id="Group-3" transform="translate(68.000000, 61.000000)">
                    <path d="M4.39962298,45.5449599 C8.77962298,45.5449599 12.969623,42.6849599 21.919623,42.5449599 C22.0422405,42.017812 22.2198815,41.5049994 22.449623,41.0149599 C24.169623,37.5649599 26.739623,27.5449599 25.449623,20.8749599 L24.449623,15.5949599 C24.1188692,13.862102 23.9780371,12.0983468 24.029623,10.3349599 C24.0504559,9.61400185 24.1442681,8.89700848 24.309623,8.19495987 C24.349623,8.02162653 24.3929563,7.85162653 24.439623,7.68495987 C24.5829913,7.18226988 24.7634876,6.6909191 24.979623,6.21495987 L25.209623,5.75495987 C25.369623,5.4482932 25.5429563,5.15162653 25.729623,4.86495987 C25.9162896,4.5782932 26.1162896,4.30162653 26.329623,4.03495987 C26.9653381,3.23235034 27.7129608,2.52513968 28.549623,1.93495987 C28.829623,1.74162653 29.1162896,1.5582932 29.409623,1.38495987 C31.1009781,0.4228921 33.0247036,-0.0545793308 34.969623,0.00495986808 L36.709623,0.0549598681 C39.5308391,0.131577345 42.2050213,1.33010046 44.139623,3.38495987 C44.3729563,3.63162653 44.5929563,3.89162653 44.799623,4.16495987 C45.1776052,4.65494801 45.5122023,5.1769195 45.799623,5.72495987 C45.909623,5.93495987 46.009623,6.14495987 46.109623,6.35495987 C46.209623,6.56495987 46.249623,6.67495987 46.309623,6.83495987 C46.691506,7.81813546 46.9240825,8.85293204 46.999623,9.90495987 C47.0180378,10.2680599 47.0180378,10.6318599 46.999623,10.9949599 C46.978723,11.6978914 46.6792763,12.3636899 46.1672304,12.8457258 C45.6551846,13.3277616 44.9725352,13.5865005 44.269623,13.5649599 L33.379623,13.2449599 L34.749623,22.7449599 C36.399623,32.5049599 35.629623,38.9849599 34.009623,43.2649599 C33.649623,44.2649599 31.649623,47.5849599 31.649623,47.5849599 C36.839623,56.3349599 45.079623,60.3349599 53.969623,61.6849599 C61.529623,62.8349599 78.109623,56.3949599 69.899623,48.1449599 C61.689623,39.8949599 71.749623,45.1449599 73.219623,46.2249599 C74.689623,47.3049599 83.159623,55.0449599 73.409623,65.7749599 C69.289623,70.3149599 64.649623,74.4149599 53.689623,77.3449599 C51.929623,77.8149599 42.399623,78.2249599 37.239623,79.5449599 C21.869623,83.4749599 9.61962298,78.3549599 2.96962298,68.0949599 C-3.68037702,57.8349599 2.66962298,45.5349599 4.39962298,45.5449599 Z" id="Shape" stroke="#52267D" stroke-width="2" fill="#9452BA"></path>
                    <path d="M72.74,52.75 C73.46972,51.932759 73.6958959,50.7827122 73.33,49.75 C73.1324257,49.3463302 72.8324487,49.001529 72.46,48.75 C72.46,48.75 70.67,49.01 71.01,50.22 C71.2554626,51.2475863 71.8714751,52.1484602 72.74,52.75 Z" id="Shape" stroke="#52267D" fill="#FFFFFF"></path>
                    <path d="M72.41,51 C72.6466457,50.7246313 72.7258852,50.3473002 72.62,50 C72.5493041,49.8580612 72.4423621,49.7373202 72.31,49.65 C72.31,49.65 71.68,49.74 71.8,50.17 C71.8989877,50.5099964 72.1150697,50.8040096 72.41,51 Z" id="Shape" fill="#F3E3FF"></path>
                    <path d="M63.11,61.54 C62.5481739,59.966383 63.2472708,58.2207853 64.74,57.47 C65.1175346,57.2600763 65.5123013,57.0827659 65.92,56.94 C65.92,56.94 68.36,58.94 66.99,59.87 C65.7787624,60.6007817 64.4733566,61.1626445 63.11,61.54 Z" id="Shape" stroke="#52267D" fill="#FFFFFF"></path>
                    <path d="M64,60.63 C63.6834233,59.7574367 64.0702536,58.786063 64.9,58.37 C65.1113037,58.2546406 65.332113,58.1576183 65.56,58.08 C65.56,58.08 66.91,59.21 66.15,59.7 C65.4790477,60.1064993 64.7556878,60.4193945 64,60.63 Z" id="Shape" fill="#F3E3FF"></path>
                    <path d="M71.27,53.66 C71.27,53.66 73.1,55.37 71.27,56.79 C70.7828984,57.1569093 70.198675,57.3725156 69.59,57.41 C69.59,57.41 68.31,55.95 68.99,55.35 C69.7015668,54.7241018 70.4642238,54.1587991 71.27,53.66 Z" id="Shape" stroke="#52267D" fill="#FFFFFF"></path>
                    <path d="M71,54.82 C71,54.82 71.81,55.58 71,56.21 C70.7820017,56.3718154 70.5211162,56.4657342 70.25,56.48 C70.25,56.48 69.68,55.84 69.99,55.57 C70.3051868,55.2923018 70.643029,55.0414288 71,54.82 Z" id="Shape" fill="#F3E3FF"></path>
                    <path d="M54.06,62.58 C53.7785865,61.2308681 54.6200379,59.9022607 55.96,59.58 C58.41,58.78 59.04,59.52 59.04,59.52 C59.04,59.52 60.32,61.82 59.1,62.52 C57.88,63.22 54.06,62.58 54.06,62.58 Z" id="Shape" stroke="#52267D" fill="#FFFFFF"></path>
                    <path d="M55.21,62.11 C55.060554,61.4017372 55.5049671,60.7040087 56.21,60.54 C57.48,60.12 57.81,60.54 57.81,60.54 C57.81,60.54 58.47,61.73 57.81,62.09 C56.9538,62.2742146 56.0689325,62.2810213 55.21,62.11 Z" id="Shape" fill="#F3E3FF"></path>
                </g>
                <path d="M8.26666667,63 L115.733333,63 C120.2986,63 124,66.7357334 124,71.3480076 L124,150.654079 C124,155.264267 120.2986,159 115.733333,159 L8.26666667,159 C3.7014,159 0,155.264267 0,150.654079 L0,71.3480076 C0,66.7357334 3.7014,63 8.26666667,63 Z" id="Shape" stroke="#5E63B6" stroke-width="3" fill="#FFFFFF"></path>
                <path d="M8.86666667,64 L111.133333,64 C115.4777,64 119,67.7291667 119,72.3333333 L119,80.6645833 C119,85.26875 115.4777,89 111.133333,89 L8.86666667,89 C4.5223,89 1,85.26875 1,80.6645833 L1,72.3333333 C1,67.7291667 4.5223,64 8.86666667,64 Z" id="Shape" fill="#E1F2FF"></path>
                <path d="M8.26666667,58 L115.733333,58 C120.2986,58 124,61.7291667 124,66.3333333 L124,74.6645833 C124,79.26875 120.2986,83 115.733333,83 L8.26666667,83 C3.7014,83 0,79.26875 0,74.6645833 L0,66.3333333 C0,61.7291667 3.7014,58 8.26666667,58 Z" id="Shape" stroke="#5E63B6" stroke-width="3" fill="#FFFFFF"></path>
                <path d="M25.3068182,67 C20.1673864,67 16,68.7924481 16,71.0010003 C16,73.2095524 20.1673864,75 25.3068182,75 C30.44625,75 34.6136364,73.2095524 34.6136364,71.0010003 C34.6136364,68.7924481 30.44625,67 25.3068182,67 Z M97.6931818,67 C92.55375,67 88.3863636,68.7924481 88.3863636,71.0010003 C88.3863636,73.2095524 92.55375,75 97.6931818,75 C102.832614,75 107,73.2095524 107,71.0010003 C107,68.7924481 102.832614,67 97.6931818,67 Z" id="Shape" fill="#9ACDED"></path>
                <path d="M61.5,100 C71.7181667,100 80,108.282293 80,118.501028 C80,128.717707 71.7181667,137 61.5,137 C51.2818333,137 43,128.717707 43,118.501028 C43,108.282293 51.2818333,100 61.5,100 Z" id="Shape" fill="#5E63B6"></path>
                <path d="M61.5,104 C69.5081429,104 76,110.491857 76,118.5 C76,126.508143 69.5081429,133 61.5,133 C53.4918571,133 47,126.508143 47,118.5 C47,110.491857 53.4918571,104 61.5,104 Z" id="Shape" fill="#FFFFFF"></path>
                <path d="M62,113 C63.106,113 64,113.894 64,115 L64,123 C64,124.104 63.106,125 62,125 C60.894,125 60,124.104 60,123 L60,115 C60,113.894 60.894,113 62,113 Z" id="Shape" fill="#ACD3EF"></path>
                <path d="M61.5,7.40994567e-15 C37.4755714,7.40994567e-15 18,19.6098857 18,43.8 L18,68.8264857 C18,71.1312 21.2459286,73 25.25,73 C29.2561429,73 32.5,71.1312 32.5,68.8264857 L32.5,43.8 C32.5,27.6753429 45.4837143,14.6020857 61.5,14.6020857 C77.5162857,14.6020857 90.5,27.6753429 90.5,43.8 L90.5,68.8264857 C90.5,71.1312 93.7459286,73 97.75,73 C101.754071,73 105,71.1312 105,68.8264857 L105,43.8 C105,19.6098857 85.5244286,0 61.5,0 L61.5,7.40994567e-15 Z" id="Shape" stroke="#5E63B6" stroke-width="3" fill="#FFFFFF"></path>
                <path d="M61,7 C40.5651176,7 24,22.7277453 24,42.1296374 L24,71 C27.6869412,70.7086307 30.5294118,69.0058765 30.5294118,66.9228956 L30.5294118,42.127571 C30.5294118,26.1518517 44.1715294,13.1993478 61,13.1993478 C77.8284706,13.1993478 91.4705882,26.1518517 91.4705882,42.127571 L91.4705882,66.9228956 C91.4705882,69.0058765 94.3152353,70.7086307 98,71 L98,42.1296374 C98,22.7277453 81.4348824,7 61,7 Z" id="Shape" fill="#E1F2FF"></path>
            </g>
            <g id="Group-2" transform="translate(0.000000, 196.000000)" fill="#FFFFFF" fill-rule="nonzero" stroke="#5E63B6" stroke-linecap="round" stroke-linejoin="round" stroke-width="3">
                <path d="M17,0 L53,0" id="Shape"></path>
                <path d="M59,0 L235.89,0" id="Shape"></path>
                <path d="M243,0 L249.97,0" id="Shape"></path>
                <path d="M0,0 L8.97,0" id="Shape"></path>
                <path d="M92,10 L159.19,10" id="Shape"></path>
                <path d="M168,10 L177.14,10" id="Shape"></path>
                <path d="M84,9 L79,9.08" id="Shape"></path>
            </g>
            <g id="Group-2" transform="translate(19.000000, 0.000000)" stroke="#5E63B6" stroke-linecap="round">
                <path d="M184.98,44.4 L184.98,51.4" id="Shape" stroke-width="2" stroke-linejoin="round"></path>
                <path d="M188.48,47.9 L181.48,47.9" id="Shape" stroke-width="2" stroke-linejoin="round"></path>
                <path d="M58,0 L58,7" id="Shape" stroke-width="2" stroke-linejoin="round"></path>
                <path d="M62,4 L55,4" id="Shape" stroke-width="2" stroke-linejoin="round"></path>
                <path d="M20.73,164.68 L20.73,168.62" id="Shape"></path>
                <path d="M22.7,166.65 L18.76,166.65" id="Shape"></path>
                <path d="M195.73,104.68 L195.73,108.62" id="Shape" stroke-linejoin="round"></path>
                <path d="M197.7,106.65 L193.76,106.65" id="Shape" stroke-linejoin="round"></path>
                <path d="M26.73,64.68 L26.73,68.62" id="Shape"></path>
                <path d="M28.7,66.65 L24.76,66.65" id="Shape"></path>
                <path d="M4.42,103.28 L4.42,111.4" id="Shape" stroke-width="2" fill="#FFFFFF" fill-rule="nonzero"></path>
                <path d="M8.48,107.34 L0.35,107.34" id="Shape" stroke-width="2" fill="#FFFFFF" fill-rule="nonzero"></path>
            </g>
        </g>
    </g>
</svg>