<?xml version="1.0" encoding="UTF-8" standalone="no"?>
<svg width="256px" height="256px" viewBox="0 0 256 256" version="1.1" xmlns="http://www.w3.org/2000/svg" xmlns:xlink="http://www.w3.org/1999/xlink">
    <!-- Generator: Sketch 50.2 (55047) - http://www.bohemiancoding.com/sketch -->
    <title>Common/Illustrations/Local</title>
    <desc>Created with Sketch.</desc>
    <defs>
        <path d="M8.382,4.195 L0.057,30.318 L3.312,42.895 C3.312,42.895 14.224,58.028 14.179,61.178 C14.135,64.329 38.566,58.565 41.121,56.618 C41.993,58.027 56.898,58.255 61.149,58.147 C65.4,58.04 79.557,52.528 87.724,36.215 C95.89,19.9 74.89,5.908 74.89,5.908 L62.832,0.027" id="path-1"></path>
        <path d="M8.382,4.195 L0.057,30.318 L3.312,42.895 C3.312,42.895 14.224,58.028 14.179,61.178 C14.135,64.329 38.566,58.565 41.121,56.618 C41.993,58.027 56.898,58.255 61.149,58.147 C65.4,58.04 79.557,52.528 87.724,36.215 C95.89,19.9 74.89,5.908 74.89,5.908 L62.832,0.027 L8.382,4.195 Z" id="path-3"></path>
        <path d="M8.382,4.195 L0.057,30.318 L3.312,42.895 C3.312,42.895 14.224,58.028 14.179,61.178 C14.135,64.329 38.566,58.565 41.121,56.618 C41.993,58.027 56.898,58.255 61.149,58.147 C65.4,58.04 79.557,52.528 87.724,36.215 C95.89,19.9 74.89,5.908 74.89,5.908 L62.832,0.027" id="path-5"></path>
        <path d="M8.382,4.195 L0.057,30.318 L3.312,42.895 C3.312,42.895 14.224,58.028 14.179,61.178 C14.135,64.329 38.566,58.565 41.121,56.618 C41.993,58.027 56.898,58.255 61.149,58.147 C65.4,58.04 79.557,52.528 87.724,36.215 C95.89,19.9 74.89,5.908 74.89,5.908 L62.832,0.027 L8.382,4.195 Z" id="path-7"></path>
        <path d="M8.382,4.195 L0.057,30.318 L3.312,42.895 C3.312,42.895 14.224,58.028 14.179,61.178 C14.135,64.329 38.566,58.565 41.121,56.618 C41.993,58.027 56.898,58.255 61.149,58.147 C65.4,58.04 79.557,52.528 87.724,36.215 C95.89,19.9 74.89,5.908 74.89,5.908 L62.832,0.027" id="path-9"></path>
        <path d="M8.382,4.195 L0.057,30.318 L3.312,42.895 C3.312,42.895 14.224,58.028 14.179,61.178 C14.135,64.329 38.566,58.565 41.121,56.618 C41.993,58.027 56.898,58.255 61.149,58.147 C65.4,58.04 79.557,52.528 87.724,36.215 C95.89,19.9 74.89,5.908 74.89,5.908 L62.832,0.027" id="path-11"></path>
        <path d="M8.382,4.195 L0.057,30.318 L3.312,42.895 C3.312,42.895 14.224,58.028 14.179,61.178 C14.135,64.329 38.566,58.565 41.121,56.618 C41.993,58.027 56.898,58.255 61.149,58.147 C65.4,58.04 79.557,52.528 87.724,36.215 C95.89,19.9 74.89,5.908 74.89,5.908 L62.832,0.027 L8.382,4.195 Z" id="path-13"></path>
        <path d="M8.382,4.195 L0.057,30.318 L3.312,42.895 C3.312,42.895 14.224,58.028 14.179,61.178 C14.135,64.329 38.566,58.565 41.121,56.618 C41.993,58.027 56.898,58.255 61.149,58.147 C65.4,58.04 79.557,52.528 87.724,36.215 C95.89,19.9 74.89,5.908 74.89,5.908 L62.832,0.027" id="path-15"></path>
        <path d="M8.382,4.195 L0.057,30.318 L3.312,42.895 C3.312,42.895 14.224,58.028 14.179,61.178 C14.135,64.329 38.566,58.565 41.121,56.618 C41.993,58.027 56.898,58.255 61.149,58.147 C65.4,58.04 79.557,52.528 87.724,36.215 C95.89,19.9 74.89,5.908 74.89,5.908 L62.832,0.027 L8.382,4.195 Z" id="path-17"></path>
        <path d="M8.382,4.195 L0.057,30.318 L3.312,42.895 C3.312,42.895 14.224,58.028 14.179,61.178 C14.135,64.329 38.566,58.565 41.121,56.618 C41.993,58.027 56.898,58.255 61.149,58.147 C65.4,58.04 79.557,52.528 87.724,36.215 C95.89,19.9 74.89,5.908 74.89,5.908 L62.832,0.027" id="path-19"></path>
        <path d="M8.382,4.195 L0.057,30.318 L3.312,42.895 C3.312,42.895 14.224,58.028 14.179,61.178 C14.135,64.329 38.566,58.565 41.121,56.618 C41.993,58.027 56.898,58.255 61.149,58.147 C65.4,58.04 79.557,52.528 87.724,36.215 C95.89,19.9 74.89,5.908 74.89,5.908 L62.832,0.027 L8.382,4.195 Z" id="path-21"></path>
        <path d="M8.382,4.195 L0.057,30.318 L3.312,42.895 C3.312,42.895 14.224,58.028 14.179,61.178 C14.135,64.329 38.566,58.565 41.121,56.618 C41.993,58.027 56.898,58.255 61.149,58.147 C65.4,58.04 79.557,52.528 87.724,36.215 C95.89,19.9 74.89,5.908 74.89,5.908 L62.832,0.027" id="path-23"></path>
        <path d="M8.382,4.195 L0.057,30.318 L3.312,42.895 C3.312,42.895 14.224,58.028 14.179,61.178 C14.135,64.329 38.566,58.565 41.121,56.618 C41.993,58.027 56.898,58.255 61.149,58.147 C65.4,58.04 79.557,52.528 87.724,36.215 C95.89,19.9 74.89,5.908 74.89,5.908 L62.832,0.027 L8.382,4.195 Z" id="path-25"></path>
        <path d="M8.382,4.195 L0.057,30.318 L3.312,42.895 C3.312,42.895 14.224,58.028 14.179,61.178 C14.135,64.329 38.566,58.565 41.121,56.618 C41.993,58.027 56.898,58.255 61.149,58.147 C65.4,58.04 79.557,52.528 87.724,36.215 C95.89,19.9 74.89,5.908 74.89,5.908 L62.832,0.027" id="path-27"></path>
        <path d="M8.382,4.195 L0.057,30.318 L3.312,42.895 C3.312,42.895 14.224,58.028 14.179,61.178 C14.135,64.329 38.566,58.565 41.121,56.618 C41.993,58.027 56.898,58.255 61.149,58.147 C65.4,58.04 79.557,52.528 87.724,36.215 C95.89,19.9 74.89,5.908 74.89,5.908 L62.832,0.027" id="path-29"></path>
        <path d="M8.382,4.195 L0.057,30.318 L3.312,42.895 C3.312,42.895 14.224,58.028 14.179,61.178 C14.135,64.329 38.566,58.565 41.121,56.618 C41.993,58.027 56.898,58.255 61.149,58.147 C65.4,58.04 79.557,52.528 87.724,36.215 C95.89,19.9 74.89,5.908 74.89,5.908 L62.832,0.027" id="path-31"></path>
        <path d="M8.382,4.195 L0.057,30.318 L3.312,42.895 C3.312,42.895 14.224,58.028 14.179,61.178 C14.135,64.329 38.566,58.565 41.121,56.618 C41.993,58.027 56.898,58.255 61.149,58.147 C65.4,58.04 79.557,52.528 87.724,36.215 C95.89,19.9 74.89,5.908 74.89,5.908 L62.832,0.027" id="path-33"></path>
        <path d="M8.382,4.195 L0.057,30.318 L3.312,42.895 C3.312,42.895 14.224,58.028 14.179,61.178 C14.135,64.329 38.566,58.565 41.121,56.618 C41.993,58.027 56.898,58.255 61.149,58.147 C65.4,58.04 79.557,52.528 87.724,36.215 C95.89,19.9 74.89,5.908 74.89,5.908 L62.832,0.027" id="path-35"></path>
        <path d="M8.382,4.195 L0.057,30.318 L3.312,42.895 C3.312,42.895 14.224,58.028 14.179,61.178 C14.135,64.329 38.566,58.565 41.121,56.618 C41.993,58.027 56.898,58.255 61.149,58.147 C65.4,58.04 79.557,52.528 87.724,36.215 C95.89,19.9 74.89,5.908 74.89,5.908 L62.832,0.027 L8.382,4.195 Z" id="path-37"></path>
        <path d="M8.382,4.195 L0.057,30.318 L3.312,42.895 C3.312,42.895 14.224,58.028 14.179,61.178 C14.135,64.329 38.566,58.565 41.121,56.618 C41.993,58.027 56.898,58.255 61.149,58.147 C65.4,58.04 79.557,52.528 87.724,36.215 C95.89,19.9 74.89,5.908 74.89,5.908 L62.832,0.027" id="path-39"></path>
        <path d="M8.382,4.195 L0.057,30.318 L3.312,42.895 C3.312,42.895 14.224,58.028 14.179,61.178 C14.135,64.329 38.566,58.565 41.121,56.618 C41.993,58.027 56.898,58.255 61.149,58.147 C65.4,58.04 79.557,52.528 87.724,36.215 C95.89,19.9 74.89,5.908 74.89,5.908 L62.832,0.027" id="path-41"></path>
        <path d="M8.382,4.195 L0.057,30.318 L3.312,42.895 C3.312,42.895 14.224,58.028 14.179,61.178 C14.135,64.329 38.566,58.565 41.121,56.618 C41.993,58.027 56.898,58.255 61.149,58.147 C65.4,58.04 79.557,52.528 87.724,36.215 C95.89,19.9 74.89,5.908 74.89,5.908 L62.832,0.027" id="path-43"></path>
        <path d="M8.382,4.195 L0.057,30.318 L3.312,42.895 C3.312,42.895 14.224,58.028 14.179,61.178 C14.135,64.329 38.566,58.565 41.121,56.618 C41.993,58.027 56.898,58.255 61.149,58.147 C65.4,58.04 79.557,52.528 87.724,36.215 C95.89,19.9 74.89,5.908 74.89,5.908 L62.832,0.027" id="path-45"></path>
        <path d="M8.382,4.195 L0.057,30.318 L3.312,42.895 C3.312,42.895 14.224,58.028 14.179,61.178 C14.135,64.329 38.566,58.565 41.121,56.618 C41.993,58.027 56.898,58.255 61.149,58.147 C65.4,58.04 79.557,52.528 87.724,36.215 C95.89,19.9 74.89,5.908 74.89,5.908 L62.832,0.027" id="path-47"></path>
        <path d="M8.382,4.195 L0.057,30.318 L3.312,42.895 C3.312,42.895 14.224,58.028 14.179,61.178 C14.135,64.329 38.566,58.565 41.121,56.618 C41.993,58.027 56.898,58.255 61.149,58.147 C65.4,58.04 79.557,52.528 87.724,36.215 C95.89,19.9 74.89,5.908 74.89,5.908 L62.832,0.027" id="path-49"></path>
        <path d="M8.382,4.195 L0.057,30.318 L3.312,42.895 C3.312,42.895 14.224,58.028 14.179,61.178 C14.135,64.329 38.566,58.565 41.121,56.618 C41.993,58.027 56.898,58.255 61.149,58.147 C65.4,58.04 79.557,52.528 87.724,36.215 C95.89,19.9 74.89,5.908 74.89,5.908 L62.832,0.027 L8.382,4.195 Z" id="path-51"></path>
        <path d="M8.382,4.195 L0.057,30.318 L3.312,42.895 C3.312,42.895 14.224,58.028 14.179,61.178 C14.135,64.329 38.566,58.565 41.121,56.618 C41.993,58.027 56.898,58.255 61.149,58.147 C65.4,58.04 79.557,52.528 87.724,36.215 C95.89,19.9 74.89,5.908 74.89,5.908 L62.832,0.027" id="path-53"></path>
        <path d="M8.382,4.195 L0.057,30.318 L3.312,42.895 C3.312,42.895 14.224,58.028 14.179,61.178 C14.135,64.329 38.566,58.565 41.121,56.618 C41.993,58.027 56.898,58.255 61.149,58.147 C65.4,58.04 79.557,52.528 87.724,36.215 C95.89,19.9 74.89,5.908 74.89,5.908 L62.832,0.027 L8.382,4.195 Z" id="path-55"></path>
        <path d="M8.382,4.195 L0.057,30.318 L3.312,42.895 C3.312,42.895 14.224,58.028 14.179,61.178 C14.135,64.329 38.566,58.565 41.121,56.618 C41.993,58.027 56.898,58.255 61.149,58.147 C65.4,58.04 79.557,52.528 87.724,36.215 C95.89,19.9 74.89,5.908 74.89,5.908 L62.832,0.027" id="path-57"></path>
        <path d="M8.382,4.195 L0.057,30.318 L3.312,42.895 C3.312,42.895 14.224,58.028 14.179,61.178 C14.135,64.329 38.566,58.565 41.121,56.618 C41.993,58.027 56.898,58.255 61.149,58.147 C65.4,58.04 79.557,52.528 87.724,36.215 C95.89,19.9 74.89,5.908 74.89,5.908 L62.832,0.027 L8.382,4.195 Z" id="path-59"></path>
        <path d="M8.382,4.195 L0.057,30.318 L3.312,42.895 C3.312,42.895 14.224,58.028 14.179,61.178 C14.135,64.329 38.566,58.565 41.121,56.618 C41.993,58.027 56.898,58.255 61.149,58.147 C65.4,58.04 79.557,52.528 87.724,36.215 C95.89,19.9 74.89,5.908 74.89,5.908 L62.832,0.027" id="path-61"></path>
        <path d="M8.382,4.195 L0.057,30.318 L3.312,42.895 C3.312,42.895 14.224,58.028 14.179,61.178 C14.135,64.329 38.566,58.565 41.121,56.618 C41.993,58.027 56.898,58.255 61.149,58.147 C65.4,58.04 79.557,52.528 87.724,36.215 C95.89,19.9 74.89,5.908 74.89,5.908 L62.832,0.027" id="path-63"></path>
        <path d="M8.382,4.195 L0.057,30.318 L3.312,42.895 C3.312,42.895 14.224,58.028 14.179,61.178 C14.135,64.329 38.566,58.565 41.121,56.618 C41.993,58.027 56.898,58.255 61.149,58.147 C65.4,58.04 79.557,52.528 87.724,36.215 C95.89,19.9 74.89,5.908 74.89,5.908 L62.832,0.027" id="path-65"></path>
        <path d="M8.382,4.195 L0.057,30.318 L3.312,42.895 C3.312,42.895 14.224,58.028 14.179,61.178 C14.135,64.329 38.566,58.565 41.121,56.618 C41.993,58.027 56.898,58.255 61.149,58.147 C65.4,58.04 79.557,52.528 87.724,36.215 C95.89,19.9 74.89,5.908 74.89,5.908 L62.832,0.027 L8.382,4.195 Z" id="path-67"></path>
        <path d="M8.382,4.195 L0.057,30.318 L3.312,42.895 C3.312,42.895 14.224,58.028 14.179,61.178 C14.135,64.329 38.566,58.565 41.121,56.618 C41.993,58.027 56.898,58.255 61.149,58.147 C65.4,58.04 79.557,52.528 87.724,36.215 C95.89,19.9 74.89,5.908 74.89,5.908 L62.832,0.027" id="path-69"></path>
        <path d="M8.382,4.195 L0.057,30.318 L3.312,42.895 C3.312,42.895 14.224,58.028 14.179,61.178 C14.135,64.329 38.566,58.565 41.121,56.618 C41.993,58.027 56.898,58.255 61.149,58.147 C65.4,58.04 79.557,52.528 87.724,36.215 C95.89,19.9 74.89,5.908 74.89,5.908 L62.832,0.027" id="path-71"></path>
        <path d="M8.382,4.195 L0.057,30.318 L3.312,42.895 C3.312,42.895 14.224,58.028 14.179,61.178 C14.135,64.329 38.566,58.565 41.121,56.618 C41.993,58.027 56.898,58.255 61.149,58.147 C65.4,58.04 79.557,52.528 87.724,36.215 C95.89,19.9 74.89,5.908 74.89,5.908 L62.832,0.027 L8.382,4.195 Z" id="path-73"></path>
        <path d="M8.382,4.195 L0.057,30.318 L3.312,42.895 C3.312,42.895 14.224,58.028 14.179,61.178 C14.135,64.329 38.566,58.565 41.121,56.618 C41.993,58.027 56.898,58.255 61.149,58.147 C65.4,58.04 79.557,52.528 87.724,36.215 C95.89,19.9 74.89,5.908 74.89,5.908 L62.832,0.027" id="path-75"></path>
        <path d="M8.382,4.195 L0.057,30.318 L3.312,42.895 C3.312,42.895 14.224,58.028 14.179,61.178 C14.135,64.329 38.566,58.565 41.121,56.618 C41.993,58.027 56.898,58.255 61.149,58.147 C65.4,58.04 79.557,52.528 87.724,36.215 C95.89,19.9 74.89,5.908 74.89,5.908 L62.832,0.027 L8.382,4.195 Z" id="path-77"></path>
        <path d="M8.382,4.195 L0.057,30.318 L3.312,42.895 C3.312,42.895 14.224,58.028 14.179,61.178 C14.135,64.329 38.566,58.565 41.121,56.618 C41.993,58.027 56.898,58.255 61.149,58.147 C65.4,58.04 79.557,52.528 87.724,36.215 C95.89,19.9 74.89,5.908 74.89,5.908 L62.832,0.027" id="path-79"></path>
        <path d="M8.382,4.195 L0.057,30.318 L3.312,42.895 C3.312,42.895 14.224,58.028 14.179,61.178 C14.135,64.329 38.566,58.565 41.121,56.618 C41.993,58.027 56.898,58.255 61.149,58.147 C65.4,58.04 79.557,52.528 87.724,36.215 C95.89,19.9 74.89,5.908 74.89,5.908 L62.832,0.027 L8.382,4.195 Z" id="path-81"></path>
        <path d="M8.382,4.195 L0.057,30.318 L3.312,42.895 C3.312,42.895 14.224,58.028 14.179,61.178 C14.135,64.329 38.566,58.565 41.121,56.618 C41.993,58.027 56.898,58.255 61.149,58.147 C65.4,58.04 79.557,52.528 87.724,36.215 C95.89,19.9 74.89,5.908 74.89,5.908 L62.832,0.027" id="path-83"></path>
        <path d="M8.382,4.195 L0.057,30.318 L3.312,42.895 C3.312,42.895 14.224,58.028 14.179,61.178 C14.135,64.329 38.566,58.565 41.121,56.618 C41.993,58.027 56.898,58.255 61.149,58.147 C65.4,58.04 79.557,52.528 87.724,36.215 C95.89,19.9 74.89,5.908 74.89,5.908 L62.832,0.027 L8.382,4.195 Z" id="path-85"></path>
        <path d="M8.382,4.195 L0.057,30.318 L3.312,42.895 C3.312,42.895 14.224,58.028 14.179,61.178 C14.135,64.329 38.566,58.565 41.121,56.618 C41.993,58.027 56.898,58.255 61.149,58.147 C65.4,58.04 79.557,52.528 87.724,36.215 C95.89,19.9 74.89,5.908 74.89,5.908 L62.832,0.027" id="path-87"></path>
        <path d="M8.382,4.195 L0.057,30.318 L3.312,42.895 C3.312,42.895 14.224,58.028 14.179,61.178 C14.135,64.329 38.566,58.565 41.121,56.618 C41.993,58.027 56.898,58.255 61.149,58.147 C65.4,58.04 79.557,52.528 87.724,36.215 C95.89,19.9 74.89,5.908 74.89,5.908 L62.832,0.027" id="path-89"></path>
        <path d="M8.382,4.195 L0.057,30.318 L3.312,42.895 C3.312,42.895 14.224,58.028 14.179,61.178 C14.135,64.329 38.566,58.565 41.121,56.618 C41.993,58.027 56.898,58.255 61.149,58.147 C65.4,58.04 79.557,52.528 87.724,36.215 C95.89,19.9 74.89,5.908 74.89,5.908 L62.832,0.027" id="path-91"></path>
        <path d="M8.382,4.195 L0.057,30.318 L3.312,42.895 C3.312,42.895 14.224,58.028 14.179,61.178 C14.135,64.329 38.566,58.565 41.121,56.618 C41.993,58.027 56.898,58.255 61.149,58.147 C65.4,58.04 79.557,52.528 87.724,36.215 C95.89,19.9 74.89,5.908 74.89,5.908 L62.832,0.027" id="path-93"></path>
        <path d="M8.382,4.195 L0.057,30.318 L3.312,42.895 C3.312,42.895 14.224,58.028 14.179,61.178 C14.135,64.329 38.566,58.565 41.121,56.618 C41.993,58.027 56.898,58.255 61.149,58.147 C65.4,58.04 79.557,52.528 87.724,36.215 C95.89,19.9 74.89,5.908 74.89,5.908 L62.832,0.027" id="path-95"></path>
        <path d="M8.382,4.195 L0.057,30.318 L3.312,42.895 C3.312,42.895 14.224,58.028 14.179,61.178 C14.135,64.329 38.566,58.565 41.121,56.618 C41.993,58.027 56.898,58.255 61.149,58.147 C65.4,58.04 79.557,52.528 87.724,36.215 C95.89,19.9 74.89,5.908 74.89,5.908 L62.832,0.027" id="path-97"></path>
        <path d="M8.382,4.195 L0.057,30.318 L3.312,42.895 C3.312,42.895 14.224,58.028 14.179,61.178 C14.135,64.329 38.566,58.565 41.121,56.618 C41.993,58.027 56.898,58.255 61.149,58.147 C65.4,58.04 79.557,52.528 87.724,36.215 C95.89,19.9 74.89,5.908 74.89,5.908 L62.832,0.027" id="path-99"></path>
        <path d="M8.382,4.195 L0.057,30.318 L3.312,42.895 C3.312,42.895 14.224,58.028 14.179,61.178 C14.135,64.329 38.566,58.565 41.121,56.618 C41.993,58.027 56.898,58.255 61.149,58.147 C65.4,58.04 79.557,52.528 87.724,36.215 C95.89,19.9 74.89,5.908 74.89,5.908 L62.832,0.027 L8.382,4.195 Z" id="path-101"></path>
        <path d="M8.382,4.195 L0.057,30.318 L3.312,42.895 C3.312,42.895 14.224,58.028 14.179,61.178 C14.135,64.329 38.566,58.565 41.121,56.618 C41.993,58.027 56.898,58.255 61.149,58.147 C65.4,58.04 79.557,52.528 87.724,36.215 C95.89,19.9 74.89,5.908 74.89,5.908 L62.832,0.027" id="path-103"></path>
        <path d="M8.382,4.195 L0.057,30.318 L3.312,42.895 C3.312,42.895 14.224,58.028 14.179,61.178 C14.135,64.329 38.566,58.565 41.121,56.618 C41.993,58.027 56.898,58.255 61.149,58.147 C65.4,58.04 79.557,52.528 87.724,36.215 C95.89,19.9 74.89,5.908 74.89,5.908 L62.832,0.027" id="path-105"></path>
        <path d="M8.382,4.195 L0.057,30.318 L3.312,42.895 C3.312,42.895 14.224,58.028 14.179,61.178 C14.135,64.329 38.566,58.565 41.121,56.618 C41.993,58.027 56.898,58.255 61.149,58.147 C65.4,58.04 79.557,52.528 87.724,36.215 C95.89,19.9 74.89,5.908 74.89,5.908 L62.832,0.027 L8.382,4.195 Z" id="path-107"></path>
        <path d="M8.382,4.195 L0.057,30.318 L3.312,42.895 C3.312,42.895 14.224,58.028 14.179,61.178 C14.135,64.329 38.566,58.565 41.121,56.618 C41.993,58.027 56.898,58.255 61.149,58.147 C65.4,58.04 79.557,52.528 87.724,36.215 C95.89,19.9 74.89,5.908 74.89,5.908 L62.832,0.027" id="path-109"></path>
        <path d="M8.382,4.195 L0.057,30.318 L3.312,42.895 C3.312,42.895 14.224,58.028 14.179,61.178 C14.135,64.329 38.566,58.565 41.121,56.618 C41.993,58.027 56.898,58.255 61.149,58.147 C65.4,58.04 79.557,52.528 87.724,36.215 C95.89,19.9 74.89,5.908 74.89,5.908 L62.832,0.027" id="path-111"></path>
        <path d="M8.382,4.195 L0.057,30.318 L3.312,42.895 C3.312,42.895 14.224,58.028 14.179,61.178 C14.135,64.329 38.566,58.565 41.121,56.618 C41.993,58.027 56.898,58.255 61.149,58.147 C65.4,58.04 79.557,52.528 87.724,36.215 C95.89,19.9 74.89,5.908 74.89,5.908 L62.832,0.027" id="path-113"></path>
        <path d="M8.382,4.195 L0.057,30.318 L3.312,42.895 C3.312,42.895 14.224,58.028 14.179,61.178 C14.135,64.329 38.566,58.565 41.121,56.618 C41.993,58.027 56.898,58.255 61.149,58.147 C65.4,58.04 79.557,52.528 87.724,36.215 C95.89,19.9 74.89,5.908 74.89,5.908 L62.832,0.027 L8.382,4.195 Z" id="path-115"></path>
        <path d="M8.382,4.195 L0.057,30.318 L3.312,42.895 C3.312,42.895 14.224,58.028 14.179,61.178 C14.135,64.329 38.566,58.565 41.121,56.618 C41.993,58.027 56.898,58.255 61.149,58.147 C65.4,58.04 79.557,52.528 87.724,36.215 C95.89,19.9 74.89,5.908 74.89,5.908 L62.832,0.027" id="path-117"></path>
        <path d="M8.382,4.195 L0.057,30.318 L3.312,42.895 C3.312,42.895 14.224,58.028 14.179,61.178 C14.135,64.329 38.566,58.565 41.121,56.618 C41.993,58.027 56.898,58.255 61.149,58.147 C65.4,58.04 79.557,52.528 87.724,36.215 C95.89,19.9 74.89,5.908 74.89,5.908 L62.832,0.027" id="path-119"></path>
        <path d="M8.382,4.195 L0.057,30.318 L3.312,42.895 C3.312,42.895 14.224,58.028 14.179,61.178 C14.135,64.329 38.566,58.565 41.121,56.618 C41.993,58.027 56.898,58.255 61.149,58.147 C65.4,58.04 79.557,52.528 87.724,36.215 C95.89,19.9 74.89,5.908 74.89,5.908 L62.832,0.027" id="path-121"></path>
        <path d="M8.382,4.195 L0.057,30.318 L3.312,42.895 C3.312,42.895 14.224,58.028 14.179,61.178 C14.135,64.329 38.566,58.565 41.121,56.618 C41.993,58.027 56.898,58.255 61.149,58.147 C65.4,58.04 79.557,52.528 87.724,36.215 C95.89,19.9 74.89,5.908 74.89,5.908 L62.832,0.027" id="path-123"></path>
        <path d="M8.382,4.195 L0.057,30.318 L3.312,42.895 C3.312,42.895 14.224,58.028 14.179,61.178 C14.135,64.329 38.566,58.565 41.121,56.618 C41.993,58.027 56.898,58.255 61.149,58.147 C65.4,58.04 79.557,52.528 87.724,36.215 C95.89,19.9 74.89,5.908 74.89,5.908 L62.832,0.027" id="path-125"></path>
        <path d="M8.382,4.195 L0.057,30.318 L3.312,42.895 C3.312,42.895 14.224,58.028 14.179,61.178 C14.135,64.329 38.566,58.565 41.121,56.618 C41.993,58.027 56.898,58.255 61.149,58.147 C65.4,58.04 79.557,52.528 87.724,36.215 C95.89,19.9 74.89,5.908 74.89,5.908 L62.832,0.027" id="path-127"></path>
        <path d="M8.382,4.195 L0.057,30.318 L3.312,42.895 C3.312,42.895 14.224,58.028 14.179,61.178 C14.135,64.329 38.566,58.565 41.121,56.618 C41.993,58.027 56.898,58.255 61.149,58.147 C65.4,58.04 79.557,52.528 87.724,36.215 C95.89,19.9 74.89,5.908 74.89,5.908 L62.832,0.027" id="path-129"></path>
        <path d="M8.382,4.195 L0.057,30.318 L3.312,42.895 C3.312,42.895 14.224,58.028 14.179,61.178 C14.135,64.329 38.566,58.565 41.121,56.618 C41.993,58.027 56.898,58.255 61.149,58.147 C65.4,58.04 79.557,52.528 87.724,36.215 C95.89,19.9 74.89,5.908 74.89,5.908 L62.832,0.027" id="path-131"></path>
        <path d="M8.382,4.195 L0.057,30.318 L3.312,42.895 C3.312,42.895 14.224,58.028 14.179,61.178 C14.135,64.329 38.566,58.565 41.121,56.618 C41.993,58.027 56.898,58.255 61.149,58.147 C65.4,58.04 79.557,52.528 87.724,36.215 C95.89,19.9 74.89,5.908 74.89,5.908 L62.832,0.027" id="path-133"></path>
        <path d="M8.382,4.195 L0.057,30.318 L3.312,42.895 C3.312,42.895 14.224,58.028 14.179,61.178 C14.135,64.329 38.566,58.565 41.121,56.618 C41.993,58.027 56.898,58.255 61.149,58.147 C65.4,58.04 79.557,52.528 87.724,36.215 C95.89,19.9 74.89,5.908 74.89,5.908 L62.832,0.027" id="path-135"></path>
        <path d="M8.382,4.195 L0.057,30.318 L3.312,42.895 C3.312,42.895 14.224,58.028 14.179,61.178 C14.135,64.329 38.566,58.565 41.121,56.618 C41.993,58.027 56.898,58.255 61.149,58.147 C65.4,58.04 79.557,52.528 87.724,36.215 C95.89,19.9 74.89,5.908 74.89,5.908 L62.832,0.027" id="path-137"></path>
        <path d="M8.382,4.195 L0.057,30.318 L3.312,42.895 C3.312,42.895 14.224,58.028 14.179,61.178 C14.135,64.329 38.566,58.565 41.121,56.618 C41.993,58.027 56.898,58.255 61.149,58.147 C65.4,58.04 79.557,52.528 87.724,36.215 C95.89,19.9 74.89,5.908 74.89,5.908 L62.832,0.027" id="path-139"></path>
        <path d="M8.382,4.195 L0.057,30.318 L3.312,42.895 C3.312,42.895 14.224,58.028 14.179,61.178 C14.135,64.329 38.566,58.565 41.121,56.618 C41.993,58.027 56.898,58.255 61.149,58.147 C65.4,58.04 79.557,52.528 87.724,36.215 C95.89,19.9 74.89,5.908 74.89,5.908 L62.832,0.027" id="path-141"></path>
        <path d="M8.382,4.195 L0.057,30.318 L3.312,42.895 C3.312,42.895 14.224,58.028 14.179,61.178 C14.135,64.329 38.566,58.565 41.121,56.618 C41.993,58.027 56.898,58.255 61.149,58.147 C65.4,58.04 79.557,52.528 87.724,36.215 C95.89,19.9 74.89,5.908 74.89,5.908 L62.832,0.027" id="path-143"></path>
        <path d="M8.382,4.195 L0.057,30.318 L3.312,42.895 C3.312,42.895 14.224,58.028 14.179,61.178 C14.135,64.329 38.566,58.565 41.121,56.618 C41.993,58.027 56.898,58.255 61.149,58.147 C65.4,58.04 79.557,52.528 87.724,36.215 C95.89,19.9 74.89,5.908 74.89,5.908 L62.832,0.027" id="path-145"></path>
        <path d="M8.382,4.195 L0.057,30.318 L3.312,42.895 C3.312,42.895 14.224,58.028 14.179,61.178 C14.135,64.329 38.566,58.565 41.121,56.618 C41.993,58.027 56.898,58.255 61.149,58.147 C65.4,58.04 79.557,52.528 87.724,36.215 C95.89,19.9 74.89,5.908 74.89,5.908 L62.832,0.027" id="path-147"></path>
        <path d="M8.382,4.195 L0.057,30.318 L3.312,42.895 C3.312,42.895 14.224,58.028 14.179,61.178 C14.135,64.329 38.566,58.565 41.121,56.618 C41.993,58.027 56.898,58.255 61.149,58.147 C65.4,58.04 79.557,52.528 87.724,36.215 C95.89,19.9 74.89,5.908 74.89,5.908 L62.832,0.027" id="path-149"></path>
        <path d="M8.382,4.195 L0.057,30.318 L3.312,42.895 C3.312,42.895 14.224,58.028 14.179,61.178 C14.135,64.329 38.566,58.565 41.121,56.618 C41.993,58.027 56.898,58.255 61.149,58.147 C65.4,58.04 79.557,52.528 87.724,36.215 C95.89,19.9 74.89,5.908 74.89,5.908 L62.832,0.027" id="path-151"></path>
        <path d="M8.382,4.195 L0.057,30.318 L3.312,42.895 C3.312,42.895 14.224,58.028 14.179,61.178 C14.135,64.329 38.566,58.565 41.121,56.618 C41.993,58.027 56.898,58.255 61.149,58.147 C65.4,58.04 79.557,52.528 87.724,36.215 C95.89,19.9 74.89,5.908 74.89,5.908 L62.832,0.027" id="path-153"></path>
        <path d="M8.382,4.195 L0.057,30.318 L3.312,42.895 C3.312,42.895 14.224,58.028 14.179,61.178 C14.135,64.329 38.566,58.565 41.121,56.618 C41.993,58.027 56.898,58.255 61.149,58.147 C65.4,58.04 79.557,52.528 87.724,36.215 C95.89,19.9 74.89,5.908 74.89,5.908 L62.832,0.027" id="path-155"></path>
        <path d="M8.382,4.195 L0.057,30.318 L3.312,42.895 C3.312,42.895 14.224,58.028 14.179,61.178 C14.135,64.329 38.566,58.565 41.121,56.618 C41.993,58.027 56.898,58.255 61.149,58.147 C65.4,58.04 79.557,52.528 87.724,36.215 C95.89,19.9 74.89,5.908 74.89,5.908 L62.832,0.027" id="path-157"></path>
        <path d="M8.382,4.195 L0.057,30.318 L3.312,42.895 C3.312,42.895 14.224,58.028 14.179,61.178 C14.135,64.329 38.566,58.565 41.121,56.618 C41.993,58.027 56.898,58.255 61.149,58.147 C65.4,58.04 79.557,52.528 87.724,36.215 C95.89,19.9 74.89,5.908 74.89,5.908 L62.832,0.027" id="path-159"></path>
        <path d="M8.382,4.195 L0.057,30.318 L3.312,42.895 C3.312,42.895 14.224,58.028 14.179,61.178 C14.135,64.329 38.566,58.565 41.121,56.618 C41.993,58.027 56.898,58.255 61.149,58.147 C65.4,58.04 79.557,52.528 87.724,36.215 C95.89,19.9 74.89,5.908 74.89,5.908 L62.832,0.027" id="path-161"></path>
        <path d="M8.382,4.195 L0.057,30.318 L3.312,42.895 C3.312,42.895 14.224,58.028 14.179,61.178 C14.135,64.329 38.566,58.565 41.121,56.618 C41.993,58.027 56.898,58.255 61.149,58.147 C65.4,58.04 79.557,52.528 87.724,36.215 C95.89,19.9 74.89,5.908 74.89,5.908 L62.832,0.027" id="path-163"></path>
        <path d="M8.382,4.195 L0.057,30.318 L3.312,42.895 C3.312,42.895 14.224,58.028 14.179,61.178 C14.135,64.329 38.566,58.565 41.121,56.618 C41.993,58.027 56.898,58.255 61.149,58.147 C65.4,58.04 79.557,52.528 87.724,36.215 C95.89,19.9 74.89,5.908 74.89,5.908 L62.832,0.027" id="path-165"></path>
        <path d="M0.625,12.165 L7.405,155.392 C7.405,155.392 11.671,156.821 15.795,155.9 C19.921,154.98 18.365,137.046 18.365,137.046 L20.852,2.032 L10.311,0.993" id="path-167"></path>
        <path d="M0.625,12.165 L7.405,155.392 C7.405,155.392 11.671,156.821 15.795,155.9 C19.921,154.98 18.365,137.046 18.365,137.046 L20.852,2.032 L10.311,0.993 L0.625,12.165 Z" id="path-169"></path>
    </defs>
    <g id="Common/Illustrations/Local" stroke="none" stroke-width="1" fill="none" fill-rule="evenodd">
        <g id="Group" transform="translate(7.000000, 17.000000)">
            <g id="Group-33" transform="translate(0.000000, 86.000000)">
                <path d="M19.9946,103.7154 C19.9946,46.5224 66.3586,0.1574 123.5526,0.1574 C180.7456,0.1574 227.1106,46.5224 227.1106,103.7154 L19.9946,103.7154 Z" id="Fill-1" fill="#E1F2FF"></path>
                <g id="Group-6" transform="translate(25.000000, 115.000000)">
                    <path d="M0.6098,0.5279 L22.9428,0.5279" id="Fill-3" fill="#FFFFFF"></path>
                    <path d="M0.6098,0.5279 L22.9428,0.5279" id="Stroke-5" stroke="#ACD3EF" stroke-width="2" stroke-linecap="round"></path>
                </g>
                <path d="M235.2192,104.565 L240.2192,104.565" id="Stroke-7" stroke="#ACD3EF" stroke-width="2" stroke-linecap="round"></path>
                <g id="Group-12" transform="translate(0.000000, 104.000000)">
                    <path d="M0.0005,0.565 L5.3335,0.565" id="Fill-9" fill="#FFFFFF"></path>
                    <path d="M0.0005,0.565 L5.3335,0.565" id="Stroke-11" stroke="#ACD3EF" stroke-width="2" stroke-linecap="round"></path>
                </g>
                <g id="Group-16" transform="translate(91.000000, 115.000000)">
                    <path d="M0.3472,0.5279 L56.0742,0.5279" id="Fill-13" fill="#FFFFFF"></path>
                    <path d="M0.3472,0.5279 L56.0742,0.5279" id="Stroke-15" stroke="#ACD3EF" stroke-width="2" stroke-linecap="round"></path>
                </g>
                <g id="Group-20" transform="translate(153.000000, 115.000000)">
                    <path d="M0.7192,0.5279 L12.0522,0.5279" id="Fill-17" fill="#FFFFFF"></path>
                    <path d="M0.7192,0.5279 L12.0522,0.5279" id="Stroke-19" stroke="#ACD3EF" stroke-width="2" stroke-linecap="round"></path>
                </g>
                <g id="Group-24" transform="translate(82.000000, 115.000000)">
                    <path d="M4.3862,0.5279 L0.0522,0.5279" id="Fill-21" fill="#FFFFFF"></path>
                    <path d="M4.3862,0.5279 L0.0522,0.5279" id="Stroke-23" stroke="#ACD3EF" stroke-width="2" stroke-linecap="round"></path>
                </g>
                <g id="Group-28" transform="translate(14.000000, 115.000000)">
                    <path d="M0.5522,0.5279 L4.2192,0.5279" id="Fill-25" fill="#FFFFFF"></path>
                    <path d="M0.5522,0.5279 L4.2192,0.5279" id="Stroke-27" stroke="#ACD3EF" stroke-width="2" stroke-linecap="round"></path>
                </g>
                <g id="Group-32" transform="translate(212.000000, 115.000000)">
                    <path d="M0.2134,0.5279 L13.8804,0.5279" id="Fill-29" fill="#FFFFFF"></path>
                    <path d="M0.2134,0.5279 L13.8804,0.5279" id="Stroke-31" stroke="#ACD3EF" stroke-width="2" stroke-linecap="round"></path>
                </g>
            </g>
            <g id="Group-291" transform="translate(153.000000, 127.000000)">
                <g id="Group-36">
                    <mask id="mask-2" fill="white">
                        <use xlink:href="#path-1"></use>
                    </mask>
                    <g id="Clip-35"></g>
                    <path d="M49.4956,71.9449 C45.1156,71.8549 41.0116,68.8399 32.0746,68.4269 C31.9456,67.8429 31.7886,67.3159 31.5896,66.8829 C29.9726,63.3819 27.6896,53.2899 29.1556,46.6609 L30.3156,41.4159 C30.6956,39.6939 30.8886,37.9369 30.8886,36.1739 C30.8886,35.4399 30.8136,34.7229 30.6716,34.0309 C30.6366,33.8579 30.5976,33.6859 30.5536,33.5159 C30.4226,33.0069 30.2546,32.5109 30.0526,32.0339 C29.9846,31.8759 29.9136,31.7179 29.8396,31.5629 C29.6896,31.2529 29.5256,30.9519 29.3486,30.6589 C29.1706,30.3669 28.9786,30.0839 28.7746,29.8099 C28.1626,28.9909 27.4336,28.2629 26.6156,27.6509 C26.3426,27.4469 26.0586,27.2559 25.7666,27.0779 C24.1586,26.0999 22.2706,25.5379 20.2516,25.5379 L18.5076,25.5379 C15.5696,25.5379 12.9106,26.7279 10.9856,28.6529 C10.7456,28.8939 10.5166,29.1459 10.2996,29.4089 C9.9056,29.8859 9.5556,30.3999 9.2476,30.9419 C9.1326,31.1449 9.0206,31.3509 8.9196,31.5629 C8.8456,31.7179 8.7736,31.8759 8.7066,32.0339 C8.5046,32.5109 8.3366,33.0069 8.2056,33.5159 C8.0746,34.0259 7.9796,34.5499 7.9256,35.0869 C7.8896,35.4449 7.8706,35.8069 7.8706,36.1739 C7.8706,36.9069 8.1676,37.5699 8.6466,38.0489 C9.1276,38.5289 9.7896,38.8259 10.5216,38.8259 L21.4126,38.8259 L19.7646,48.2779 C17.8296,57.9879 18.4106,64.4819 19.9096,68.8099 C20.2436,69.7759 22.1456,73.1959 22.1456,73.1959 C16.6996,81.7889 8.3496,85.5449 -0.5794,86.6339 C-8.1704,87.5609 -24.5584,80.6389 -16.1084,72.6319 C-7.6594,64.6239 -17.8694,69.6019 -19.3724,70.6159 C-20.8754,71.6299 -29.5654,79.1379 -20.1344,90.1549 C-16.1464,94.8129 -11.6284,99.0489 -0.7594,102.2959 C0.9836,102.8159 10.4956,103.5069 15.6156,104.9769 C30.8616,109.3529 43.2566,104.5949 50.2016,94.5309 C57.1186,84.5079 51.2246,71.9799 49.4956,71.9449" id="Fill-34" fill="#9452BA" mask="url(#mask-2)"></path>
                </g>
                <g id="Group-39">
                    <mask id="mask-4" fill="white">
                        <use xlink:href="#path-3"></use>
                    </mask>
                    <g id="Clip-38"></g>
                    <path d="M49.4956,71.9449 C45.1156,71.8549 41.0116,68.8399 32.0746,68.4269 C31.9456,67.8429 31.7886,67.3159 31.5896,66.8829 C29.9726,63.3819 27.6896,53.2899 29.1556,46.6609 L30.3156,41.4159 C30.6956,39.6939 30.8886,37.9369 30.8886,36.1739 C30.8886,35.4399 30.8136,34.7229 30.6716,34.0309 C30.6366,33.8579 30.5976,33.6859 30.5536,33.5159 C30.4226,33.0069 30.2546,32.5109 30.0526,32.0339 C29.9846,31.8759 29.9136,31.7179 29.8396,31.5629 C29.6896,31.2529 29.5256,30.9519 29.3486,30.6589 C29.1706,30.3669 28.9786,30.0839 28.7746,29.8099 C28.1626,28.9909 27.4336,28.2629 26.6156,27.6509 C26.3426,27.4469 26.0586,27.2559 25.7666,27.0779 C24.1586,26.0999 22.2706,25.5379 20.2516,25.5379 L18.5076,25.5379 C15.5696,25.5379 12.9106,26.7279 10.9856,28.6529 C10.7456,28.8939 10.5166,29.1459 10.2996,29.4089 C9.9056,29.8859 9.5556,30.3999 9.2476,30.9419 C9.1326,31.1449 9.0206,31.3509 8.9196,31.5629 C8.8456,31.7179 8.7736,31.8759 8.7066,32.0339 C8.5046,32.5109 8.3366,33.0069 8.2056,33.5159 C8.0746,34.0259 7.9796,34.5499 7.9256,35.0869 C7.8896,35.4449 7.8706,35.8069 7.8706,36.1739 C7.8706,36.9069 8.1676,37.5699 8.6466,38.0489 C9.1276,38.5289 9.7896,38.8259 10.5216,38.8259 L21.4126,38.8259 L19.7646,48.2779 C17.8296,57.9879 18.4106,64.4819 19.9096,68.8099 C20.2436,69.7759 22.1456,73.1959 22.1456,73.1959 C16.6996,81.7889 8.3496,85.5449 -0.5794,86.6339 C-8.1704,87.5609 -24.5584,80.6389 -16.1084,72.6319 C-7.6594,64.6239 -17.8694,69.6019 -19.3724,70.6159 C-20.8754,71.6299 -29.5654,79.1379 -20.1344,90.1549 C-16.1464,94.8129 -11.6284,99.0489 -0.7594,102.2959 C0.9836,102.8159 10.4956,103.5069 15.6156,104.9769 C30.8616,109.3529 43.2566,104.5949 50.2016,94.5309 C57.1186,84.5079 51.2246,71.9799 49.4956,71.9449 Z" id="Stroke-37" stroke="#52267D" stroke-width="2" mask="url(#mask-4)"></path>
                </g>
                <g id="Group-42">
                    <mask id="mask-6" fill="white">
                        <use xlink:href="#path-5"></use>
                    </mask>
                    <g id="Clip-41"></g>
                    <path d="M40.0366,57.4742 C39.6866,46.2142 48.6236,37.3652 58.7796,35.4952 C60.8886,35.1072 61.5746,34.4452 63.8816,34.4452 L65.6476,34.4452 C71.5996,34.4452 76.4246,39.2702 76.4246,45.2212 C76.4246,46.7042 75.2216,47.9082 73.7376,47.9082 C73.7376,47.9082 55.6186,47.9032 55.5336,47.8942 C55.5326,47.8952 54.0576,47.8962 54.0566,47.8962 C54.0586,47.8982 55.5356,47.8992 55.5376,47.9012 C51.5306,49.6012 49.0366,54.7222 48.5976,57.4742 C47.9716,61.3922 48.4296,64.6242 49.7656,67.2392 C50.6566,68.9802 50.7576,71.0782 50.6206,72.7762 C50.6206,72.7762 50.5776,72.7912 50.5166,72.8122 C50.4546,73.7202 50.3076,74.7532 50.0366,75.9322 C48.3306,74.7432 45.6776,72.9532 45.1916,72.6982 C44.1446,72.1452 41.7816,70.8872 40.7236,70.2812 C33.9656,66.4062 40.2346,63.8782 40.0366,57.4742" id="Fill-40" fill="#9452BA" mask="url(#mask-6)"></path>
                </g>
                <g id="Group-45">
                    <mask id="mask-8" fill="white">
                        <use xlink:href="#path-7"></use>
                    </mask>
                    <g id="Clip-44"></g>
                    <path d="M40.0366,57.4742 C39.6866,46.2142 48.6236,37.3652 58.7796,35.4952 C60.8886,35.1072 61.5746,34.4452 63.8816,34.4452 L65.6476,34.4452 C71.5996,34.4452 76.4246,39.2702 76.4246,45.2212 C76.4246,46.7042 75.2216,47.9082 73.7376,47.9082 C73.7376,47.9082 55.6186,47.9032 55.5336,47.8942 C55.5326,47.8952 54.0576,47.8962 54.0566,47.8962 C54.0586,47.8982 55.5356,47.8992 55.5376,47.9012 C51.5306,49.6012 49.0366,54.7222 48.5976,57.4742 C47.9716,61.3922 48.4296,64.6242 49.7656,67.2392 C50.6566,68.9802 50.7576,71.0782 50.6206,72.7762 C50.6206,72.7762 50.5776,72.7912 50.5166,72.8122 C50.4546,73.7202 50.3076,74.7532 50.0366,75.9322 C48.3306,74.7432 45.6776,72.9532 45.1916,72.6982 C44.1446,72.1452 41.7816,70.8872 40.7236,70.2812 C33.9656,66.4062 40.2346,63.8782 40.0366,57.4742 Z" id="Stroke-43" stroke="#52267D" stroke-width="2" mask="url(#mask-8)"></path>
                </g>
                <g id="Group-49">
                    <mask id="mask-10" fill="white">
                        <use xlink:href="#path-9"></use>
                    </mask>
                    <g id="Clip-47"></g>
                    <path d="M45.8071,70.4839 C45.8961,68.7459 46.1611,67.8529 45.9661,67.1449 C44.8441,63.0719 44.4791,61.7859 44.4791,57.4739 C44.4791,53.1889 46.9611,48.9539 50.6261,46.7009 C50.8281,46.5769 53.4661,46.3909 55.5371,47.9009 C51.5311,49.6009 49.0361,54.7219 48.5971,57.4739 C47.9711,61.3919 48.4301,64.6249 49.7661,67.2389 C50.6571,68.9799 50.7581,71.0779 50.6201,72.7759 C50.6201,72.7759 45.7041,74.6219 45.8071,70.4839" id="Fill-46" fill="#F3E3FF" mask="url(#mask-10)"></path>
                    <path d="M45.8071,70.4839 C45.8961,68.7459 46.1611,67.8529 45.9661,67.1449 C44.8441,63.0719 44.4791,61.7859 44.4791,57.4739 C44.4791,53.1889 46.9611,48.9539 50.6261,46.7009 C50.8281,46.5769 53.4661,46.3909 55.5371,47.9009 C51.5311,49.6009 49.0361,54.7219 48.5971,57.4739 C47.9711,61.3919 48.4301,64.6249 49.7661,67.2389 C50.6571,68.9799 50.7581,71.0779 50.6201,72.7759 C50.6201,72.7759 45.7041,74.6219 45.8071,70.4839" id="Stroke-48" stroke="#52267D" mask="url(#mask-10)"></path>
                </g>
                <g id="Group-52">
                    <mask id="mask-12" fill="white">
                        <use xlink:href="#path-11"></use>
                    </mask>
                    <g id="Clip-51"></g>
                    <path d="M71.3032,36.2759 C71.3032,36.2759 71.3072,34.3939 69.4372,33.6459 C68.8662,33.4179 67.8242,32.9939 67.8242,32.9939 C67.8242,32.9939 66.7102,35.3489 67.9722,35.9429 C69.7882,36.7979 71.3032,36.2759 71.3032,36.2759" id="Fill-50" fill="#FFFFFF" mask="url(#mask-12)"></path>
                </g>
                <g id="Group-55">
                    <mask id="mask-14" fill="white">
                        <use xlink:href="#path-13"></use>
                    </mask>
                    <g id="Clip-54"></g>
                    <path d="M71.3032,36.2759 C71.3032,36.2759 71.3072,34.3939 69.4372,33.6459 C68.8662,33.4179 67.8242,32.9939 67.8242,32.9939 C67.8242,32.9939 66.7102,35.3489 67.9722,35.9429 C69.7882,36.7979 71.3032,36.2759 71.3032,36.2759 Z" id="Stroke-53" stroke="#52267D" mask="url(#mask-14)"></path>
                </g>
                <g id="Group-58">
                    <mask id="mask-16" fill="white">
                        <use xlink:href="#path-15"></use>
                    </mask>
                    <g id="Clip-57"></g>
                    <path d="M66.6216,34.9527 C66.6216,34.9527 66.5676,32.3887 63.6836,32.0147 C63.1446,31.9447 61.7416,31.9777 61.7416,31.9777 C61.7416,31.9777 61.0936,34.6917 62.6146,34.9527 C64.4846,35.2727 66.6216,34.9527 66.6216,34.9527" id="Fill-56" fill="#FFFFFF" mask="url(#mask-16)"></path>
                </g>
                <g id="Group-61">
                    <mask id="mask-18" fill="white">
                        <use xlink:href="#path-17"></use>
                    </mask>
                    <g id="Clip-60"></g>
                    <path d="M66.6216,34.9527 C66.6216,34.9527 66.5676,32.3887 63.6836,32.0147 C63.1446,31.9447 61.7416,31.9777 61.7416,31.9777 C61.7416,31.9777 61.0936,34.6917 62.6146,34.9527 C64.4846,35.2727 66.6216,34.9527 66.6216,34.9527 Z" id="Stroke-59" stroke="#52267D" mask="url(#mask-18)"></path>
                </g>
                <g id="Group-64">
                    <mask id="mask-20" fill="white">
                        <use xlink:href="#path-19"></use>
                    </mask>
                    <g id="Clip-63"></g>
                    <path d="M60.8852,35.1978 C60.8852,35.1978 60.5052,32.3538 57.9502,33.1358 C56.8592,33.4688 56.2532,34.2998 56.2532,34.2998 C56.2532,34.2998 56.7612,36.4648 57.7782,36.2208 C59.5522,35.7968 60.8852,35.1978 60.8852,35.1978" id="Fill-62" fill="#FFFFFF" mask="url(#mask-20)"></path>
                </g>
                <g id="Group-67">
                    <mask id="mask-22" fill="white">
                        <use xlink:href="#path-21"></use>
                    </mask>
                    <g id="Clip-66"></g>
                    <path d="M60.8852,35.1978 C60.8852,35.1978 60.5052,32.3538 57.9502,33.1358 C56.8592,33.4688 56.2532,34.2998 56.2532,34.2998 C56.2532,34.2998 56.7612,36.4648 57.7782,36.2208 C59.5522,35.7968 60.8852,35.1978 60.8852,35.1978 Z" id="Stroke-65" stroke="#52267D" mask="url(#mask-22)"></path>
                </g>
                <g id="Group-70">
                    <mask id="mask-24" fill="white">
                        <use xlink:href="#path-23"></use>
                    </mask>
                    <g id="Clip-69"></g>
                    <path d="M53.4663,49.0035 C53.4663,49.0035 47.5113,45.7665 48.6443,40.3175 C47.8533,40.9695 45.7383,42.9555 44.9723,43.9725 C44.9723,45.0385 44.7773,49.2745 50.6253,52.1105 C51.6543,51.0445 52.5203,49.7135 53.4663,49.0035" id="Fill-68" fill="#FFFFFF" mask="url(#mask-24)"></path>
                </g>
                <g id="Group-73">
                    <mask id="mask-26" fill="white">
                        <use xlink:href="#path-25"></use>
                    </mask>
                    <g id="Clip-72"></g>
                    <path d="M53.4663,49.0035 C53.4663,49.0035 47.5113,45.7665 48.6443,40.3175 C47.8533,40.9695 45.7383,42.9555 44.9723,43.9725 C44.9723,45.0385 44.7773,49.2745 50.6253,52.1105 C51.6543,51.0445 52.5203,49.7135 53.4663,49.0035 Z" id="Stroke-71" stroke="#52267D" mask="url(#mask-26)"></path>
                </g>
                <g id="Group-76">
                    <mask id="mask-28" fill="white">
                        <use xlink:href="#path-27"></use>
                    </mask>
                    <g id="Clip-75"></g>
                    <path d="M70.4917,35.7583 C70.4917,35.7583 70.4937,34.7833 69.5257,34.3973 C69.2307,34.2793 68.6917,34.0593 68.6917,34.0593 C68.6917,34.0593 68.1147,35.2793 68.7677,35.5853 C69.7087,36.0283 70.4917,35.7583 70.4917,35.7583" id="Fill-74" fill="#F3E3FF" mask="url(#mask-28)"></path>
                </g>
                <g id="Group-79">
                    <mask id="mask-30" fill="white">
                        <use xlink:href="#path-29"></use>
                    </mask>
                    <g id="Clip-78"></g>
                    <path d="M65.3901,34.3726 C65.3901,34.3726 65.3631,33.0646 63.8921,32.8746 C63.6181,32.8386 62.9021,32.8556 62.9021,32.8556 C62.9021,32.8556 62.5721,34.2396 63.3471,34.3726 C64.3001,34.5356 65.3901,34.3726 65.3901,34.3726" id="Fill-77" fill="#F3E3FF" mask="url(#mask-30)"></path>
                </g>
                <g id="Group-82">
                    <mask id="mask-32" fill="white">
                        <use xlink:href="#path-31"></use>
                    </mask>
                    <g id="Clip-81"></g>
                    <path d="M59.9663,34.9937 C59.9663,34.9937 59.7653,33.4837 58.4093,33.8987 C57.8303,34.0767 57.5083,34.5157 57.5083,34.5157 C57.5083,34.5157 57.7783,35.6657 58.3183,35.5367 C59.2593,35.3107 59.9663,34.9937 59.9663,34.9937" id="Fill-80" fill="#F3E3FF" mask="url(#mask-32)"></path>
                </g>
                <g id="Group-85">
                    <mask id="mask-34" fill="white">
                        <use xlink:href="#path-33"></use>
                    </mask>
                    <g id="Clip-84"></g>
                    <path d="M61.4975,46.1031 L66.9435,46.1031 C66.9435,43.3611 64.7205,41.1371 61.9765,41.1371 L61.4975,41.1371 C60.1265,41.1371 59.0155,42.2491 59.0155,43.6211 C59.0155,44.9921 60.1265,46.1031 61.4975,46.1031" id="Fill-83" fill="#F3E3FF" mask="url(#mask-34)"></path>
                </g>
                <g id="Group-88">
                    <mask id="mask-36" fill="white">
                        <use xlink:href="#path-35"></use>
                    </mask>
                    <g id="Clip-87"></g>
                    <path d="M61.9565,46.0103 L66.8505,46.0103 C66.8505,43.8553 65.1025,42.1093 62.9475,42.1093 L61.9565,42.1093 C60.8795,42.1093 60.0055,42.9823 60.0055,44.0593 C60.0055,45.1373 60.8795,46.0103 61.9565,46.0103" id="Fill-86" fill="#FFFFFF" mask="url(#mask-36)"></path>
                </g>
                <g id="Group-91">
                    <mask id="mask-38" fill="white">
                        <use xlink:href="#path-37"></use>
                    </mask>
                    <g id="Clip-90"></g>
                    <path d="M61.9565,46.0103 L66.8505,46.0103 C66.8505,43.8553 65.1025,42.1093 62.9475,42.1093 L61.9565,42.1093 C60.8795,42.1093 60.0055,42.9823 60.0055,44.0593 C60.0055,45.1373 60.8795,46.0103 61.9565,46.0103 Z" id="Stroke-89" stroke="#52267D" mask="url(#mask-38)"></path>
                </g>
                <g id="Group-94">
                    <mask id="mask-40" fill="white">
                        <use xlink:href="#path-39"></use>
                    </mask>
                    <g id="Clip-93"></g>
                    <path d="M65.9634,43.9449 C65.9634,44.5469 65.4764,45.0349 64.8734,45.0349 C64.2724,45.0349 63.7844,44.5469 63.7844,43.9449 C63.7844,43.3419 64.2724,42.8549 64.8734,42.8549 C65.4764,42.8549 65.9634,43.3419 65.9634,43.9449" id="Fill-92" fill="#52267D" mask="url(#mask-40)"></path>
                </g>
                <g id="Group-97">
                    <mask id="mask-42" fill="white">
                        <use xlink:href="#path-41"></use>
                    </mask>
                    <g id="Clip-96"></g>
                    <path d="M73.9868,47.0894 C73.6768,47.0234 73.3998,46.8514 73.2038,46.6034 L72.8388,46.1434 L73.6518,46.3184 L74.1308,46.4204 C74.3148,46.4604 74.4318,46.6424 74.3928,46.8264 C74.3528,47.0114 74.1718,47.1284 73.9868,47.0894" id="Fill-95" fill="#52267D" mask="url(#mask-42)"></path>
                </g>
                <g id="Group-100">
                    <mask id="mask-44" fill="white">
                        <use xlink:href="#path-43"></use>
                    </mask>
                    <g id="Clip-99"></g>
                    <path d="M52.4604,49.1109 C52.4604,49.1109 47.8724,46.6409 47.9424,41.6649 C45.9714,43.1009 45.4374,44.0289 45.4374,44.0289 C45.4374,44.0289 45.7804,46.3979 46.8844,47.5929 C48.5784,49.4279 50.3434,49.9939 52.4604,49.1109" id="Fill-98" fill="#E1F2FF" mask="url(#mask-44)"></path>
                </g>
                <g id="Group-104">
                    <mask id="mask-46" fill="white">
                        <use xlink:href="#path-45"></use>
                    </mask>
                    <g id="Clip-102"></g>
                    <path d="M48.1167,48.2369 C48.1167,48.2369 49.9267,50.0779 51.6907,50.9609" id="Fill-101" fill="#FFFFFF" mask="url(#mask-46)"></path>
                    <path d="M48.1167,48.2369 C48.1167,48.2369 49.9267,50.0779 51.6907,50.9609" id="Stroke-103" stroke="#52267D" mask="url(#mask-46)"></path>
                </g>
                <g id="Group-108">
                    <mask id="mask-48" fill="white">
                        <use xlink:href="#path-47"></use>
                    </mask>
                    <g id="Clip-106"></g>
                    <path d="M30.1255,67.5855 L31.1475,65.5675 C34.9655,56.1875 35.5535,50.6785 33.5735,41.7245 L32.4135,36.4795 C32.0335,34.7575 31.8415,33.0005 31.8415,31.2375 C31.8415,25.3625 36.6045,20.6015 42.4785,20.6015 L44.1955,20.6015 C49.9895,20.6015 54.6875,25.2985 54.6875,31.0925 L54.6875,31.3935 C54.6875,32.7725 53.5685,33.8895 52.1905,33.8895 L41.3165,33.8895 L42.9655,43.3415 C48.0125,68.6725 47.5065,78.9415 37.5745,76.8315" id="Fill-105" fill="#9452BA" mask="url(#mask-48)"></path>
                    <path d="M30.1255,67.5855 L31.1475,65.5675 C34.9655,56.1875 35.5535,50.6785 33.5735,41.7245 L32.4135,36.4795 C32.0335,34.7575 31.8415,33.0005 31.8415,31.2375 C31.8415,25.3625 36.6045,20.6015 42.4785,20.6015 L44.1955,20.6015 C49.9895,20.6015 54.6875,25.2985 54.6875,31.0925 L54.6875,31.3935 C54.6875,32.7725 53.5685,33.8895 52.1905,33.8895 L41.3165,33.8895 L42.9655,43.3415 C48.0125,68.6725 47.5065,78.9415 37.5745,76.8315" id="Stroke-107" stroke="#52267D" stroke-width="2" mask="url(#mask-48)"></path>
                </g>
                <g id="Group-111">
                    <mask id="mask-50" fill="white">
                        <use xlink:href="#path-49"></use>
                    </mask>
                    <g id="Clip-110"></g>
                    <path d="M49.4448,21.8599 C49.4448,21.8599 49.2698,20.0159 47.4378,19.2839 C46.8788,19.0599 46.0038,19.2969 46.0038,19.2969 C46.0038,19.2969 44.9458,20.9519 46.1818,21.5339 C47.9618,22.3719 49.4448,21.8599 49.4448,21.8599" id="Fill-109" fill="#FFFFFF" mask="url(#mask-50)"></path>
                </g>
                <g id="Group-114">
                    <mask id="mask-52" fill="white">
                        <use xlink:href="#path-51"></use>
                    </mask>
                    <g id="Clip-113"></g>
                    <path d="M49.4448,21.8599 C49.4448,21.8599 49.2698,20.0159 47.4378,19.2839 C46.8788,19.0599 46.0038,19.2969 46.0038,19.2969 C46.0038,19.2969 44.9458,20.9519 46.1818,21.5339 C47.9618,22.3719 49.4448,21.8599 49.4448,21.8599 Z" id="Stroke-112" stroke="#52267D" mask="url(#mask-52)"></path>
                </g>
                <g id="Group-117">
                    <mask id="mask-54" fill="white">
                        <use xlink:href="#path-53"></use>
                    </mask>
                    <g id="Clip-116"></g>
                    <path d="M45.0825,21.2515 C45.0825,21.2515 45.0215,18.3475 41.7555,17.9245 C41.1455,17.8455 40.3635,17.9045 40.3635,17.9045 C40.3635,17.9045 38.8225,20.9565 40.5455,21.2515 C42.6625,21.6145 45.0825,21.2515 45.0825,21.2515" id="Fill-115" fill="#FFFFFF" mask="url(#mask-54)"></path>
                </g>
                <g id="Group-120">
                    <mask id="mask-56" fill="white">
                        <use xlink:href="#path-55"></use>
                    </mask>
                    <g id="Clip-119"></g>
                    <path d="M45.0825,21.2515 C45.0825,21.2515 45.0215,18.3475 41.7555,17.9245 C41.1455,17.8455 40.3635,17.9045 40.3635,17.9045 C40.3635,17.9045 38.8225,20.9565 40.5455,21.2515 C42.6625,21.6145 45.0825,21.2515 45.0825,21.2515 Z" id="Stroke-118" stroke="#52267D" mask="url(#mask-56)"></path>
                </g>
                <g id="Group-123">
                    <mask id="mask-58" fill="white">
                        <use xlink:href="#path-57"></use>
                    </mask>
                    <g id="Clip-122"></g>
                    <path d="M39.2378,21.9126 C39.2378,21.9126 38.7948,19.1366 36.3118,19.9656 C35.2518,20.3196 34.6778,21.1466 34.6778,21.1466 C34.6778,21.1466 35.2308,23.2556 36.2198,22.9916 C37.9468,22.5316 39.2378,21.9126 39.2378,21.9126" id="Fill-121" fill="#FFFFFF" mask="url(#mask-58)"></path>
                </g>
                <g id="Group-126">
                    <mask id="mask-60" fill="white">
                        <use xlink:href="#path-59"></use>
                    </mask>
                    <g id="Clip-125"></g>
                    <path d="M39.2378,21.9126 C39.2378,21.9126 38.7948,19.1366 36.3118,19.9656 C35.2518,20.3196 34.6778,21.1466 34.6778,21.1466 C34.6778,21.1466 35.2308,23.2556 36.2198,22.9916 C37.9468,22.5316 39.2378,21.9126 39.2378,21.9126 Z" id="Stroke-124" stroke="#52267D" mask="url(#mask-60)"></path>
                </g>
                <g id="Group-130">
                    <mask id="mask-62" fill="white">
                        <use xlink:href="#path-61"></use>
                    </mask>
                    <g id="Clip-128"></g>
                    <path d="M49.2671,71.6089 C48.6471,71.1439 48.0201,70.8769 47.4801,70.7479" id="Fill-127" fill="#F3E3FF" mask="url(#mask-62)"></path>
                    <path d="M49.2671,71.6089 C48.6471,71.1439 48.0201,70.8769 47.4801,70.7479" id="Stroke-129" stroke="#52267D" mask="url(#mask-62)"></path>
                </g>
                <g id="Group-134">
                    <mask id="mask-64" fill="white">
                        <use xlink:href="#path-63"></use>
                    </mask>
                    <g id="Clip-132"></g>
                    <path d="M45.6665,71.5513 C47.4435,64.3293 44.2375,50.5223 43.6475,47.1233 L41.3135,33.5083 L40.2905,33.5083 C38.9945,33.5083 38.0135,34.9173 38.1965,36.2023 L39.8895,48.0123 C40.4615,52.0113 41.0575,70.5263 34.1085,74.5033 C32.6265,75.3523 30.2165,74.7953 29.3095,74.3623 C26.0065,72.7843 25.0575,68.6663 24.3335,65.3473 C22.8355,58.4783 24.0025,53.0853 24.3335,47.7003 L24.6825,40.9633 C24.7445,39.7453 23.7755,38.4523 22.5595,38.4523 L21.3175,38.4523 L19.0815,52.0693 C18.4085,55.9463 16.6785,69.3903 24.6005,75.6943 C24.7435,75.8083 22.6745,76.2713 23.2735,77.3313 C25.6565,81.5433 32.5625,82.2093 33.8615,84.0133 C38.8685,90.9573 34.1795,105.7533 34.1795,105.7533 C34.1795,105.7533 39.7365,103.5353 43.1785,100.4503 C51.2255,93.2393 52.2465,82.7933 52.2835,79.7173 C52.3285,76.0383 51.3615,73.7563 50.1725,72.3953" id="Fill-131" fill="#F3E3FF" mask="url(#mask-64)"></path>
                    <path d="M45.6665,71.5513 C47.4435,64.3293 44.2375,50.5223 43.6475,47.1233 L41.3135,33.5083 L40.2905,33.5083 C38.9945,33.5083 38.0135,34.9173 38.1965,36.2023 L39.8895,48.0123 C40.4615,52.0113 41.0575,70.5263 34.1085,74.5033 C32.6265,75.3523 30.2165,74.7953 29.3095,74.3623 C26.0065,72.7843 25.0575,68.6663 24.3335,65.3473 C22.8355,58.4783 24.0025,53.0853 24.3335,47.7003 L24.6825,40.9633 C24.7445,39.7453 23.7755,38.4523 22.5595,38.4523 L21.3175,38.4523 L19.0815,52.0693 C18.4085,55.9463 16.6785,69.3903 24.6005,75.6943 C24.7435,75.8083 22.6745,76.2713 23.2735,77.3313 C25.6565,81.5433 32.5625,82.2093 33.8615,84.0133 C38.8685,90.9573 34.1795,105.7533 34.1795,105.7533 C34.1795,105.7533 39.7365,103.5353 43.1785,100.4503 C51.2255,93.2393 52.2465,82.7933 52.2835,79.7173 C52.3285,76.0383 51.3615,73.7563 50.1725,72.3953" id="Stroke-133" stroke="#52267D" mask="url(#mask-64)"></path>
                </g>
                <g id="Group-137">
                    <mask id="mask-66" fill="white">
                        <use xlink:href="#path-65"></use>
                    </mask>
                    <g id="Clip-136"></g>
                    <path d="M-19.648,77.5757 C-19.648,77.5757 -20.791,76.3097 -20.148,74.6097 C-19.952,74.0917 -19.246,73.6437 -19.246,73.6437 C-19.246,73.6437 -17.463,73.9557 -17.838,75.1577 C-18.377,76.8877 -19.648,77.5757 -19.648,77.5757" id="Fill-135" fill="#FFFFFF" mask="url(#mask-66)"></path>
                </g>
                <g id="Group-140">
                    <mask id="mask-68" fill="white">
                        <use xlink:href="#path-67"></use>
                    </mask>
                    <g id="Clip-139"></g>
                    <path d="M-19.648,77.5757 C-19.648,77.5757 -20.791,76.3097 -20.148,74.6097 C-19.952,74.0917 -19.246,73.6437 -19.246,73.6437 C-19.246,73.6437 -17.463,73.9557 -17.838,75.1577 C-18.377,76.8877 -19.648,77.5757 -19.648,77.5757 Z" id="Stroke-138" stroke="#52267D" mask="url(#mask-68)"></path>
                </g>
                <g id="Group-143">
                    <mask id="mask-70" fill="white">
                        <use xlink:href="#path-69"></use>
                    </mask>
                    <g id="Clip-142"></g>
                    <path d="M-19.2691,75.8169 C-19.2691,75.8169 -19.6701,75.3729 -19.4451,74.7759 C-19.3761,74.5939 -19.1281,74.4379 -19.1281,74.4379 C-19.1281,74.4379 -18.5031,74.5459 -18.6351,74.9679 C-18.8241,75.5749 -19.2691,75.8169 -19.2691,75.8169" id="Fill-141" fill="#F3E3FF" mask="url(#mask-70)"></path>
                </g>
                <g id="Group-146">
                    <mask id="mask-72" fill="white">
                        <use xlink:href="#path-71"></use>
                    </mask>
                    <g id="Clip-145"></g>
                    <path d="M41.8432,36.8287 C41.8432,36.8287 37.9702,39.0177 32.5252,37.0417 C32.8992,38.7307 33.6592,42.1257 33.6592,42.1257 C33.6592,42.1257 38.7042,43.6727 42.5962,41.2247 C42.1972,38.9827 41.8432,36.8287 41.8432,36.8287" id="Fill-144" fill="#FFFFFF" mask="url(#mask-72)"></path>
                </g>
                <g id="Group-149">
                    <mask id="mask-74" fill="white">
                        <use xlink:href="#path-73"></use>
                    </mask>
                    <g id="Clip-148"></g>
                    <path d="M41.8432,36.8287 C41.8432,36.8287 37.9702,39.0177 32.5252,37.0417 C32.8992,38.7307 33.6592,42.1257 33.6592,42.1257 C33.6592,42.1257 38.7042,43.6727 42.5962,41.2247 C42.1972,38.9827 41.8432,36.8287 41.8432,36.8287 Z" id="Stroke-147" stroke="#52267D" mask="url(#mask-74)"></path>
                </g>
                <g id="Group-152">
                    <mask id="mask-76" fill="white">
                        <use xlink:href="#path-75"></use>
                    </mask>
                    <g id="Clip-151"></g>
                    <path d="M12.8638,26.9869 C12.8638,26.9869 13.0408,25.1299 14.8858,24.3909 C15.4488,24.1669 16.9688,24.1049 16.9688,24.1049 C16.9688,24.1049 17.3968,26.0729 16.1518,26.6589 C14.3588,27.5029 12.8638,26.9869 12.8638,26.9869" id="Fill-150" fill="#FFFFFF" mask="url(#mask-76)"></path>
                </g>
                <g id="Group-155">
                    <mask id="mask-78" fill="white">
                        <use xlink:href="#path-77"></use>
                    </mask>
                    <g id="Clip-154"></g>
                    <path d="M12.8638,26.9869 C12.8638,26.9869 13.0408,25.1299 14.8858,24.3909 C15.4488,24.1669 16.9688,24.1049 16.9688,24.1049 C16.9688,24.1049 17.3968,26.0729 16.1518,26.6589 C14.3588,27.5029 12.8638,26.9869 12.8638,26.9869 Z" id="Stroke-153" stroke="#52267D" mask="url(#mask-78)"></path>
                </g>
                <g id="Group-158">
                    <mask id="mask-80" fill="white">
                        <use xlink:href="#path-79"></use>
                    </mask>
                    <g id="Clip-157"></g>
                    <path d="M17.5464,26.0386 C17.5464,26.0386 17.5994,23.5076 20.4464,23.1386 C20.9784,23.0696 21.6594,23.1216 21.6594,23.1216 C21.6594,23.1216 23.0034,25.7806 21.5014,26.0386 C19.6554,26.3546 17.5464,26.0386 17.5464,26.0386" id="Fill-156" fill="#FFFFFF" mask="url(#mask-80)"></path>
                </g>
                <g id="Group-161">
                    <mask id="mask-82" fill="white">
                        <use xlink:href="#path-81"></use>
                    </mask>
                    <g id="Clip-160"></g>
                    <path d="M17.5464,26.0386 C17.5464,26.0386 17.5994,23.5076 20.4464,23.1386 C20.9784,23.0696 21.6594,23.1216 21.6594,23.1216 C21.6594,23.1216 23.0034,25.7806 21.5014,26.0386 C19.6554,26.3546 17.5464,26.0386 17.5464,26.0386 Z" id="Stroke-159" stroke="#52267D" mask="url(#mask-82)"></path>
                </g>
                <g id="Group-164">
                    <mask id="mask-84" fill="white">
                        <use xlink:href="#path-83"></use>
                    </mask>
                    <g id="Clip-163"></g>
                    <path d="M22.9409,26.2222 C22.9409,26.2222 23.3869,23.4252 25.8879,24.2612 C26.9569,24.6182 27.5339,25.4512 27.5339,25.4512 C27.5339,25.4512 26.9779,27.5762 25.9809,27.3102 C24.2409,26.8462 22.9409,26.2222 22.9409,26.2222" id="Fill-162" fill="#FFFFFF" mask="url(#mask-84)"></path>
                </g>
                <g id="Group-167">
                    <mask id="mask-86" fill="white">
                        <use xlink:href="#path-85"></use>
                    </mask>
                    <g id="Clip-166"></g>
                    <path d="M22.9409,26.2222 C22.9409,26.2222 23.3869,23.4252 25.8879,24.2612 C26.9569,24.6182 27.5339,25.4512 27.5339,25.4512 C27.5339,25.4512 26.9779,27.5762 25.9809,27.3102 C24.2409,26.8462 22.9409,26.2222 22.9409,26.2222 Z" id="Stroke-165" stroke="#52267D" mask="url(#mask-86)"></path>
                </g>
                <g id="Group-170">
                    <mask id="mask-88" fill="white">
                        <use xlink:href="#path-87"></use>
                    </mask>
                    <g id="Clip-169"></g>
                    <path d="M48.4848,21.3941 C48.4848,21.3941 48.3918,20.4091 47.4138,20.0171 C47.1148,19.8981 46.6468,20.0251 46.6468,20.0251 C46.6468,20.0251 46.0818,20.9091 46.7428,21.2191 C47.6928,21.6661 48.4848,21.3941 48.4848,21.3941" id="Fill-168" fill="#F3E3FF" mask="url(#mask-88)"></path>
                </g>
                <g id="Group-173">
                    <mask id="mask-90" fill="white">
                        <use xlink:href="#path-89"></use>
                    </mask>
                    <g id="Clip-172"></g>
                    <path d="M44.0073,20.7632 C44.0073,20.7632 43.9693,18.9432 41.9213,18.6772 C41.5393,18.6272 41.0483,18.6652 41.0483,18.6652 C41.0483,18.6652 40.0823,20.5782 41.1623,20.7632 C42.4893,20.9912 44.0073,20.7632 44.0073,20.7632" id="Fill-171" fill="#F3E3FF" mask="url(#mask-90)"></path>
                </g>
                <g id="Group-176">
                    <mask id="mask-92" fill="white">
                        <use xlink:href="#path-91"></use>
                    </mask>
                    <g id="Clip-175"></g>
                    <path d="M38.1597,21.6333 C38.1597,21.6333 37.9037,20.0303 36.4717,20.5093 C35.8587,20.7143 35.5277,21.1923 35.5277,21.1923 C35.5277,21.1923 35.8467,22.4083 36.4177,22.2563 C37.4147,21.9903 38.1597,21.6333 38.1597,21.6333" id="Fill-174" fill="#F3E3FF" mask="url(#mask-92)"></path>
                </g>
                <g id="Group-179">
                    <mask id="mask-94" fill="white">
                        <use xlink:href="#path-93"></use>
                    </mask>
                    <g id="Clip-178"></g>
                    <path d="M13.7807,26.5123 C13.7807,26.5123 13.8737,25.5313 14.8487,25.1403 C15.1467,25.0213 15.9507,24.9893 15.9507,24.9893 C15.9507,24.9893 16.1767,26.0293 15.5187,26.3393 C14.5707,26.7843 13.7807,26.5123 13.7807,26.5123" id="Fill-177" fill="#F3E3FF" mask="url(#mask-94)"></path>
                </g>
                <g id="Group-182">
                    <mask id="mask-96" fill="white">
                        <use xlink:href="#path-95"></use>
                    </mask>
                    <g id="Clip-181"></g>
                    <path d="M18.6518,25.5923 C18.6518,25.5923 18.6808,24.1933 20.2558,23.9883 C20.5488,23.9503 20.9258,23.9803 20.9258,23.9803 C20.9258,23.9803 21.6688,25.4493 20.8388,25.5923 C19.8178,25.7673 18.6518,25.5923 18.6518,25.5923" id="Fill-180" fill="#F3E3FF" mask="url(#mask-96)"></path>
                </g>
                <g id="Group-185">
                    <mask id="mask-98" fill="white">
                        <use xlink:href="#path-97"></use>
                    </mask>
                    <g id="Clip-184"></g>
                    <path d="M23.936,26.0318 C23.936,26.0318 24.18,24.5028 25.548,24.9598 C26.133,25.1548 26.449,25.6108 26.449,25.6108 C26.449,25.6108 26.145,26.7728 25.599,26.6278 C24.647,26.3738 23.936,26.0318 23.936,26.0318" id="Fill-183" fill="#F3E3FF" mask="url(#mask-98)"></path>
                </g>
                <g id="Group-188">
                    <mask id="mask-100" fill="white">
                        <use xlink:href="#path-99"></use>
                    </mask>
                    <g id="Clip-187"></g>
                    <path d="M30.269,41.6246 C30.269,41.6246 25.473,42.3726 20.912,41.2536 C20.466,43.7316 20.181,45.6036 20.181,45.6036 C20.181,45.6036 23.345,47.7516 29.19,46.5056 C29.879,43.3216 30.269,41.6246 30.269,41.6246" id="Fill-186" fill="#FFFFFF" mask="url(#mask-100)"></path>
                </g>
                <g id="Group-191">
                    <mask id="mask-102" fill="white">
                        <use xlink:href="#path-101"></use>
                    </mask>
                    <g id="Clip-190"></g>
                    <path d="M30.269,41.6246 C30.269,41.6246 25.473,42.3726 20.912,41.2536 C20.466,43.7316 20.181,45.6036 20.181,45.6036 C20.181,45.6036 23.345,47.7516 29.19,46.5056 C29.879,43.3216 30.269,41.6246 30.269,41.6246 Z" id="Stroke-189" stroke="#52267D" mask="url(#mask-102)"></path>
                </g>
                <g id="Group-194">
                    <mask id="mask-104" fill="white">
                        <use xlink:href="#path-103"></use>
                    </mask>
                    <g id="Clip-193"></g>
                    <path d="M22.3364,36.8072 L16.8914,36.8072 C16.8914,34.0642 19.1144,31.8412 21.8574,31.8412 L22.3364,31.8412 C23.7074,31.8412 24.8194,32.9532 24.8194,34.3242 C24.8194,35.6962 23.7074,36.8072 22.3364,36.8072" id="Fill-192" fill="#F3E3FF" mask="url(#mask-104)"></path>
                </g>
                <g id="Group-197">
                    <mask id="mask-106" fill="white">
                        <use xlink:href="#path-105"></use>
                    </mask>
                    <g id="Clip-196"></g>
                    <path d="M21.7397,36.7134 L16.9847,36.7134 C16.9847,34.5594 18.7307,32.8124 20.8857,32.8124 L22.0147,32.8124 C23.0167,32.8124 23.8287,33.6234 23.8287,34.6254 C23.8287,35.7784 22.8927,36.7134 21.7397,36.7134" id="Fill-195" fill="#FFFFFF" mask="url(#mask-106)"></path>
                </g>
                <g id="Group-200">
                    <mask id="mask-108" fill="white">
                        <use xlink:href="#path-107"></use>
                    </mask>
                    <g id="Clip-199"></g>
                    <path d="M21.7397,36.7134 L16.9847,36.7134 C16.9847,34.5594 18.7307,32.8124 20.8857,32.8124 L22.0147,32.8124 C23.0167,32.8124 23.8287,33.6234 23.8287,34.6254 C23.8287,35.7784 22.8927,36.7134 21.7397,36.7134 Z" id="Stroke-198" stroke="#52267D" mask="url(#mask-108)"></path>
                </g>
                <g id="Group-203">
                    <mask id="mask-110" fill="white">
                        <use xlink:href="#path-109"></use>
                    </mask>
                    <g id="Clip-202"></g>
                    <path d="M20.7378,34.8003 C21.0008,34.2593 20.7748,33.6073 20.2338,33.3443 C19.6928,33.0803 19.0408,33.3063 18.7778,33.8473 C18.5138,34.3893 18.7398,35.0403 19.2808,35.3043 C19.8228,35.5673 20.4738,35.3413 20.7378,34.8003" id="Fill-201" fill="#52267D" mask="url(#mask-110)"></path>
                </g>
                <g id="Group-206">
                    <mask id="mask-112" fill="white">
                        <use xlink:href="#path-111"></use>
                    </mask>
                    <g id="Clip-205"></g>
                    <path d="M41.1792,32.0992 L46.6242,32.0992 C46.6242,29.3562 44.4012,27.1322 41.6582,27.1322 L41.1792,27.1322 C39.8082,27.1322 38.6962,28.2452 38.6962,29.6162 C38.6962,30.9872 39.8082,32.0992 41.1792,32.0992" id="Fill-204" fill="#F3E3FF" mask="url(#mask-112)"></path>
                </g>
                <g id="Group-209">
                    <mask id="mask-114" fill="white">
                        <use xlink:href="#path-113"></use>
                    </mask>
                    <g id="Clip-208"></g>
                    <path d="M41.6382,32.0054 L46.5312,32.0054 C46.5312,29.8514 44.7842,28.1044 42.6292,28.1044 L41.6372,28.1044 C40.5602,28.1044 39.6872,28.9774 39.6872,30.0544 C39.6872,31.1324 40.5602,32.0054 41.6382,32.0054" id="Fill-207" fill="#FFFFFF" mask="url(#mask-114)"></path>
                </g>
                <g id="Group-212">
                    <mask id="mask-116" fill="white">
                        <use xlink:href="#path-115"></use>
                    </mask>
                    <g id="Clip-211"></g>
                    <path d="M41.6382,32.0054 L46.5312,32.0054 C46.5312,29.8514 44.7842,28.1044 42.6292,28.1044 L41.6372,28.1044 C40.5602,28.1044 39.6872,28.9774 39.6872,30.0544 C39.6872,31.1324 40.5602,32.0054 41.6382,32.0054 Z" id="Stroke-210" stroke="#52267D" mask="url(#mask-116)"></path>
                </g>
                <g id="Group-215">
                    <mask id="mask-118" fill="white">
                        <use xlink:href="#path-117"></use>
                    </mask>
                    <g id="Clip-214"></g>
                    <path d="M44.7759,29.5806 C44.7759,30.1826 44.2879,30.6706 43.6859,30.6706 C43.0839,30.6706 42.5959,30.1826 42.5959,29.5806 C42.5959,28.9786 43.0839,28.4906 43.6859,28.4906 C44.2879,28.4906 44.7759,28.9786 44.7759,29.5806" id="Fill-213" fill="#52267D" mask="url(#mask-118)"></path>
                </g>
                <g id="Group-218">
                    <mask id="mask-120" fill="white">
                        <use xlink:href="#path-119"></use>
                    </mask>
                    <g id="Clip-217"></g>
                    <path d="M10.3306,37.94 C10.6406,37.874 10.9176,37.702 11.1136,37.454 L11.4786,36.995 L10.6666,37.169 L10.1866,37.272 C10.0026,37.311 9.8856,37.493 9.9246,37.677 C9.9646,37.862 10.1456,37.98 10.3306,37.94" id="Fill-216" fill="#52267D" mask="url(#mask-120)"></path>
                </g>
                <g id="Group-221">
                    <mask id="mask-122" fill="white">
                        <use xlink:href="#path-121"></use>
                    </mask>
                    <g id="Clip-220"></g>
                    <path d="M52.3364,32.8443 C52.0264,32.7783 51.7494,32.6063 51.5524,32.3583 L51.1874,31.8993 L52.0004,32.0733 L52.4804,32.1753 C52.6644,32.2153 52.7814,32.3973 52.7414,32.5813 C52.7024,32.7663 52.5214,32.8833 52.3364,32.8443" id="Fill-219" fill="#52267D" mask="url(#mask-122)"></path>
                </g>
                <g id="Group-224">
                    <mask id="mask-124" fill="white">
                        <use xlink:href="#path-123"></use>
                    </mask>
                    <g id="Clip-223"></g>
                    <path d="M41.3784,37.5357 C41.3784,37.5357 37.3194,39.2647 33.2274,37.6837 C33.6554,40.0857 34.0384,41.3117 34.0384,41.3117 C34.0384,41.3117 36.5014,41.4567 38.1324,41.1357 C40.4614,40.6767 41.3784,39.6177 41.3784,37.5357" id="Fill-222" fill="#E1F2FF" mask="url(#mask-124)"></path>
                </g>
                <g id="Group-228">
                    <mask id="mask-126" fill="white">
                        <use xlink:href="#path-125"></use>
                    </mask>
                    <g id="Clip-226"></g>
                    <path d="M35.7319,40.6138 C35.7319,40.6138 39.4249,40.9228 42.2839,39.4398" id="Fill-225" fill="#FFFFFF" mask="url(#mask-126)"></path>
                    <path d="M35.7319,40.6138 C35.7319,40.6138 39.4249,40.9228 42.2839,39.4398" id="Stroke-227" stroke="#52267D" mask="url(#mask-126)"></path>
                </g>
                <g id="Group-231">
                    <mask id="mask-128" fill="white">
                        <use xlink:href="#path-127"></use>
                    </mask>
                    <g id="Clip-230"></g>
                    <path d="M22.6684,42.1656 C22.6684,42.1656 26.2684,43.1886 29.4444,42.5546 C28.8444,44.9186 28.5264,45.6596 28.5264,45.6596 C28.5264,45.6596 23.7624,45.0236 22.6684,42.1656" id="Fill-229" fill="#E1F2FF" mask="url(#mask-128)"></path>
                </g>
                <g id="Group-235">
                    <mask id="mask-130" fill="white">
                        <use xlink:href="#path-129"></use>
                    </mask>
                    <g id="Clip-233"></g>
                    <path d="M22.3218,43.5269 C22.3218,43.5269 25.9448,44.2139 29.7918,43.7549" id="Fill-232" fill="#FFFFFF" mask="url(#mask-130)"></path>
                    <path d="M22.3218,43.5269 C22.3218,43.5269 25.9448,44.2139 29.7918,43.7549" id="Stroke-234" stroke="#52267D" mask="url(#mask-130)"></path>
                </g>
                <g id="Group-290">
                    <g id="Group-238">
                        <mask id="mask-132" fill="white">
                            <use xlink:href="#path-131"></use>
                        </mask>
                        <g id="Clip-237"></g>
                        <path d="M72.8667,43.4869 C72.8667,43.7829 72.6277,44.0229 72.3317,44.0229 C72.0357,44.0229 71.7957,43.7829 71.7957,43.4869" id="Stroke-236" stroke="#F3E3FF" stroke-width="0.25" mask="url(#mask-132)"></path>
                    </g>
                    <g id="Group-241">
                        <mask id="mask-134" fill="white">
                            <use xlink:href="#path-133"></use>
                        </mask>
                        <g id="Clip-240"></g>
                        <path d="M73.9389,43.4869 C73.9389,43.7829 73.6989,44.0229 73.4029,44.0229 C73.1069,44.0229 72.8669,43.7829 72.8669,43.4869" id="Stroke-239" stroke="#F3E3FF" stroke-width="0.25" mask="url(#mask-134)"></path>
                    </g>
                    <g id="Group-244">
                        <mask id="mask-136" fill="white">
                            <use xlink:href="#path-135"></use>
                        </mask>
                        <g id="Clip-243"></g>
                        <path d="M73.4028,44.023 C73.4028,44.319 73.1628,44.558 72.8668,44.558 C72.5708,44.558 72.3318,44.319 72.3318,44.023" id="Stroke-242" stroke="#F3E3FF" stroke-width="0.25" mask="url(#mask-136)"></path>
                    </g>
                    <g id="Group-247">
                        <mask id="mask-138" fill="white">
                            <use xlink:href="#path-137"></use>
                        </mask>
                        <g id="Clip-246"></g>
                        <path d="M52.3364,42.9849 C51.9664,43.2149 51.4794,43.1009 51.2494,42.7309 C51.0194,42.3609 51.1324,41.8739 51.5034,41.6429" id="Stroke-245" stroke="#F3E3FF" stroke-width="0.25" mask="url(#mask-138)"></path>
                    </g>
                    <g id="Group-250">
                        <mask id="mask-140" fill="white">
                            <use xlink:href="#path-139"></use>
                        </mask>
                        <g id="Clip-249"></g>
                        <path d="M52.0825,44.0728 C51.7125,44.3018 51.2255,44.1888 50.9955,43.8178 C50.7655,43.4478 50.8785,42.9618 51.2495,42.7308" id="Stroke-248" stroke="#F3E3FF" stroke-width="0.25" mask="url(#mask-140)"></path>
                    </g>
                    <g id="Group-253">
                        <mask id="mask-142" fill="white">
                            <use xlink:href="#path-141"></use>
                        </mask>
                        <g id="Clip-252"></g>
                        <path d="M26.9097,60.9849 C26.9097,61.3819 26.5877,61.7039 26.1907,61.7039 C25.7937,61.7039 25.4727,61.3819 25.4727,60.9849" id="Stroke-251" stroke="#F3E3FF" stroke-width="0.25" mask="url(#mask-142)"></path>
                    </g>
                    <g id="Group-256">
                        <mask id="mask-144" fill="white">
                            <use xlink:href="#path-143"></use>
                        </mask>
                        <g id="Clip-255"></g>
                        <path d="M28.3472,60.9849 C28.3472,61.3819 28.0252,61.7039 27.6282,61.7039 C27.2312,61.7039 26.9102,61.3819 26.9102,60.9849" id="Stroke-254" stroke="#F3E3FF" stroke-width="0.25" mask="url(#mask-144)"></path>
                    </g>
                    <g id="Group-259">
                        <mask id="mask-146" fill="white">
                            <use xlink:href="#path-145"></use>
                        </mask>
                        <g id="Clip-258"></g>
                        <path d="M27.6284,61.7037 C27.6284,62.0997 27.3064,62.4227 26.9094,62.4227 C26.5124,62.4227 26.1914,62.0997 26.1914,61.7037" id="Stroke-257" stroke="#F3E3FF" stroke-width="0.25" mask="url(#mask-146)"></path>
                    </g>
                    <g id="Group-262">
                        <mask id="mask-148" fill="white">
                            <use xlink:href="#path-147"></use>
                        </mask>
                        <g id="Clip-261"></g>
                        <path d="M28.0229,38.0806 C28.0229,38.5166 27.6689,38.8696 27.2329,38.8696 C26.7969,38.8696 26.4439,38.5166 26.4439,38.0806" id="Stroke-260" stroke="#F3E3FF" stroke-width="0.25" mask="url(#mask-148)"></path>
                    </g>
                    <g id="Group-265">
                        <mask id="mask-150" fill="white">
                            <use xlink:href="#path-149"></use>
                        </mask>
                        <g id="Clip-264"></g>
                        <path d="M28.812,38.8697 C28.812,39.3067 28.458,39.6597 28.023,39.6597 C27.586,39.6597 27.233,39.3067 27.233,38.8697" id="Stroke-263" stroke="#F3E3FF" stroke-width="0.25" mask="url(#mask-150)"></path>
                    </g>
                    <g id="Group-268">
                        <mask id="mask-152" fill="white">
                            <use xlink:href="#path-151"></use>
                        </mask>
                        <g id="Clip-267"></g>
                        <path d="M38.1167,52.0269 C38.1167,52.5569 37.6867,52.9869 37.1567,52.9869 C36.6277,52.9869 36.1977,52.5569 36.1977,52.0269" id="Stroke-266" stroke="#F3E3FF" stroke-width="0.25" mask="url(#mask-152)"></path>
                    </g>
                    <g id="Group-271">
                        <mask id="mask-154" fill="white">
                            <use xlink:href="#path-153"></use>
                        </mask>
                        <g id="Clip-270"></g>
                        <path d="M39.0757,52.9869 C39.0757,53.5159 38.6457,53.9459 38.1167,53.9459 C37.5867,53.9459 37.1567,53.5159 37.1567,52.9869" id="Stroke-269" stroke="#F3E3FF" stroke-width="0.25" mask="url(#mask-154)"></path>
                    </g>
                    <g id="Group-274">
                        <mask id="mask-156" fill="white">
                            <use xlink:href="#path-155"></use>
                        </mask>
                        <g id="Clip-273"></g>
                        <path d="M52.0542,28.1705 C52.0542,28.5245 51.7672,28.8125 51.4122,28.8125 C51.0582,28.8125 50.7712,28.5245 50.7712,28.1705" id="Stroke-272" stroke="#F3E3FF" stroke-width="0.25" mask="url(#mask-156)"></path>
                    </g>
                    <g id="Group-277">
                        <mask id="mask-158" fill="white">
                            <use xlink:href="#path-157"></use>
                        </mask>
                        <g id="Clip-276"></g>
                        <path d="M52.6958,28.8121 C52.6958,29.1661 52.4088,29.4541 52.0538,29.4541 C51.6998,29.4541 51.4128,29.1661 51.4128,28.8121" id="Stroke-275" stroke="#F3E3FF" stroke-width="0.25" mask="url(#mask-158)"></path>
                    </g>
                    <g id="Group-280">
                        <mask id="mask-160" fill="white">
                            <use xlink:href="#path-159"></use>
                        </mask>
                        <g id="Clip-279"></g>
                        <path d="M36.1128,34.6578 C36.1128,35.1408 35.7208,35.5328 35.2378,35.5328 C34.7558,35.5328 34.3638,35.1408 34.3638,34.6578" id="Stroke-278" stroke="#F3E3FF" stroke-width="0.25" mask="url(#mask-160)"></path>
                    </g>
                    <g id="Group-283">
                        <mask id="mask-162" fill="white">
                            <use xlink:href="#path-161"></use>
                        </mask>
                        <g id="Clip-282"></g>
                        <path d="M36.4155,67.7095 C36.4155,68.1925 36.0235,68.5845 35.5415,68.5845 C35.0585,68.5845 34.6665,68.1925 34.6665,67.7095" id="Stroke-281" stroke="#F3E3FF" stroke-width="0.25" mask="url(#mask-162)"></path>
                    </g>
                    <g id="Group-286">
                        <mask id="mask-164" fill="white">
                            <use xlink:href="#path-163"></use>
                        </mask>
                        <g id="Clip-285"></g>
                        <path d="M26.5034,49.4898 C26.5034,49.8558 26.2064,50.1528 25.8404,50.1528 C25.4744,50.1528 25.1784,49.8558 25.1784,49.4898" id="Stroke-284" stroke="#F3E3FF" stroke-width="0.25" mask="url(#mask-164)"></path>
                    </g>
                    <g id="Group-289">
                        <mask id="mask-166" fill="white">
                            <use xlink:href="#path-165"></use>
                        </mask>
                        <g id="Clip-288"></g>
                        <path d="M10.7241,34.4332 C10.7241,34.7072 10.5011,34.9302 10.2271,34.9302 C9.9531,34.9302 9.7301,34.7072 9.7301,34.4332" id="Stroke-287" stroke="#F3E3FF" stroke-width="0.25" mask="url(#mask-166)"></path>
                    </g>
                </g>
            </g>
            <g id="Group-350" transform="translate(14.000000, 0.000000)">
                <path d="M86.7241,187.6949 C86.7241,187.6949 88.3901,187.2289 89.3901,186.3959" id="Stroke-292" stroke="#ACD3EF" stroke-width="2" stroke-linecap="round"></path>
                <g id="Group-297" transform="translate(0.000000, 146.000000)">
                    <path d="M217.0483,44.565 L200.9913,44.565 C201.5893,42.518 201.9233,40.357 201.9233,38.116 C201.9233,25.405 191.6183,15.101 178.9073,15.101 C168.7773,15.101 160.1823,21.649 157.1073,30.741 C156.0243,30.5 154.9003,30.368 153.7433,30.368 C145.6483,30.368 139.0273,36.626 138.4213,44.565 L124.7043,44.601 C124.1683,34.994 116.7583,27.224 107.3003,26.161 C104.2413,11.324 91.1063,0.169 75.3633,0.169 C64.6543,0.169 55.1533,5.331 49.2083,13.301 C47.1423,12.783 44.9813,12.504 42.7543,12.504 C28.1513,12.504 16.3133,24.342 16.3133,38.946 C16.3133,40.888 16.5283,42.779 16.9273,44.601 L0.6663,44.601" id="Fill-294" fill="#FFFFFF"></path>
                    <path d="M217.0483,44.565 L200.9913,44.565 C201.5893,42.518 201.9233,40.357 201.9233,38.116 C201.9233,25.405 191.6183,15.101 178.9073,15.101 C168.7773,15.101 160.1823,21.649 157.1073,30.741 C156.0243,30.5 154.9003,30.368 153.7433,30.368 C145.6483,30.368 139.0273,36.626 138.4213,44.565 L124.7043,44.601 C124.1683,34.994 116.7583,27.224 107.3003,26.161 C104.2413,11.324 91.1063,0.169 75.3633,0.169 C64.6543,0.169 55.1533,5.331 49.2083,13.301 C47.1423,12.783 44.9813,12.504 42.7543,12.504 C28.1513,12.504 16.3133,24.342 16.3133,38.946 C16.3133,40.888 16.5283,42.779 16.9273,44.601 L0.6663,44.601" id="Stroke-296" stroke="#ACD3EF" stroke-width="2" stroke-linecap="round"></path>
                </g>
                <path d="M205.0464,84.5533 L205.0464,91.5533" id="Stroke-298" stroke="#5E63B6" stroke-width="2" stroke-linecap="round" stroke-linejoin="round"></path>
                <path d="M208.5464,88.0533 L201.5464,88.0533" id="Stroke-300" stroke="#5E63B6" stroke-width="2" stroke-linecap="round" stroke-linejoin="round"></path>
                <path d="M19.2768,42.2222 L19.2768,49.2222" id="Stroke-302" stroke="#5E63B6" stroke-width="2" stroke-linecap="round" stroke-linejoin="round"></path>
                <path d="M22.7768,45.7222 L15.7768,45.7222" id="Stroke-304" stroke="#5E63B6" stroke-width="2" stroke-linecap="round" stroke-linejoin="round"></path>
                <path d="M142.9038,0.024 L142.9038,3.962" id="Stroke-306" stroke="#5E63B6" stroke-linecap="round"></path>
                <path d="M144.8725,1.9927 L140.9345,1.9927" id="Stroke-308" stroke="#5E63B6" stroke-linecap="round"></path>
                <path d="M5.9946,129.066 L5.9946,133.004" id="Stroke-310" stroke="#5E63B6" stroke-linecap="round"></path>
                <path d="M7.9634,131.0347 L4.0254,131.0347" id="Stroke-312" stroke="#5E63B6" stroke-linecap="round"></path>
                <path d="M182.3188,129.5367 L182.3188,133.4747" id="Stroke-314" stroke="#5E63B6" stroke-linecap="round"></path>
                <path d="M184.2876,131.5054 L180.3496,131.5054" id="Stroke-316" stroke="#5E63B6" stroke-linecap="round"></path>
                <path d="M128.7192,140.2544 C134.9332,140.2544 139.9702,145.2914 139.9702,151.5054 C139.9702,153.5524 139.4152,155.4654 138.4602,157.1194 L139.1572,159.7244 L139.9702,162.7564 L136.9382,161.9434 L134.3332,161.2454 C132.6802,162.2014 130.7662,162.7564 128.7192,162.7564 C122.5052,162.7564 117.4682,157.7194 117.4682,151.5054 C117.4682,145.2914 122.5052,140.2544 128.7192,140.2544" id="Fill-318" fill="#FFFFFF"></path>
                <path d="M132.3804,152.0777 C132.3804,152.7977 132.9644,153.3827 133.6854,153.3827 C134.4054,153.3827 134.9894,152.7977 134.9894,152.0777 C134.9894,151.3567 134.4054,150.7717 133.6854,150.7717 C132.9644,150.7717 132.3804,151.3567 132.3804,152.0777" id="Fill-320" fill="#E1F2FF"></path>
                <path d="M127.4145,152.0777 C127.4145,152.7977 127.9985,153.3827 128.7195,153.3827 C129.4395,153.3827 130.0235,152.7977 130.0235,152.0777 C130.0235,151.3567 129.4395,150.7717 128.7195,150.7717 C127.9985,150.7717 127.4145,151.3567 127.4145,152.0777" id="Fill-322" fill="#E1F2FF"></path>
                <path d="M122.4487,152.0777 C122.4487,152.7977 123.0327,153.3827 123.7537,153.3827 C124.4737,153.3827 125.0587,152.7977 125.0587,152.0777 C125.0587,151.3567 124.4737,150.7717 123.7537,150.7717 C123.0327,150.7717 122.4487,151.3567 122.4487,152.0777" id="Fill-324" fill="#E1F2FF"></path>
                <path d="M164.6362,121.229 C150.6972,124.282 136.2662,124.317 122.3122,121.334 L100.6512,116.704 C86.0292,113.578 70.9252,113.43 56.2442,116.271 L54.5592,116.597 L54.5592,49.594 C69.6282,46.54 85.1672,46.641 100.1962,49.893 L121.2082,54.439 C134.6792,57.353 148.6072,57.454 162.1172,54.733 L164.6362,54.226 L164.6362,121.229 Z" id="Fill-326" fill="#FFFFFF"></path>
                <path d="M164.6362,121.229 C150.6972,124.282 136.2662,124.317 122.3122,121.334 L100.6512,116.704 C86.0292,113.578 70.9252,113.43 56.2442,116.271 L54.5592,116.597 L54.5592,49.594 C69.6282,46.54 85.1672,46.641 100.1962,49.893 L121.2082,54.439 C134.6792,57.353 148.6072,57.454 162.1172,54.733 L164.6362,54.226 L164.6362,121.229 Z" id="Stroke-328" stroke="#5E63B6" stroke-width="2" stroke-linecap="round" stroke-linejoin="round"></path>
                <path d="M60.6167,114.3853 C58.9957,114.6583 57.3797,114.9903 55.7687,115.3813 L54.4697,115.6973 L54.4697,50.8853 C56.5377,50.3603 58.6177,49.9313 60.7047,49.5983 C60.6167,52.3193 60.6167,103.5843 60.6167,114.3853" id="Fill-330" fill="#E1F2FF"></path>
                <path d="M124.395,89.1119 C124.395,98.8469 116.502,106.7409 106.766,106.7409 C97.03,106.7409 89.137,98.8469 89.137,89.1119 C89.137,79.3759 97.03,71.4829 106.766,71.4829 C116.502,71.4829 124.395,79.3759 124.395,89.1119" id="Fill-332" fill="#E1F2FF"></path>
                <path d="M128.5473,85.7896 C128.5473,95.5246 120.6543,103.4186 110.9193,103.4186 C101.1833,103.4186 93.2903,95.5246 93.2903,85.7896 C93.2903,76.0536 101.1833,68.1606 110.9193,68.1606 C120.6543,68.1606 128.5473,76.0536 128.5473,85.7896" id="Fill-334" fill="#FFFFFF"></path>
                <path d="M128.5473,85.7896 C128.5473,95.5246 120.6543,103.4186 110.9193,103.4186 C101.1833,103.4186 93.2903,95.5246 93.2903,85.7896 C93.2903,76.0536 101.1833,68.1606 110.9193,68.1606 C120.6543,68.1606 128.5473,76.0536 128.5473,85.7896 Z" id="Stroke-336" stroke="#5E63B6" stroke-width="2"></path>
                <path d="M116.5649,94.6871 C116.6429,94.9161 116.7109,95.0731 116.7309,95.1241 C116.7379,95.1301 116.7249,95.1221 116.7309,95.1241 C116.7309,95.1241 116.7309,95.1261 116.7309,95.1241 C116.7319,95.1251 116.7299,95.1241 116.7299,95.1241 C116.2109,90.1111 119.0539,88.0221 119.9679,84.6921 C119.9719,84.6421 119.9819,84.5881 119.9979,84.5281 C120.0159,84.4531 120.0319,84.3761 120.0429,84.2991 C120.1789,83.3771 119.8009,82.3051 119.0859,81.1891 C119.0829,81.1821 119.0779,81.1761 119.0749,81.1701 C119.0159,81.0781 118.9539,80.9851 118.8899,80.8921 C118.8899,80.8921 118.8869,80.8901 118.8869,80.8881 C118.7699,80.7191 118.6439,80.5471 118.5129,80.3751 C118.4999,80.3581 118.4869,80.3391 118.4729,80.3231 C118.4359,80.2761 118.3979,80.2291 118.3619,80.1821 C118.3239,80.1331 118.2859,80.0841 118.2479,80.0381 C118.2079,79.9911 118.1689,79.9441 118.1299,79.8981 C118.0889,79.8491 118.0489,79.8011 118.0079,79.7521 C117.9809,79.7201 117.9499,79.6861 117.9199,79.6521 C116.7959,78.3581 115.3349,77.0791 113.8079,75.9661 C113.8079,75.9661 113.7959,75.9501 113.8079,75.9661 C114.0099,77.8531 114.0359,79.7401 113.8569,81.2491 C113.6409,83.0681 112.9909,85.1851 112.0869,87.1041 C109.9739,86.9311 107.8129,86.4411 106.1279,85.7221 C104.7189,85.1211 103.1059,84.1711 101.5629,83.0451 C101.5799,83.2021 101.5989,83.3571 101.6169,83.5131 C101.6229,83.5601 101.6289,83.6061 101.6349,83.6531 C101.6499,83.7651 101.6639,83.8751 101.6809,83.9871 C101.6869,84.0391 101.6949,84.0891 101.7029,84.1411 C101.7189,84.2531 101.7359,84.3651 101.7539,84.4751 C101.7609,84.5201 101.7689,84.5661 101.7759,84.6111 C101.7989,84.7511 101.8229,84.8911 101.8479,85.0311 C101.8499,85.0451 101.8519,85.0591 101.8549,85.0721 C101.8839,85.2351 101.9149,85.3951 101.9469,85.5561 C101.9489,85.5681 101.9519,85.5801 101.9549,85.5921 C101.9839,85.7371 102.0129,85.8781 102.0449,86.0221 C102.0509,86.0511 102.0569,86.0801 102.0629,86.1091 C102.0919,86.2391 102.1229,86.3691 102.1529,86.4981 C102.1599,86.5221 102.1669,86.5471 102.1719,86.5741 C102.2089,86.7221 102.2449,86.8711 102.2839,87.0171 C102.2849,87.0181 102.2849,87.0191 102.2849,87.0191 C102.4099,87.4901 102.5459,87.9451 102.6949,88.3801 C102.6969,88.3861 102.6989,88.3911 102.6999,88.3961 C102.9509,89.1251 103.2359,89.7951 103.5549,90.3821 C103.6019,90.4671 103.6499,90.5511 103.6979,90.6321 C103.7009,90.6351 103.7009,90.6391 103.7029,90.6421 L103.7039,90.6421 C103.7469,90.7171 103.7919,90.7911 103.8359,90.8611 L103.8369,90.8621 C103.8369,90.8621 103.8399,90.8671 103.8419,90.8701 C103.8899,90.9471 103.9389,91.0211 103.9889,91.0921 L103.9889,91.0931 C103.9959,91.1031 104.0029,91.1121 104.0099,91.1221 C104.0099,91.1221 104.0089,91.1241 104.0099,91.1241 C104.0749,91.2171 104.1409,91.3071 104.2069,91.3931 C104.2189,91.4071 104.2299,91.4211 104.2409,91.4341 C104.2439,91.4401 104.2489,91.4441 104.2529,91.4511 C104.3289,91.5461 104.4069,91.6401 104.4869,91.7261 C104.5429,91.7891 104.5989,91.8461 104.6569,91.9031 C104.6809,91.9271 104.7069,91.9501 104.7299,91.9721 C104.7659,92.0061 104.8019,92.0381 104.8379,92.0711 C104.8659,92.0941 104.8929,92.1151 104.9209,92.1381 C104.9559,92.1671 104.9919,92.1941 105.0269,92.2221 C105.0539,92.2431 105.0819,92.2621 105.1109,92.2821 C105.1479,92.3081 105.1829,92.3331 105.2199,92.3571 C105.2479,92.3741 105.2769,92.3921 105.3049,92.4101 C105.3429,92.4321 105.3829,92.4541 105.4209,92.4761 C105.4489,92.4911 105.4759,92.5041 105.5029,92.5171 C105.5469,92.5391 105.5909,92.5581 105.6369,92.5781 C105.6589,92.5851 105.6819,92.5971 105.7059,92.6061 C105.7739,92.6331 105.8429,92.6571 105.9129,92.6761 C105.9599,92.6901 105.9999,92.7051 106.0379,92.7191 C109.3839,93.6031 112.6439,92.2021 116.7309,95.1241" id="Fill-338" fill="#9452BA"></path>
                <g id="Group-343" transform="translate(133.000000, 101.000000)">
                    <path d="M0.2876,0.0367 L0.2876,14.8407" id="Fill-340" fill="#FFFFFF"></path>
                    <path d="M0.2876,0.0367 L0.2876,14.8407" id="Stroke-342" stroke="#E1F2FF" stroke-width="2" stroke-linecap="round" stroke-linejoin="round"></path>
                </g>
                <g id="Group-347" transform="translate(78.000000, 68.000000)">
                    <path d="M0.6245,0.8072 L0.6245,24.3362" id="Fill-344" fill="#FFFFFF"></path>
                    <path d="M0.6245,0.8072 L0.6245,24.3362" id="Stroke-346" stroke="#E1F2FF" stroke-width="2" stroke-linecap="round" stroke-linejoin="round"></path>
                </g>
                <path d="M58.936,176.9996 C60.768,180.3706 43.924,176.7466 43.924,176.7466 C43.924,176.7466 45.566,172.4456 49.739,172.0676 C53.956,171.6856 56.977,173.3946 58.936,176.9996" id="Fill-348" fill="#E1F2FF"></path>
            </g>
            <g id="Group-357" transform="translate(53.000000, 22.000000)">
                <g id="Group-353">
                    <mask id="mask-168" fill="white">
                        <use xlink:href="#path-167"></use>
                    </mask>
                    <g id="Clip-352"></g>
                    <path d="M12.5034,167.4048 L12.1214,167.4048 C11.1214,167.4048 10.3114,166.5938 10.3114,165.5938 L10.3114,18.9228 C10.3114,17.9228 11.1214,17.1118 12.1214,17.1118 L12.5034,17.1118 C13.5044,17.1118 14.3154,17.9228 14.3154,18.9228 L14.3154,165.5938 C14.3154,166.5938 13.5044,167.4048 12.5034,167.4048" id="Fill-351" fill="#FFFFFF" mask="url(#mask-168)"></path>
                </g>
                <g id="Group-356">
                    <mask id="mask-170" fill="white">
                        <use xlink:href="#path-169"></use>
                    </mask>
                    <g id="Clip-355"></g>
                    <path d="M12.5034,167.4048 L12.1214,167.4048 C11.1214,167.4048 10.3114,166.5938 10.3114,165.5938 L10.3114,18.9228 C10.3114,17.9228 11.1214,17.1118 12.1214,17.1118 L12.5034,17.1118 C13.5044,17.1118 14.3154,17.9228 14.3154,18.9228 L14.3154,165.5938 C14.3154,166.5938 13.5044,167.4048 12.5034,167.4048 Z" id="Stroke-354" stroke="#5E63B6" stroke-width="2" stroke-linecap="round" stroke-linejoin="round" mask="url(#mask-170)"></path>
                </g>
            </g>
            <g id="Group-362" transform="translate(58.000000, 176.000000)" stroke="#ACD3EF" stroke-linecap="round" stroke-width="2">
                <path d="M0.52,0.5962 C0.52,0.5962 6.87,4.7502 14.936,0.9992" id="Stroke-358"></path>
                <path d="M15.7466,4.7505 C15.7466,4.7505 16.3606,4.5335 17.2666,4.0595" id="Stroke-360"></path>
            </g>
        </g>
    </g>
</svg>