<?xml version="1.0" encoding="UTF-8" standalone="no"?>
<svg width="1470px" height="693px" viewBox="0 0 1470 693" version="1.1" xmlns="http://www.w3.org/2000/svg" xmlns:xlink="http://www.w3.org/1999/xlink">
    <!-- Generator: Sketch 50.2 (55047) - http://www.bohemiancoding.com/sketch -->
    <title>Artboard</title>
    <desc>Created with Sketch.</desc>
    <defs></defs>
    <g id="Artboard" stroke="none" stroke-width="1" fill="none" fill-rule="evenodd">
        <path d="M357,635 C357.000005,409.115536 543.02569,226 772.5,226 C1001.97431,226 1188,409.115536 1188,635 L357,635 Z" id="Shape" fill="#E1F2FF" fill-rule="nonzero"></path>
        <g id="Group-4" transform="translate(680.000000, 75.000000)" stroke-width="2">
            <polygon id="Stroke-96" stroke="#4992C7" points="307.9854 32.6738 16.6894 178.9358 0.5354 146.7628 291.8314 0.5018"></polygon>
            <path d="M8.4629,143.7822 L15.7639,158.3222" id="Stroke-98" stroke="#9ACDED"></path>
            <path d="M15.5781,140.21 L20.5491,150.109" id="Stroke-100" stroke="#9ACDED"></path>
            <path d="M21.6621,137.1553 L26.6331,147.0543" id="Stroke-102" stroke="#9ACDED"></path>
            <path d="M27.7461,134.1006 L32.7161,143.9996" id="Stroke-104" stroke="#9ACDED"></path>
            <path d="M33.8301,131.0459 L38.8001,140.9449" id="Stroke-106" stroke="#9ACDED"></path>
            <path d="M40.6348,127.6289 L47.9358,142.1679" id="Stroke-108" stroke="#9ACDED"></path>
            <path d="M47.75,124.0557 L52.721,133.9547" id="Stroke-110" stroke="#9ACDED"></path>
            <path d="M53.834,121.001 L58.805,130.9" id="Stroke-112" stroke="#9ACDED"></path>
            <path d="M59.918,117.9463 L64.889,127.8453" id="Stroke-114" stroke="#9ACDED"></path>
            <path d="M66.002,114.8916 L70.973,124.7906" id="Stroke-116" stroke="#9ACDED"></path>
            <path d="M72.8076,111.4746 L80.1076,126.0136" id="Stroke-118" stroke="#9ACDED"></path>
            <path d="M79.9229,107.9023 L84.8929,117.8013" id="Stroke-120" stroke="#9ACDED"></path>
            <path d="M86.0059,104.8477 L90.9769,114.7457" id="Stroke-122" stroke="#9ACDED"></path>
            <path d="M92.0898,101.793 L97.0608,111.691" id="Stroke-124" stroke="#9ACDED"></path>
            <path d="M98.1738,98.7383 L103.1448,108.6363" id="Stroke-126" stroke="#9ACDED"></path>
            <path d="M104.9795,95.3203 L112.2805,109.8603" id="Stroke-128" stroke="#9ACDED"></path>
            <path d="M112.0947,91.748 L117.0657,101.647" id="Stroke-130" stroke="#9ACDED"></path>
            <path d="M118.1787,88.6934 L123.1497,98.5924" id="Stroke-132" stroke="#9ACDED"></path>
            <path d="M124.2627,85.6387 L129.2327,95.5377" id="Stroke-134" stroke="#9ACDED"></path>
            <path d="M130.3467,82.584 L135.3167,92.483" id="Stroke-136" stroke="#9ACDED"></path>
            <path d="M137.1523,79.167 L144.4523,93.706" id="Stroke-138" stroke="#9ACDED"></path>
            <path d="M144.2666,75.5947 L149.2376,85.4927" id="Stroke-140" stroke="#9ACDED"></path>
            <path d="M150.3506,72.54 L155.3216,82.438" id="Stroke-142" stroke="#9ACDED"></path>
            <path d="M156.4346,69.4844 L161.4056,79.3834" id="Stroke-144" stroke="#9ACDED"></path>
            <path d="M162.5186,66.4297 L167.4896,76.3287" id="Stroke-146" stroke="#9ACDED"></path>
            <path d="M169.3242,63.0127 L176.6242,77.5527" id="Stroke-148" stroke="#9ACDED"></path>
            <path d="M176.4395,59.4404 L181.4095,69.3394" id="Stroke-150" stroke="#9ACDED"></path>
            <path d="M182.5234,56.3857 L187.4934,66.2847" id="Stroke-152" stroke="#9ACDED"></path>
            <path d="M188.6064,53.3311 L193.5774,63.2301" id="Stroke-154" stroke="#9ACDED"></path>
            <path d="M194.6904,50.2764 L199.6614,60.1754" id="Stroke-156" stroke="#9ACDED"></path>
            <path d="M201.4961,46.8594 L208.7971,61.3984" id="Stroke-158" stroke="#9ACDED"></path>
            <path d="M208.6113,43.2861 L213.5823,53.1851" id="Stroke-160" stroke="#9ACDED"></path>
            <path d="M214.6953,40.2314 L219.6663,50.1304" id="Stroke-162" stroke="#9ACDED"></path>
            <path d="M220.7793,37.1768 L225.7493,47.0758" id="Stroke-164" stroke="#9ACDED"></path>
            <path d="M226.8633,34.1221 L231.8333,44.0211" id="Stroke-166" stroke="#9ACDED"></path>
            <path d="M233.6689,30.7051 L240.9689,45.2441" id="Stroke-168" stroke="#9ACDED"></path>
            <path d="M240.7832,27.1328 L245.7542,37.0318" id="Stroke-170" stroke="#9ACDED"></path>
            <path d="M246.8672,24.0781 L251.8382,33.9761" id="Stroke-172" stroke="#9ACDED"></path>
            <path d="M252.9512,21.0234 L257.9222,30.9214" id="Stroke-174" stroke="#9ACDED"></path>
            <path d="M259.0352,17.9688 L264.0062,27.8668" id="Stroke-176" stroke="#9ACDED"></path>
            <path d="M265.8408,14.5508 L273.1408,29.0908" id="Stroke-178" stroke="#9ACDED"></path>
            <path d="M272.9561,10.9785 L277.9261,20.8775" id="Stroke-180" stroke="#9ACDED"></path>
            <path d="M279.04,7.9238 L284.01,17.8228" id="Stroke-182" stroke="#9ACDED"></path>
            <path d="M285.123,4.8691 L290.094,14.7681" id="Stroke-184" stroke="#9ACDED"></path>
            <path d="M297.752,26.1914 C298.523,27.7294 297.903,29.6014 296.365,30.3734 C294.828,31.1454 292.956,30.5254 292.184,28.9874 C291.411,27.4494 292.032,25.5774 293.569,24.8054 C295.107,24.0334 296.98,24.6544 297.752,26.1914 Z" id="Stroke-186" stroke="#4992C7"></path>
        </g>
        <g id="Group-2" transform="translate(425.000000, 39.000000)">
            <path d="M184,98.818664 L184,78.181336 L168.149042,76.9443133 C166.650638,69.561084 163.743615,62.6906205 159.723264,56.6202313 L170.061453,44.531328 L155.468476,29.9384516 L143.379489,40.2775664 C137.310056,36.2572429 130.439545,33.3492422 123.056265,31.8518462 L121.819234,16 L101.181764,16 L99.9447326,31.8518462 C92.5604549,33.3492422 85.6899441,36.2572429 79.6205108,40.2775664 L67.5315243,29.9384516 L52.9385475,44.531328 L63.2777334,56.6202313 C59.2573823,62.6906205 56.3493615,69.561084 54.8509577,76.9443133 L39,78.181336 L39,98.818664 L54.8509577,100.055687 C56.3493615,107.438916 59.2573823,114.309379 63.2777334,120.379769 L52.9385475,132.468672 L67.5315243,147.061548 L79.6205108,136.722434 C85.6899441,140.742757 92.5604549,143.650758 99.9447326,145.148154 L101.181764,161 L121.819234,161 L123.056265,145.148154 C130.439545,143.650758 137.310056,140.742757 143.380487,136.722434 L155.468476,147.061548 L170.061453,132.468672 L159.723264,120.379769 C163.743615,114.309379 166.650638,107.438916 168.149042,100.055687 L184,98.818664 Z" id="Stroke-294" stroke="#5E63B6" stroke-width="3" fill="#FFFFFF"></path>
            <path d="M131,94 C131,107.254444 120.254444,118 107,118 C93.7455562,118 83,107.254444 83,94 C83,80.7445618 93.7455562,70 107,70 C120.254444,70 131,80.7445618 131,94 Z" id="Stroke-288" fill="#E1F2FF"></path>
            <path d="M136,89 C136,102.254444 125.254444,113 112,113 C98.7455562,113 88,102.254444 88,89 C88,75.7445618 98.7455562,65 112,65 C125.254444,65 136,75.7445618 136,89 Z" id="Stroke-288" stroke="#5E63B6" stroke-width="3" fill="#FFFFFF"></path>
            <path d="M79,77.273471 C84.0098812,63.6876886 97.0772211,54 112.407217,54 C132.064293,54 148,69.9296426 148,89.5802383 C148,100.612994 142.976102,110.47382 135.089845,117" id="Stroke-290" stroke="#ACD3EF" stroke-width="3"></path>
            <path d="M159,104.968683 C152.319612,123.082398 134.898052,136 114.457731,136 C88.2476644,136 67,114.760395 67,88.5602712 C67,73.8481405 73.69844,60.7019621 84.212955,52" id="Stroke-292" stroke="#ACD3EF" stroke-width="3"></path>
            <path d="M79,45.1217378 L79,33.8782622 L70.3636203,33.2040133 C69.5475293,29.181494 67.9632941,25.4376644 65.7727342,22.1303485 L71.4054597,15.5446844 L63.4553156,7.59454026 L56.8686526,13.2272658 C53.5623356,11.0357071 49.818506,9.45247067 45.7959867,8.63637973 L45.1217378,0 L33.8782622,0 L33.2040133,8.63637973 C29.181494,9.45247067 25.4376644,11.0357071 22.1313474,13.2272658 L15.5446844,7.59454026 L7.59454026,15.5446844 L13.2272658,22.1303485 C11.0367059,25.4376644 9.45247067,29.181494 8.63637973,33.2040133 L0,33.8782622 L0,45.1217378 L8.63637973,45.7959867 C9.45247067,49.818506 11.0367059,53.5623356 13.2272658,56.8686526 L7.59454026,63.4553156 L15.5446844,71.4054597 L22.1313474,65.7727342 C25.4376644,67.9632941 29.181494,69.5475293 33.2040133,70.3636203 L33.8782622,79 L45.1217378,79 L45.7959867,70.3636203 C49.818506,69.5475293 53.5623356,67.9632941 56.8686526,65.7727342 L63.4553156,71.4054597 L71.4054597,63.4553156 L65.7727342,56.8686526 C67.9632941,53.5623356 69.5475293,49.818506 70.3636203,45.7959867 L79,45.1217378 Z" id="Fill-296" fill="#FFFFFF"></path>
            <path d="M79,45.1217378 L79,33.8782622 L70.3636203,33.2040133 C69.5475293,29.181494 67.9632941,25.4376644 65.7727342,22.1303485 L71.4054597,15.5446844 L63.4553156,7.59454026 L56.8686526,13.2272658 C53.5623356,11.0357071 49.818506,9.45247067 45.7959867,8.63637973 L45.1217378,0 L33.8782622,0 L33.2040133,8.63637973 C29.181494,9.45247067 25.4376644,11.0357071 22.1313474,13.2272658 L15.5446844,7.59454026 L7.59454026,15.5446844 L13.2272658,22.1303485 C11.0367059,25.4376644 9.45247067,29.181494 8.63637973,33.2040133 L0,33.8782622 L0,45.1217378 L8.63637973,45.7959867 C9.45247067,49.818506 11.0367059,53.5623356 13.2272658,56.8686526 L7.59454026,63.4553156 L15.5446844,71.4054597 L22.1313474,65.7727342 C25.4376644,67.9632941 29.181494,69.5475293 33.2040133,70.3636203 L33.8782622,79 L45.1217378,79 L45.7959867,70.3636203 C49.818506,69.5475293 53.5623356,67.9632941 56.8686526,65.7727342 L63.4553156,71.4054597 L71.4054597,63.4553156 L65.7727342,56.8686526 C67.9632941,53.5623356 69.5475293,49.818506 70.3636203,45.7959867 L79,45.1217378 Z" id="Stroke-298" stroke="#5E63B6" stroke-width="3"></path>
            <path d="M49,44.999505 C49,52.1793261 43.180316,58 36.000495,58 C28.8206739,58 23,52.1793261 23,44.999505 C23,37.8206739 28.8206739,32 36.000495,32 C43.180316,32 49,37.8206739 49,44.999505 Z" id="Stroke-302" fill="#E1F2FF"></path>
            <path d="M52,39.999505 C52,47.1793261 46.180316,53 39.000495,53 C31.8206739,53 26,47.1793261 26,39.999505 C26,32.8206739 31.8206739,27 39.000495,27 C46.180316,27 52,32.8206739 52,39.999505 Z" id="Stroke-302" stroke="#5E63B6" stroke-width="3" fill="#FFFFFF"></path>
            <path d="M21,33.5599089 C23.7592331,26.2282494 30.9557345,21 39.3975894,21 C50.223754,21 59,29.5962863 59,40.2016817 C59,46.1565456 56.2336738,51.4781035 51.8896296,55" id="Stroke-304" stroke="#ACD3EF" stroke-width="3"></path>
        </g>
        <g id="Group-13" transform="translate(1010.000000, 451.000000)" fill="#ACD3EF">
            <polygon id="Fill-342" points="18.8584 14.2568 0.6944 25.1598 0.6944 21.5898 15.2644 12.9218 0.6944 4.0338 0.6944 0.5368 18.8584 11.3428"></polygon>
            <polygon id="Fill-343" points="48.7012 14.2568 30.5382 25.1598 30.5382 21.5898 45.1072 12.9218 30.5382 4.0338 30.5382 0.5368 48.7012 11.3428"></polygon>
            <polygon id="Fill-344" points="78.5449 14.2568 60.3819 25.1598 60.3819 21.5898 74.9509 12.9218 60.3819 4.0338 60.3819 0.5368 78.5449 11.3428"></polygon>
            <polygon id="Fill-345" points="108.3887 14.2568 90.2247 25.1598 90.2247 21.5898 104.7947 12.9218 90.2247 4.0338 90.2247 0.5368 108.3887 11.3428"></polygon>
            <polygon id="Fill-346" points="138.2314 14.2568 120.0684 25.1598 120.0684 21.5898 134.6374 12.9218 120.0684 4.0338 120.0684 0.5368 138.2314 11.3428"></polygon>
        </g>
        <g id="Group-29" transform="translate(513.000000, 524.000000)" fill="#ACD3EF">
            <polygon id="Fill-347" points="98 8.85577594 113 0 113 2.89843516 100.96818 9.94019735 113 17.1593741 113 20 98 11.2229642"></polygon>
            <polygon id="Fill-348" points="73 8.85577594 88 0 88 2.89843516 75.96818 9.94019735 88 17.1593741 88 20 73 11.2229642"></polygon>
            <polygon id="Fill-349" points="49 8.85577594 64 0 64 2.89843516 51.96818 9.94019735 64 17.1593741 64 20 49 11.2229642"></polygon>
            <polygon id="Fill-350" points="25 8.85577594 40 0 40 2.89843516 27.96818 9.94019735 40 17.1593741 40 20 25 11.2229642"></polygon>
            <polygon id="Fill-351" points="0 8.85577594 15 0 15 2.89843516 2.96817998 9.94019735 15 17.1593741 15 20 0 11.2229642"></polygon>
        </g>
        <path d="M980.455428,497 L518.544572,497 C512.721465,497 508,492.281229 508,486.461445 L508,189.538555 C508,183.717772 512.721465,179 518.544572,179 L980.455428,179 C986.279534,179 991,183.717772 991,189.538555 L991,486.461445 C991,492.281229 986.279534,497 980.455428,497" id="Fill-381" fill="#FFFFFF"></path>
        <g id="Group-12" transform="translate(691.000000, 9.000000)">
            <path d="M92.1025,42.3213 C85.9115,27.1073 73.9155,14.2553 57.5835,7.3713 C41.2525,0.4883 23.6765,0.8753 8.4625,7.0663" id="Stroke-605" stroke="#F1F4F9" stroke-width="3"></path>
            <path d="M73.4443,49.9141 C69.1963,39.4761 60.9653,30.6571 49.7593,25.9341 C38.5543,21.2101 26.4953,21.4771 16.0553,25.7251" id="Stroke-607" stroke="#F1F4F9" stroke-width="3"></path>
            <path d="M55.6279,57.1646 C53.2349,51.2856 48.5999,46.3186 42.2889,43.6586 C35.9779,40.9976 29.1859,41.1476 23.3069,43.5406" id="Stroke-609" stroke="#F1F4F9" stroke-width="3"></path>
            <path d="M6.4629,5.0664 C21.6769,-1.1246 39.2529,-1.5126 55.5839,5.3714 C71.9159,12.2554 83.9109,25.1074 90.1029,40.3214" id="Stroke-604" stroke="#FFFFFF" stroke-width="3"></path>
            <path d="M90.1025,40.3213 C83.9115,25.1073 71.9155,12.2553 55.5835,5.3713 C39.2525,-1.5117 21.6765,-1.1247 6.4625,5.0663" id="Stroke-605" stroke="#5E63B6" stroke-width="3"></path>
            <path d="M14.0557,23.7246 C24.4947,19.4766 36.5547,19.2106 47.7597,23.9336 C58.9657,28.6576 67.1967,37.4756 71.4447,47.9136" id="Stroke-606" stroke="#FFFFFF" stroke-width="3"></path>
            <path d="M71.4443,47.9141 C67.1963,37.4761 58.9653,28.6571 47.7593,23.9341 C36.5543,19.2101 24.4953,19.4771 14.0553,23.7251" id="Stroke-607" stroke="#5E63B6" stroke-width="3"></path>
            <g id="Group-615" transform="translate(22.000000, 103.000000)" stroke="#5E63B6" stroke-width="5">
                <path d="M2.5,1 L2.5,67" id="Stroke-614"></path>
            </g>
            <path d="M53.6279,55.1646 C51.2349,49.2856 46.5999,44.3186 40.2889,41.6586 C33.9779,38.9976 27.1859,39.1476 21.3069,41.5406" id="Stroke-609" stroke="#5E63B6" stroke-width="3"></path>
            <path d="M23.6113,103.1675 C10.6993,103.1675 0.2333,92.7005 0.2333,79.7895 C0.2333,66.8785 10.6993,56.4115 23.6113,56.4115 C36.5223,56.4115 46.9893,66.8785 46.9893,79.7895 C46.9893,92.7005 36.5223,103.1675 23.6113,103.1675 Z" id="Stroke-611" stroke="#5E63B6" stroke-width="5" fill="#FFFFFF"></path>
            <path d="M20.6113,94.0972 C14.3663,94.0972 9.3033,89.0352 9.3033,82.7892 C9.3033,76.5442 14.3663,71.4822 20.6113,71.4822 C26.8553,71.4822 31.9193,76.5442 31.9193,82.7892 C31.9193,89.0352 26.8553,94.0972 20.6113,94.0972" id="Fill-612" fill="#E1F2FF"></path>
            <path d="M23.6113,91.0972 C17.3663,91.0972 12.3033,86.0352 12.3033,79.7892 C12.3033,73.5442 17.3663,68.4822 23.6113,68.4822 C29.8553,68.4822 34.9193,73.5442 34.9193,79.7892 C34.9193,86.0352 29.8553,91.0972 23.6113,91.0972" id="Fill-612" stroke="#5E63B6" stroke-width="2" fill="#FFFFFF"></path>
        </g>
        <path d="M980.455428,497 L518.544572,497 C512.721465,497 508,492.281229 508,486.461445 L508,189.538555 C508,183.717772 512.721465,179 518.544572,179 L980.455428,179 C986.279534,179 991,183.717772 991,189.538555 L991,486.461445 C991,492.281229 986.279534,497 980.455428,497 Z" id="Stroke-382" stroke="#5E63B6" stroke-width="3"></path>
        <polygon id="Fill-383" fill="#FFFFFF" points="539 448 962 448 962 209 539 209"></polygon>
        <path d="M956,473.5 C956,476.538095 953.538316,479 950.500494,479 C947.462672,479 945,476.538095 945,473.5 C945,470.462893 947.462672,468 950.500494,468 C953.538316,468 956,470.462893 956,473.5 Z" id="Stroke-385" stroke="#5E63B6" stroke-width="2"></path>
        <polygon id="Stroke-386" stroke="#5E63B6" stroke-width="3" fill="#FFFFFF" points="824 561 680 561 695.568135 498 808.432865 498"></polygon>
        <path d="M834.335696,571 L665.665302,571 C664.193448,571 663,569.749524 663,568.20605 L663,562.79395 C663,561.251522 664.193448,560 665.665302,560 L834.335696,560 C835.807549,560 837,561.251522 837,562.79395 L837,568.20605 C837,569.749524 835.807549,571 834.335696,571 Z" id="Stroke-387" stroke="#5E63B6" stroke-width="3" fill="#FFFFFF"></path>
        <g id="Group-17" transform="translate(538.000000, 208.000000)" stroke-width="2">
            <polygon id="Stroke-390" stroke="#ADD2E9" fill="#E1F2FF" points="368.692 185.625 422.866 185.625 422.866 158.686 368.692 158.686"></polygon>
            <polygon id="Stroke-391" stroke="#ACD3EF" fill="#E1F2FF" points="1.655 158.686 60.938 158.686 60.938 131.747 1.655 131.747"></polygon>
            <polygon id="Stroke-392" stroke="#ACD3EF" fill="#E1F2FF" points="61.433 185.625 103.498 185.625 103.498 158.686 61.433 158.686"></polygon>
            <polygon id="Stroke-393" stroke="#ADD2E9" fill="#9ACDED" points="414.546 158.686 421.54 158.686 421.54 154.571 414.546 154.571"></polygon>
            <polygon id="Stroke-394" stroke="#ADD2E9" fill="#9ACDED" points="375.127 158.686 382.121 158.686 382.121 154.571 375.127 154.571"></polygon>
            <polygon id="Stroke-395" stroke="#ACD3EF" fill="#E1F2FF" points="61.433 158.686 103.498 158.686 103.498 131.747 61.433 131.747"></polygon>
            <polygon id="Stroke-396" stroke="#ACD3EF" fill="#E1F2FF" points="120.655 212.686 179.938 212.686 179.938 185.747 120.655 185.747"></polygon>
            <polygon id="Stroke-397" stroke="#ACD3EF" fill="#E1F2FF" points="180.433 212.686 222.498 212.686 222.498 185.747 180.433 185.747"></polygon>
            <polygon id="Stroke-398" stroke="#ADD2E9" fill="#9ACDED" points="87.577 131.746 94.571 131.746 94.571 127.631 87.577 127.631"></polygon>
            <polygon id="Stroke-399" stroke="#ADD2E9" fill="#9ACDED" points="67.867 131.746 74.861 131.746 74.861 127.631 67.867 127.631"></polygon>
            <polygon id="Stroke-400" stroke="#ADD2E9" fill="#9ACDED" points="148.244 185.413 155.238 185.413 155.238 181.297 148.244 181.297"></polygon>
            <polygon id="Stroke-401" stroke="#ADD2E9" fill="#9ACDED" points="166.619 185.413 173.613 185.413 173.613 181.297 166.619 181.297"></polygon>
            <polygon id="Stroke-402" stroke="#ADD2E9" fill="#9ACDED" points="128.534 185.413 135.528 185.413 135.528 181.297 128.534 181.297"></polygon>
            <polygon id="Stroke-403" stroke="#ADD2E9" fill="#9ACDED" points="108.521 185.413 115.515 185.413 115.515 181.297 108.521 181.297"></polygon>
            <polygon id="Stroke-404" stroke="#ADD2E9" fill="#9ACDED" points="207.869 185.413 214.863 185.413 214.863 181.297 207.869 181.297"></polygon>
            <polygon id="Stroke-405" stroke="#ADD2E9" fill="#9ACDED" points="188.159 185.413 195.153 185.413 195.153 181.297 188.159 181.297"></polygon>
            <polygon id="Stroke-406" stroke="#ADD2E9" fill="#9ACDED" points="268.085 212.018 275.078 212.018 275.078 207.902 268.085 207.902"></polygon>
            <polygon id="Stroke-407" stroke="#ADD2E9" fill="#9ACDED" points="286.46 212.018 293.453 212.018 293.453 207.902 286.46 207.902"></polygon>
            <polygon id="Stroke-408" stroke="#ADD2E9" fill="#9ACDED" points="248.375 212.018 255.369 212.018 255.369 207.902 248.375 207.902"></polygon>
            <polygon id="Stroke-409" stroke="#ADD2E9" fill="#9ACDED" points="228.362 212.018 235.356 212.018 235.356 207.902 228.362 207.902"></polygon>
            <polygon id="Stroke-410" stroke="#ADD2E9" fill="#9ACDED" points="308 212.018 314.994 212.018 314.994 207.902 308 207.902"></polygon>
            <polygon id="Stroke-411" stroke="#ACD3EF" fill="#E1F2FF" points="1.6 131.746 41.56 131.746 41.56 104.807 1.6 104.807"></polygon>
            <polygon id="Stroke-412" stroke="#ADD2E9" fill="#9ACDED" points="27.744 104.807 34.738 104.807 34.738 100.691 27.744 100.691"></polygon>
            <polygon id="Stroke-413" stroke="#ADD2E9" fill="#9ACDED" points="8.034 104.807 15.028 104.807 15.028 100.691 8.034 100.691"></polygon>
            <polygon id="Stroke-414" stroke="#ACD3EF" fill="#E1F2FF" points="20.978 185.625 60.938 185.625 60.938 158.686 20.978 158.686"></polygon>
            <polygon id="Stroke-415" stroke="#ACD3EF" fill="#E1F2FF" points="0.998 185.625 20.978 185.625 20.978 158.686 0.998 158.686"></polygon>
            <polygon id="Stroke-416" stroke="#ADD2E9" fill="#E1F2FF" points="320.502 211.44 340.866 211.44 340.866 185.678 320.502 185.678"></polygon>
            <polygon id="Stroke-417" stroke="#ADD2E9" fill="#E1F2FF" points="340.866 212.618 400.149 212.618 400.149 185.679 340.866 185.679"></polygon>
            <polygon id="Stroke-418" stroke="#ADD2E9" fill="#E1F2FF" points="400.645 212.618 423.304 212.618 423.304 185.679 400.645 185.679"></polygon>
            <polygon id="Stroke-419" stroke="#ADD2E9" fill="#E1F2FF" points="43.514 212.618 120.649 212.618 120.649 185.679 43.514 185.679"></polygon>
            <polygon id="Stroke-420" stroke="#ACD3EF" fill="#E1F2FF" points="0.696 212.618 43.513 212.618 43.513 185.679 0.696 185.679"></polygon>
            <polygon id="Stroke-421" stroke="#ADD2E9" fill="#E1F2FF" points="358.785 239.242 411.07 239.242 411.07 212.303 358.785 212.303"></polygon>
            <polygon id="Stroke-421" stroke="#ADD2E9" fill="#E1F2FF" transform="translate(417.000500, 225.772500) scale(-1, 1) translate(-417.000500, -225.772500) " points="411.07 239.242 422.931 239.242 422.931 212.303 411.07 212.303"></polygon>
            <polygon id="Stroke-422" stroke="#ADD2E9" fill="#E1F2FF" points="299.716 239.242 358.999 239.242 358.999 212.303 299.716 212.303"></polygon>
            <polygon id="Stroke-423" stroke="#ADD2E9" fill="#E1F2FF" points="240.716 239.242 299.999 239.242 299.999 212.303 240.716 212.303"></polygon>
            <polygon id="Stroke-424" stroke="#ADD2E9" fill="#E1F2FF" points="199.978 239.242 239.938 239.242 239.938 212.303 199.978 212.303"></polygon>
            <polygon id="Stroke-425" stroke="#ADD2E9" fill="#E1F2FF" points="179.998 239.242 199.978 239.242 199.978 212.303 179.998 212.303"></polygon>
            <polygon id="Stroke-426" stroke="#ACD3EF" fill="#E1F2FF" points="120.715 239.242 179.998 239.242 179.998 212.303 120.715 212.303"></polygon>
            <polygon id="Stroke-427" stroke="#ACD3EF" fill="#E1F2FF" points="61.433 239.242 120.716 239.242 120.716 212.303 61.433 212.303"></polygon>
            <polygon id="Stroke-428" stroke="#ACD3EF" fill="#E1F2FF" points="20.978 239.242 60.938 239.242 60.938 212.303 20.978 212.303"></polygon>
            <polygon id="Stroke-429" stroke="#ADD2E9" fill="#E1F2FF" points="0.998 239.242 20.978 239.242 20.978 212.303 0.998 212.303"></polygon>
            <polygon id="Stroke-430" stroke="#ADD2E9" fill="#E1F2FF" points="388.344 158.686 408.323 158.686 408.323 131.747 388.344 131.747"></polygon>
            <polygon id="Stroke-431" stroke="#ADD2E9" fill="#9ACDED" points="394.508 131.746 401.502 131.746 401.502 127.631 394.508 127.631"></polygon>
            <polygon id="Stroke-432" stroke="#ADD2E9" fill="#E1F2FF" points="326.889 185.648 368.432 185.648 368.432 158.709 326.889 158.709"></polygon>
            <polygon id="Stroke-433" stroke="#ADD2E9" fill="#9ACDED" points="354.616 158.709 361.609 158.709 361.609 154.594 354.616 154.594"></polygon>
            <polygon id="Stroke-434" stroke="#ADD2E9" fill="#9ACDED" points="333.733 158.709 340.727 158.709 340.727 154.594 333.733 154.594"></polygon>
            <polygon id="Stroke-384" stroke="#ACD3EF" points="0.697 239.678 423.304 239.678 423.304 0.931 0.697 0.931"></polygon>
            <path d="M32.2871,60.7031 L68.7661,24.2241" id="Stroke-388" stroke="#ACD3EF"></path>
            <path d="M32.2871,90.2656 L86.0131,36.5406" id="Stroke-389" stroke="#ACD3EF"></path>
        </g>
        <g id="Group-14" transform="translate(1109.000000, 127.000000)">
            <path d="M64.8701,117.1133 L5.8031,117.1133 C2.9351,117.1133 0.6121,114.7903 0.6121,111.9243 L0.6121,5.6753 C0.6121,2.8093 2.9351,0.4863 5.8031,0.4863 L64.8701,0.4863 C67.7361,0.4863 70.0591,2.8093 70.0591,5.6753 L70.0591,111.9243 C70.0591,114.7903 67.7361,117.1133 64.8701,117.1133" id="Fill-435" fill="#FFFFFF"></path>
            <path d="M64.8701,117.1133 L5.8031,117.1133 C2.9351,117.1133 0.6121,114.7903 0.6121,111.9243 L0.6121,5.6753 C0.6121,2.8093 2.9351,0.4863 5.8031,0.4863 L64.8701,0.4863 C67.7361,0.4863 70.0591,2.8093 70.0591,5.6753 L70.0591,111.9243 C70.0591,114.7903 67.7361,117.1133 64.8701,117.1133 Z" id="Stroke-436" stroke="#5E63B6" stroke-width="3"></path>
            <polygon id="Fill-437" points="9.306 97.622 61.365 97.622 61.365 10.196 9.306 10.196"></polygon>
            <polygon id="Stroke-438" stroke="#ACD3EF" stroke-width="2" points="9.306 97.622 61.365 97.622 61.365 10.196 9.306 10.196"></polygon>
            <polygon id="Stroke-439" stroke="#ACD3EF" stroke-width="2" points="19.288 47.137 51.384 47.137 51.384 43.375 19.288 43.375"></polygon>
            <polygon id="Stroke-440" stroke="#ACD3EF" stroke-width="2" points="19.288 61.616 51.384 61.616 51.384 47.137 19.288 47.137"></polygon>
            <path d="M22.4512,51.9023 L40.4772,51.9023" id="Stroke-441" stroke="#9452BA"></path>
            <path d="M22.4512,54.377 L40.4772,54.377" id="Stroke-442" stroke="#9452BA"></path>
            <path d="M22.4512,56.8506 L40.4772,56.8506" id="Stroke-443" stroke="#9452BA"></path>
            <polygon id="Stroke-444" stroke="#9452BA" points="43.018 57.546 48.49 57.546 48.49 51.146 43.018 51.146"></polygon>
            <path d="M41.4004,6.8052 L29.2714,6.8052 C28.9034,6.8052 28.6044,6.5072 28.6044,6.1382 L28.6044,5.6502 C28.6044,5.2822 28.9034,4.9832 29.2714,4.9832 L41.4004,4.9832 C41.7684,4.9832 42.0674,5.2822 42.0674,5.6502 L42.0674,6.1382 C42.0674,6.5072 41.7684,6.8052 41.4004,6.8052 Z" id="Stroke-445" stroke="#FFFFFF"></path>
            <path d="M39.8428,108.4521 C39.8428,110.9411 37.8248,112.9591 35.3358,112.9591 C32.8468,112.9591 30.8288,110.9411 30.8288,108.4521 C30.8288,105.9631 32.8468,103.9451 35.3358,103.9451 C37.8248,103.9451 39.8428,105.9631 39.8428,108.4521 Z" id="Stroke-446" stroke="#5E63B6" stroke-width="2"></path>
        </g>
        <g id="Group-16" transform="translate(1158.000000, 291.000000)">
            <path d="M229.3945,131.2939 L35.9035,131.2939 C31.2675,131.2939 27.5095,127.5369 27.5095,122.9009 L27.5095,8.9069 C27.5095,4.2719 31.2675,0.5149 35.9035,0.5149 L229.3945,0.5149 C234.0295,0.5149 237.7875,4.2719 237.7875,8.9069 L237.7875,122.9009 C237.7875,127.5369 234.0295,131.2939 229.3945,131.2939" id="Fill-450" fill="#FFFFFF"></path>
            <path d="M229.3945,131.2939 L35.9035,131.2939 C31.2675,131.2939 27.5095,127.5369 27.5095,122.9009 L27.5095,8.9069 C27.5095,4.2719 31.2675,0.5149 35.9035,0.5149 L229.3945,0.5149 C234.0295,0.5149 237.7875,4.2719 237.7875,8.9069 L237.7875,122.9009 C237.7875,127.5369 234.0295,131.2939 229.3945,131.2939 Z" id="Stroke-451" stroke="#5E63B6" stroke-width="3"></path>
            <polygon id="Fill-452" fill="#FFFFFF" points="40.685 117.25 224.611 117.25 224.611 13.344 40.685 13.344"></polygon>
            <polygon id="Stroke-453" stroke="#ACD3EF" stroke-width="2" points="40.685 117.25 224.611 117.25 224.611 13.344 40.685 13.344"></polygon>
            <path d="M252.4063,143.5068 L12.8903,143.5068 C6.1453,143.5068 0.6773,138.0388 0.6773,131.2938 L264.6193,131.2938 C264.6193,138.0388 259.1513,143.5068 252.4063,143.5068" id="Fill-454" fill="#FFFFFF"></path>
            <path d="M252.4063,143.5068 L12.8903,143.5068 C6.1453,143.5068 0.6773,138.0388 0.6773,131.2938 L264.6193,131.2938 C264.6193,138.0388 259.1513,143.5068 252.4063,143.5068 Z" id="Stroke-455" stroke="#5E63B6" stroke-width="3"></path>
            <path d="M148.5908,134.6582 L114.1148,134.6582 C112.2578,134.6582 110.7508,133.1522 110.7508,131.2942 L151.9548,131.2942 C151.9548,133.1522 150.4478,134.6582 148.5908,134.6582 Z" id="Stroke-457" stroke="#5E63B6" stroke-width="3"></path>
            <path d="M117.4258,76.1064 C117.2368,76.2014 117.0348,76.2864 116.8218,76.3624 C116.6098,76.4374 116.3798,76.4994 116.1328,76.5464 C116.3798,76.6034 116.6098,76.6684 116.8218,76.7384 C117.0348,76.8094 117.2368,76.8964 117.4258,77.0014 L123.8018,80.2244 C123.9908,80.3194 124.1238,80.4284 124.1988,80.5504 C124.2758,80.6744 124.3138,80.8114 124.3138,80.9624 L124.3138,82.7814 L113.3358,77.0724 L113.3358,76.0214 L124.3138,70.3264 L124.3138,72.1294 C124.3138,72.2914 124.2758,72.4304 124.1988,72.5484 C124.1238,72.6684 123.9908,72.7734 123.8018,72.8684 L117.4258,76.1064 Z" id="Fill-458" fill="#9452BA"></path>
            <path d="M130.9023,86.4023 C130.7793,86.7333 130.5873,86.9793 130.3273,87.1403 C130.0663,87.3013 129.7983,87.3813 129.5243,87.3813 L128.4593,87.3813 L136.9943,66.1233 C137.1073,65.8203 137.2803,65.5883 137.5123,65.4273 C137.7453,65.2663 138.0113,65.1853 138.3153,65.1853 L139.3943,65.1853 L130.9023,86.4023 Z" id="Fill-459" fill="#9452BA"></path>
            <path d="M154.5186,76.0215 L154.5186,77.0725 L143.5406,82.7815 L143.5406,80.9625 C143.5406,80.8115 143.5786,80.6745 143.6546,80.5505 C143.7306,80.4285 143.8626,80.3195 144.0516,80.2245 L150.4286,77.0005 C150.6176,76.8965 150.8196,76.8095 151.0326,76.7385 C151.2456,76.6675 151.4696,76.6035 151.7056,76.5465 C151.2236,76.4425 150.7976,76.2955 150.4286,76.1065 L144.0516,72.8685 C143.8626,72.7735 143.7306,72.6675 143.6546,72.5485 C143.5786,72.4305 143.5406,72.2915 143.5406,72.1295 L143.5406,70.3265 L154.5186,76.0215 Z" id="Fill-460" fill="#9452BA"></path>
            <polygon id="Stroke-461" stroke="#ACD3EF" stroke-width="2" points="90.062 101.07 177.793 101.07 177.793 52.04 90.062 52.04"></polygon>
            <polygon id="Stroke-462" stroke="#ACD3EF" stroke-width="2" points="90.062 52.035 177.793 52.035 177.793 42.951 90.062 42.951"></polygon>
        </g>
        <path d="M827.966814,377.847765 C827.738535,376.128002 826.2683,374.79955 824.482297,374.79955 C822.697299,374.79955 821.226058,376.128002 820.998785,377.847765 L820.964594,377.847765 L820.964594,377.067149 C820.964594,375.134673 819.449105,373.477118 817.512257,373.440997 C815.540211,373.404876 813.929187,374.990189 813.929187,376.949755 L813.929187,375.959437 C813.929187,374.025957 812.413699,372.369406 810.47685,372.333285 C808.503799,372.298167 806.893781,373.882476 806.893781,375.843047 L806.893781,362.625754 C806.893781,360.693278 805.378292,359.035723 803.441444,359.000605 C801.468393,358.964484 799.858375,360.549797 799.858375,362.509364 L799.858375,377.847765 L799.858375,383.477631 L799.858375,388.632907 L793.89095,382.678955 C792.371439,381.163877 789.897583,381.02441 788.307677,382.467245 C786.612181,384.00841 786.564916,386.631199 788.1689,388.231562 L798.854753,398.989614 C799.496347,399.636783 800.372253,400 801.284362,400 L824.580849,400 C826.469427,400 828,398.472882 828,396.588568 L828,395.62233 L827.966814,377.847765 Z" id="Fill-463"></path>
        <path d="M827.966814,377.847765 C827.738535,376.128002 826.2683,374.79955 824.482297,374.79955 C822.697299,374.79955 821.226058,376.128002 820.998785,377.847765 L820.964594,377.847765 L820.964594,377.067149 C820.964594,375.134673 819.449105,373.477118 817.512257,373.440997 C815.540211,373.404876 813.929187,374.990189 813.929187,376.949755 L813.929187,375.959437 C813.929187,374.025957 812.413699,372.369406 810.47685,372.333285 C808.503799,372.298167 806.893781,373.882476 806.893781,375.843047 L806.893781,362.625754 C806.893781,360.693278 805.378292,359.035723 803.441444,359.000605 C801.468393,358.964484 799.858375,360.549797 799.858375,362.509364 L799.858375,377.847765 L799.858375,383.477631 L799.858375,388.632907 L793.89095,382.678955 C792.371439,381.163877 789.897583,381.02441 788.307677,382.467245 C786.612181,384.00841 786.564916,386.631199 788.1689,388.231562 L798.854753,398.989614 C799.496347,399.636783 800.372253,400 801.284362,400 L824.580849,400 C826.469427,400 828,398.472882 828,396.588568 L828,395.62233 L827.966814,377.847765 Z" id="Stroke-464" stroke="#9452BA" stroke-width="2"></path>
        <g id="Group-28" transform="translate(94.000000, 414.000000)">
            <path d="M127.216908,96 L10.7830922,96 C4.82701247,96 0,91.1677483 0,85.2074379 L0,10.7925621 C0,4.83125163 4.82701247,0 10.7830922,0 L127.216908,0 C133.171988,0 138,4.83125163 138,10.7925621 L138,85.2074379 C138,91.1677483 133.171988,96 127.216908,96" id="Fill-573" fill="#FFFFFF"></path>
            <path d="M127.216908,96 L10.7830922,96 C4.82701247,96 0,91.1677483 0,85.2074379 L0,10.7925621 C0,4.83125163 4.82701247,0 10.7830922,0 L127.216908,0 C133.171988,0 138,4.83125163 138,10.7925621 L138,85.2074379 C138,91.1677483 133.171988,96 127.216908,96 Z" id="Stroke-574" stroke="#5E63B6" stroke-width="3"></path>
            <polygon id="Fill-575" fill="#FFFFFF" points="9 88 123 88 123 8 9 8"></polygon>
            <polygon id="Stroke-576" stroke="#9ACDED" stroke-width="2" points="9 88 123 88 123 8 9 8"></polygon>
            <path d="M134,48.4994878 C134,50.4326065 132.432606,52 130.499488,52 C128.566369,52 127,50.4326065 127,48.4994878 C127,46.5663691 128.566369,45 130.499488,45 C132.432606,45 134,46.5663691 134,48.4994878 Z" id="Stroke-577" stroke="#5E63B6" stroke-width="2"></path>
            <g id="Group-5" transform="translate(29.000000, 35.000000)" fill="#9452BA">
                <path d="M3.666,25.9707 C3.666,24.6247 3.643,23.4877 3.596,22.5587 C3.549,21.6297 3.41,20.8347 3.179,20.1737 C2.946,19.5117 2.592,18.9497 2.117,18.4847 C1.641,18.0207 0.973,17.5677 0.114,17.1267 L0.114,16.6737 C0.741,16.3497 1.281,16.0067 1.733,15.6467 C2.186,15.2867 2.552,14.8747 2.831,14.4097 C3.109,13.9467 3.312,13.4177 3.44,12.8257 C3.567,12.2347 3.631,11.5437 3.631,10.7547 C3.631,9.1067 3.684,7.6557 3.788,6.4027 C3.893,5.1487 4.171,4.0987 4.624,3.2507 C5.076,2.4037 5.755,1.7657 6.661,1.3357 C7.566,0.9067 8.808,0.6917 10.386,0.6917 L10.874,0.6917 C10.92,0.9237 10.955,1.1507 10.978,1.3697 C11.001,1.5917 11.013,1.8287 11.013,2.0837 C11.013,2.3397 11.001,2.5777 10.978,2.7977 C10.955,3.0187 10.92,3.2337 10.874,3.4427 C9.991,3.4427 9.295,3.5347 8.785,3.7207 C8.273,3.9077 7.885,4.2137 7.618,4.6437 C7.351,5.0737 7.177,5.6237 7.096,6.2977 C7.014,6.9707 6.974,7.7947 6.974,8.7697 L6.974,8.9787 C6.974,10.2557 6.927,11.3347 6.834,12.2167 C6.742,13.0997 6.579,13.8357 6.347,14.4277 C6.115,15.0197 5.808,15.5067 5.424,15.8907 C5.041,16.2737 4.571,16.6047 4.014,16.8827 C4.571,17.1847 5.041,17.5277 5.424,17.9097 C5.808,18.2927 6.115,18.7807 6.347,19.3717 C6.579,19.9637 6.742,20.7017 6.834,21.5837 C6.927,22.4657 6.974,23.5447 6.974,24.8217 L6.974,25.0657 C6.974,26.0177 7.014,26.8297 7.096,27.5027 C7.177,28.1757 7.351,28.7217 7.618,29.1397 C7.885,29.5577 8.273,29.8657 8.785,30.0627 C9.295,30.2587 9.991,30.3587 10.874,30.3587 C10.92,30.5677 10.955,30.7817 10.978,31.0017 C11.001,31.2227 11.013,31.4607 11.013,31.7157 C11.013,31.9487 11.001,32.1807 10.978,32.4127 C10.955,32.6447 10.92,32.8767 10.874,33.1097 C9.481,33.1097 8.326,32.9697 7.409,32.6917 C6.492,32.4127 5.755,31.9827 5.198,31.4027 C4.641,30.8227 4.246,30.0787 4.014,29.1737 C3.782,28.2697 3.666,27.2007 3.666,25.9707" id="Fill-578"></path>
                <path d="M71.8306,7.8301 C71.8306,9.1761 71.8536,10.3131 71.9006,11.2421 C71.9476,12.1701 72.0866,12.9661 72.3176,13.6271 C72.5506,14.2891 72.9046,14.8511 73.3796,15.3151 C73.8556,15.7801 74.5236,16.2321 75.3826,16.6741 L75.3826,17.1271 C74.7556,17.4511 74.2156,17.7941 73.7636,18.1531 C73.3106,18.5141 72.9446,18.9261 72.6666,19.3901 C72.3876,19.8541 72.1846,20.3821 72.0566,20.9751 C71.9296,21.5661 71.8656,22.2571 71.8656,23.0461 C71.8656,24.6941 71.8136,26.1441 71.7086,27.3981 C71.6036,28.6521 71.3256,29.7021 70.8726,30.5501 C70.4206,31.3961 69.7416,32.0351 68.8356,32.4651 C67.9306,32.8941 66.6886,33.1091 65.1106,33.1091 L64.6226,33.1091 C64.5766,32.8771 64.5416,32.6501 64.5186,32.4311 C64.4956,32.2091 64.4836,31.9721 64.4836,31.7171 C64.4836,31.4611 64.4956,31.2231 64.5186,31.0031 C64.5416,30.7811 64.5766,30.5671 64.6226,30.3581 C65.5056,30.3581 66.2016,30.2661 66.7116,30.0801 C67.2236,29.8931 67.6116,29.5861 67.8786,29.1571 C68.1456,28.7271 68.3196,28.1761 68.4006,27.5031 C68.4826,26.8291 68.5226,26.0061 68.5226,25.0311 L68.5226,24.8221 C68.5226,23.5451 68.5696,22.4661 68.6626,21.5841 C68.7546,20.7011 68.9176,19.9651 69.1496,19.3731 C69.3816,18.7801 69.6896,18.2931 70.0726,17.9101 C70.4556,17.5271 70.9256,17.1961 71.4826,16.9181 C70.9256,16.6161 70.4556,16.2731 70.0726,15.8911 C69.6896,15.5081 69.3816,15.0201 69.1496,14.4281 C68.9176,13.8361 68.7546,13.0991 68.6626,12.2171 C68.5696,11.3351 68.5226,10.2551 68.5226,8.9781 L68.5226,8.7351 C68.5226,7.7831 68.4826,6.9711 68.4006,6.2981 C68.3196,5.6241 68.1456,5.0791 67.8786,4.6611 C67.6116,4.2431 67.2236,3.9351 66.7116,3.7381 C66.2016,3.5411 65.5056,3.4421 64.6226,3.4421 C64.5766,3.2331 64.5416,3.0191 64.5186,2.7981 C64.4956,2.5781 64.4836,2.3401 64.4836,2.0841 C64.4836,1.8521 64.4956,1.6201 64.5186,1.3881 C64.5416,1.1561 64.5766,0.9241 64.6226,0.6911 C66.0156,0.6911 67.1706,0.8311 68.0876,1.1091 C69.0046,1.3881 69.7416,1.8171 70.2986,2.3971 C70.8556,2.9781 71.2506,3.7211 71.4826,4.6261 C71.7146,5.5311 71.8306,6.5991 71.8306,7.8301" id="Fill-579"></path>
                <path d="M18.002,19.3516 C17.943,18.9436 17.893,18.5416 17.849,18.1476 C17.805,17.7536 17.784,17.3536 17.784,16.9446 C17.784,16.5366 17.805,16.1206 17.849,15.6966 C17.893,15.2746 17.943,14.8586 18.002,14.4496 C18.411,14.3906 18.812,14.3476 19.206,14.3186 C19.6,14.2896 20.001,14.2746 20.41,14.2746 C20.818,14.2746 21.226,14.2896 21.635,14.3186 C22.044,14.3476 22.452,14.3906 22.86,14.4496 C22.919,14.8586 22.97,15.2666 23.014,15.6746 C23.058,16.0836 23.08,16.4926 23.08,16.9006 C23.08,17.3096 23.058,17.7176 23.014,18.1256 C22.97,18.5356 22.919,18.9436 22.86,19.3516 C22.452,19.4096 22.051,19.4536 21.657,19.4826 C21.263,19.5116 20.862,19.5266 20.454,19.5266 C20.044,19.5266 19.636,19.5116 19.228,19.4826 C18.819,19.4536 18.411,19.4096 18.002,19.3516" id="Fill-580"></path>
                <path d="M35.3931,19.3516 C35.3341,18.9436 35.2841,18.5416 35.2401,18.1476 C35.1961,17.7536 35.1741,17.3536 35.1741,16.9446 C35.1741,16.5366 35.1961,16.1206 35.2401,15.6966 C35.2841,15.2746 35.3341,14.8586 35.3931,14.4496 C35.8021,14.3906 36.2031,14.3476 36.5971,14.3186 C36.9911,14.2896 37.3921,14.2746 37.8001,14.2746 C38.2081,14.2746 38.6171,14.2896 39.0261,14.3186 C39.4351,14.3476 39.8431,14.3906 40.2511,14.4496 C40.3101,14.8586 40.3611,15.2666 40.4051,15.6746 C40.4481,16.0836 40.4701,16.4926 40.4701,16.9006 C40.4701,17.3096 40.4481,17.7176 40.4051,18.1256 C40.3611,18.5356 40.3101,18.9436 40.2511,19.3516 C39.8431,19.4096 39.4421,19.4536 39.0481,19.4826 C38.6541,19.5116 38.2521,19.5266 37.8441,19.5266 C37.4351,19.5266 37.0271,19.5116 36.6191,19.4826 C36.2101,19.4536 35.8021,19.4096 35.3931,19.3516" id="Fill-581"></path>
                <path d="M52.7837,19.3516 C52.7247,18.9436 52.6747,18.5416 52.6307,18.1476 C52.5867,17.7536 52.5657,17.3536 52.5657,16.9446 C52.5657,16.5366 52.5867,16.1206 52.6307,15.6966 C52.6747,15.2746 52.7247,14.8586 52.7837,14.4496 C53.1927,14.3906 53.5937,14.3476 53.9877,14.3186 C54.3817,14.2896 54.7827,14.2746 55.1917,14.2746 C55.5997,14.2746 56.0077,14.2896 56.4167,14.3186 C56.8257,14.3476 57.2337,14.3906 57.6427,14.4496 C57.7007,14.8586 57.7517,15.2666 57.7957,15.6746 C57.8397,16.0836 57.8617,16.4926 57.8617,16.9006 C57.8617,17.3096 57.8397,17.7176 57.7957,18.1256 C57.7517,18.5356 57.7007,18.9436 57.6427,19.3516 C57.2337,19.4096 56.8327,19.4536 56.4387,19.4826 C56.0447,19.5116 55.6437,19.5266 55.2357,19.5266 C54.8257,19.5266 54.4177,19.5116 54.0097,19.4826 C53.6007,19.4536 53.1927,19.4096 52.7837,19.3516" id="Fill-582"></path>
            </g>
        </g>
        <path d="M760.735016,486.531186 C761.001795,486.76197 761.173296,486.940032 761.232469,486.996733 C761.236481,487.007675 761.231466,486.986785 761.232469,486.996733 C761.232469,486.998722 761.233472,486.995738 761.233472,486.995738 C754.755545,483.520054 750.34566,486.165115 745.339032,485.541402 C745.26983,485.520512 745.191601,485.503601 745.10234,485.489675 C744.991015,485.473759 744.877684,485.450879 744.767361,485.424021 C743.448508,485.095751 742.211895,483.994554 741.103657,482.417862 C741.097639,482.409904 741.092625,482.401946 741.086607,482.392994 C740.992332,482.263675 740.903071,482.127393 740.81381,481.992106 C740.81381,481.992106 740.812807,481.988127 740.809798,481.987132 C740.647323,481.736453 740.485852,481.470853 740.327389,481.201274 C740.311342,481.17342 740.293289,481.146562 740.277242,481.118709 C740.236122,481.042112 740.193999,480.965516 740.150873,480.890909 C740.106744,480.812323 740.062615,480.735727 740.020492,480.659131 C739.978369,480.578555 739.937249,480.500964 739.897132,480.423373 C739.853003,480.341803 739.811882,480.261227 739.768756,480.179657 C739.739671,480.124946 739.710586,480.06526 739.680499,480.005575 C738.563234,477.785275 737.655582,475.11833 737.006686,472.460337 C737.006686,472.460337 736.991642,472.434473 737.006686,472.460337 C739.440798,473.776401 741.973197,474.857703 744.110442,475.454558 C746.684964,476.175757 749.908383,476.478163 753.003426,476.333924 C753.951195,473.41033 754.498795,470.247995 754.471716,467.593981 C754.446642,465.374677 754.069541,462.68883 753.411618,460 C753.613207,460.108429 753.81279,460.220836 754.014379,460.331254 C754.072549,460.365076 754.131722,460.399893 754.191898,460.434709 C754.334314,460.515285 754.47673,460.594865 754.617141,460.680414 C754.682331,460.716226 754.748524,460.756016 754.812712,460.794812 C754.955128,460.879366 755.094535,460.962926 755.234946,461.048475 C755.29111,461.083291 755.34928,461.118108 755.406447,461.15193 C755.582963,461.262348 755.758475,461.371771 755.931982,461.483184 C755.950035,461.493132 755.968088,461.504074 755.984135,461.516011 C756.186727,461.642345 756.38631,461.774648 756.58489,461.905956 C756.600937,461.914909 756.614978,461.926846 756.631025,461.936793 C756.810549,462.056164 756.984056,462.174541 757.159569,462.294906 C757.196678,462.318781 757.230777,462.345639 757.266883,462.368518 C757.426349,462.478937 757.583809,462.591344 757.742272,462.703752 C757.771357,462.726631 757.800442,462.749511 757.832535,462.771395 C758.014066,462.902703 758.19359,463.034011 758.370106,463.167309 C758.370106,463.167309 758.372112,463.169298 758.374118,463.169298 C758.936762,463.598039 759.474332,464.032748 759.979809,464.473426 C759.98683,464.4784 759.992847,464.484368 759.999868,464.488347 C760.840324,465.228447 761.586504,465.982474 762.200297,466.734511 C762.289558,466.844929 762.37581,466.955347 762.459053,467.06477 C762.462062,467.069744 762.467077,467.071733 762.469083,467.075712 L762.469083,467.077702 C762.546308,467.177178 762.620525,467.277648 762.689727,467.375135 L762.69073,467.378119 C762.693739,467.381103 762.695745,467.386077 762.697751,467.389061 C762.774976,467.4955 762.849193,467.601939 762.917392,467.709373 L762.918395,467.709373 C762.927422,467.724295 762.934442,467.737226 762.944472,467.753143 C762.945474,467.755132 762.94748,467.754137 762.94748,467.756127 C763.037744,467.893403 763.122993,468.032669 763.201222,468.166962 C763.213257,468.191831 763.225292,468.213715 763.23833,468.234605 C763.243345,468.242563 763.246354,468.251516 763.254377,468.260469 C763.340629,468.415651 763.421866,468.570833 763.494077,468.728005 C763.547233,468.835439 763.593367,468.943868 763.638499,469.052296 C763.656552,469.09905 763.672599,469.143814 763.689649,469.188578 C763.715725,469.256222 763.737789,469.321876 763.762863,469.389519 C763.77891,469.437268 763.791948,469.486011 763.806992,469.537738 C763.82705,469.598418 763.8441,469.662083 763.86115,469.723758 C763.874188,469.772501 763.88522,469.820249 763.895249,469.870982 C763.910293,469.932657 763.923332,469.994332 763.935367,470.057002 C763.94339,470.103755 763.950411,470.153493 763.958434,470.201242 C763.96746,470.264906 763.973478,470.33056 763.982504,470.392235 C763.987519,470.436999 763.990528,470.481763 763.993537,470.524538 C763.997548,470.59616 763.998551,470.665793 763.999554,470.739406 C763.999554,470.771238 764.000557,470.809039 763.999554,470.84485 C763.998551,470.952284 763.990528,471.057728 763.978493,471.161183 C763.971472,471.232805 763.96746,471.29448 763.96746,471.352176 C763.288477,476.321986 759.573623,479.906099 761.232469,486.996733" id="Fill-583" fill="#9452BA"></path>
        <g id="Group-18" transform="translate(874.000000, 418.000000)">
            <path d="M30,61 C30,82.5391409 47.570341,100 69.2457707,100 L235,100" id="Stroke-585" stroke="#5E63B6" stroke-width="5"></path>
            <path d="M61,30.5 C61,47.3449468 47.3441746,61 30.5004975,61 C13.6548304,61 0,47.3449468 0,30.5 C0,13.6550532 13.6548304,0 30.5004975,0 C47.3441746,0 61,13.6550532 61,30.5" id="Fill-586" fill="#FFFFFF"></path>
            <path d="M61,30.5 C61,47.3449468 47.3441746,61 30.5004975,61 C13.6548304,61 0,47.3449468 0,30.5 C0,13.6550532 13.6548304,0 30.5004975,0 C47.3441746,0 61,13.6550532 61,30.5 Z" id="Stroke-587" stroke="#5E63B6" stroke-width="5"></path>
            <ellipse id="Oval" fill="#E1F2FF" fill-rule="nonzero" cx="26" cy="35" rx="17" ry="16"></ellipse>
            <path d="M46,31.0004997 C46,39.8367009 38.8367009,47 30.0004997,47 C21.1632991,47 14,39.8367009 14,31.0004997 C14,22.1632991 21.1632991,15 30.0004997,15 C38.8367009,15 46,22.1632991 46,31.0004997 Z" id="Stroke-589" stroke="#5E63B6" stroke-width="2" fill="#FFFFFF"></path>
            <path d="M255,94 L255,106 L236.135304,106 C235.509247,106 235,105.501006 235,104.885312 L235,95.1136821 C235,94.4979879 235.509247,94 236.135304,94 L255,94 Z" id="Stroke-590" stroke="#5E63B6" stroke-width="5" fill="#5E63B6"></path>
            <path d="M272,98.9219417 L272,101.077282 C272,101.587573 270.959424,102 269.67389,102 L255,102 L255,98 L269.67389,98 C270.959424,98 272,98.4124272 272,98.9219417 Z" id="Stroke-591" stroke="#5E63B6" stroke-width="3" fill="#5E63B6"></path>
        </g>
        <g id="Group-15" transform="translate(990.000000, 311.000000)">
            <g id="Group-597" transform="translate(0.000000, 23.304500)">
                <path d="M0.0866781116,1.2364 L219.675948,1.2364" id="Fill-595" fill="#11324D"></path>
                <path d="M0.0866781116,0 L219.675948,0" id="Stroke-596" stroke="#5E63B6" stroke-width="5"></path>
            </g>
            <path d="M266.756,23.6825 C266.756,36.5935 256.289,47.0605 243.378,47.0605 C230.467,47.0605 220,36.5935 220,23.6825 C220,10.7715 230.467,0.3045 243.378,0.3045 C256.289,0.3045 266.756,10.7715 266.756,23.6825 Z" id="Stroke-593" stroke="#5E63B6" stroke-width="4" fill="#FFFFFF"></path>
            <ellipse id="Oval" fill="#E1F2FF" fill-rule="nonzero" cx="240.684768" cy="26.5" rx="12.6847676" ry="13.5"></ellipse>
            <path d="M254.615,23.6125 C254.615,29.8575 249.553,34.9205 243.307,34.9205 C237.062,34.9205 232,29.8575 232,23.6125 C232,17.3675 237.062,12.3045 243.307,12.3045 C249.553,12.3045 254.615,17.3675 254.615,23.6125" id="Fill-594" stroke="#5E63B6" stroke-width="2" fill="#FFFFFF"></path>
        </g>
        <g id="Group-22" transform="translate(301.000000, 219.000000)">
            <g id="Group-27">
                <path d="M88.5015626,0 L4.49843742,0 C2.01351018,0 0,2.02433455 0,4.52037818 L0,51.1061673 C0,53.6022109 2.01351018,55.6265455 4.49843742,55.6265455 L69.3382591,55.6265455 L82.6478011,69 L82.6478011,55.6265455 L88.5015626,55.6265455 C90.9854911,55.6265455 93,53.6022109 93,51.1061673 L93,4.52037818 C93,2.02433455 90.9854911,0 88.5015626,0" id="Fill-312" fill="#FFFFFF"></path>
                <path d="M88.5015626,0 L4.49843742,0 C2.01351018,0 0,2.02433455 0,4.52037818 L0,51.1061673 C0,53.6022109 2.01351018,55.6265455 4.49843742,55.6265455 L69.3382591,55.6265455 L82.6478011,69 L82.6478011,55.6265455 L88.5015626,55.6265455 C90.9854911,55.6265455 93,53.6022109 93,51.1061673 L93,4.52037818 C93,2.02433455 90.9854911,0 88.5015626,0 Z" id="Stroke-313" stroke="#ACD3EF" stroke-width="2"></path>
                <path d="M18,16 L21,16" id="Stroke-314" stroke="#ACD3EF" stroke-width="2"></path>
                <path d="M27,16 L70,16" id="Stroke-315" stroke="#ACD3EF" stroke-width="2" stroke-dasharray="5.708,5.708"></path>
                <path d="M73,16 L76,16" id="Stroke-316" stroke="#ACD3EF" stroke-width="2"></path>
                <path d="M18,22 L20,22" id="Stroke-317" stroke="#ACD3EF" stroke-width="2"></path>
                <path d="M23,22 L72,22" id="Stroke-318" stroke="#ACD3EF" stroke-width="2" stroke-dasharray="4.106,3.079"></path>
                <path d="M74,22 L76,22" id="Stroke-319" stroke="#ACD3EF" stroke-width="2"></path>
                <path d="M18,28 L24,28" id="Stroke-320" stroke="#ACD3EF" stroke-width="2"></path>
                <path d="M27,28 L68,28" id="Stroke-321" stroke="#ACD3EF" stroke-width="2" stroke-dasharray="11.344,2.836"></path>
                <path d="M70,28 L76,28" id="Stroke-322" stroke="#ACD3EF" stroke-width="2"></path>
                <path d="M18,34 L21,34" id="Stroke-323" stroke="#ACD3EF" stroke-width="2"></path>
                <path d="M27,34 L70,34" id="Stroke-324" stroke="#ACD3EF" stroke-width="2" stroke-dasharray="5.708,5.708"></path>
                <path d="M73,34 L76,34" id="Stroke-325" stroke="#ACD3EF" stroke-width="2"></path>
                <path d="M18,39 L75,39" id="Stroke-326" stroke="#ACD3EF" stroke-width="2" stroke-dasharray="12,5"></path>
            </g>
            <g id="Group-26" transform="translate(58.000000, 90.000000)">
                <path d="M62.807666,49 L3.19133014,49 C1.42851928,49 0,47.5625644 0,45.7899963 L0,12.7077788 C0,10.9342013 1.42851928,9.49676569 3.19133014,9.49676569 L49.2081223,9.49676569 L58.6526124,0 L58.6526124,9.49676569 L62.807666,9.49676569 C64.5704768,9.49676569 66,10.9342013 66,12.7077788 L66,45.7899963 C66,47.5625644 64.5704768,49 62.807666,49" id="Fill-327" fill="#FFFFFF"></path>
                <path d="M62.807666,49 L3.19133014,49 C1.42851928,49 0,47.5625644 0,45.7899963 L0,12.7077788 C0,10.9342013 1.42851928,9.49676569 3.19133014,9.49676569 L49.2081223,9.49676569 L58.6526124,0 L58.6526124,9.49676569 L62.807666,9.49676569 C64.5704768,9.49676569 66,10.9342013 66,12.7077788 L66,45.7899963 C66,47.5625644 64.5704768,49 62.807666,49 Z" id="Stroke-328" stroke="#ACD3EF" stroke-width="2"></path>
                <path d="M12,37 L15,37" id="Stroke-329" stroke="#ACD3EF" stroke-width="2"></path>
                <path d="M22,37 L46,37" id="Stroke-330" stroke="#ACD3EF" stroke-width="2" stroke-dasharray="6.902,6.902"></path>
                <path d="M50,37 L53,37" id="Stroke-331" stroke="#ACD3EF" stroke-width="2"></path>
                <path d="M12,33 L14,33" id="Stroke-332" stroke="#ACD3EF" stroke-width="2"></path>
                <path d="M17,33 L49,33" id="Stroke-333" stroke="#ACD3EF" stroke-width="2" stroke-dasharray="3.843,2.882"></path>
                <path d="M51,33 L53,33" id="Stroke-334" stroke="#ACD3EF" stroke-width="2"></path>
                <path d="M12,29 L18,29" id="Stroke-335" stroke="#ACD3EF" stroke-width="2"></path>
                <path d="M21,29 L46,29" id="Stroke-336" stroke="#ACD3EF" stroke-width="2" stroke-dasharray="10.368,2.592"></path>
                <path d="M47,29 L53,29" id="Stroke-337" stroke="#ACD3EF" stroke-width="2"></path>
                <path d="M12,25 L15,25" id="Stroke-338" stroke="#ACD3EF" stroke-width="2"></path>
                <path d="M22,25 L46,25" id="Stroke-339" stroke="#ACD3EF" stroke-width="2" stroke-dasharray="6.902,6.902"></path>
                <path d="M50,25 L53,25" id="Stroke-340" stroke="#ACD3EF" stroke-width="2"></path>
                <path d="M12,21 L53,21" id="Stroke-341" stroke="#ACD3EF" stroke-width="2" stroke-dasharray="12,5"></path>
            </g>
        </g>
        <g id="Group-24" transform="translate(208.000000, 393.000000)">
            <path d="M0,24.5 C0,11.5216229 10.5216229,1 23.5,1 C36.4783771,1 47,11.5216229 47,24.5 C47,37.4783771 36.4783771,48 23.5,48 C10.5216229,48 0,37.4783771 0,24.5" id="Fill-598" fill="#FFFFFF"></path>
            <g id="Group-23">
                <g id="Group-21">
                    <ellipse id="Oval" fill="#EFEFF6" fill-rule="nonzero" cx="21.6847676" cy="24.5" rx="12.6847676" ry="13.5"></ellipse>
                    <path d="M0,23.5 C0,10.5216229 10.5216229,0 23.5,0 C36.4783771,0 47,10.5216229 47,23.5 C47,36.4783771 36.4783771,47 23.5,47 C10.5216229,47 0,36.4783771 0,23.5 Z" id="Stroke-599" stroke="#5E63B6" stroke-width="5"></path>
                    <path d="M12,23.5 C12,17.1489653 17.148176,12 23.5005085,12 C29.851824,12 35,17.1489653 35,23.5 C35,29.8510347 29.851824,35 23.5005085,35 C17.148176,35 12,29.8510347 12,23.5" id="Fill-600" stroke="#5E63B6" stroke-width="2" fill="#FFFFFF"></path>
                    <g id="Group-603" transform="translate(33.000000, 23.000000)">
                        <path d="M302.4897,0.5293 L0.8487,0.5293" id="Fill-601" fill="#11324D"></path>
                        <path d="M265,1.5 L12.5,1.5" id="Stroke-602" stroke="#5E63B6" stroke-width="5"></path>
                    </g>
                </g>
            </g>
        </g>
        <g id="Group-25" transform="translate(303.000000, 295.000000)">
            <path d="M394,71.5 C394,88.3449468 380.344175,102 363.500497,102 C346.655825,102 333,88.3449468 333,71.5 C333,54.6550532 346.655825,41 363.500497,41 C380.344175,41 394,54.6550532 394,71.5 Z" id="Stroke-617" stroke="#5E63B6" stroke-width="5" fill="#FFFFFF"></path>
            <path d="M380,73.5 C380,83.7174268 371.716958,92 361.500302,92 C351.283042,92 343,83.7174268 343,73.5 C343,63.2825732 351.283042,55 361.500302,55 C371.716958,55 380,63.2825732 380,73.5" id="Fill-616" fill="#E1F2FF"></path>
            <path d="M380,71 C380,79.8364772 372.836701,87 364.0005,87 C355.163299,87 348,79.8364772 348,71 C348,62.1635228 355.163299,55 364.0005,55 C372.836701,55 380,62.1635228 380,71" id="Fill-618" fill="#FFFFFF"></path>
            <path d="M380,71 C380,79.8364772 372.836701,87 364.0005,87 C355.163299,87 348,79.8364772 348,71 C348,62.1635228 355.163299,55 364.0005,55 C372.836701,55 380,62.1635228 380,71 Z" id="Stroke-619" stroke="#5E63B6" stroke-width="2"></path>
            <path d="M9,12 L9,0 L27.8646959,0 C28.4907526,0 29,0.497987928 29,1.11468813 L29,10.8863179 C29,11.501006 28.4907526,12 27.8646959,12 L9,12 Z" id="Stroke-620" stroke="#5E63B6" stroke-width="2" fill="#5E63B6"></path>
            <path d="M0,6.84779654 L0,4.15317414 C0,3.51640458 0.551930836,3 1.23146974,3 L9,3 L9,8 L1.23146974,8 C0.551930836,8 0,7.48359542 0,6.84779654 Z" id="Stroke-621" stroke="#5E63B6" stroke-width="2" fill="#5E63B6"></path>
            <path d="M332,71 L267.870501,71 C249.796778,71 235.145897,56.4484583 235.145897,38.4995032 C235.145897,20.5505481 220.495015,6 202.422293,6 L29,6" id="Stroke-622" stroke="#5E63B6" stroke-width="5"></path>
        </g>
        <g id="Group-3" transform="translate(719.000000, 159.000000)">
            <path d="M62.0645,87.1475 C62.0645,104.0775 48.3395,117.8015 31.4105,117.8015 C14.4805,117.8015 0.7555,104.0775 0.7555,87.1475 C0.7555,70.2175 14.4805,56.4935 31.4105,56.4935 C48.3395,56.4935 62.0645,70.2175 62.0645,87.1475" id="Fill-623" fill="#FFFFFF"></path>
            <path d="M62.0645,87.1475 C62.0645,104.0775 48.3395,117.8015 31.4105,117.8015 C14.4805,117.8015 0.7555,104.0775 0.7555,87.1475 C0.7555,70.2175 14.4805,56.4935 31.4105,56.4935 C48.3395,56.4935 62.0645,70.2175 62.0645,87.1475 Z" id="Stroke-624" stroke="#5E63B6" stroke-width="4"></path>
            <ellipse id="Oval" fill="#E1F2FF" fill-rule="nonzero" cx="27.01" cy="90.9895" rx="16.01" ry="16.0105"></ellipse>
            <path d="M47.4199,87.1475 C47.4199,95.9895 40.2519,103.1575 31.4099,103.1575 C22.5679,103.1575 15.3999,95.9895 15.3999,87.1475 C15.3999,78.3045 22.5679,71.1365 31.4099,71.1365 C40.2519,71.1365 47.4199,78.3045 47.4199,87.1475" id="Fill-625" fill="#FFFFFF"></path>
            <path d="M47.4199,87.1475 C47.4199,95.9895 40.2519,103.1575 31.4099,103.1575 C22.5679,103.1575 15.3999,95.9895 15.3999,87.1475 C15.3999,78.3045 22.5679,71.1365 31.4099,71.1365 C40.2519,71.1365 47.4199,78.3045 47.4199,87.1475 Z" id="Stroke-626" stroke="#5E63B6" stroke-width="2"></path>
            <path d="M365.3506,0.4551 L374.8766,0.4551 C375.8116,0.4551 376.5686,1.2131 376.5686,2.1461 L376.5686,22.2751 C376.5686,23.2101 375.8116,23.9671 374.8766,23.9671 L365.3506,23.9671 C363.0996,23.9671 361.2756,22.1421 361.2756,19.8921 L361.2756,4.5301 C361.2756,2.2801 363.0996,0.4551 365.3506,0.4551" id="Fill-627" fill="#5E63B6"></path>
            <path d="M365.3506,0.4551 L374.8766,0.4551 C375.8116,0.4551 376.5686,1.2131 376.5686,2.1461 L376.5686,22.2751 C376.5686,23.2101 375.8116,23.9671 374.8766,23.9671 L365.3506,23.9671 C363.0996,23.9671 361.2756,22.1421 361.2756,19.8921 L361.2756,4.5301 C361.2756,2.2801 363.0996,0.4551 365.3506,0.4551 Z" id="Stroke-628" stroke="#5E63B6" stroke-width="2"></path>
            <path d="M385.085,9.7617 L376.568,9.7617 L376.568,6.7747 L385.085,6.7747 C385.66,6.7747 386.127,7.2407 386.127,7.8167 L386.127,8.7197 C386.127,9.2957 385.66,9.7617 385.085,9.7617 Z" id="Stroke-630" stroke="#5E63B6" stroke-width="2" fill="#5E63B6"></path>
            <path d="M385.085,18.125 L376.568,18.125 L376.568,15.139 L385.085,15.139 C385.66,15.139 386.127,15.604 386.127,16.18 L386.127,17.084 C386.127,17.659 385.66,18.125 385.085,18.125 Z" id="Stroke-632" stroke="#5E63B6" stroke-width="2" fill="#5E63B6"></path>
            <path d="M62.0645,87.1475 L315.1365,87.1475 C327.5265,87.1475 337.5705,77.1035 337.5705,64.7125 L337.5705,34.9295 C337.5705,22.8185 347.3885,13.0005 359.5005,13.0005" id="Stroke-633" stroke="#5E63B6" stroke-width="5"></path>
        </g>
        <g id="Group-11" transform="translate(357.000000, 444.000000)" fill="#FFFFFF" fill-rule="nonzero" stroke="#5E63B6" stroke-linecap="round" stroke-width="2">
            <path d="M5,1 L5,11.12" id="Shape"></path>
            <path d="M10.0841629,6 L0,6" id="Shape"></path>
        </g>
        <g id="Group-11" transform="translate(621.000000, 44.000000)" fill="#FFFFFF" fill-rule="nonzero" stroke="#5E63B6" stroke-linecap="round" stroke-width="2">
            <path d="M5,1 L5,11.12" id="Shape"></path>
            <path d="M10.0841629,6 L0,6" id="Shape"></path>
        </g>
        <g id="Group-11" transform="translate(1080.000000, 276.000000)" fill="#FFFFFF" fill-rule="nonzero" stroke="#5E63B6" stroke-linecap="round" stroke-width="2">
            <path d="M5,1 L5,11.12" id="Shape"></path>
            <path d="M10.0841629,6 L0,6" id="Shape"></path>
        </g>
        <g id="Group-11" transform="translate(339.000000, 143.000000)" fill="#FFFFFF" fill-rule="nonzero" stroke="#5E63B6" stroke-linecap="round" stroke-width="2">
            <path d="M5,1 L5,11.12" id="Shape"></path>
            <path d="M10.0841629,6 L0,6" id="Shape"></path>
        </g>
        <g id="Group-11" transform="translate(1010.000000, 62.000000)" fill="#FFFFFF" fill-rule="nonzero" stroke="#5E63B6" stroke-linecap="round" stroke-width="2">
            <path d="M5,1 L5,11.12" id="Shape"></path>
            <path d="M10.0841629,6 L0,6" id="Shape"></path>
        </g>
        <g id="Group-11" transform="translate(1291.000000, 202.000000)" fill="#FFFFFF" fill-rule="nonzero" stroke="#5E63B6" stroke-linecap="round" stroke-width="2">
            <path d="M5,1 L5,11.12" id="Shape"></path>
            <path d="M10.0841629,6 L0,6" id="Shape"></path>
        </g>
        <g id="Group-11" transform="translate(1117.000000, 385.000000)" fill="#FFFFFF" fill-rule="nonzero" stroke="#5E63B6" stroke-linecap="round" stroke-width="2">
            <path d="M3.5,0.610268679 L3.5,7.35693535" id="Shape"></path>
            <path d="M7,4 L0,4" id="Shape"></path>
        </g>
        <g id="Group-11" transform="translate(450.000000, 235.000000)" fill="#FFFFFF" fill-rule="nonzero" stroke="#5E63B6" stroke-linecap="round" stroke-width="2">
            <path d="M3.5,0.610268679 L3.5,7.35693535" id="Shape"></path>
            <path d="M7,4 L0,4" id="Shape"></path>
        </g>
        <g id="Group-11" transform="translate(126.000000, 277.000000)" fill="#FFFFFF" fill-rule="nonzero" stroke="#5E63B6" stroke-linecap="round" stroke-width="2">
            <path d="M5,1 L5,11.12" id="Shape"></path>
            <path d="M10.0841629,6 L0,6" id="Shape"></path>
        </g>
        <g id="Group-20" transform="translate(249.000000, 634.000000)" stroke="#ACD3EF" stroke-linecap="round" stroke-width="5">
            <path d="M37,40 L112,40" id="Shape" fill="#FFFFFF" fill-rule="nonzero"></path>
            <path d="M1022.5,1 L999.5,1" id="Shape"></path>
            <path d="M744,1 L978.5,1" id="Shape"></path>
            <path d="M259,40 L446,40" id="Shape" fill="#FFFFFF" fill-rule="nonzero"></path>
            <path d="M468,40 L506,40" id="Shape" fill="#FFFFFF" fill-rule="nonzero"></path>
            <path d="M244,40 L229,40" id="Shape" fill="#FFFFFF" fill-rule="nonzero"></path>
            <path d="M0,40 L12,40" id="Shape" fill="#FFFFFF" fill-rule="nonzero"></path>
            <path d="M667,40 L713,40" id="Shape" fill="#FFFFFF" fill-rule="nonzero"></path>
        </g>
        <path d="M913,635 L859.156335,635 C871.999017,591.099741 849.353852,544.303053 808.576943,530.476672 C767.800033,516.650292 724.332767,541.029987 711.490085,584.930247 C696.839262,581.378529 681.477978,584.862166 669.402878,594.474796 C657.327779,604.087427 649.732791,618.8786 648.593954,635 L602.423011,635 C600.630443,600.345982 575.898424,572.128125 543.868026,568.192022 C535.104532,522.633572 502.321502,486.853966 460.128053,476.797685 C417.934603,466.741404 374.187534,484.281018 348.38187,521.600341 C318.495391,513.481927 286.835258,522.600964 264.706695,545.70122 C242.578132,568.801477 233.136142,602.58941 239.752277,635 L185,635" id="Shape" stroke="#ACD3EF" stroke-width="5" fill="#FFFFFF" fill-rule="nonzero" stroke-linecap="round"></path>
        <g id="Group-19" transform="translate(1259.000000, 563.000000) rotate(60.000000) translate(-1259.000000, -563.000000) translate(1228.000000, 509.000000)">
            <path d="M32.6273666,30.5789411 C27.4464716,21.2803835 0,2.93428558 0,2.93428558" id="Shape" stroke="#ACD3EF" stroke-width="2"></path>
            <path d="M60.9222031,107.282704 L9.07056799,107.282704 C8.48121077,107.282704 8.00344234,106.794077 8.00344234,106.191324 L8.00344234,48.0371404 C8.00793658,46.5769117 8.58448195,45.1794424 9.60413081,44.1572845 L32.664716,20.8290369 C33.9554349,19.5245552 36.0320005,19.5245552 37.3227194,20.8290369 L60.3993115,44.1572845 C61.4189604,45.1794424 61.9955058,46.5769117 62,48.0371404 L62,106.191324 C62.0000142,106.482677 61.8861216,106.76194 61.6836828,106.966931 C61.4812439,107.171921 61.2070668,107.285618 60.9222031,107.282704 Z" id="Shape" stroke="#5E63B6" stroke-width="2" fill="#FFFFFF" fill-rule="nonzero"></path>
            <ellipse id="Oval" fill="#E1F2FF" fill-rule="nonzero" cx="33.0039587" cy="66.7276604" rx="13.1950086" ry="13.4949138"></ellipse>
            <ellipse id="Oval" stroke="#5E63B6" stroke-width="2" fill="#FFFFFF" fill-rule="nonzero" cx="35.6046472" cy="62.2671595" rx="13.1950086" ry="13.4949138"></ellipse>
            <path d="M20.2753873,87.6923077 L49.9841652,87.6923077" id="Shape" stroke="#ACD3EF" stroke-width="2" stroke-linecap="round"></path>
            <path d="M20.2753873,95.0769231 L49.9841652,95.0769231" id="Shape" stroke="#ACD3EF" stroke-width="2" stroke-linecap="round"></path>
            <ellipse id="Oval" stroke="#5E63B6" stroke-width="2" fill="#FFFFFF" fill-rule="nonzero" cx="35.2151463" cy="34.0386157" rx="4.26850258" ry="4.36552002"></ellipse>
            <path d="M3.20137694,0.205835564 C3.20137694,0.205835564 4.31652324,5.18252839 5.83184165,6.88508119 C8.85714286,10.279273 12.8428571,13.771689 16.5404475,19.7306238 C23.0979346,30.3060961 26.9555938,40.5377836 32.7714286,34.8789783 C33.5504303,34.1204692 34.0413081,32.057761 33.1395869,31.0591483" id="Shape" stroke="#ACD3EF" stroke-width="2"></path>
        </g>
        <g id="Group-19" transform="translate(1210.000000, 536.000000) rotate(15.000000) translate(-1210.000000, -536.000000) translate(1179.000000, 484.000000)">
            <path d="M32.6273666,29.4463877 C27.4464716,20.4922211 0,2.82560833 0,2.82560833" id="Shape" stroke="#ACD3EF" stroke-width="2"></path>
            <path d="M60.9222031,103.309271 L9.07056799,103.309271 C8.48121077,103.309271 8.00344234,102.83874 8.00344234,102.258312 L8.00344234,46.2579871 C8.00793658,44.8518409 8.58448195,43.5061298 9.60413081,42.5218295 L32.664716,20.0575911 C33.9554349,18.8014236 36.0320005,18.8014236 37.3227194,20.0575911 L60.3993115,42.5218295 C61.4189604,43.5061298 61.9955058,44.8518409 62,46.2579871 L62,102.258312 C62.0000142,102.538874 61.8861216,102.807795 61.6836828,103.005192 C61.4812439,103.20259 61.2070668,103.312076 60.9222031,103.309271 Z" id="Shape" stroke="#5E63B6" stroke-width="2" fill="#FFFFFF" fill-rule="nonzero"></path>
            <ellipse id="Oval" fill="#E1F2FF" fill-rule="nonzero" cx="32.3309261" cy="64.0719287" rx="13.1950086" ry="12.9951021"></ellipse>
            <ellipse id="Oval" stroke="#5E63B6" stroke-width="2" fill="#FFFFFF" fill-rule="nonzero" cx="35.6046472" cy="59.9609684" rx="13.1950086" ry="12.9951021"></ellipse>
            <path d="M20.2753873,84.4444444 L49.9841652,84.4444444" id="Shape" stroke="#ACD3EF" stroke-width="2" stroke-linecap="round"></path>
            <path d="M20.2753873,91.5555556 L49.9841652,91.5555556" id="Shape" stroke="#ACD3EF" stroke-width="2" stroke-linecap="round"></path>
            <ellipse id="Oval" stroke="#5E63B6" stroke-width="2" fill="#FFFFFF" fill-rule="nonzero" cx="35.2151463" cy="32.7779262" rx="4.26850258" ry="4.20383409"></ellipse>
            <path d="M3.20137694,0.198212025 C3.20137694,0.198212025 4.31652324,4.99058289 5.83184165,6.63007819 C8.85714286,9.89855919 12.8428571,13.2616265 16.5404475,18.99986 C23.0979346,29.1836481 26.9555938,39.0363842 32.7714286,33.5871643 C33.5504303,32.8567481 34.0413081,30.8704365 33.1395869,29.9088095" id="Shape" stroke="#ACD3EF" stroke-width="2"></path>
        </g>
        <g id="Group-19" transform="translate(1156.000000, 571.000000) rotate(-60.000000) translate(-1156.000000, -571.000000) translate(1125.000000, 517.000000)">
            <path d="M32.6273666,30.5789411 C27.4464716,21.2803835 0,2.93428558 0,2.93428558" id="Shape" stroke="#ACD3EF" stroke-width="2"></path>
            <path d="M60.9222031,107.282704 L9.07056799,107.282704 C8.48121077,107.282704 8.00344234,106.794077 8.00344234,106.191324 L8.00344234,48.0371404 C8.00793658,46.5769117 8.58448195,45.1794424 9.60413081,44.1572845 L32.664716,20.8290369 C33.9554349,19.5245552 36.0320005,19.5245552 37.3227194,20.8290369 L60.3993115,44.1572845 C61.4189604,45.1794424 61.9955058,46.5769117 62,48.0371404 L62,106.191324 C62.0000142,106.482677 61.8861216,106.76194 61.6836828,106.966931 C61.4812439,107.171921 61.2070668,107.285618 60.9222031,107.282704 Z" id="Shape" stroke="#5E63B6" stroke-width="2" fill="#FFFFFF" fill-rule="nonzero"></path>
            <ellipse id="Oval" fill="#E1F2FF" fill-rule="nonzero" cx="32.2719079" cy="65.9956095" rx="13.1950086" ry="13.4949138"></ellipse>
            <ellipse id="Oval" stroke="#5E63B6" stroke-width="2" fill="#FFFFFF" fill-rule="nonzero" cx="35.6046472" cy="62.2671595" rx="13.1950086" ry="13.4949138"></ellipse>
            <path d="M20.2753873,87.6923077 L49.9841652,87.6923077" id="Shape" stroke="#ACD3EF" stroke-width="2" stroke-linecap="round"></path>
            <path d="M20.2753873,95.0769231 L49.9841652,95.0769231" id="Shape" stroke="#ACD3EF" stroke-width="2" stroke-linecap="round"></path>
            <ellipse id="Oval" stroke="#5E63B6" stroke-width="2" fill="#FFFFFF" fill-rule="nonzero" cx="35.2151463" cy="34.0386157" rx="4.26850258" ry="4.36552002"></ellipse>
            <path d="M3.20137694,0.205835564 C3.20137694,0.205835564 4.31652324,5.18252839 5.83184165,6.88508119 C8.85714286,10.279273 12.8428571,13.771689 16.5404475,19.7306238 C23.0979346,30.3060961 26.9555938,40.5377836 32.7714286,34.8789783 C33.5504303,34.1204692 34.0413081,32.057761 33.1395869,31.0591483" id="Shape" stroke="#ACD3EF" stroke-width="2"></path>
        </g>
        <g id="Group-11" transform="translate(773.000000, 130.000000)" fill="#FFFFFF" fill-rule="nonzero" stroke="#5E63B6" stroke-linecap="round" stroke-width="2">
            <path d="M5,1 L5,11.12" id="Shape"></path>
            <path d="M10.0841629,6 L0,6" id="Shape"></path>
        </g>
    </g>
</svg>