<?xml version="1.0" encoding="UTF-8" standalone="no"?>
<svg width="256px" height="256px" viewBox="0 0 256 256" version="1.1" xmlns="http://www.w3.org/2000/svg" xmlns:xlink="http://www.w3.org/1999/xlink">
    <!-- Generator: Sketch 50.2 (55047) - http://www.bohemiancoding.com/sketch -->
    <title>Common/Illustrations/Family</title>
    <desc>Created with Sketch.</desc>
    <defs></defs>
    <g id="Common/Illustrations/Family" stroke="none" stroke-width="1" fill="none" fill-rule="evenodd">
        <g id="Group" transform="translate(3.000000, 22.000000)">
            <path d="M5.3291,210.3705 C5.3291,144.2395 58.9391,90.6305 125.0701,90.6305 C191.2011,90.6305 244.8101,144.2395 244.8101,210.3705 L5.3291,210.3705 Z" id="Fill-1" fill="#E1F2FF"></path>
            <g id="Group-6" transform="translate(16.000000, 200.446000)">
                <path d="M0.9776,0.9245 L36.9776,0.9245" id="Fill-3" fill="#FFFFFF"></path>
                <path d="M0.9776,0.9245 L36.9776,0.9245" id="Stroke-5" stroke="#5E63B6" stroke-width="2" stroke-linecap="round" stroke-linejoin="round"></path>
            </g>
            <path d="M225.1421,201.3705 L114.6221,201.3705 C113.3771,201.3705 112.3681,200.3605 112.3681,199.1155 L112.3681,36.8325 C112.3681,35.5875 113.3771,34.5775 114.6221,34.5775 L225.1421,34.5775 C226.3871,34.5775 227.3971,35.5875 227.3971,36.8325 L227.3971,199.1155 C227.3971,200.3605 226.3871,201.3705 225.1421,201.3705" id="Fill-7" fill="#FFFFFF"></path>
            <path d="M225.1421,201.3705 L114.6221,201.3705 C113.3771,201.3705 112.3681,200.3605 112.3681,199.1155 L112.3681,36.8325 C112.3681,35.5875 113.3771,34.5775 114.6221,34.5775 L225.1421,34.5775 C226.3871,34.5775 227.3971,35.5875 227.3971,36.8325 L227.3971,199.1155 C227.3971,200.3605 226.3871,201.3705 225.1421,201.3705 Z" id="Stroke-9" stroke="#ACD3EF" stroke-width="2"></path>
            <polygon id="Fill-11" fill="#E1F2FF" points="121.4507 182.2016 220.6147 189.1036 220.6147 48.2506 120.3007 43.6496"></polygon>
            <path d="M188.7398,87.1635 C188.7398,99.3775 178.8388,109.2785 166.6248,109.2785 C154.4108,109.2785 144.5098,99.3775 144.5098,87.1635 C144.5098,74.9495 154.4108,65.0485 166.6248,65.0485 C178.8388,65.0485 188.7398,74.9495 188.7398,87.1635" id="Fill-13" fill="#FFFFFF"></path>
            <path d="M191.4224,82.6928 C191.4224,94.9068 181.5214,104.8068 169.3074,104.8068 C157.0934,104.8068 147.1924,94.9068 147.1924,82.6928 C147.1924,70.4788 157.0934,60.5778 169.3074,60.5778 C181.5214,60.5778 191.4224,70.4788 191.4224,82.6928" id="Fill-15" fill="#FFFFFF"></path>
            <path d="M191.4224,82.6928 C191.4224,94.9068 181.5214,104.8068 169.3074,104.8068 C157.0934,104.8068 147.1924,94.9068 147.1924,82.6928 C147.1924,70.4788 157.0934,60.5778 169.3074,60.5778 C181.5214,60.5778 191.4224,70.4788 191.4224,82.6928 Z" id="Stroke-17" stroke="#ACD3EF" stroke-width="2"></path>
            <path d="M174.8042,93.599 C174.8982,93.875 174.9792,94.063 175.0032,94.125 C175.0112,94.132 174.9952,94.121 175.0032,94.125 C175.0032,94.125 175.0032,94.127 175.0032,94.125 C175.0042,94.126 175.0022,94.125 175.0022,94.125 C174.3782,88.098 177.7952,85.586 178.8942,81.583 C178.9002,81.524 178.9112,81.459 178.9292,81.386 C178.9522,81.296 178.9712,81.204 178.9842,81.112 C179.1482,80.004 178.6942,78.715 177.8332,77.372 C177.8302,77.365 177.8252,77.358 177.8212,77.351 C177.7502,77.239 177.6742,77.127 177.5982,77.016 C177.5982,77.016 177.5952,77.014 177.5952,77.012 C177.4542,76.808 177.3032,76.602 177.1452,76.395 C177.1292,76.374 177.1152,76.352 177.0972,76.331 C177.0532,76.275 177.0062,76.219 176.9632,76.162 C176.9172,76.104 176.8712,76.045 176.8262,75.99 C176.7782,75.932 176.7322,75.876 176.6852,75.821 C176.6362,75.762 176.5882,75.704 176.5382,75.646 C176.5052,75.607 176.4682,75.566 176.4322,75.525 C175.0822,73.969 173.3242,72.432 171.4902,71.095 C171.4902,71.095 171.4762,71.075 171.4902,71.095 C171.7332,73.363 171.7632,75.631 171.5482,77.445 C171.2892,79.631 170.5062,82.176 169.4212,84.484 C166.8802,84.276 164.2832,83.687 162.2572,82.823 C160.5642,82.099 158.6242,80.958 156.7702,79.605 C156.7892,79.793 156.8122,79.979 156.8342,80.167 C156.8412,80.223 156.8492,80.279 156.8572,80.335 C156.8732,80.469 156.8902,80.602 156.9102,80.737 C156.9182,80.798 156.9272,80.86 156.9382,80.921 C156.9572,81.057 156.9772,81.19 156.9992,81.324 C157.0072,81.377 157.0172,81.432 157.0252,81.487 C157.0532,81.656 157.0812,81.824 157.1132,81.992 C157.1152,82.008 157.1172,82.025 157.1202,82.041 C157.1552,82.236 157.1932,82.429 157.2312,82.622 C157.2332,82.637 157.2372,82.651 157.2412,82.666 C157.2762,82.84 157.3112,83.011 157.3482,83.182 C157.3562,83.218 157.3642,83.252 157.3702,83.287 C157.4062,83.444 157.4422,83.599 157.4782,83.754 C157.4872,83.785 157.4942,83.814 157.5012,83.846 C157.5452,84.025 157.5892,84.203 157.6352,84.379 C157.6372,84.38 157.6362,84.381 157.6362,84.381 C157.7872,84.948 157.9512,85.494 158.1292,86.018 C158.1322,86.025 158.1342,86.031 158.1362,86.037 C158.4372,86.912 158.7812,87.718 159.1632,88.424 C159.2202,88.526 159.2782,88.627 159.3352,88.726 C159.3382,88.729 159.3382,88.734 159.3412,88.737 L159.3422,88.738 C159.3952,88.827 159.4482,88.915 159.5012,88.999 L159.5032,89.001 L159.5092,89.01 C159.5672,89.103 159.6252,89.193 159.6862,89.279 C159.6942,89.291 159.7012,89.301 159.7102,89.313 C159.7122,89.314 159.7102,89.316 159.7112,89.317 C159.7882,89.428 159.8682,89.537 159.9482,89.639 C159.9622,89.657 159.9752,89.673 159.9882,89.69 C159.9912,89.696 159.9972,89.701 160.0022,89.709 C160.0932,89.825 160.1882,89.936 160.2842,90.04 C160.3512,90.115 160.4192,90.184 160.4882,90.252 C160.5172,90.282 160.5482,90.308 160.5762,90.335 C160.6192,90.376 160.6632,90.414 160.7062,90.453 C160.7392,90.482 160.7732,90.507 160.8072,90.536 C160.8472,90.57 160.8912,90.603 160.9332,90.636 C160.9662,90.661 160.9992,90.684 161.0342,90.708 C161.0782,90.74 161.1212,90.769 161.1652,90.798 C161.1992,90.819 161.2342,90.84 161.2672,90.862 C161.3142,90.889 161.3622,90.914 161.4082,90.941 C161.4402,90.958 161.4732,90.975 161.5052,90.992 C161.5592,91.017 161.6122,91.039 161.6672,91.064 C161.6932,91.073 161.7212,91.087 161.7482,91.097 C161.8312,91.131 161.9142,91.159 161.9982,91.182 C162.0552,91.199 162.1022,91.216 162.1482,91.234 C166.1722,92.296 170.0892,90.612 175.0032,94.125" id="Fill-19" fill="#9452BA"></path>
            <g id="Group-24" transform="translate(140.000000, 129.446000)">
                <path d="M0.5484,0.9635 L57.5684,0.9635" id="Fill-21" fill="#FFFFFF"></path>
                <path d="M0.5484,0.9635 L57.5684,0.9635" id="Stroke-23" stroke="#ACD3EF" stroke-width="2" stroke-linecap="round" stroke-linejoin="round"></path>
            </g>
            <g id="Group-28" transform="translate(140.000000, 148.446000)">
                <path d="M0.5484,0.3464 L57.5684,0.3464" id="Fill-25" fill="#FFFFFF"></path>
                <path d="M0.5484,0.3464 L57.5684,0.3464" id="Stroke-27" stroke="#ACD3EF" stroke-width="2" stroke-linecap="round" stroke-linejoin="round"></path>
            </g>
            <g id="Group-32" transform="translate(140.000000, 167.446000)">
                <path d="M0.5484,0.3493 L57.5684,0.3493" id="Fill-29" fill="#FFFFFF"></path>
                <path d="M0.5484,0.3493 L57.5684,0.3493" id="Stroke-31" stroke="#ACD3EF" stroke-width="2" stroke-linecap="round" stroke-linejoin="round"></path>
            </g>
            <path d="M205.0767,201.3705 L87.9407,201.3705 C86.6957,201.3705 85.6857,200.3605 85.6857,199.1155 L85.6857,27.2385 C85.6857,25.9935 86.6957,24.9835 87.9407,24.9835 L205.0767,24.9835 C206.3227,24.9835 207.3317,25.9935 207.3317,27.2385 L207.3317,199.1155 C207.3317,200.3605 206.3227,201.3705 205.0767,201.3705" id="Fill-33" fill="#FFFFFF"></path>
            <path d="M205.0767,201.3705 L87.9407,201.3705 C86.6957,201.3705 85.6857,200.3605 85.6857,199.1155 L85.6857,27.2385 C85.6857,25.9935 86.6957,24.9835 87.9407,24.9835 L205.0767,24.9835 C206.3227,24.9835 207.3317,25.9935 207.3317,27.2385 L207.3317,199.1155 C207.3317,200.3605 206.3227,201.3705 205.0767,201.3705 Z" id="Stroke-35" stroke="#ACD3EF" stroke-width="2"></path>
            <polygon id="Fill-37" fill="#E1F2FF" points="95.2915 181.099 200.1585 188.398 200.1585 39.444 94.0755 34.578"></polygon>
            <path d="M166.4507,80.5941 C166.4507,93.5101 155.9797,103.9811 143.0637,103.9811 C130.1467,103.9811 119.6767,93.5101 119.6767,80.5941 C119.6767,67.6781 130.1467,57.2061 143.0637,57.2061 C155.9797,57.2061 166.4507,67.6781 166.4507,80.5941" id="Fill-39" fill="#FFFFFF"></path>
            <path d="M169.2876,75.8656 C169.2876,88.7826 158.8166,99.2536 145.9006,99.2536 C132.9836,99.2536 122.5136,88.7826 122.5136,75.8656 C122.5136,62.9496 132.9836,52.4786 145.9006,52.4786 C158.8166,52.4786 169.2876,62.9496 169.2876,75.8656" id="Fill-41" fill="#FFFFFF"></path>
            <path d="M169.2876,75.8656 C169.2876,88.7826 158.8166,99.2536 145.9006,99.2536 C132.9836,99.2536 122.5136,88.7826 122.5136,75.8656 C122.5136,62.9496 132.9836,52.4786 145.9006,52.4786 C158.8166,52.4786 169.2876,62.9496 169.2876,75.8656 Z" id="Stroke-43" stroke="#ACD3EF" stroke-width="2"></path>
            <path d="M151.7134,87.4008 C151.8134,87.6918 151.8994,87.8908 151.9244,87.9568 C151.9334,87.9628 151.9164,87.9528 151.9244,87.9568 C151.9244,87.9568 151.9244,87.9588 151.9244,87.9568 C151.9254,87.9578 151.9234,87.9568 151.9234,87.9568 C151.2634,81.5828 154.8774,78.9268 156.0394,74.6938 C156.0454,74.6308 156.0574,74.5618 156.0764,74.4848 C156.1004,74.3898 156.1194,74.2928 156.1344,74.1948 C156.3074,73.0228 155.8264,71.6608 154.9174,70.2398 C154.9144,70.2318 154.9074,70.2248 154.9034,70.2168 C154.8294,70.0988 154.7494,69.9808 154.6684,69.8628 C154.6684,69.8628 154.6654,69.8608 154.6654,69.8588 C154.5164,69.6428 154.3574,69.4248 154.1904,69.2068 C154.1724,69.1848 154.1564,69.1608 154.1384,69.1388 C154.0924,69.0798 154.0424,69.0208 153.9974,68.9618 C153.9484,68.8988 153.9004,68.8378 153.8524,68.7778 C153.8014,68.7168 153.7524,68.6578 153.7024,68.5988 C153.6514,68.5368 153.6004,68.4768 153.5484,68.4148 C153.5134,68.3728 153.4744,68.3298 153.4364,68.2858 C152.0084,66.6408 150.1494,65.0148 148.2084,63.6018 C148.2084,63.6018 148.1934,63.5798 148.2084,63.6018 C148.4654,65.9998 148.4984,68.3988 148.2714,70.3168 C147.9964,72.6298 147.1694,75.3208 146.0214,77.7598 C143.3344,77.5408 140.5874,76.9178 138.4454,76.0038 C136.6544,75.2388 134.6034,74.0318 132.6424,72.5998 C132.6634,72.7998 132.6874,72.9968 132.7104,73.1958 C132.7174,73.2548 132.7264,73.3138 132.7344,73.3738 C132.7524,73.5148 132.7704,73.6558 132.7914,73.7978 C132.7994,73.8628 132.8094,73.9278 132.8194,73.9938 C132.8404,74.1358 132.8614,74.2778 132.8844,74.4188 C132.8944,74.4748 132.9024,74.5328 132.9124,74.5898 C132.9424,74.7698 132.9724,74.9468 133.0044,75.1248 C133.0064,75.1428 133.0094,75.1608 133.0134,75.1768 C133.0494,75.3828 133.0894,75.5888 133.1304,75.7928 C133.1314,75.8078 133.1364,75.8218 133.1404,75.8388 C133.1774,76.0228 133.2144,76.2028 133.2534,76.3838 C133.2624,76.4218 133.2704,76.4588 133.2774,76.4948 C133.3154,76.6608 133.3534,76.8248 133.3914,76.9898 C133.4014,77.0208 133.4084,77.0518 133.4154,77.0868 C133.4624,77.2748 133.5084,77.4638 133.5584,77.6498 C133.5594,77.6508 133.5594,77.6528 133.5594,77.6528 C133.7184,78.2508 133.8924,78.8288 134.0804,79.3818 C134.0824,79.3898 134.0854,79.3958 134.0864,79.4028 C134.4054,80.3288 134.7694,81.1808 135.1744,81.9268 C135.2344,82.0358 135.2944,82.1428 135.3564,82.2468 C135.3594,82.2498 135.3594,82.2548 135.3614,82.2578 L135.3624,82.2578 C135.4174,82.3528 135.4744,82.4468 135.5304,82.5358 L135.5324,82.5378 C135.5324,82.5378 135.5374,82.5448 135.5394,82.5468 C135.6004,82.6448 135.6614,82.7408 135.7264,82.8308 L135.7264,82.8318 C135.7344,82.8438 135.7424,82.8548 135.7524,82.8678 C135.7534,82.8688 135.7524,82.8708 135.7534,82.8718 C135.8344,82.9898 135.9194,83.1038 136.0024,83.2128 C136.0184,83.2308 136.0314,83.2488 136.0454,83.2648 C136.0504,83.2718 136.0554,83.2778 136.0604,83.2868 C136.1564,83.4078 136.2564,83.5268 136.3594,83.6358 C136.4294,83.7148 136.5014,83.7888 136.5744,83.8618 C136.6054,83.8918 136.6374,83.9198 136.6684,83.9488 C136.7134,83.9918 136.7594,84.0328 136.8054,84.0738 C136.8394,84.1038 136.8754,84.1298 136.9114,84.1598 C136.9544,84.1968 137.0004,84.2308 137.0444,84.2658 C137.0804,84.2938 137.1144,84.3178 137.1514,84.3428 C137.1984,84.3768 137.2434,84.4078 137.2904,84.4388 C137.3254,84.4608 137.3624,84.4828 137.3994,84.5048 C137.4474,84.5338 137.4984,84.5608 137.5464,84.5888 C137.5814,84.6078 137.6164,84.6258 137.6504,84.6418 C137.7064,84.6698 137.7634,84.6938 137.8214,84.7178 C137.8484,84.7288 137.8784,84.7438 137.9074,84.7548 C137.9944,84.7898 138.0834,84.8188 138.1714,84.8428 C138.2314,84.8618 138.2814,84.8798 138.3294,84.8988 C142.5854,86.0228 146.7284,84.2418 151.9244,87.9568" id="Fill-45" fill="#9452BA"></path>
            <g id="Group-50" transform="translate(116.000000, 125.446000)">
                <path d="M0.1777,0.8815 L60.4767,0.8815" id="Fill-47" fill="#FFFFFF"></path>
                <path d="M0.1777,0.8815 L60.4767,0.8815" id="Stroke-49" stroke="#ACD3EF" stroke-width="2" stroke-linecap="round" stroke-linejoin="round"></path>
            </g>
            <g id="Group-54" transform="translate(116.000000, 145.446000)">
                <path d="M0.1777,0.3219 L60.4767,0.3219" id="Fill-51" fill="#FFFFFF"></path>
                <path d="M0.1777,0.3219 L60.4767,0.3219" id="Stroke-53" stroke="#ACD3EF" stroke-width="2" stroke-linecap="round" stroke-linejoin="round"></path>
            </g>
            <g id="Group-58" transform="translate(116.000000, 165.446000)">
                <path d="M0.1777,0.4177 L60.4767,0.4177" id="Fill-55" fill="#FFFFFF"></path>
                <path d="M0.1777,0.4177 L60.4767,0.4177" id="Stroke-57" stroke="#ACD3EF" stroke-width="2" stroke-linecap="round" stroke-linejoin="round"></path>
            </g>
            <path d="M73.2236,200.9965 L78.2026,200.9965 C79.9146,200.9965 81.4686,199.9485 82.0886,198.3525 C83.8556,193.8025 83.4156,189.6215 83.6266,186.0455 C84.0176,179.4205 82.9826,176.0255 81.9956,170.4845 L74.5216,170.6575 C74.5216,170.6575 75.1566,173.4105 75.5796,181.6695 C75.7116,184.2245 71.4886,194.4875 71.6866,199.5225 C71.7196,200.3485 72.3976,200.9965 73.2236,200.9965" id="Fill-59" fill="#9452BA"></path>
            <path d="M73.2236,200.9965 L78.2026,200.9965 C79.9146,200.9965 81.4686,199.9485 82.0886,198.3525 C83.8556,193.8025 83.4156,189.6215 83.6266,186.0455 C84.0176,179.4205 82.9826,176.0255 81.9956,170.4845 L74.5216,170.6575 C74.5216,170.6575 75.1566,173.4105 75.5796,181.6695 C75.7116,184.2245 71.4886,194.4875 71.6866,199.5225 C71.7196,200.3485 72.3976,200.9965 73.2236,200.9965 Z" id="Stroke-61" stroke="#52267D" stroke-width="2"></path>
            <path d="M58.7295,177.3275 L52.7175,170.5105 L49.0055,170.6575 C49.0055,170.6575 48.4845,176.3285 48.2715,178.7035 C47.8955,182.8895 46.1605,191.0915 45.0955,194.6905 C44.7485,195.8615 44.5465,196.9555 44.4915,197.9475 C44.3965,199.6175 45.7895,200.9965 47.4615,200.9965 L51.8725,200.9965 C54.4415,200.9965 56.7265,199.2815 57.3575,196.7915 C59.3235,189.0375 58.7295,177.3275 58.7295,177.3275" id="Fill-63" fill="#9452BA"></path>
            <path d="M58.7295,177.3275 L52.7175,170.5105 L49.0055,170.6575 C49.0055,170.6575 48.4845,176.3285 48.2715,178.7035 C47.8955,182.8895 46.1605,191.0915 45.0955,194.6905 C44.7485,195.8615 44.5465,196.9555 44.4915,197.9475 C44.3965,199.6175 45.7895,200.9965 47.4615,200.9965 L51.8725,200.9965 C54.4415,200.9965 56.7265,199.2815 57.3575,196.7915 C59.3235,189.0375 58.7295,177.3275 58.7295,177.3275 Z" id="Stroke-65" stroke="#52267D" stroke-width="2"></path>
            <polyline id="Stroke-67" stroke="#52267D" stroke-width="0.5" points="50.2764 182.0277 49.2844 182.8987 50.2324 183.7547 51.7784 183.1607 51.4684 182.4827 50.1864 182.7867 50.1974 183.0157 50.5294 183.0007"></polyline>
            <path d="M50.3115,151.9408 C54.6915,151.8508 58.7955,148.8358 67.7315,148.4228 C67.8615,147.8388 68.0185,147.3118 68.2185,146.8788 C69.8355,143.3778 72.1175,133.2868 70.6515,126.6568 L69.4915,121.4118 C69.1115,119.6908 68.9195,117.9328 68.9195,116.1698 C68.9195,115.4358 68.9935,114.7188 69.1355,114.0268 C69.1705,113.8538 69.2105,113.6818 69.2545,113.5118 C69.3855,113.0028 69.5535,112.5068 69.7555,112.0308 C69.8225,111.8718 69.8935,111.7138 69.9685,111.5588 C70.1175,111.2498 70.2815,110.9478 70.4595,110.6548 C70.6365,110.3628 70.8285,110.0798 71.0325,109.8058 C71.6445,108.9878 72.3735,108.2588 73.1915,107.6468 C73.4645,107.4428 73.7485,107.2518 74.0405,107.0738 C75.6485,106.0968 77.5365,105.5338 79.5565,105.5338 L81.2995,105.5338 C84.2375,105.5338 86.8965,106.7238 88.8215,108.6488 C89.0615,108.8898 89.2905,109.1418 89.5075,109.4048 C89.9015,109.8818 90.2525,110.3958 90.5595,110.9378 C90.6745,111.1408 90.7865,111.3478 90.8875,111.5588 C90.9625,111.7138 91.0335,111.8718 91.1015,112.0308 C91.3025,112.5068 91.4705,113.0028 91.6025,113.5118 C91.7325,114.0218 91.8275,114.5458 91.8815,115.0838 C91.9175,115.4408 91.9365,115.8028 91.9365,116.1698 C91.9365,116.9028 91.6405,117.5658 91.1605,118.0448 C90.6805,118.5258 90.0175,118.8228 89.2855,118.8228 L78.3945,118.8228 L80.0435,128.2748 C81.9785,137.9848 81.3965,144.4778 79.8975,148.8068 C79.5635,149.7718 77.6615,153.1918 77.6615,153.1918 C83.1075,161.7848 91.4575,165.5408 100.3865,166.6298 C107.9785,167.5578 124.3655,160.6348 115.9165,152.6278 C107.4675,144.6198 117.6765,149.5988 119.1795,150.6128 C120.6825,151.6258 129.3725,159.1338 119.9415,170.1508 C115.9535,174.8098 111.4365,179.0448 100.5665,182.2918 C98.8235,182.8118 89.3115,183.5038 84.1915,184.9728 C68.9455,189.3498 56.5515,184.5908 49.6055,174.5278 C42.6885,164.5038 48.5825,151.9758 50.3115,151.9408" id="Fill-69" fill="#9452BA"></path>
            <path d="M50.3115,151.9408 C54.6915,151.8508 58.7955,148.8358 67.7315,148.4228 C67.8615,147.8388 68.0185,147.3118 68.2185,146.8788 C69.8355,143.3778 72.1175,133.2868 70.6515,126.6568 L69.4915,121.4118 C69.1115,119.6908 68.9195,117.9328 68.9195,116.1698 C68.9195,115.4358 68.9935,114.7188 69.1355,114.0268 C69.1705,113.8538 69.2105,113.6818 69.2545,113.5118 C69.3855,113.0028 69.5535,112.5068 69.7555,112.0308 C69.8225,111.8718 69.8935,111.7138 69.9685,111.5588 C70.1175,111.2498 70.2815,110.9478 70.4595,110.6548 C70.6365,110.3628 70.8285,110.0798 71.0325,109.8058 C71.6445,108.9878 72.3735,108.2588 73.1915,107.6468 C73.4645,107.4428 73.7485,107.2518 74.0405,107.0738 C75.6485,106.0968 77.5365,105.5338 79.5565,105.5338 L81.2995,105.5338 C84.2375,105.5338 86.8965,106.7238 88.8215,108.6488 C89.0615,108.8898 89.2905,109.1418 89.5075,109.4048 C89.9015,109.8818 90.2525,110.3958 90.5595,110.9378 C90.6745,111.1408 90.7865,111.3478 90.8875,111.5588 C90.9625,111.7138 91.0335,111.8718 91.1015,112.0308 C91.3025,112.5068 91.4705,113.0028 91.6025,113.5118 C91.7325,114.0218 91.8275,114.5458 91.8815,115.0838 C91.9175,115.4408 91.9365,115.8028 91.9365,116.1698 C91.9365,116.9028 91.6405,117.5658 91.1605,118.0448 C90.6805,118.5258 90.0175,118.8228 89.2855,118.8228 L78.3945,118.8228 L80.0435,128.2748 C81.9785,137.9848 81.3965,144.4778 79.8975,148.8068 C79.5635,149.7718 77.6615,153.1918 77.6615,153.1918 C83.1075,161.7848 91.4575,165.5408 100.3865,166.6298 C107.9785,167.5578 124.3655,160.6348 115.9165,152.6278 C107.4675,144.6198 117.6765,149.5988 119.1795,150.6128 C120.6825,151.6258 129.3725,159.1338 119.9415,170.1508 C115.9535,174.8098 111.4365,179.0448 100.5665,182.2918 C98.8235,182.8118 89.3115,183.5038 84.1915,184.9728 C68.9455,189.3498 56.5515,184.5908 49.6055,174.5278 C42.6885,164.5038 48.5825,151.9758 50.3115,151.9408 Z" id="Stroke-71" stroke="#52267D" stroke-width="2"></path>
            <path d="M59.771,137.4701 C60.121,126.2101 51.184,117.3611 41.027,115.4911 C38.919,115.1031 38.232,114.4411 35.926,114.4411 L34.159,114.4411 C28.208,114.4411 23.383,119.2661 23.383,125.2171 C23.383,126.7001 24.586,127.9041 26.069,127.9041 C26.069,127.9041 44.188,127.8991 44.273,127.8911 C44.275,127.8911 45.75,127.8921 45.751,127.8921 C45.749,127.8941 44.272,127.8951 44.27,127.8971 C48.277,129.5981 50.771,134.7181 51.21,137.4701 C51.836,141.3881 51.378,144.6201 50.041,147.2351 C49.15,148.9761 49.05,151.0741 49.187,152.7731 C49.187,152.7731 49.229,152.7871 49.29,152.8081 C49.353,153.7161 49.5,154.7491 49.771,155.9281 C51.477,154.7391 54.13,152.9501 54.615,152.6941 C55.662,152.1411 58.025,150.8831 59.083,150.2781 C65.842,146.4031 59.572,143.8741 59.771,137.4701" id="Fill-73" fill="#9452BA"></path>
            <path d="M59.771,137.4701 C60.121,126.2101 51.184,117.3611 41.027,115.4911 C38.919,115.1031 38.232,114.4411 35.926,114.4411 L34.159,114.4411 C28.208,114.4411 23.383,119.2661 23.383,125.2171 C23.383,126.7001 24.586,127.9041 26.069,127.9041 C26.069,127.9041 44.188,127.8991 44.273,127.8911 C44.275,127.8911 45.75,127.8921 45.751,127.8921 C45.749,127.8941 44.272,127.8951 44.27,127.8971 C48.277,129.5981 50.771,134.7181 51.21,137.4701 C51.836,141.3881 51.378,144.6201 50.041,147.2351 C49.15,148.9761 49.05,151.0741 49.187,152.7731 C49.187,152.7731 49.229,152.7871 49.29,152.8081 C49.353,153.7161 49.5,154.7491 49.771,155.9281 C51.477,154.7391 54.13,152.9501 54.615,152.6941 C55.662,152.1411 58.025,150.8831 59.083,150.2781 C65.842,146.4031 59.572,143.8741 59.771,137.4701 Z" id="Stroke-75" stroke="#52267D" stroke-width="2"></path>
            <g id="Group-80" transform="translate(44.000000, 126.446000)">
                <path d="M10.0005,24.0349 C9.9115,22.2959 9.6455,21.4029 9.8405,20.6949 C10.9635,16.6219 11.3285,15.3369 11.3285,11.0239 C11.3285,6.7389 8.8455,2.5039 5.1805,0.2509 C4.9795,0.1279 2.3405,-0.0591 0.2695,1.4509 C4.2765,3.1519 6.7705,8.2719 7.2095,11.0239 C7.8365,14.9419 7.3775,18.1749 6.0415,20.7889 C5.1505,22.5299 5.0495,24.6279 5.1865,26.3269 C5.1865,26.3269 10.1025,28.1729 10.0005,24.0349" id="Fill-77" fill="#F3E3FF"></path>
                <path d="M10.0005,24.0349 C9.9115,22.2959 9.6455,21.4029 9.8405,20.6949 C10.9635,16.6219 11.3285,15.3369 11.3285,11.0239 C11.3285,6.7389 8.8455,2.5039 5.1805,0.2509 C4.9795,0.1279 2.3405,-0.0591 0.2695,1.4509 C4.2765,3.1519 6.7705,8.2719 7.2095,11.0239 C7.8365,14.9419 7.3775,18.1749 6.0415,20.7889 C5.1505,22.5299 5.0495,24.6279 5.1865,26.3269 C5.1865,26.3269 10.1025,28.1729 10.0005,24.0349" id="Stroke-79" stroke="#52267D"></path>
            </g>
            <path d="M28.5044,116.2719 C28.5044,116.2719 28.5004,114.3899 30.3704,113.6419 C30.9414,113.4149 31.9834,112.9899 31.9834,112.9899 C31.9834,112.9899 33.0964,115.3449 31.8354,115.9399 C30.0184,116.7939 28.5044,116.2719 28.5044,116.2719" id="Fill-81" fill="#FFFFFF"></path>
            <path d="M28.5044,116.2719 C28.5044,116.2719 28.5004,114.3899 30.3704,113.6419 C30.9414,113.4149 31.9834,112.9899 31.9834,112.9899 C31.9834,112.9899 33.0964,115.3449 31.8354,115.9399 C30.0184,116.7939 28.5044,116.2719 28.5044,116.2719 Z" id="Stroke-83" stroke="#52267D"></path>
            <path d="M33.1861,114.9486 C33.1861,114.9486 33.2391,112.3846 36.1241,112.0106 C36.6621,111.9406 38.0661,111.9746 38.0661,111.9746 C38.0661,111.9746 38.7141,114.6876 37.1931,114.9486 C35.3231,115.2686 33.1861,114.9486 33.1861,114.9486" id="Fill-85" fill="#FFFFFF"></path>
            <path d="M33.1861,114.9486 C33.1861,114.9486 33.2391,112.3846 36.1241,112.0106 C36.6621,111.9406 38.0661,111.9746 38.0661,111.9746 C38.0661,111.9746 38.7141,114.6876 37.1931,114.9486 C35.3231,115.2686 33.1861,114.9486 33.1861,114.9486 Z" id="Stroke-87" stroke="#52267D"></path>
            <path d="M38.9224,115.1937 C38.9224,115.1937 39.3024,112.3497 41.8574,113.1317 C42.9484,113.4657 43.5544,114.2957 43.5544,114.2957 C43.5544,114.2957 43.0464,116.4617 42.0294,116.2167 C40.2554,115.7927 38.9224,115.1937 38.9224,115.1937" id="Fill-89" fill="#FFFFFF"></path>
            <path d="M38.9224,115.1937 C38.9224,115.1937 39.3024,112.3497 41.8574,113.1317 C42.9484,113.4657 43.5544,114.2957 43.5544,114.2957 C43.5544,114.2957 43.0464,116.4617 42.0294,116.2167 C40.2554,115.7927 38.9224,115.1937 38.9224,115.1937 Z" id="Stroke-91" stroke="#52267D"></path>
            <path d="M46.3408,128.9994 C46.3408,128.9994 52.2968,125.7624 51.1638,120.3134 C51.9548,120.9654 54.0688,122.9514 54.8348,123.9684 C54.8348,125.0344 55.0308,129.2704 49.1818,132.1064 C48.1538,131.0404 47.2868,129.7094 46.3408,128.9994" id="Fill-93" fill="#FFFFFF"></path>
            <path d="M46.3408,128.9994 C46.3408,128.9994 52.2968,125.7624 51.1638,120.3134 C51.9548,120.9654 54.0688,122.9514 54.8348,123.9684 C54.8348,125.0344 55.0308,129.2704 49.1818,132.1064 C48.1538,131.0404 47.2868,129.7094 46.3408,128.9994 Z" id="Stroke-95" stroke="#52267D"></path>
            <path d="M29.0557,115.9711 C29.0557,115.9711 29.0537,114.8721 30.1447,114.4361 C30.4777,114.3031 31.0857,114.0551 31.0857,114.0551 C31.0857,114.0551 31.7357,115.4301 30.9997,115.7771 C29.9397,116.2761 29.0557,115.9711 29.0557,115.9711" id="Fill-97" fill="#F3E3FF"></path>
            <path d="M34.0376,114.5941 C34.0376,114.5941 34.0686,113.0931 35.7586,112.8731 C36.0736,112.8331 36.8946,112.8531 36.8946,112.8531 C36.8946,112.8531 37.2746,114.4421 36.3836,114.5941 C35.2886,114.7811 34.0376,114.5941 34.0376,114.5941" id="Fill-99" fill="#F3E3FF"></path>
            <path d="M39.5527,115.1088 C39.5527,115.1088 39.7777,113.4258 41.2887,113.8888 C41.9337,114.0868 42.2927,114.5768 42.2927,114.5768 C42.2927,114.5768 41.9917,115.8578 41.3907,115.7138 C40.3407,115.4628 39.5527,115.1088 39.5527,115.1088" id="Fill-101" fill="#F3E3FF"></path>
            <path d="M38.3096,126.1 L32.8636,126.1 C32.8636,123.357 35.0876,121.133 37.8306,121.133 L38.3096,121.133 C39.6806,121.133 40.7926,122.246 40.7926,123.617 C40.7926,124.988 39.6806,126.1 38.3096,126.1" id="Fill-103" fill="#F3E3FF"></path>
            <path d="M37.8506,126.0062 L32.9576,126.0062 C32.9576,123.8522 34.7046,122.1052 36.8596,122.1052 L37.8506,122.1052 C38.9286,122.1052 39.8016,122.9782 39.8016,124.0562 C39.8016,125.1332 38.9286,126.0062 37.8506,126.0062" id="Fill-105" fill="#FFFFFF"></path>
            <path d="M37.8506,126.0062 L32.9576,126.0062 C32.9576,123.8522 34.7046,122.1052 36.8596,122.1052 L37.8506,122.1052 C38.9286,122.1052 39.8016,122.9782 39.8016,124.0562 C39.8016,125.1332 38.9286,126.0062 37.8506,126.0062 Z" id="Stroke-107" stroke="#52267D"></path>
            <path d="M33.8438,124.0033 C33.8438,124.6053 34.3318,125.0933 34.9338,125.0933 C35.5348,125.0933 36.0228,124.6053 36.0228,124.0033 C36.0228,123.4013 35.5348,122.9133 34.9338,122.9133 C34.3318,122.9133 33.8438,123.4013 33.8438,124.0033" id="Fill-109" fill="#52267D"></path>
            <path d="M25.8203,127.0853 C26.1303,127.0193 26.4063,126.8473 26.6043,126.5993 L26.9693,126.1403 L26.1553,126.3143 L25.6763,126.4163 C25.4923,126.4563 25.3753,126.6383 25.4143,126.8223 C25.4543,127.0073 25.6353,127.1243 25.8203,127.0853" id="Fill-111" fill="#52267D"></path>
            <path d="M47.3472,129.1068 C47.3472,129.1068 51.9352,126.6368 51.8642,121.6608 C53.8362,123.0968 54.3702,124.0258 54.3702,124.0258 C54.3702,124.0258 54.0262,126.3938 52.9232,127.5898 C51.2292,129.4248 49.4642,129.9898 47.3472,129.1068" id="Fill-113" fill="#E1F2FF"></path>
            <g id="Group-118" transform="translate(48.000000, 127.446000)">
                <path d="M3.6904,0.7878 C3.6904,0.7878 1.8814,2.6278 0.1164,3.5108" id="Fill-115" fill="#FFFFFF"></path>
                <path d="M3.6904,0.7878 C3.6904,0.7878 1.8814,2.6278 0.1164,3.5108" id="Stroke-117" stroke="#52267D"></path>
            </g>
            <g id="Group-122" transform="translate(45.000000, 100.446000)">
                <path d="M24.6817,47.1354 L23.6597,45.1184 C19.8427,35.7374 19.2537,30.2284 21.2337,21.2744 L22.3937,16.0294 C22.7737,14.3084 22.9657,12.5504 22.9657,10.7874 C22.9657,4.9134 18.2037,0.1514 12.3287,0.1514 L10.6117,0.1514 C4.8177,0.1514 0.1207,4.8484 0.1207,10.6424 L0.1207,10.9444 C0.1207,12.3224 1.2387,13.4404 2.6167,13.4404 L13.4907,13.4404 L11.8417,22.8924 C6.7957,48.2224 7.3017,58.4924 17.2327,56.3814" id="Fill-119" fill="#9452BA"></path>
                <path d="M24.6817,47.1354 L23.6597,45.1184 C19.8427,35.7374 19.2537,30.2284 21.2337,21.2744 L22.3937,16.0294 C22.7737,14.3084 22.9657,12.5504 22.9657,10.7874 C22.9657,4.9134 18.2037,0.1514 12.3287,0.1514 L10.6117,0.1514 C4.8177,0.1514 0.1207,4.8484 0.1207,10.6424 L0.1207,10.9444 C0.1207,12.3224 1.2387,13.4404 2.6167,13.4404 L13.4907,13.4404 L11.8417,22.8924 C6.7957,48.2224 7.3017,58.4924 17.2327,56.3814" id="Stroke-121" stroke="#52267D" stroke-width="2"></path>
            </g>
            <path d="M50.3628,101.8558 C50.3628,101.8558 50.5378,100.0118 52.3698,99.2798 C52.9278,99.0558 53.8038,99.2938 53.8038,99.2938 C53.8038,99.2938 54.8618,100.9488 53.6258,101.5298 C51.8458,102.3678 50.3628,101.8558 50.3628,101.8558" id="Fill-123" fill="#FFFFFF"></path>
            <path d="M50.3628,101.8558 C50.3628,101.8558 50.5378,100.0118 52.3698,99.2798 C52.9278,99.0558 53.8038,99.2938 53.8038,99.2938 C53.8038,99.2938 54.8618,100.9488 53.6258,101.5298 C51.8458,102.3678 50.3628,101.8558 50.3628,101.8558 Z" id="Stroke-125" stroke="#52267D"></path>
            <path d="M54.7246,101.2474 C54.7246,101.2474 54.7856,98.3444 58.0526,97.9204 C58.6616,97.8414 59.4436,97.9014 59.4436,97.9014 C59.4436,97.9014 60.9846,100.9524 59.2626,101.2474 C57.1446,101.6104 54.7246,101.2474 54.7246,101.2474" id="Fill-127" fill="#FFFFFF"></path>
            <path d="M54.7246,101.2474 C54.7246,101.2474 54.7856,98.3444 58.0526,97.9204 C58.6616,97.8414 59.4436,97.9014 59.4436,97.9014 C59.4436,97.9014 60.9846,100.9524 59.2626,101.2474 C57.1446,101.6104 54.7246,101.2474 54.7246,101.2474 Z" id="Stroke-129" stroke="#52267D"></path>
            <path d="M60.5698,101.9086 C60.5698,101.9086 61.0128,99.1336 63.4958,99.9626 C64.5558,100.3156 65.1288,101.1436 65.1288,101.1436 C65.1288,101.1436 64.5768,103.2526 63.5878,102.9876 C61.8608,102.5276 60.5698,101.9086 60.5698,101.9086" id="Fill-131" fill="#FFFFFF"></path>
            <path d="M60.5698,101.9086 C60.5698,101.9086 61.0128,99.1336 63.4958,99.9626 C64.5558,100.3156 65.1288,101.1436 65.1288,101.1436 C65.1288,101.1436 64.5768,103.2526 63.5878,102.9876 C61.8608,102.5276 60.5698,101.9086 60.5698,101.9086 Z" id="Stroke-133" stroke="#52267D"></path>
            <g id="Group-138" transform="translate(50.000000, 150.446000)">
                <path d="M0.5401,1.1589 C1.1601,0.6949 1.7881,0.4269 2.3271,0.2979" id="Fill-135" fill="#F3E3FF"></path>
                <path d="M0.5401,1.1589 C1.1601,0.6949 1.7881,0.4269 2.3271,0.2979" id="Stroke-137" stroke="#52267D"></path>
            </g>
            <g id="Group-142" transform="translate(47.000000, 113.446000)">
                <path d="M7.1406,38.1022 C5.3636,30.8792 8.5696,17.0722 9.1596,13.6732 L11.4936,0.0582 L12.5166,0.0582 C13.8126,0.0582 14.7946,1.4672 14.6106,2.7522 L12.9186,14.5622 C12.3466,18.5612 11.7506,37.0772 18.6986,41.0532 C20.1806,41.9022 22.5906,41.3452 23.4976,40.9122 C26.8006,39.3342 27.7506,35.2172 28.4736,31.8982 C29.9726,25.0282 28.8056,19.6352 28.4736,14.2502 L28.1256,7.5132 C28.0626,6.2952 29.0316,5.0032 30.2486,5.0032 L31.4896,5.0032 L33.7256,18.6192 C34.3986,22.4962 36.1286,35.9412 28.2066,42.2442 C28.0636,42.3582 30.1326,42.8212 29.5336,43.8812 C27.1506,48.0932 20.2456,48.7592 18.9456,50.5632 C13.9386,57.5072 18.6276,72.3042 18.6276,72.3042 C18.6276,72.3042 13.0706,70.0862 9.6286,67.0012 C1.5816,59.7892 0.5606,49.3432 0.5236,46.2682 C0.4786,42.5892 1.4456,40.3072 2.6356,38.9452" id="Fill-139" fill="#F3E3FF"></path>
                <path d="M7.1406,38.1022 C5.3636,30.8792 8.5696,17.0722 9.1596,13.6732 L11.4936,0.0582 L12.5166,0.0582 C13.8126,0.0582 14.7946,1.4672 14.6106,2.7522 L12.9186,14.5622 C12.3466,18.5612 11.7506,37.0772 18.6986,41.0532 C20.1806,41.9022 22.5906,41.3452 23.4976,40.9122 C26.8006,39.3342 27.7506,35.2172 28.4736,31.8982 C29.9726,25.0282 28.8056,19.6352 28.4736,14.2502 L28.1256,7.5132 C28.0626,6.2952 29.0316,5.0032 30.2486,5.0032 L31.4896,5.0032 L33.7256,18.6192 C34.3986,22.4962 36.1286,35.9412 28.2066,42.2442 C28.0636,42.3582 30.1326,42.8212 29.5336,43.8812 C27.1506,48.0932 20.2456,48.7592 18.9456,50.5632 C13.9386,57.5072 18.6276,72.3042 18.6276,72.3042 C18.6276,72.3042 13.0706,70.0862 9.6286,67.0012 C1.5816,59.7892 0.5606,49.3432 0.5236,46.2682 C0.4786,42.5892 1.4456,40.3072 2.6356,38.9452" id="Stroke-141" stroke="#52267D"></path>
            </g>
            <path d="M119.4551,157.5717 C119.4551,157.5717 120.5981,156.3057 119.9551,154.6057 C119.7591,154.0877 119.0531,153.6407 119.0531,153.6407 C119.0531,153.6407 117.2711,153.9517 117.6451,155.1537 C118.1841,156.8837 119.4551,157.5717 119.4551,157.5717" id="Fill-143" fill="#FFFFFF"></path>
            <path d="M119.4551,157.5717 C119.4551,157.5717 120.5981,156.3057 119.9551,154.6057 C119.7591,154.0877 119.0531,153.6407 119.0531,153.6407 C119.0531,153.6407 117.2711,153.9517 117.6451,155.1537 C118.1841,156.8837 119.4551,157.5717 119.4551,157.5717 Z" id="Stroke-145" stroke="#52267D"></path>
            <path d="M119.0767,155.8129 C119.0767,155.8129 119.4777,155.3689 119.2527,154.7729 C119.1837,154.5899 118.9357,154.4339 118.9357,154.4339 C118.9357,154.4339 118.3107,154.5429 118.4427,154.9639 C118.6317,155.5709 119.0767,155.8129 119.0767,155.8129" id="Fill-147" fill="#F3E3FF"></path>
            <path d="M110.0947,166.64 C110.0947,166.64 109.0087,164.163 111.6027,162.527 C112.0867,162.221 112.7707,161.966 112.7707,161.966 C112.7707,161.966 115.2667,163.94 113.9277,164.864 C112.2807,165.999 110.0947,166.64 110.0947,166.64" id="Fill-149" fill="#FFFFFF"></path>
            <path d="M110.0947,166.64 C110.0947,166.64 109.0087,164.163 111.6027,162.527 C112.0867,162.221 112.7707,161.966 112.7707,161.966 C112.7707,161.966 115.2667,163.94 113.9277,164.864 C112.2807,165.999 110.0947,166.64 110.0947,166.64 Z" id="Stroke-151" stroke="#52267D"></path>
            <path d="M110.9986,165.7084 C110.9986,165.7084 110.3966,164.3344 111.8346,163.4274 C112.1026,163.2584 112.4826,163.1164 112.4826,163.1164 C112.4826,163.1164 113.8666,164.2114 113.1236,164.7234 C112.2106,165.3534 110.9986,165.7084 110.9986,165.7084" id="Fill-153" fill="#F3E3FF"></path>
            <path d="M118.0127,158.5277 C118.0127,158.5277 119.8927,160.1787 118.0897,161.6557 C117.3187,162.2867 116.4237,162.3247 116.4237,162.3247 C116.4237,162.3247 115.0977,160.9077 115.7667,160.2887 C116.9337,159.2057 118.0127,158.5277 118.0127,158.5277" id="Fill-155" fill="#FFFFFF"></path>
            <path d="M118.0127,158.5277 C118.0127,158.5277 119.8927,160.1787 118.0897,161.6557 C117.3187,162.2867 116.4237,162.3247 116.4237,162.3247 C116.4237,162.3247 115.0977,160.9077 115.7667,160.2887 C116.9337,159.2057 118.0127,158.5277 118.0127,158.5277 Z" id="Stroke-157" stroke="#52267D"></path>
            <path d="M117.7393,159.6986 C117.7393,159.6986 118.5723,160.4296 117.7733,161.0836 C117.4313,161.3626 117.0353,161.3806 117.0353,161.3806 C117.0353,161.3806 116.4483,160.7526 116.7443,160.4776 C117.2613,159.9986 117.7393,159.6986 117.7393,159.6986" id="Fill-159" fill="#F3E3FF"></path>
            <path d="M101.0728,167.9428 C101.0728,167.9428 100.4528,165.7378 102.8798,164.8628 C105.3058,163.9878 105.9578,164.7148 105.9578,164.7148 C105.9578,164.7148 107.2998,166.9748 106.1008,167.7018 C104.9018,168.4288 101.0728,167.9428 101.0728,167.9428" id="Fill-161" fill="#FFFFFF"></path>
            <path d="M101.0728,167.9428 C101.0728,167.9428 100.4528,165.7378 102.8798,164.8628 C105.3058,163.9878 105.9578,164.7148 105.9578,164.7148 C105.9578,164.7148 107.2998,166.9748 106.1008,167.7018 C104.9018,168.4288 101.0728,167.9428 101.0728,167.9428 Z" id="Stroke-163" stroke="#52267D"></path>
            <path d="M102.2114,167.4418 C102.2114,167.4418 101.8894,166.2958 103.1514,165.8398 C104.4134,165.3848 104.7524,165.7638 104.7524,165.7638 C104.7524,165.7638 105.4504,166.9388 104.8264,167.3168 C104.2024,167.6948 102.2114,167.4418 102.2114,167.4418" id="Fill-165" fill="#F3E3FF"></path>
            <path d="M57.9639,116.8246 C57.9639,116.8246 61.8379,119.0146 67.2819,117.0376 C66.9089,118.7266 66.1469,122.1216 66.1469,122.1216 C66.1469,122.1216 61.1029,123.6686 57.2119,121.2206 C57.6099,118.9786 57.9639,116.8246 57.9639,116.8246" id="Fill-167" fill="#FFFFFF"></path>
            <path d="M57.9639,116.8246 C57.9639,116.8246 61.8379,119.0146 67.2819,117.0376 C66.9089,118.7266 66.1469,122.1216 66.1469,122.1216 C66.1469,122.1216 61.1029,123.6686 57.2119,121.2206 C57.6099,118.9786 57.9639,116.8246 57.9639,116.8246 Z" id="Stroke-169" stroke="#52267D"></path>
            <path d="M86.9434,106.9838 C86.9434,106.9838 86.7674,105.1268 84.9214,104.3878 C84.3584,104.1628 82.8374,104.1008 82.8374,104.1008 C82.8374,104.1008 82.4104,106.0688 83.6554,106.6548 C85.4484,107.4988 86.9434,106.9838 86.9434,106.9838" id="Fill-171" fill="#FFFFFF"></path>
            <path d="M86.9434,106.9838 C86.9434,106.9838 86.7674,105.1268 84.9214,104.3878 C84.3584,104.1628 82.8374,104.1008 82.8374,104.1008 C82.8374,104.1008 82.4104,106.0688 83.6554,106.6548 C85.4484,107.4988 86.9434,106.9838 86.9434,106.9838 Z" id="Stroke-173" stroke="#52267D"></path>
            <path d="M82.2603,106.0345 C82.2603,106.0345 82.2073,103.5035 79.3603,103.1345 C78.8293,103.0655 78.1473,103.1185 78.1473,103.1185 C78.1473,103.1185 76.8043,105.7775 78.3053,106.0345 C80.1513,106.3505 82.2603,106.0345 82.2603,106.0345" id="Fill-175" fill="#FFFFFF"></path>
            <path d="M82.2603,106.0345 C82.2603,106.0345 82.2073,103.5035 79.3603,103.1345 C78.8293,103.0655 78.1473,103.1185 78.1473,103.1185 C78.1473,103.1185 76.8043,105.7775 78.3053,106.0345 C80.1513,106.3505 82.2603,106.0345 82.2603,106.0345 Z" id="Stroke-177" stroke="#52267D"></path>
            <path d="M76.8667,106.2181 C76.8667,106.2181 76.4207,103.4211 73.9187,104.2571 C72.8507,104.6141 72.2737,105.4471 72.2737,105.4471 C72.2737,105.4471 72.8297,107.5721 73.8257,107.3061 C75.5667,106.8421 76.8667,106.2181 76.8667,106.2181" id="Fill-179" fill="#FFFFFF"></path>
            <path d="M76.8667,106.2181 C76.8667,106.2181 76.4207,103.4211 73.9187,104.2571 C72.8507,104.6141 72.2737,105.4471 72.2737,105.4471 C72.2737,105.4471 72.8297,107.5721 73.8257,107.3061 C75.5667,106.8421 76.8667,106.2181 76.8667,106.2181 Z" id="Stroke-181" stroke="#52267D"></path>
            <path d="M51.2027,101.472 C51.2027,101.472 51.3017,100.431 52.3367,100.017 C52.6527,99.89 53.1477,100.025 53.1477,100.025 C53.1477,100.025 53.7447,100.959 53.0467,101.288 C52.0407,101.761 51.2027,101.472 51.2027,101.472" id="Fill-183" fill="#F3E3FF"></path>
            <path d="M55.6392,100.8607 C55.6392,100.8607 55.6792,98.9527 57.8252,98.6737 C58.2252,98.6227 58.7402,98.6627 58.7402,98.6627 C58.7402,98.6627 59.7522,100.6667 58.6202,100.8607 C57.2292,101.0987 55.6392,100.8607 55.6392,100.8607" id="Fill-185" fill="#F3E3FF"></path>
            <path d="M61.3706,101.7357 C61.3706,101.7357 61.6526,99.9687 63.2326,100.4977 C63.9076,100.7227 64.2716,101.2497 64.2716,101.2497 C64.2716,101.2497 63.9206,102.5897 63.2906,102.4227 C62.1916,102.1297 61.3706,101.7357 61.3706,101.7357" id="Fill-187" fill="#F3E3FF"></path>
            <path d="M86.146,106.5912 C86.146,106.5912 86.048,105.5562 85.02,105.1452 C84.706,105.0192 83.858,104.9862 83.858,104.9862 C83.858,104.9862 83.62,106.0812 84.314,106.4082 C85.313,106.8782 86.146,106.5912 86.146,106.5912" id="Fill-189" fill="#F3E3FF"></path>
            <path d="M81.2793,105.6664 C81.2793,105.6664 81.2483,104.1994 79.5993,103.9854 C79.2913,103.9454 78.8963,103.9774 78.8963,103.9774 C78.8963,103.9774 78.1183,105.5174 78.9873,105.6664 C80.0573,105.8504 81.2793,105.6664 81.2793,105.6664" id="Fill-191" fill="#F3E3FF"></path>
            <path d="M76.0811,106.1088 C76.0811,106.1088 75.8171,104.4548 74.3371,104.9488 C73.7051,105.1598 73.3641,105.6528 73.3641,105.6528 C73.3641,105.6528 73.6931,106.9098 74.2831,106.7528 C75.3121,106.4778 76.0811,106.1088 76.0811,106.1088" id="Fill-193" fill="#F3E3FF"></path>
            <path d="M69.5381,121.6205 C69.5381,121.6205 74.3341,122.3685 78.8961,121.2495 C79.3401,123.7275 79.6261,125.5995 79.6261,125.5995 C79.6261,125.5995 76.4621,127.7475 70.6171,126.5015 C69.9281,123.3175 69.5381,121.6205 69.5381,121.6205" id="Fill-195" fill="#FFFFFF"></path>
            <path d="M69.5381,121.6205 C69.5381,121.6205 74.3341,122.3685 78.8961,121.2495 C79.3401,123.7275 79.6261,125.5995 79.6261,125.5995 C79.6261,125.5995 76.4621,127.7475 70.6171,126.5015 C69.9281,123.3175 69.5381,121.6205 69.5381,121.6205 Z" id="Stroke-197" stroke="#52267D"></path>
            <path d="M76.27,116.8031 L82.916,116.8031 L82.916,113.9381 C82.916,112.7781 81.976,111.8371 80.815,111.8371 L76.27,111.8371 C75.562,111.8371 74.988,112.4111 74.988,113.1191 L74.988,115.5211 C74.988,116.2291 75.562,116.8031 76.27,116.8031" id="Fill-199" fill="#F3E3FF"></path>
            <path d="M76.9863,116.7103 L82.8223,116.7103 L82.8223,114.8233 C82.8223,113.7103 81.9213,112.8083 80.8083,112.8083 L76.9863,112.8083 C76.4293,112.8083 75.9793,113.2593 75.9793,113.8153 L75.9793,115.7023 C75.9793,116.2593 76.4293,116.7103 76.9863,116.7103" id="Fill-201" fill="#FFFFFF"></path>
            <path d="M76.9863,116.7103 L82.8223,116.7103 L82.8223,114.8233 C82.8223,113.7103 81.9213,112.8083 80.8083,112.8083 L76.9863,112.8083 C76.4293,112.8083 75.9793,113.2593 75.9793,113.8153 L75.9793,115.7023 C75.9793,116.2593 76.4293,116.7103 76.9863,116.7103 Z" id="Stroke-203" stroke="#52267D"></path>
            <path d="M81.9365,115.5541 C81.9365,116.1561 81.4485,116.6441 80.8475,116.6441 C80.2455,116.6441 79.7575,116.1561 79.7575,115.5541 C79.7575,114.9511 80.2455,114.4641 80.8475,114.4641 C81.4485,114.4641 81.9365,114.9511 81.9365,115.5541" id="Fill-205" fill="#52267D"></path>
            <path d="M58.6284,112.0951 L53.1824,112.0951 C53.1824,109.3521 55.4064,107.1281 58.1494,107.1281 L58.6284,107.1281 C59.9994,107.1281 61.1114,108.2411 61.1114,109.6121 C61.1114,110.9831 59.9994,112.0951 58.6284,112.0951" id="Fill-207" fill="#F3E3FF"></path>
            <path d="M58.1694,112.0013 L53.2764,112.0013 C53.2764,109.8473 55.0234,108.1003 57.1784,108.1003 L58.1694,108.1003 C59.2474,108.1003 60.1204,108.9733 60.1204,110.0513 C60.1204,111.1283 59.2474,112.0013 58.1694,112.0013" id="Fill-209" fill="#FFFFFF"></path>
            <path d="M58.1694,112.0013 L53.2764,112.0013 C53.2764,109.8473 55.0234,108.1003 57.1784,108.1003 L58.1694,108.1003 C59.2474,108.1003 60.1204,108.9733 60.1204,110.0513 C60.1204,111.1283 59.2474,112.0013 58.1694,112.0013 Z" id="Stroke-211" stroke="#52267D"></path>
            <path d="M54.1626,110.8451 C54.1626,111.4481 54.6506,111.9351 55.2526,111.9351 C55.8536,111.9351 56.3416,111.4481 56.3416,110.8451 C56.3416,110.2431 55.8536,109.7561 55.2526,109.7561 C54.6506,109.7561 54.1626,110.2431 54.1626,110.8451" id="Fill-213" fill="#52267D"></path>
            <path d="M89.4771,117.9359 C89.1671,117.8699 88.8901,117.6979 88.6931,117.4509 L88.3281,116.9909 L89.1411,117.1649 L89.6201,117.2679 C89.8051,117.3069 89.9221,117.4899 89.8831,117.6739 C89.8431,117.8589 89.6621,117.9759 89.4771,117.9359" id="Fill-215" fill="#52267D"></path>
            <path d="M47.4712,112.8402 C47.7812,112.7742 48.0572,112.6022 48.2552,112.3542 L48.6202,111.8952 L47.8062,112.0692 L47.3272,112.1722 C47.1432,112.2112 47.0252,112.3932 47.0652,112.5772 C47.1052,112.7622 47.2862,112.8802 47.4712,112.8402" id="Fill-217" fill="#52267D"></path>
            <path d="M58.4287,117.5316 C58.4287,117.5316 62.4867,119.2606 66.5807,117.6806 C66.1517,120.0826 65.7687,121.3076 65.7687,121.3076 C65.7687,121.3076 63.3057,121.4526 61.6757,121.1316 C59.3457,120.6726 58.4287,119.6136 58.4287,117.5316" id="Fill-219" fill="#E1F2FF"></path>
            <g id="Group-224" transform="translate(57.000000, 118.446000)">
                <path d="M7.0752,2.1647 C7.0752,2.1647 3.3822,2.4727 0.5232,0.9897" id="Fill-221" fill="#FFFFFF"></path>
                <path d="M7.0752,2.1647 C7.0752,2.1647 3.3822,2.4727 0.5232,0.9897" id="Stroke-223" stroke="#52267D"></path>
            </g>
            <path d="M77.1387,122.1615 C77.1387,122.1615 73.5387,123.1845 70.3627,122.5505 C70.9627,124.9145 71.2807,125.6555 71.2807,125.6555 C71.2807,125.6555 76.0447,125.0205 77.1387,122.1615" id="Fill-225" fill="#E1F2FF"></path>
            <g id="Group-230" transform="translate(74.000000, 155.446000)">
                <path d="M1.207,0.2946 C1.207,0.2946 0.989,0.4516 0.68,0.6386" id="Fill-227" fill="#F3E3FF"></path>
                <path d="M1.207,0.2946 C1.207,0.2946 0.989,0.4516 0.68,0.6386" id="Stroke-229" stroke="#52267D" stroke-width="0.5"></path>
            </g>
            <g id="Group-234" transform="translate(70.000000, 123.446000)">
                <path d="M7.4859,0.0768 C7.4859,0.0768 3.8619,0.7638 0.0159,0.3058" id="Fill-231" fill="#FFFFFF"></path>
                <path d="M7.4859,0.0768 C7.4859,0.0768 3.8619,0.7638 0.0159,0.3058" id="Stroke-233" stroke="#52267D"></path>
            </g>
            <path d="M71.5474,198.0736 C71.5474,198.0736 70.5864,197.2906 69.3084,198.3396 C68.1414,199.2986 67.2634,200.7796 67.7864,200.9286 C68.3104,201.0776 69.2304,201.2216 70.1974,201.0456 C71.0394,200.8906 71.7824,201.0526 72.1204,199.2926 C72.2774,198.4716 71.5474,198.0736 71.5474,198.0736" id="Fill-235" fill="#FFFFFF"></path>
            <path d="M71.5474,198.0736 C71.5474,198.0736 70.5864,197.2906 69.3084,198.3396 C68.1414,199.2986 67.2634,200.7796 67.7864,200.9286 C68.3104,201.0776 69.2304,201.2216 70.1974,201.0456 C71.0394,200.8906 71.7824,201.0526 72.1204,199.2926 C72.2774,198.4716 71.5474,198.0736 71.5474,198.0736 Z" id="Stroke-237" stroke="#52267D" stroke-width="0.5"></path>
            <path d="M71.3286,198.3588 C71.3286,198.3588 70.7306,197.8718 69.9346,198.5248 C69.2086,199.1218 68.6626,200.0438 68.9886,200.1358 C69.3136,200.2278 69.8866,200.3188 70.4886,200.2088 C71.0126,200.1118 71.4746,200.2128 71.6846,199.1178 C71.7826,198.6068 71.3286,198.3588 71.3286,198.3588" id="Fill-239" fill="#E1F2FF"></path>
            <path d="M72.9116,198.056 C73.4196,197.988 74.1506,199.091 74.0666,199.427 C73.9836,199.763 73.9256,200.873 73.1036,200.994 C72.4986,201.083 70.3386,201.308 69.8676,200.839 C69.4326,200.407 70.2836,198.408 72.9116,198.056" id="Fill-241" fill="#FFFFFF"></path>
            <path d="M72.9116,198.056 C73.4196,197.988 74.1506,199.091 74.0666,199.427 C73.9836,199.763 73.9256,200.873 73.1036,200.994 C72.4986,201.083 70.3386,201.308 69.8676,200.839 C69.4326,200.407 70.2836,198.408 72.9116,198.056 Z" id="Stroke-243" stroke="#52267D" stroke-width="0.5"></path>
            <path d="M73.0537,198.3617 C73.3537,198.3217 73.7847,198.9717 73.7357,199.1707 C73.6867,199.3697 73.6527,200.0247 73.1677,200.0957 C72.8097,200.1477 71.5357,200.2807 71.2577,200.0047 C71.0017,199.7487 71.5037,198.5697 73.0537,198.3617" id="Fill-245" fill="#E1F2FF"></path>
            <path d="M75.0601,198.2709 C75.0601,198.2709 74.6221,198.0419 73.7531,198.5389 C72.9861,198.9769 71.8401,199.6789 72.1421,200.5509 C72.4431,201.4229 74.8681,201.0989 75.4061,200.9149 C75.9451,200.7299 76.2841,200.1429 76.1881,199.6289 C75.9811,198.5089 75.0601,198.2709 75.0601,198.2709" id="Fill-247" fill="#FFFFFF"></path>
            <path d="M75.0601,198.2709 C75.0601,198.2709 74.6221,198.0419 73.7531,198.5389 C72.9861,198.9769 71.8401,199.6789 72.1421,200.5509 C72.4431,201.4229 74.8681,201.0989 75.4061,200.9149 C75.9451,200.7299 76.2841,200.1429 76.1881,199.6289 C75.9811,198.5089 75.0601,198.2709 75.0601,198.2709 Z" id="Stroke-249" stroke="#52267D" stroke-width="0.5"></path>
            <path d="M75.2251,198.5795 C75.2251,198.5795 74.9651,198.4435 74.4511,198.7375 C73.9961,198.9985 73.3181,199.4135 73.4961,199.9305 C73.6751,200.4465 75.1111,200.2545 75.4301,200.1445 C75.7491,200.0355 75.9491,199.6875 75.8931,199.3845 C75.7701,198.7215 75.2251,198.5795 75.2251,198.5795" id="Fill-251" fill="#E1F2FF"></path>
            <g id="Group-256" transform="translate(60.000000, 170.446000)">
                <path d="M4.9219,0.0114 C4.9219,0.0114 5.4159,5.6284 3.9879,14.4584 C2.6579,22.6784 0.3009,25.2564 0.4749,27.3884 C0.6089,29.0384 1.3049,30.5504 2.9609,30.5504 L7.9019,30.5504 C10.2089,30.5504 12.2419,29.0774 12.9839,26.8934 C13.5809,25.1344 14.2029,22.7404 14.5729,19.7144 C14.9529,15.5984 14.8719,11.4704 14.8039,9.0454" id="Fill-253" fill="#9452BA"></path>
                <path d="M4.9219,0.0114 C4.9219,0.0114 5.4159,5.6284 3.9879,14.4584 C2.6579,22.6784 0.3009,25.2564 0.4749,27.3884 C0.6089,29.0384 1.3049,30.5504 2.9609,30.5504 L7.9019,30.5504 C10.2089,30.5504 12.2419,29.0774 12.9839,26.8934 C13.5809,25.1344 14.2029,22.7404 14.5729,19.7144 C14.9529,15.5984 14.8719,11.4704 14.8039,9.0454" id="Stroke-255" stroke="#52267D" stroke-width="2"></path>
            </g>
            <g id="Group-260" transform="translate(86.000000, 173.446000)">
                <path d="M4.2539,0.7272 C2.6179,2.1362 1.7689,4.4432 1.7819,6.5622 C1.7989,9.3922 3.4409,12.9952 2.3999,17.6972 C1.4729,21.8862 -0.3721,22.6252 0.1839,26.3832 C0.2839,27.0622 0.8929,27.5502 1.5789,27.5502 L7.0839,27.5502 C9.6179,27.5502 11.7879,25.7122 12.2019,23.2132 C13.3079,16.5382 12.4629,10.2372 11.5729,5.4022" id="Fill-257" fill="#9452BA"></path>
                <path d="M4.2539,0.7272 C2.6179,2.1362 1.7689,4.4432 1.7819,6.5622 C1.7989,9.3922 3.4409,12.9952 2.3999,17.6972 C1.4729,21.8862 -0.3721,22.6252 0.1839,26.3832 C0.2839,27.0622 0.8929,27.5502 1.5789,27.5502 L7.0839,27.5502 C9.6179,27.5502 11.7879,25.7122 12.2019,23.2132 C13.3079,16.5382 12.4629,10.2372 11.5729,5.4022" id="Stroke-259" stroke="#52267D" stroke-width="2"></path>
            </g>
            <polyline id="Stroke-261" stroke="#52267D" stroke-width="0.5" points="91.3355 180.4096 91.6595 180.1776 92.7055 180.4126 91.5435 181.1546 90.1445 180.4656 91.5975 179.3036 92.2585 179.5246"></polyline>
            <path d="M61.5537,198.0736 C61.5537,198.0736 60.5927,197.2906 59.3147,198.3396 C58.1477,199.2986 57.2697,200.7796 57.7927,200.9286 C58.3157,201.0776 59.2367,201.2216 60.2037,201.0456 C61.0457,200.8906 61.7887,201.0526 62.1267,199.2926 C62.2837,198.4716 61.5537,198.0736 61.5537,198.0736" id="Fill-263" fill="#FFFFFF"></path>
            <path d="M61.5537,198.0736 C61.5537,198.0736 60.5927,197.2906 59.3147,198.3396 C58.1477,199.2986 57.2697,200.7796 57.7927,200.9286 C58.3157,201.0776 59.2367,201.2216 60.2037,201.0456 C61.0457,200.8906 61.7887,201.0526 62.1267,199.2926 C62.2837,198.4716 61.5537,198.0736 61.5537,198.0736 Z" id="Stroke-265" stroke="#52267D"></path>
            <path d="M61.3345,198.3588 C61.3345,198.3588 60.7365,197.8718 59.9415,198.5248 C59.2145,199.1218 58.6685,200.0438 58.9945,200.1358 C59.3195,200.2278 59.8925,200.3188 60.4945,200.2088 C61.0185,200.1118 61.4805,200.2128 61.6905,199.1178 C61.7895,198.6068 61.3345,198.3588 61.3345,198.3588" id="Fill-267" fill="#E1F2FF"></path>
            <polyline id="Stroke-269" stroke="#52267D" stroke-width="0.5" points="69.1104 183.515 67.1424 184.128 67.4024 185.952 69.4184 186.098 70.3574 185.014 69.1504 184.344 68.1514 184.634 68.7864 185.34"></polyline>
            <g id="Group-333" transform="translate(25.000000, 107.446000)" stroke="#F3E3FF" stroke-width="0.25">
                <path d="M1.9404,16.0368 C1.9404,16.3328 2.1804,16.5728 2.4764,16.5728 C2.7724,16.5728 3.0114,16.3328 3.0114,16.0368" id="Stroke-271"></path>
                <path d="M0.8687,16.0368 C0.8687,16.3328 1.1087,16.5728 1.4047,16.5728 C1.7007,16.5728 1.9407,16.3328 1.9407,16.0368" id="Stroke-273"></path>
                <path d="M1.4043,16.5729 C1.4043,16.8689 1.6443,17.1089 1.9403,17.1089 C2.2363,17.1089 2.4763,16.8689 2.4763,16.5729" id="Stroke-275"></path>
                <path d="M22.4707,15.5348 C22.8407,15.7648 23.3277,15.6508 23.5577,15.2808 C23.7877,14.9108 23.6747,14.4238 23.3037,14.1938" id="Stroke-277"></path>
                <path d="M22.7246,16.6227 C23.0956,16.8517 23.5816,16.7387 23.8116,16.3687 C24.0416,15.9977 23.9286,15.5117 23.5576,15.2807" id="Stroke-279"></path>
                <path d="M47.898,33.5348 C47.898,33.9318 48.22,34.2538 48.617,34.2538 C49.014,34.2538 49.335,33.9318 49.335,33.5348" id="Stroke-281"></path>
                <path d="M46.4605,33.5348 C46.4605,33.9318 46.7825,34.2538 47.1795,34.2538 C47.5765,34.2538 47.8975,33.9318 47.8975,33.5348" id="Stroke-283"></path>
                <path d="M47.1792,34.2536 C47.1792,34.6506 47.5012,34.9726 47.8982,34.9726 C48.2952,34.9726 48.6162,34.6506 48.6162,34.2536" id="Stroke-285"></path>
                <path d="M26.4336,79.0661 C26.4336,79.4631 26.7556,79.7851 27.1526,79.7851 C27.5496,79.7851 27.8706,79.4631 27.8706,79.0661" id="Stroke-287"></path>
                <path d="M24.9961,79.0661 C24.9961,79.4631 25.3181,79.7851 25.7151,79.7851 C26.1121,79.7851 26.4331,79.4631 26.4331,79.0661" id="Stroke-289"></path>
                <path d="M25.7149,79.7849 C25.7149,80.1819 26.0369,80.5039 26.4339,80.5039 C26.8309,80.5039 27.1519,80.1819 27.1519,79.7849" id="Stroke-291"></path>
                <path d="M46.7847,10.6305 C46.7847,11.0675 47.1387,11.4205 47.5747,11.4205 C48.0107,11.4205 48.3637,11.0675 48.3637,10.6305" id="Stroke-293"></path>
                <path d="M45.9946,11.4206 C45.9946,11.8566 46.3486,12.2096 46.7846,12.2096 C47.2206,12.2096 47.5746,11.8566 47.5746,11.4206" id="Stroke-295"></path>
                <path d="M36.6909,24.5768 C36.6909,25.1068 37.1199,25.5368 37.6499,25.5368 C38.1799,25.5368 38.6099,25.1068 38.6099,24.5768" id="Stroke-297"></path>
                <path d="M35.7315,25.5368 C35.7315,26.0668 36.1605,26.4958 36.6905,26.4958 C37.2205,26.4958 37.6505,26.0668 37.6505,25.5368" id="Stroke-299"></path>
                <path d="M22.7529,0.7204 C22.7529,1.0744 23.0409,1.3624 23.3949,1.3624 C23.7499,1.3624 24.0369,1.0744 24.0369,0.7204" id="Stroke-301"></path>
                <path d="M22.1109,1.362 C22.1109,1.716 22.3989,2.004 22.7529,2.004 C23.1079,2.004 23.3949,1.716 23.3949,1.362" id="Stroke-303"></path>
                <path d="M83.1572,65.4255 C83.4212,65.7365 83.8872,65.7755 84.1992,65.5115 C84.5102,65.2475 84.5482,64.7805 84.2842,64.4695" id="Stroke-305"></path>
                <path d="M83.0708,66.4665 C83.3348,66.7785 83.8008,66.8165 84.1128,66.5525 C84.4238,66.2885 84.4628,65.8225 84.1988,65.5115" id="Stroke-307"></path>
                <path d="M53.7886,55.2233 C53.9866,55.6593 54.5006,55.8513 54.9366,55.6533 C55.3716,55.4533 55.5646,54.9403 55.3656,54.5043" id="Stroke-309"></path>
                <path d="M52.211,55.9431 C52.41,56.3791 52.924,56.5711 53.359,56.3721 C53.795,56.1731 53.987,55.6591 53.789,55.2231" id="Stroke-311"></path>
                <path d="M53.3594,56.3718 C53.5584,56.8078 54.0724,56.9998 54.5074,56.8018 C54.9434,56.6018 55.1354,56.0888 54.9364,55.6528" id="Stroke-313"></path>
                <path d="M51.7822,57.0915 C51.9812,57.5275 52.4952,57.7195 52.9302,57.5205 C53.3662,57.3215 53.5582,56.8075 53.3592,56.3715" id="Stroke-315"></path>
                <path d="M54.5078,56.8015 C54.7068,57.2375 55.2208,57.4285 55.6558,57.2305 C56.0918,57.0305 56.2838,56.5175 56.0848,56.0815" id="Stroke-317"></path>
                <path d="M38.6948,7.2077 C38.6948,7.6907 39.0868,8.0827 39.5698,8.0827 C40.0518,8.0827 40.4438,7.6907 40.4438,7.2077" id="Stroke-319"></path>
                <path d="M38.3916,40.2604 C38.3916,40.7424 38.7836,41.1344 39.2666,41.1344 C39.7486,41.1344 40.1406,40.7424 40.1406,40.2604" id="Stroke-321"></path>
                <path d="M48.3037,22.0407 C48.3037,22.4057 48.6007,22.7027 48.9667,22.7027 C49.3327,22.7027 49.6297,22.4057 49.6297,22.0407" id="Stroke-323"></path>
                <path d="M64.083,6.9831 C64.083,7.2571 64.306,7.4801 64.58,7.4801 C64.854,7.4801 65.077,7.2571 65.077,6.9831" id="Stroke-325"></path>
                <path d="M68.2197,80.0847 C68.3027,80.5607 68.7547,80.8797 69.2307,80.7967 C69.7067,80.7137 70.0257,80.2617 69.9427,79.7847" id="Stroke-327"></path>
                <path d="M44.0581,86.527 C44.0581,87.056 44.4881,87.486 45.0171,87.486 C45.5481,87.486 45.9771,87.056 45.9771,86.527" id="Stroke-329"></path>
                <path d="M43.0986,87.486 C43.0986,88.016 43.5286,88.446 44.0576,88.446 C44.5886,88.446 45.0176,88.016 45.0176,87.486" id="Stroke-331"></path>
            </g>
            <path d="M62.9175,198.056 C63.4255,197.988 64.1565,199.091 64.0735,199.427 C63.9895,199.763 63.9315,200.873 63.1105,200.994 C62.5045,201.083 60.3455,201.308 59.8735,200.839 C59.4385,200.407 60.2905,198.408 62.9175,198.056" id="Fill-334" fill="#FFFFFF"></path>
            <path d="M62.9175,198.056 C63.4255,197.988 64.1565,199.091 64.0735,199.427 C63.9895,199.763 63.9315,200.873 63.1105,200.994 C62.5045,201.083 60.3455,201.308 59.8735,200.839 C59.4385,200.407 60.2905,198.408 62.9175,198.056 Z" id="Stroke-336" stroke="#52267D"></path>
            <path d="M63.0601,198.3617 C63.3601,198.3217 63.7911,198.9717 63.7421,199.1707 C63.6921,199.3697 63.6581,200.0247 63.1731,200.0957 C62.8161,200.1477 61.5421,200.2807 61.2641,200.0047 C61.0071,199.7487 61.5091,198.5697 63.0601,198.3617" id="Fill-338" fill="#E1F2FF"></path>
            <path d="M64.7217,198.599 C64.7217,198.599 64.3337,198.396 63.5657,198.835 C62.8877,199.224 61.8737,199.844 62.1407,200.616 C62.4077,201.387 64.5517,201.1 65.0277,200.937 C65.5047,200.774 65.8037,200.255 65.7197,199.8 C65.5357,198.81 64.7217,198.599 64.7217,198.599" id="Fill-340" fill="#FFFFFF"></path>
            <path d="M64.7217,198.599 C64.7217,198.599 64.3337,198.396 63.5657,198.835 C62.8877,199.224 61.8737,199.844 62.1407,200.616 C62.4077,201.387 64.5517,201.1 65.0277,200.937 C65.5047,200.774 65.8037,200.255 65.7197,199.8 C65.5357,198.81 64.7217,198.599 64.7217,198.599 Z" id="Stroke-342" stroke="#52267D"></path>
            <path d="M64.8672,198.8715 C64.8672,198.8715 64.6382,198.7525 64.1832,199.0125 C63.7812,199.2415 63.1812,199.6095 63.3392,200.0655 C63.4972,200.5225 64.7662,200.3525 65.0492,200.2565 C65.3312,200.1595 65.5082,199.8525 65.4582,199.5835 C65.3492,198.9965 64.8672,198.8715 64.8672,198.8715" id="Fill-344" fill="#E1F2FF"></path>
            <path d="M44.4429,198.8129 C44.4429,198.8129 44.0549,198.6099 43.2869,199.0489 C42.6089,199.4379 41.5959,200.0579 41.8619,200.8299 C42.1289,201.6009 44.2729,201.3139 44.7499,201.1509 C45.2259,200.9879 45.5259,200.4689 45.4409,200.0139 C45.2569,199.0239 44.4429,198.8129 44.4429,198.8129" id="Fill-346" fill="#FFFFFF"></path>
            <path d="M44.4429,198.8129 C44.4429,198.8129 44.0549,198.6099 43.2869,199.0489 C42.6089,199.4379 41.5959,200.0579 41.8619,200.8299 C42.1289,201.6009 44.2729,201.3139 44.7499,201.1509 C45.2259,200.9879 45.5259,200.4689 45.4409,200.0139 C45.2569,199.0239 44.4429,198.8129 44.4429,198.8129 Z" id="Stroke-348" stroke="#52267D"></path>
            <path d="M44.5889,199.0853 C44.5889,199.0853 44.3599,198.9663 43.9039,199.2263 C43.5029,199.4563 42.9029,199.8233 43.0609,200.2793 C43.2179,200.7363 44.4879,200.5663 44.7699,200.4703 C45.0519,200.3733 45.2299,200.0663 45.1799,199.7973 C45.0709,199.2103 44.5889,199.0853 44.5889,199.0853" id="Fill-350" fill="#E1F2FF"></path>
            <path d="M46.7886,198.2699 C47.2966,198.2019 48.0276,199.3049 47.9446,199.6409 C47.8606,199.9769 47.8026,201.0869 46.9816,201.2079 C46.3756,201.2969 44.2166,201.5219 43.7446,201.0529 C43.3096,200.6209 44.1616,198.6219 46.7886,198.2699" id="Fill-352" fill="#FFFFFF"></path>
            <path d="M46.7886,198.2699 C47.2966,198.2019 48.0276,199.3049 47.9446,199.6409 C47.8606,199.9769 47.8026,201.0869 46.9816,201.2079 C46.3756,201.2969 44.2166,201.5219 43.7446,201.0529 C43.3096,200.6209 44.1616,198.6219 46.7886,198.2699 Z" id="Stroke-354" stroke="#52267D"></path>
            <path d="M46.9312,198.5756 C47.2302,198.5356 47.6622,199.1856 47.6132,199.3846 C47.5632,199.5836 47.5292,200.2386 47.0442,200.3096 C46.6872,200.3616 45.4132,200.4946 45.1352,200.2186 C44.8782,199.9626 45.3802,198.7836 46.9312,198.5756" id="Fill-356" fill="#E1F2FF"></path>
            <path d="M88.2832,198.0736 C88.2832,198.0736 87.3222,197.2906 86.0442,198.3396 C84.8772,199.2986 83.9992,200.7796 84.5222,200.9286 C85.0452,201.0776 85.9662,201.2216 86.9332,201.0456 C87.7752,200.8906 88.5182,201.0526 88.8562,199.2926 C89.0132,198.4716 88.2832,198.0736 88.2832,198.0736" id="Fill-358" fill="#FFFFFF"></path>
            <path d="M88.2832,198.0736 C88.2832,198.0736 87.3222,197.2906 86.0442,198.3396 C84.8772,199.2986 83.9992,200.7796 84.5222,200.9286 C85.0452,201.0776 85.9662,201.2216 86.9332,201.0456 C87.7752,200.8906 88.5182,201.0526 88.8562,199.2926 C89.0132,198.4716 88.2832,198.0736 88.2832,198.0736 Z" id="Stroke-360" stroke="#52267D" stroke-width="0.5"></path>
            <path d="M88.064,198.3588 C88.064,198.3588 87.466,197.8718 86.671,198.5248 C85.945,199.1218 85.398,200.0438 85.724,200.1358 C86.049,200.2278 86.623,200.3188 87.224,200.2088 C87.748,200.1118 88.21,200.2128 88.421,199.1178 C88.519,198.6068 88.064,198.3588 88.064,198.3588" id="Fill-362" fill="#E1F2FF"></path>
            <path d="M89.6475,198.056 C90.1555,197.988 90.8865,199.091 90.8025,199.427 C90.7195,199.763 90.6615,200.873 89.8395,200.994 C89.2345,201.083 87.0745,201.308 86.6035,200.839 C86.1685,200.407 87.0195,198.408 89.6475,198.056" id="Fill-364" fill="#FFFFFF"></path>
            <path d="M89.6475,198.056 C90.1555,197.988 90.8865,199.091 90.8025,199.427 C90.7195,199.763 90.6615,200.873 89.8395,200.994 C89.2345,201.083 87.0745,201.308 86.6035,200.839 C86.1685,200.407 87.0195,198.408 89.6475,198.056 Z" id="Stroke-366" stroke="#52267D" stroke-width="0.5"></path>
            <path d="M89.7896,198.3617 C90.0896,198.3217 90.5206,198.9717 90.4716,199.1707 C90.4216,199.3697 90.3876,200.0247 89.9036,200.0957 C89.5456,200.1477 88.2716,200.2807 87.9936,200.0047 C87.7366,199.7487 88.2386,198.5697 89.7896,198.3617" id="Fill-368" fill="#E1F2FF"></path>
            <path d="M91.4512,198.599 C91.4512,198.599 91.0632,198.396 90.2952,198.835 C89.6172,199.224 88.6042,199.844 88.8702,200.616 C89.1372,201.387 91.2812,201.1 91.7582,200.937 C92.2342,200.774 92.5342,200.255 92.4492,199.8 C92.2652,198.81 91.4512,198.599 91.4512,198.599" id="Fill-370" fill="#FFFFFF"></path>
            <path d="M91.4512,198.599 C91.4512,198.599 91.0632,198.396 90.2952,198.835 C89.6172,199.224 88.6042,199.844 88.8702,200.616 C89.1372,201.387 91.2812,201.1 91.7582,200.937 C92.2342,200.774 92.5342,200.255 92.4492,199.8 C92.2652,198.81 91.4512,198.599 91.4512,198.599 Z" id="Stroke-372" stroke="#52267D" stroke-width="0.5"></path>
            <path d="M91.5972,198.8715 C91.5972,198.8715 91.3672,198.7525 90.9122,199.0125 C90.5112,199.2415 89.9112,199.6095 90.0692,200.0655 C90.2262,200.5225 91.4962,200.3525 91.7782,200.2565 C92.0602,200.1595 92.2382,199.8525 92.1882,199.5835 C92.0792,198.9965 91.5972,198.8715 91.5972,198.8715" id="Fill-374" fill="#E1F2FF"></path>
            <path d="M53.458,198.7445 C53.617,198.6105 53.807,198.5735 53.963,198.6465 C54.546,198.9225 56.02,199.7045 55.716,200.7635 C55.479,201.5885 54.975,201.3405 54.012,201.3575 L53.286,201.3715 C53.135,201.3745 53.002,201.2965 52.919,201.1585 C52.501,200.4605 52.728,199.3615 53.408,198.7875 L53.458,198.7445 Z" id="Fill-376" fill="#FFFFFF"></path>
            <path d="M53.458,198.7445 C53.617,198.6105 53.807,198.5735 53.963,198.6465 C54.546,198.9225 56.02,199.7045 55.716,200.7635 C55.479,201.5885 54.975,201.3405 54.012,201.3575 L53.286,201.3715 C53.135,201.3745 53.002,201.2965 52.919,201.1585 C52.501,200.4605 52.728,199.3615 53.408,198.7875 L53.458,198.7445 Z" id="Stroke-378" stroke="#52267D"></path>
            <path d="M53.5327,198.9818 C53.6487,198.8838 53.7857,198.8568 53.9007,198.9108 C54.3247,199.1108 55.3947,199.6788 55.1737,200.4488 C55.0007,201.0478 54.6357,200.8678 53.9357,200.8798 L53.4077,200.8898 C53.2987,200.8918 53.2017,200.8358 53.1417,200.7358 C52.8377,200.2278 53.0017,199.4298 53.4967,199.0128 L53.5327,198.9818 Z" id="Fill-380" fill="#E1F2FF"></path>
            <path d="M50.0484,198.4281 C50.0484,198.4281 49.1574,197.5671 47.7954,198.5031 C46.5504,199.3601 45.5504,200.7611 46.0584,200.9541 C46.5674,201.1471 47.4724,201.3691 48.4514,201.2751 C49.3024,201.1931 50.0294,201.4171 50.5154,199.6921 C50.7424,198.8881 50.0484,198.4281 50.0484,198.4281" id="Fill-382" fill="#FFFFFF"></path>
            <path d="M50.0484,198.4281 C50.0484,198.4281 49.1574,197.5671 47.7954,198.5031 C46.5504,199.3601 45.5504,200.7611 46.0584,200.9541 C46.5674,201.1471 47.4724,201.3691 48.4514,201.2751 C49.3024,201.1931 50.0294,201.4171 50.5154,199.6921 C50.7424,198.8881 50.0484,198.4281 50.0484,198.4281 Z" id="Stroke-384" stroke="#52267D"></path>
            <path d="M49.8062,198.6947 C49.8062,198.6947 49.2512,198.1577 48.4042,198.7417 C47.6292,199.2737 47.0072,200.1457 47.3232,200.2657 C47.6392,200.3857 48.2032,200.5247 48.8122,200.4657 C49.3422,200.4147 49.7942,200.5537 50.0972,199.4807 C50.2382,198.9797 49.8062,198.6947 49.8062,198.6947" id="Fill-386" fill="#E1F2FF"></path>
            <path d="M183.8286,201.3705 L59.6946,201.3705 C58.4496,201.3705 57.4396,200.3605 57.4396,199.1155 L57.4396,17.0935 C57.4396,15.8475 58.4496,14.8385 59.6946,14.8385 L183.8286,14.8385 C185.0736,14.8385 186.0836,15.8475 186.0836,17.0935 L186.0836,199.1155 C186.0836,200.3605 185.0736,201.3705 183.8286,201.3705" id="Fill-388" fill="#FFFFFF"></path>
            <path d="M183.8286,201.3705 L59.6946,201.3705 C58.4496,201.3705 57.4396,200.3605 57.4396,199.1155 L57.4396,17.0935 C57.4396,15.8475 58.4496,14.8385 59.6946,14.8385 L183.8286,14.8385 C185.0736,14.8385 186.0836,15.8475 186.0836,17.0935 L186.0836,199.1155 C186.0836,200.3605 185.0736,201.3705 183.8286,201.3705 Z" id="Stroke-390" stroke="#5E63B6" stroke-width="2"></path>
            <path d="M142.8511,73.6469 C142.8511,87.3059 131.7781,98.3789 118.1191,98.3789 C104.4591,98.3789 93.3861,87.3059 93.3861,73.6469 C93.3861,59.9879 104.4591,48.9149 118.1191,48.9149 C131.7781,48.9149 142.8511,59.9879 142.8511,73.6469" id="Fill-392" fill="#E1F2FF"></path>
            <path d="M145.8511,68.6469 C145.8511,82.3059 134.7781,93.3789 121.1191,93.3789 C107.4591,93.3789 96.3861,82.3059 96.3861,68.6469 C96.3861,54.9879 107.4591,43.9149 121.1191,43.9149 C134.7781,43.9149 145.8511,54.9879 145.8511,68.6469" id="Fill-394" fill="#FFFFFF"></path>
            <path d="M145.8511,68.6469 C145.8511,82.3059 134.7781,93.3789 121.1191,93.3789 C107.4591,93.3789 96.3861,82.3059 96.3861,68.6469 C96.3861,54.9879 107.4591,43.9149 121.1191,43.9149 C134.7781,43.9149 145.8511,54.9879 145.8511,68.6469 Z" id="Stroke-396" stroke="#5E63B6" stroke-width="2"></path>
            <path d="M127.2661,80.8451 C127.3701,81.1531 127.4611,81.3641 127.4891,81.4331 C127.4971,81.4401 127.4801,81.4291 127.4891,81.4331 C127.4891,81.4331 127.4891,81.4351 127.4891,81.4331 C127.4901,81.4341 127.4881,81.4331 127.4881,81.4331 C126.7891,74.6931 130.6121,71.8841 131.8401,67.4071 C131.8461,67.3401 131.8591,67.2681 131.8791,67.1861 C131.9051,67.0861 131.9251,66.9831 131.9411,66.8791 C132.1231,65.6411 131.6161,64.1991 130.6551,62.6981 C130.6511,62.6891 130.6441,62.6811 130.6391,62.6731 C130.5611,62.5481 130.4761,62.4231 130.3911,62.2981 C130.3911,62.2981 130.3881,62.2961 130.3871,62.2941 C130.2301,62.0661 130.0611,61.8351 129.8841,61.6051 C129.8661,61.5811 129.8491,61.5561 129.8301,61.5331 C129.7811,61.4701 129.7291,61.4081 129.6811,61.3451 C129.6291,61.2791 129.5791,61.2141 129.5281,61.1511 C129.4741,61.0871 129.4221,61.0251 129.3701,60.9621 C129.3151,60.8971 129.2611,60.8321 129.2051,60.7671 C129.1681,60.7231 129.1271,60.6771 129.0871,60.6311 C127.5771,58.8911 125.6111,57.1721 123.5591,55.6771 C123.5591,55.6771 123.5441,55.6541 123.5591,55.6771 C123.8311,58.2131 123.8651,60.7501 123.6251,62.7791 C123.3351,65.2241 122.4601,68.0701 121.2461,70.6511 C118.4041,70.4181 115.4991,69.7591 113.2341,68.7921 C111.3411,67.9841 109.1711,66.7071 107.0971,65.1941 C107.1201,65.4051 107.1451,65.6131 107.1691,65.8231 C107.1771,65.8851 107.1861,65.9481 107.1941,66.0111 C107.2141,66.1601 107.2321,66.3101 107.2551,66.4601 C107.2641,66.5291 107.2741,66.5981 107.2851,66.6661 C107.3071,66.8181 107.3291,66.9671 107.3541,67.1161 C107.3631,67.1761 107.3731,67.2381 107.3831,67.2981 C107.4141,67.4881 107.4461,67.6751 107.4811,67.8631 C107.4831,67.8821 107.4851,67.9011 107.4901,67.9181 C107.5281,68.1371 107.5701,68.3531 107.6131,68.5691 C107.6151,68.5851 107.6201,68.6011 107.6231,68.6181 C107.6631,68.8131 107.7021,69.0031 107.7441,69.1951 C107.7531,69.2351 107.7621,69.2731 107.7691,69.3121 C107.8081,69.4871 107.8491,69.6601 107.8901,69.8351 C107.8991,69.8681 107.9081,69.9021 107.9151,69.9371 C107.9651,70.1371 108.0141,70.3361 108.0651,70.5331 C108.0671,70.5341 108.0671,70.5361 108.0671,70.5361 C108.2351,71.1691 108.4191,71.7801 108.6181,72.3661 C108.6201,72.3731 108.6231,72.3801 108.6251,72.3871 C108.9621,73.3661 109.3461,74.2681 109.7751,75.0571 C109.8381,75.1711 109.9021,75.2841 109.9671,75.3941 C109.9701,75.3981 109.9701,75.4031 109.9731,75.4071 L109.9741,75.4081 C110.0331,75.5071 110.0931,75.6061 110.1521,75.7001 L110.1541,75.7021 C110.1541,75.7021 110.1591,75.7091 110.1611,75.7121 C110.2251,75.8161 110.2911,75.9161 110.3581,76.0121 L110.3581,76.0131 C110.3681,76.0271 110.3761,76.0381 110.3871,76.0511 C110.3881,76.0521 110.3861,76.0541 110.3871,76.0551 C110.4741,76.1801 110.5631,76.3011 110.6511,76.4161 C110.6681,76.4351 110.6831,76.4541 110.6961,76.4721 C110.7011,76.4791 110.7071,76.4851 110.7121,76.4931 C110.8141,76.6221 110.9191,76.7481 111.0281,76.8651 C111.1021,76.9481 111.1791,77.0261 111.2561,77.1021 C111.2881,77.1341 111.3231,77.1641 111.3551,77.1951 C111.4031,77.2411 111.4521,77.2831 111.5001,77.3271 C111.5371,77.3591 111.5741,77.3871 111.6121,77.4181 C111.6581,77.4561 111.7061,77.4931 111.7531,77.5311 C111.7901,77.5591 111.8281,77.5841 111.8671,77.6121 C111.9161,77.6471 111.9641,77.6791 112.0131,77.7121 C112.0501,77.7361 112.0891,77.7601 112.1271,77.7821 C112.1801,77.8141 112.2331,77.8421 112.2841,77.8711 C112.3211,77.8921 112.3571,77.9101 112.3931,77.9281 C112.4531,77.9561 112.5131,77.9821 112.5751,78.0091 C112.6031,78.0191 112.6351,78.0351 112.6651,78.0461 C112.7581,78.0841 112.8511,78.1151 112.9441,78.1411 C113.0081,78.1591 113.0611,78.1791 113.1121,78.1991 C117.6121,79.3881 121.9941,77.5041 127.4891,81.4331" id="Fill-398" fill="#9452BA"></path>
            <g id="Group-403" transform="translate(90.000000, 121.446000)">
                <path d="M0.5347,0.9235 L64.3027,0.9235" id="Fill-400" fill="#FFFFFF"></path>
                <path d="M0.5347,0.9235 L64.3027,0.9235" id="Stroke-402" stroke="#5E63B6" stroke-width="2" stroke-linecap="round" stroke-linejoin="round"></path>
            </g>
            <g id="Group-407" transform="translate(90.000000, 142.446000)">
                <path d="M0.001,0.1237 L63.768,0.1237" id="Fill-404" fill="#FFFFFF"></path>
                <path d="M0.001,0.1237 L63.768,0.1237" id="Stroke-406" stroke="#5E63B6" stroke-width="2" stroke-linecap="round" stroke-linejoin="round"></path>
            </g>
            <g id="Group-411" transform="translate(90.000000, 163.446000)">
                <path d="M0.001,0.3757 L63.768,0.3757" id="Fill-408" fill="#FFFFFF"></path>
                <path d="M0.001,0.3757 L63.768,0.3757" id="Stroke-410" stroke="#5E63B6" stroke-width="2" stroke-linecap="round" stroke-linejoin="round"></path>
            </g>
            <path d="M216.6968,0.0004 L216.6968,7.0004" id="Stroke-412" stroke="#5E63B6" stroke-width="2" stroke-linecap="round" stroke-linejoin="round"></path>
            <path d="M220.1968,3.5004 L213.1968,3.5004" id="Stroke-414" stroke="#5E63B6" stroke-width="2" stroke-linecap="round" stroke-linejoin="round"></path>
            <path d="M10.2217,157.7299 L10.2217,161.6679" id="Stroke-416" stroke="#5E63B6" stroke-linecap="round"></path>
            <path d="M12.1904,159.6986 L8.2524,159.6986" id="Stroke-418" stroke="#5E63B6" stroke-linecap="round"></path>
            <path d="M238.2886,139.0121 L238.2886,142.9501" id="Stroke-420" stroke="#5E63B6" stroke-linecap="round" stroke-linejoin="round"></path>
            <path d="M240.2573,140.9808 L236.3193,140.9808" id="Stroke-422" stroke="#5E63B6" stroke-linecap="round" stroke-linejoin="round"></path>
            <path d="M39.7993,23.015 L39.7993,26.953" id="Stroke-424" stroke="#5E63B6" stroke-linecap="round"></path>
            <path d="M41.7681,24.9838 L37.8301,24.9838" id="Stroke-426" stroke="#5E63B6" stroke-linecap="round"></path>
            <g id="Group-431" transform="translate(22.000000, 69.446000)">
                <path d="M0.3506,0.1384 L0.3506,8.2634" id="Fill-428" fill="#FFFFFF"></path>
                <path d="M0.3506,0.1384 L0.3506,8.2634" id="Stroke-430" stroke="#5E63B6" stroke-width="2" stroke-linecap="round"></path>
            </g>
            <g id="Group-435" transform="translate(18.000000, 73.446000)">
                <path d="M8.4131,0.2009 L0.2881,0.2009" id="Fill-432" fill="#FFFFFF"></path>
                <path d="M8.4131,0.2009 L0.2881,0.2009" id="Stroke-434" stroke="#5E63B6" stroke-width="2" stroke-linecap="round"></path>
            </g>
            <g id="Group-439" transform="translate(92.000000, 210.446000)">
                <path d="M0.3823,-0.0003 L67.5683,-0.0003" id="Fill-436" fill="#FFFFFF"></path>
                <path d="M0.3823,-0.0003 L67.5683,-0.0003" id="Stroke-438" stroke="#5E63B6" stroke-width="2" stroke-linecap="round" stroke-linejoin="round"></path>
            </g>
            <g id="Group-443" transform="translate(168.000000, 210.446000)">
                <path d="M0.187,-0.0003 L9.328,-0.0003" id="Fill-440" fill="#FFFFFF"></path>
                <path d="M0.187,-0.0003 L9.328,-0.0003" id="Stroke-442" stroke="#5E63B6" stroke-width="2" stroke-linecap="round" stroke-linejoin="round"></path>
            </g>
            <g id="Group-447" transform="translate(79.000000, 209.446000)">
                <path d="M5.5,0.9245 L0.5,0.9995" id="Fill-444" fill="#FFFFFF"></path>
                <path d="M5.5,0.9245 L0.5,0.9995" id="Stroke-446" stroke="#5E63B6" stroke-width="2" stroke-linecap="round" stroke-linejoin="round"></path>
            </g>
            <g id="Group-451" transform="translate(192.000000, 200.446000)">
                <path d="M0.3198,0.9245 L44.3198,0.9245" id="Fill-448" fill="#FFFFFF"></path>
                <path d="M0.3198,0.9245 L44.3198,0.9245" id="Stroke-450" stroke="#5E63B6" stroke-width="2" stroke-linecap="round" stroke-linejoin="round"></path>
            </g>
            <g id="Group-455" transform="translate(243.000000, 200.446000)">
                <path d="M0.1665,0.6833 L7.1405,0.6833" id="Fill-452" fill="#FFFFFF"></path>
                <path d="M0.1665,0.6833 L7.1405,0.6833" id="Stroke-454" stroke="#5E63B6" stroke-width="2" stroke-linecap="round" stroke-linejoin="round"></path>
            </g>
            <g id="Group-459" transform="translate(0.000000, 200.446000)">
                <path d="M0,0.6833 L8.973,0.6833" id="Fill-456" fill="#FFFFFF"></path>
                <path d="M0,0.6833 L8.973,0.6833" id="Stroke-458" stroke="#5E63B6" stroke-width="2" stroke-linecap="round" stroke-linejoin="round"></path>
            </g>
        </g>
    </g>
</svg>