<?xml version="1.0" encoding="UTF-8" standalone="no"?>
<svg width="256px" height="256px" viewBox="0 0 256 256" version="1.1" xmlns="http://www.w3.org/2000/svg" xmlns:xlink="http://www.w3.org/1999/xlink">
    <!-- Generator: Sketch 50.2 (55047) - http://www.bohemiancoding.com/sketch -->
    <title>icon--marketplace</title>
    <desc>Created with Sketch.</desc>
    <defs></defs>
    <g id="icon--marketplace" stroke="none" stroke-width="1" fill="none" fill-rule="evenodd">
        <g id="Group-4" transform="translate(25.000000, 24.000000)">
            <path d="M0,194.559998 C1.20528625e-06,137.36539 46.3653922,91 103.56,91 C160.754608,91 207.119999,137.36539 207.12,194.559998 L0,194.559998 Z" id="Shape" fill="#E1F2FF" fill-rule="nonzero"></path>
            <g id="Group-2" transform="translate(57.000000, 206.000000)" fill="#FFFFFF" fill-rule="nonzero" stroke="#ACD3EF" stroke-linecap="round" stroke-linejoin="round" stroke-width="3">
                <path d="M13,0 L80.19,0" id="Shape"></path>
                <path d="M89,0 L98.14,0" id="Shape"></path>
                <path d="M5,0 L0,0.08" id="Shape"></path>
            </g>
            <g id="Group-2" transform="translate(2.000000, 0.000000)" stroke="#5E63B6" stroke-linecap="round">
                <path d="M193.98,36.4 L193.98,43.4" id="Shape" stroke-width="2" stroke-linejoin="round"></path>
                <path d="M197.48,39.9 L190.48,39.9" id="Shape" stroke-width="2" stroke-linejoin="round"></path>
                <path d="M58,0 L58,7" id="Shape" stroke-width="2" stroke-linejoin="round"></path>
                <path d="M62,4 L55,4" id="Shape" stroke-width="2" stroke-linejoin="round"></path>
                <path d="M20.73,164.68 L20.73,168.62" id="Shape"></path>
                <path d="M22.7,166.65 L18.76,166.65" id="Shape"></path>
                <path d="M195.73,104.68 L195.73,108.62" id="Shape" stroke-linejoin="round"></path>
                <path d="M197.7,106.65 L193.76,106.65" id="Shape" stroke-linejoin="round"></path>
                <path d="M26.73,64.68 L26.73,68.62" id="Shape"></path>
                <path d="M28.7,66.65 L24.76,66.65" id="Shape"></path>
                <path d="M4.42,103.28 L4.42,111.4" id="Shape" stroke-width="2" fill="#FFFFFF" fill-rule="nonzero"></path>
                <path d="M8.48,107.34 L0.35,107.34" id="Shape" stroke-width="2" fill="#FFFFFF" fill-rule="nonzero"></path>
            </g>
        </g>
        <g id="Group-2" transform="translate(30.000000, 46.000000)">
            <g id="Group">
                <polygon id="Shape" fill="#FFFFFF" fill-rule="nonzero" points="20.7012987 24.4640308 175.298701 24.4640308 175.298701 171.510185 20.7012987 171.510185"></polygon>
                <path d="M21.9480519,25.7101846 L21.9480519,170.264031 L174.051948,170.264031 L174.051948,25.7101846 L21.9480519,25.7101846 Z M176.545455,23.2178769 L176.545455,172.756338 L19.4545455,172.756338 L19.4545455,23.2178769 L176.545455,23.2178769 Z" id="Shape" fill="#5E63B6" fill-rule="nonzero"></path>
                <polygon id="Shape" stroke="#5E63B6" stroke-width="3" fill="#FFFFFF" fill-rule="nonzero" points="29.7406041 0 166.088198 0 181.444735 23.9364 14.6273464 23.9364"></polygon>
                <path d="M36,7 L103.19,7" id="Shape" stroke="#E1F2FF" stroke-width="2" fill="#FFFFFF" fill-rule="nonzero" stroke-linecap="round" stroke-linejoin="round"></path>
                <path d="M94,17 L161.19,17" id="Shape" stroke="#E1F2FF" stroke-width="2" fill="#FFFFFF" fill-rule="nonzero" stroke-linecap="round" stroke-linejoin="round"></path>
                <polygon id="Shape" fill="#FFFFFF" fill-rule="nonzero" points="30.6753247 164.033262 65.5844156 164.033262 65.5844156 64.3409538 30.6753247 64.3409538"></polygon>
                <polygon id="Path" fill="#FFFFFF" points="75.5584416 171.510185 120.441558 171.510185 120.441558 64.3409538 75.5584416 64.3409538"></polygon>
                <polygon id="Path" fill="#FFFFFF" points="130.415584 64.3409538 130.415584 164.033262 165.324675 164.033262 165.324675 64.3409538 130.415584 64.3409538"></polygon>
                <path d="M29.4285714,165.279415 L29.4285714,63.0948 L66.8311688,63.0948 L66.8311688,165.279415 L29.4285714,165.279415 Z M64.3376623,162.787108 L64.3376623,65.5871077 L31.9220779,65.5871077 L31.9220779,162.787108 L64.3376623,162.787108 Z M74.3116883,172.756338 L74.3116883,63.0948 L121.688312,63.0948 L121.688312,172.756338 L74.3116883,172.756338 Z M119.194805,170.264031 L119.194805,65.5871077 L76.8051948,65.5871077 L76.8051948,170.264031 L119.194805,170.264031 Z M129.168831,63.0948 L166.571429,63.0948 L166.571429,165.279415 L129.168831,165.279415 L129.168831,63.0948 Z M131.662338,162.787108 L164.077922,162.787108 L164.077922,65.5871077 L131.662338,65.5871077 L131.662338,162.787108 Z" id="Shape" fill="#5E63B6" fill-rule="nonzero"></path>
                <polygon id="Shape" fill="#5E63B6" fill-rule="nonzero" points="20.7012987 64.3409538 175.298701 64.3409538 175.298701 71.8178769 20.7012987 71.8178769"></polygon>
                <path d="M88.025974,91.7538462 L107.974026,91.7538462 C110.726857,91.7538462 112.961039,93.9869538 112.961039,96.7384615 L112.961039,104.215385 C112.961039,106.966892 110.726857,109.2 107.974026,109.2 L88.025974,109.2 C85.2731429,109.2 83.038961,106.966892 83.038961,104.215385 L83.038961,96.7384615 C83.038961,93.9869538 85.2731429,91.7538462 88.025974,91.7538462 Z" id="Shape" fill="#FFFFFF" fill-rule="nonzero"></path>
                <path d="M179.821755,31.9160308 L196,48.1444004 L196,60.3387554 C196,63.9124444 193.152202,66.8083385 189.636363,66.8083385 L6.3636276,66.8083385 C2.85111324,66.8083385 -9.05364513e-06,63.9080653 0,60.3338788 L0.0452496571,48.1474193 L16.0129252,31.9160308 L179.821755,31.9160308 Z" id="Shape" fill="#5E63B6" fill-rule="nonzero"></path>
                <path d="M177.640104,34.4232923 L18.2028052,34.4232923 L3.28914286,49.3409476 L3.24675325,59.3285235 C3.24675325,62.0802514 5.48093506,64.3185228 8.23376623,64.3185228 L187.766234,64.3185228 C190.521558,64.3185228 192.753247,62.0852364 192.753247,59.3285235 L192.753247,49.3409476 L177.640104,34.4232923 Z" id="Shape" fill="#FFFFFF" fill-rule="nonzero"></path>
                <polygon id="Shape" fill="#E1F2FF" fill-rule="nonzero" points="64.3376623 125.402492 50.445269 125.402492 50.445269 110.448646 31.9220779 110.448646 31.9220779 162.787108 64.3376623 162.787108"></polygon>
                <rect id="Rectangle-path" fill="#E1F2FF" fill-rule="nonzero" x="106.727273" y="135.371723" width="12.4675325" height="34.8923077"></rect>
                <rect id="Rectangle-path" fill="#E1F2FF" fill-rule="nonzero" x="76.8051948" y="125.402492" width="17.4545455" height="44.8615385"></rect>
                <rect id="Rectangle-path" fill="#E1F2FF" fill-rule="nonzero" x="131.662338" y="110.448646" width="32.4155844" height="52.3384615"></rect>
                <path d="M107.974026,91.7538462 L88.025974,91.7538462 C85.2731429,91.7538462 83.038961,93.9869538 83.038961,96.7384615 L83.038961,104.215385 C83.038961,106.966892 85.2731429,109.2 88.025974,109.2 L107.974026,109.2 C110.726857,109.2 112.961039,106.966892 112.961039,104.215385 L112.961039,96.7384615 C112.961039,93.9869538 110.726857,91.7538462 107.974026,91.7538462 Z M109.220779,104.215385 C109.220779,104.900769 108.65974,105.461538 107.974026,105.461538 L88.025974,105.461538 C87.3377662,105.461538 86.7792208,104.900769 86.7792208,104.215385 L86.7792208,96.7384615 C86.7792208,96.0530769 87.3377662,95.4923077 88.025974,95.4923077 L107.974026,95.4923077 C108.65974,95.4923077 109.220779,96.0530769 109.220779,96.7384615 L109.220779,104.215385 Z" id="Shape" fill="#E1F2FF" fill-rule="nonzero"></path>
                <polygon id="Shape" fill-opacity="0.845986187" fill="#9452BA" fill-rule="nonzero" points="65.5844156 34.4332615 63.0909091 49.3846154 63.0909091 64.3160308 73.0649351 64.3160308 73.0649351 49.3846154 75.5584416 34.4332615"></polygon>
                <polygon id="Shape" fill-opacity="0.845986187" fill="#9452BA" fill-rule="nonzero" points="48.1298701 34.4332615 43.1428571 49.3846154 43.1428571 64.3160308 53.1168831 64.3160308 53.1168831 49.3846154 58.1038961 34.4332615"></polygon>
                <rect id="Rectangle-path" fill-opacity="0.845986187" fill="#9452BA" fill-rule="nonzero" x="83.038961" y="34.4332615" width="9.97402597" height="29.8827692"></rect>
                <polygon id="Shape" fill-opacity="0.845986187" fill="#9452BA" fill-rule="nonzero" points="33.1688312 34.4332615 23.1948052 49.3846154 23.1948052 64.3160308 33.1688312 64.3160308 33.1688312 49.3846154 40.6493506 34.4332615"></polygon>
                <polygon id="Shape" fill-opacity="0.845986187" fill="#9452BA" fill-rule="nonzero" points="155.350649 34.4332615 162.831169 49.3846154 162.831169 64.3160308 172.805195 64.3160308 172.805195 49.3846154 165.324675 34.4332615"></polygon>
                <path d="M192.708364,49.3397538 L177.650078,34.4332615 L172.805195,34.4332615 L182.779221,49.3846154 L182.779221,64.3160308 L187.766234,64.3160308 C190.521558,64.3160308 192.753247,62.0829231 192.753247,59.3264308 L192.753247,49.3846154 L192.723325,49.3397538 L192.708364,49.3397538 Z" id="Shape" fill-opacity="0.845986187" fill="#9452BA" fill-rule="nonzero"></path>
                <path d="M8.23376623,64.3160308 L13.2207792,64.3160308 L13.2207792,49.3846154 L23.1948052,34.4332615 L18.1928312,34.4332615 L3.28664935,49.3397538 L3.28166234,49.3397538 L3.24675325,49.3846154 L3.24675325,59.3264308 C3.24675325,62.0829231 5.48093506,64.3160308 8.23376623,64.3160308 Z" id="Shape" fill-opacity="0.845986187" fill="#9452BA" fill-rule="nonzero"></path>
                <rect id="Rectangle-path" fill-opacity="0.845986187" fill="#9452BA" fill-rule="nonzero" x="102.987013" y="34.4332615" width="9.97402597" height="29.8827692"></rect>
                <polygon id="Shape" fill-opacity="0.845986187" fill="#9452BA" fill-rule="nonzero" points="152.857143 64.3160308 152.857143 49.3846154 147.87013 34.4332615 137.896104 34.4332615 142.883117 49.3846154 142.883117 64.3160308"></polygon>
                <polygon id="Shape" fill-opacity="0.845986187" fill="#9452BA" fill-rule="nonzero" points="132.909091 64.3160308 132.909091 49.3846154 130.415584 34.4332615 120.441558 34.4332615 122.935065 49.3846154 122.935065 64.3160308"></polygon>
                <polygon id="Shape" fill-opacity="0.335399683" fill="#9452BA" fill-rule="nonzero" points="177.645091 34.4307692 18.1953247 34.4307692 3.28914286 49.3397538 3.24675325 49.3397538 3.24675325 49.3846154 192.753247 49.3846154 192.753247 49.3397538 192.708364 49.3397538"></polygon>
                <polygon id="Shape" fill="#9452BA" fill-rule="nonzero" points="63.0909091 49.3846154 73.0649351 49.3846154 75.5584416 34.4332615 65.5844156 34.4332615"></polygon>
                <rect id="Rectangle-path" fill="#9452BA" fill-rule="nonzero" x="102.987013" y="34.4332615" width="9.97402597" height="14.9513538"></rect>
                <polygon id="Shape" fill="#9452BA" fill-rule="nonzero" points="43.1428571 49.3846154 53.1168831 49.3846154 58.1038961 34.4332615 48.1298701 34.4332615"></polygon>
                <polygon id="Shape" fill="#9452BA" fill-rule="nonzero" points="155.350649 34.4332615 162.831169 49.3846154 172.805195 49.3846154 165.324675 34.4332615"></polygon>
                <rect id="Rectangle-path" fill="#9452BA" fill-rule="nonzero" x="83.038961" y="34.4332615" width="9.97402597" height="14.9513538"></rect>
                <polygon id="Shape" fill="#9452BA" fill-rule="nonzero" points="172.805195 34.4332615 182.779221 49.3846154 192.753247 49.3846154 192.723325 49.3397538 192.708364 49.3397538 177.650078 34.4332615"></polygon>
                <polygon id="Shape" fill="#9452BA" fill-rule="nonzero" points="130.415584 34.4332615 120.441558 34.4332615 122.935065 49.3846154 132.909091 49.3846154"></polygon>
                <polygon id="Shape" fill="#9452BA" fill-rule="nonzero" points="23.1948052 34.4332615 18.1928312 34.4332615 3.28914286 49.3397538 3.28415584 49.3397538 3.24675325 49.3846154 13.2207792 49.3846154"></polygon>
                <polygon id="Shape" fill="#9452BA" fill-rule="nonzero" points="147.87013 34.4332615 137.896104 34.4332615 142.883117 49.3846154 152.857143 49.3846154"></polygon>
                <polygon id="Shape" fill="#9452BA" fill-rule="nonzero" points="33.1688312 49.3846154 40.6493506 34.4332615 33.1688312 34.4332615 23.1948052 49.3846154"></polygon>
                <rect id="Rectangle-path" fill="#E1F2FF" fill-rule="nonzero" x="76.8051948" y="66.8332615" width="42.3896104" height="7.47692308"></rect>
                <rect id="Rectangle-path" fill="#E1F2FF" fill-rule="nonzero" x="131.662338" y="66.8332615" width="32.4155844" height="7.47692308"></rect>
                <rect id="Rectangle-path" fill="#E1F2FF" fill-rule="nonzero" x="31.9220779" y="66.8332615" width="32.4155844" height="7.47692308"></rect>
            </g>
        </g>
        <path d="M240.33,219.438405 L224.33,219.438405 C228.146288,207.321278 221.417127,194.404693 209.3,190.588405 C197.182873,186.772118 184.266288,193.501278 180.45,205.618405 C176.096411,204.638078 171.531705,205.599614 167.943509,208.252844 C164.355314,210.906073 162.098413,214.988658 161.76,219.438405 L148.04,219.438405 C147.507327,209.873379 140.158044,202.084829 130.64,200.998405 C128.03587,188.423592 118.294177,178.547887 105.756115,175.772203 C93.2180532,172.996519 80.2183232,177.837715 72.55,188.138405 C63.6690356,185.897602 54.2610184,188.414592 47.68537,194.790608 C41.1097217,201.166624 38.303972,210.492598 40.27,219.438405 L24,219.438405" id="Shape" stroke="#ACD3EF" stroke-width="3" fill="#FFFFFF" fill-rule="nonzero" stroke-linecap="round"></path>
        <path d="M9,219 L14.33,219" id="Shape" stroke="#ACD3EF" stroke-width="3" fill="#FFFFFF" fill-rule="nonzero" stroke-linecap="round"></path>
    </g>
</svg>