<?xml version="1.0" encoding="UTF-8" standalone="no"?>
<svg width="256px" height="256px" viewBox="0 0 256 256" version="1.1" xmlns="http://www.w3.org/2000/svg" xmlns:xlink="http://www.w3.org/1999/xlink">
    <!-- Generator: Sketch 50.2 (55047) - http://www.bohemiancoding.com/sketch -->
    <title>Common/Illustrations/AssociationType</title>
    <desc>Created with Sketch.</desc>
    <defs></defs>
    <g id="Common/Illustrations/AssociationType" stroke="none" stroke-width="1" fill="none" fill-rule="evenodd">
        <g id="Group" transform="translate(3.000000, 11.000000)">
            <path d="M20.3605,207.4347 C20.3605,150.2417 66.7245,103.8767 123.9185,103.8767 C181.1115,103.8767 227.4765,150.2417 227.4765,207.4347 L20.3605,207.4347 Z" id="Fill-1" fill="#E1F2FF"></path>
            <path d="M240.2492,21.7813 L240.2492,25.7193" id="Stroke-3" stroke="#5E63B6" stroke-linecap="round"></path>
            <path d="M242.2179,23.7501 L238.2799,23.7501" id="Stroke-5" stroke="#5E63B6" stroke-linecap="round"></path>
            <path d="M60.5851,0.5001 L60.5851,4.4381" id="Stroke-7" stroke="#5E63B6" stroke-linecap="round"></path>
            <path d="M62.5538,2.4688 L58.6158,2.4688" id="Stroke-9" stroke="#5E63B6" stroke-linecap="round"></path>
            <g id="Group-14" transform="translate(242.000000, 197.719000)">
                <path d="M0.2179,0.8856 L7.1909,0.8856" id="Fill-11" fill="#FFFFFF"></path>
                <path d="M0.2179,0.8856 L7.1909,0.8856" id="Stroke-13" stroke="#5E63B6" stroke-width="2" stroke-linecap="round" stroke-linejoin="round"></path>
            </g>
            <g id="Group-18" transform="translate(0.000000, 197.719000)">
                <path d="M0.0001,0.8856 L8.9731,0.8856" id="Fill-15" fill="#FFFFFF"></path>
                <path d="M0.0001,0.8856 L8.9731,0.8856" id="Stroke-17" stroke="#5E63B6" stroke-width="2" stroke-linecap="round" stroke-linejoin="round"></path>
            </g>
            <g id="Group-22" transform="translate(91.000000, 207.719000)">
                <path d="M0.2306,-0.0002 L67.4176,-0.0002" id="Fill-19" fill="#FFFFFF"></path>
                <path d="M0.2306,-0.0002 L67.4176,-0.0002" id="Stroke-21" stroke="#5E63B6" stroke-width="2" stroke-linecap="round" stroke-linejoin="round"></path>
            </g>
            <g id="Group-26" transform="translate(167.000000, 207.719000)">
                <path d="M0.0363,-0.0002 L9.1773,-0.0002" id="Fill-23" fill="#FFFFFF"></path>
                <path d="M0.0363,-0.0002 L9.1773,-0.0002" id="Stroke-25" stroke="#5E63B6" stroke-width="2" stroke-linecap="round" stroke-linejoin="round"></path>
            </g>
            <g id="Group-30" transform="translate(78.000000, 206.719000)">
                <path d="M5.3488,0.9246 L0.3488,0.9996" id="Fill-27" fill="#FFFFFF"></path>
                <path d="M5.3488,0.9246 L0.3488,0.9996" id="Stroke-29" stroke="#5E63B6" stroke-width="2" stroke-linecap="round" stroke-linejoin="round"></path>
            </g>
            <path d="M22.9093,73.0294 L22.9093,80.0294" id="Stroke-31" stroke="#5E63B6" stroke-width="2" stroke-linecap="round" stroke-linejoin="round"></path>
            <path d="M26.4093,76.5294 L19.4093,76.5294" id="Stroke-33" stroke="#5E63B6" stroke-width="2" stroke-linecap="round" stroke-linejoin="round"></path>
            <path d="M230.9767,146.3477 L230.9767,153.3477" id="Stroke-35" stroke="#5E63B6" stroke-width="2" stroke-linecap="round" stroke-linejoin="round"></path>
            <path d="M234.4767,149.8477 L227.4767,149.8477" id="Stroke-37" stroke="#5E63B6" stroke-width="2" stroke-linecap="round" stroke-linejoin="round"></path>
            <path d="M19.4093,157.9063 L19.4093,161.8443" id="Stroke-39" stroke="#5E63B6" stroke-linecap="round"></path>
            <path d="M21.3781,159.8751 L17.4401,159.8751" id="Stroke-41" stroke="#5E63B6" stroke-linecap="round"></path>
            <g id="Group-46" transform="translate(17.000000, 197.719000)">
                <path d="M0.2746,0.9246 L218.1686,0.9246" id="Fill-43" fill="#FFFFFF"></path>
                <path d="M0.2746,0.9246 L218.1686,0.9246" id="Stroke-45" stroke="#5E63B6" stroke-width="2" stroke-linecap="round" stroke-linejoin="round"></path>
            </g>
            <path d="M203.5187,178.1153 L134.8277,178.1153 C133.7227,178.1153 132.8277,177.2193 132.8277,176.1153 L132.8277,107.4233 C132.8277,106.3183 133.7227,105.4233 134.8277,105.4233 L203.5187,105.4233 C204.6227,105.4233 205.5187,106.3183 205.5187,107.4233 L205.5187,176.1153 C205.5187,177.2193 204.6227,178.1153 203.5187,178.1153" id="Fill-47" fill="#FFFFFF"></path>
            <path d="M203.5187,178.1153 L134.8277,178.1153 C133.7227,178.1153 132.8277,177.2193 132.8277,176.1153 L132.8277,107.4233 C132.8277,106.3183 133.7227,105.4233 134.8277,105.4233 L203.5187,105.4233 C204.6227,105.4233 205.5187,106.3183 205.5187,107.4233 L205.5187,176.1153 C205.5187,177.2193 204.6227,178.1153 203.5187,178.1153 Z" id="Stroke-49" stroke="#5E63B6" stroke-width="2"></path>
            <path d="M203.5187,105.4776 L134.8277,105.4776 C133.7227,105.4776 132.8277,104.5816 132.8277,103.4776 L132.8277,34.7866 C132.8277,33.6816 133.7227,32.7866 134.8277,32.7866 L203.5187,32.7866 C204.6227,32.7866 205.5187,33.6816 205.5187,34.7866 L205.5187,103.4776 C205.5187,104.5816 204.6227,105.4776 203.5187,105.4776" id="Fill-51" fill="#FFFFFF"></path>
            <path d="M203.5187,105.4776 L134.8277,105.4776 C133.7227,105.4776 132.8277,104.5816 132.8277,103.4776 L132.8277,34.7866 C132.8277,33.6816 133.7227,32.7866 134.8277,32.7866 L203.5187,32.7866 C204.6227,32.7866 205.5187,33.6816 205.5187,34.7866 L205.5187,103.4776 C205.5187,104.5816 204.6227,105.4776 203.5187,105.4776 Z" id="Stroke-53" stroke="#5E63B6" stroke-width="2"></path>
            <path d="M131.2765,105.4776 L62.5855,105.4776 C61.4805,105.4776 60.5855,104.5816 60.5855,103.4776 L60.5855,34.7866 C60.5855,33.6816 61.4805,32.7866 62.5855,32.7866 L131.2765,32.7866 C132.3815,32.7866 133.2765,33.6816 133.2765,34.7866 L133.2765,103.4776 C133.2765,104.5816 132.3815,105.4776 131.2765,105.4776" id="Fill-55" fill="#FFFFFF"></path>
            <path d="M131.2765,105.4776 L62.5855,105.4776 C61.4805,105.4776 60.5855,104.5816 60.5855,103.4776 L60.5855,34.7866 C60.5855,33.6816 61.4805,32.7866 62.5855,32.7866 L131.2765,32.7866 C132.3815,32.7866 133.2765,33.6816 133.2765,34.7866 L133.2765,103.4776 C133.2765,104.5816 132.3815,105.4776 131.2765,105.4776 Z" id="Stroke-57" stroke="#5E63B6" stroke-width="2"></path>
            <path d="M78.5812,197.7755 L83.5602,197.7135 C85.2712,197.6915 86.8112,196.6255 87.4122,195.0205 C89.1222,190.4485 88.6292,186.2735 88.7952,182.6945 C89.1022,176.0655 88.0252,172.6835 86.9692,167.1565 L79.4972,167.4225 C79.4972,167.4225 80.1672,170.1685 80.6942,178.4205 C80.8572,180.9735 76.7642,191.2895 77.0252,196.3215 C77.0682,197.1465 77.7552,197.7865 78.5812,197.7755" id="Fill-59" fill="#9452BA"></path>
            <path d="M78.5812,197.7755 L83.5602,197.7135 C85.2712,197.6915 86.8112,196.6255 87.4122,195.0205 C89.1222,190.4485 88.6292,186.2735 88.7952,182.6945 C89.1022,176.0655 88.0252,172.6835 86.9692,167.1565 L79.4972,167.4225 C79.4972,167.4225 80.1672,170.1685 80.6942,178.4205 C80.8572,180.9735 76.7642,191.2895 77.0252,196.3215 C77.0682,197.1465 77.7552,197.7865 78.5812,197.7755 Z" id="Stroke-61" stroke="#52267D" stroke-width="2"></path>
            <path d="M63.7902,174.2901 L57.6932,167.5491 L53.9832,167.7431 C53.9832,167.7431 53.5342,173.4211 53.3512,175.7981 C53.0272,179.9881 51.3952,188.2111 50.3752,191.8231 C50.0432,192.9991 49.8552,194.0961 49.8122,195.0881 C49.7392,196.7591 51.1482,198.1201 52.8212,198.0991 L57.2312,198.0441 C59.8012,198.0121 62.0622,196.2691 62.6632,193.7701 C64.5312,185.9921 63.7902,174.2901 63.7902,174.2901" id="Fill-63" fill="#9452BA"></path>
            <path d="M63.7902,174.2901 L57.6932,167.5491 L53.9832,167.7431 C53.9832,167.7431 53.5342,173.4211 53.3512,175.7981 C53.0272,179.9881 51.3952,188.2111 50.3752,191.8231 C50.0432,192.9991 49.8552,194.0961 49.8122,195.0881 C49.7392,196.7591 51.1482,198.1201 52.8212,198.0991 L57.2312,198.0441 C59.8012,198.0121 62.0622,196.2691 62.6632,193.7701 C64.5312,185.9921 63.7902,174.2901 63.7902,174.2901 Z" id="Stroke-65" stroke="#52267D" stroke-width="2"></path>
            <polyline id="Stroke-67" stroke="#52267D" stroke-width="0.5" points="55.3966 179.0968 54.4166 179.9798 55.3756 180.8238 56.9136 180.2098 56.5946 179.5358 55.3166 179.8568 55.3306 180.0858 55.6636 180.0658"></polyline>
            <path d="M55.0538,149.0118 C59.4328,148.8668 63.4978,145.7998 72.4288,145.2758 C72.5508,144.6908 72.7008,144.1598 72.8958,143.7258 C74.4688,140.2028 76.6238,130.0838 75.0748,123.4748 L73.8498,118.2438 C73.4478,116.5278 73.2338,114.7728 73.2108,113.0108 C73.2018,112.2768 73.2678,111.5588 73.4008,110.8648 C73.4338,110.6908 73.4708,110.5188 73.5128,110.3488 C73.6378,109.8368 73.7988,109.3398 73.9948,108.8608 C74.0608,108.6998 74.1288,108.5418 74.2018,108.3858 C74.3478,108.0738 74.5078,107.7708 74.6818,107.4758 C74.8558,107.1818 75.0428,106.8958 75.2438,106.6198 C75.8468,105.7938 76.5658,105.0568 77.3758,104.4338 C77.6468,104.2268 77.9278,104.0318 78.2178,103.8498 C79.8138,102.8528 81.6948,102.2668 83.7128,102.2408 L85.4568,102.2188 C88.3948,102.1828 91.0688,103.3388 93.0168,105.2408 C93.2608,105.4778 93.4928,105.7268 93.7128,105.9868 C94.1138,106.4588 94.4698,106.9688 94.7838,107.5058 C94.9018,107.7078 95.0158,107.9128 95.1198,108.1228 C95.1968,108.2778 95.2698,108.4338 95.3388,108.5918 C95.5468,109.0668 95.7208,109.5598 95.8588,110.0678 C95.9958,110.5748 96.0968,111.0988 96.1578,111.6348 C96.1998,111.9908 96.2218,112.3548 96.2268,112.7218 C96.2368,113.4528 95.9478,114.1198 95.4738,114.6058 C94.9998,115.0918 94.3408,115.3968 93.6088,115.4068 L82.7198,115.5428 L84.4868,124.9738 C86.5428,134.6578 86.0428,141.1588 84.5988,145.5058 C84.2768,146.4758 82.4178,149.9188 82.4178,149.9188 C87.9708,158.4428 96.3678,162.0938 105.3098,163.0718 C112.9118,163.9028 129.2108,156.7758 120.6618,148.8738 C112.1138,140.9728 122.3848,145.8238 123.9008,146.8188 C125.4158,147.8128 134.1998,155.2118 124.9078,166.3458 C120.9788,171.0538 116.5148,175.3458 105.6868,178.7288 C103.9498,179.2708 94.4478,180.0818 89.3458,181.6168 C74.1568,186.1838 61.7028,181.5808 54.6318,171.6058 C47.5898,161.6698 53.3248,149.0688 55.0538,149.0118" id="Fill-69" fill="#9452BA"></path>
            <path d="M55.0538,149.0118 C59.4328,148.8668 63.4978,145.7998 72.4288,145.2758 C72.5508,144.6908 72.7008,144.1598 72.8958,143.7258 C74.4688,140.2028 76.6238,130.0838 75.0748,123.4748 L73.8498,118.2438 C73.4478,116.5278 73.2338,114.7728 73.2108,113.0108 C73.2018,112.2768 73.2678,111.5588 73.4008,110.8648 C73.4338,110.6908 73.4708,110.5188 73.5128,110.3488 C73.6378,109.8368 73.7988,109.3398 73.9948,108.8608 C74.0608,108.6998 74.1288,108.5418 74.2018,108.3858 C74.3478,108.0738 74.5078,107.7708 74.6818,107.4758 C74.8558,107.1818 75.0428,106.8958 75.2438,106.6198 C75.8468,105.7938 76.5658,105.0568 77.3758,104.4338 C77.6468,104.2268 77.9278,104.0318 78.2178,103.8498 C79.8138,102.8528 81.6948,102.2668 83.7128,102.2408 L85.4568,102.2188 C88.3948,102.1828 91.0688,103.3388 93.0168,105.2408 C93.2608,105.4778 93.4928,105.7268 93.7128,105.9868 C94.1138,106.4588 94.4698,106.9688 94.7838,107.5058 C94.9018,107.7078 95.0158,107.9128 95.1198,108.1228 C95.1968,108.2778 95.2698,108.4338 95.3388,108.5918 C95.5468,109.0668 95.7208,109.5598 95.8588,110.0678 C95.9958,110.5748 96.0968,111.0988 96.1578,111.6348 C96.1998,111.9908 96.2218,112.3548 96.2268,112.7218 C96.2368,113.4528 95.9478,114.1198 95.4738,114.6058 C94.9998,115.0918 94.3408,115.3968 93.6088,115.4068 L82.7198,115.5428 L84.4868,124.9738 C86.5428,134.6578 86.0428,141.1588 84.5988,145.5058 C84.2768,146.4758 82.4178,149.9188 82.4178,149.9188 C87.9708,158.4428 96.3678,162.0938 105.3098,163.0718 C112.9118,163.9028 129.2108,156.7758 120.6618,148.8738 C112.1138,140.9728 122.3848,145.8238 123.9008,146.8188 C125.4158,147.8128 134.1998,155.2118 124.9078,166.3458 C120.9788,171.0538 116.5148,175.3458 105.6868,178.7288 C103.9498,179.2708 94.4478,180.0818 89.3458,181.6168 C74.1568,186.1838 61.7028,181.5808 54.6318,171.6058 C47.5898,161.6698 53.3248,149.0688 55.0538,149.0118 Z" id="Stroke-71" stroke="#52267D" stroke-width="2"></path>
            <path d="M64.3312,134.4239 C64.5392,123.1599 55.4922,114.4239 45.3122,112.6819 C43.1992,112.3199 42.5052,111.6669 40.1982,111.6949 L38.4322,111.7179 C32.4802,111.7929 27.7172,116.6779 27.7922,122.6289 C27.8102,124.1119 29.0282,125.2999 30.5122,125.2809 C30.5122,125.2809 48.6302,125.0479 48.7152,125.0389 C48.7162,125.0399 50.1902,125.0219 50.1912,125.0229 C50.1892,125.0249 48.7132,125.0439 48.7112,125.0459 C52.7392,126.6959 55.2972,131.7849 55.7702,134.5309 C56.4462,138.4419 56.0282,141.6789 54.7252,144.3099 C53.8552,146.0619 53.7812,148.1609 53.9392,149.8579 C53.9392,149.8579 53.9822,149.8719 54.0442,149.8919 C54.1182,150.7989 54.2782,151.8299 54.5632,153.0049 C56.2542,151.7949 58.8862,149.9729 59.3672,149.7109 C60.4062,149.1459 62.7542,147.8579 63.8042,147.2379 C70.5142,143.2779 64.2132,140.8299 64.3312,134.4239" id="Fill-73" fill="#9452BA"></path>
            <path d="M64.3312,134.4239 C64.5392,123.1599 55.4922,114.4239 45.3122,112.6819 C43.1992,112.3199 42.5052,111.6669 40.1982,111.6949 L38.4322,111.7179 C32.4802,111.7929 27.7172,116.6779 27.7922,122.6289 C27.8102,124.1119 29.0282,125.2999 30.5122,125.2809 C30.5122,125.2809 48.6302,125.0479 48.7152,125.0389 C48.7162,125.0399 50.1902,125.0219 50.1912,125.0229 C50.1892,125.0249 48.7132,125.0439 48.7112,125.0459 C52.7392,126.6959 55.2972,131.7849 55.7702,134.5309 C56.4462,138.4419 56.0282,141.6789 54.7252,144.3099 C53.8552,146.0619 53.7812,148.1609 53.9392,149.8579 C53.9392,149.8579 53.9822,149.8719 54.0442,149.8919 C54.1182,150.7989 54.2782,151.8299 54.5632,153.0049 C56.2542,151.7949 58.8862,149.9729 59.3672,149.7109 C60.4062,149.1459 62.7542,147.8579 63.8042,147.2379 C70.5142,143.2779 64.2132,140.8299 64.3312,134.4239 Z" id="Stroke-75" stroke="#52267D" stroke-width="2"></path>
            <g id="Group-80" transform="translate(48.000000, 122.719000)">
                <path d="M10.7247,24.7859 C10.6147,23.0489 10.3367,22.1589 10.5227,21.4489 C11.5937,17.3619 11.9437,16.0719 11.8887,11.7609 C11.8347,7.4749 9.2997,3.2709 5.6067,1.0649 C5.4037,0.9439 2.7627,0.7909 0.7107,2.3269 C4.7397,3.9769 7.2967,9.0659 7.7707,11.8119 C8.4467,15.7229 8.0287,18.9599 6.7247,21.5909 C5.8557,23.3429 5.7817,25.4419 5.9397,27.1389 C5.9397,27.1389 10.8787,28.9229 10.7247,24.7859" id="Fill-77" fill="#F3E3FF"></path>
                <path d="M10.7247,24.7859 C10.6147,23.0489 10.3367,22.1589 10.5227,21.4489 C11.5937,17.3619 11.9437,16.0719 11.8887,11.7609 C11.8347,7.4749 9.2997,3.2709 5.6067,1.0649 C5.4037,0.9439 2.7627,0.7909 0.7107,2.3269 C4.7397,3.9769 7.2967,9.0659 7.7707,11.8119 C8.4467,15.7229 8.0287,18.9599 6.7247,21.5909 C5.8557,23.3429 5.7817,25.4419 5.9397,27.1389 C5.9397,27.1389 10.8787,28.9229 10.7247,24.7859" id="Stroke-79" stroke="#52267D"></path>
            </g>
            <path d="M32.8009,113.6202 C32.8009,113.6202 32.7739,111.7382 34.6339,110.9672 C35.2009,110.7312 36.2379,110.2942 36.2379,110.2942 C36.2379,110.2942 37.3809,112.6362 36.1269,113.2452 C34.3219,114.1232 32.8009,113.6202 32.8009,113.6202" id="Fill-81" fill="#FFFFFF"></path>
            <path d="M32.8009,113.6202 C32.8009,113.6202 32.7739,111.7382 34.6339,110.9672 C35.2009,110.7312 36.2379,110.2942 36.2379,110.2942 C36.2379,110.2942 37.3809,112.6362 36.1269,113.2452 C34.3219,114.1232 32.8009,113.6202 32.8009,113.6202 Z" id="Stroke-83" stroke="#52267D"></path>
            <path d="M37.465,112.2374 C37.465,112.2374 37.486,109.6734 40.366,109.2624 C40.903,109.1864 42.308,109.2024 42.308,109.2024 C42.308,109.2024 42.989,111.9074 41.472,112.1874 C39.606,112.5314 37.465,112.2374 37.465,112.2374" id="Fill-85" fill="#FFFFFF"></path>
            <path d="M37.465,112.2374 C37.465,112.2374 37.486,109.6734 40.366,109.2624 C40.903,109.1864 42.308,109.2024 42.308,109.2024 C42.308,109.2024 42.989,111.9074 41.472,112.1874 C39.606,112.5314 37.465,112.2374 37.465,112.2374 Z" id="Stroke-87" stroke="#52267D"></path>
            <path d="M43.2042,112.4112 C43.2042,112.4112 43.5482,109.5622 46.1122,110.3122 C47.2082,110.6322 47.8242,111.4542 47.8242,111.4542 C47.8242,111.4542 47.3432,113.6262 46.3242,113.3952 C44.5442,112.9922 43.2042,112.4112 43.2042,112.4112" id="Fill-89" fill="#FFFFFF"></path>
            <path d="M43.2042,112.4112 C43.2042,112.4112 43.5482,109.5622 46.1122,110.3122 C47.2082,110.6322 47.8242,111.4542 47.8242,111.4542 C47.8242,111.4542 47.3432,113.6262 46.3242,113.3952 C44.5442,112.9922 43.2042,112.4112 43.2042,112.4112 Z" id="Stroke-91" stroke="#52267D"></path>
            <path d="M50.796,126.1221 C50.796,126.1221 56.71,122.8091 55.509,117.3761 C56.308,118.0181 58.446,119.9771 59.226,120.9841 C59.239,122.0511 59.488,126.2841 53.676,129.1931 C52.634,128.1401 51.751,126.8201 50.796,126.1221" id="Fill-93" fill="#FFFFFF"></path>
            <path d="M50.796,126.1221 C50.796,126.1221 56.71,122.8091 55.509,117.3761 C56.308,118.0181 58.446,119.9771 59.226,120.9841 C59.239,122.0511 59.488,126.2841 53.676,129.1931 C52.634,128.1401 51.751,126.8201 50.796,126.1221 Z" id="Stroke-95" stroke="#52267D"></path>
            <path d="M33.6046,113.0919 C33.6046,113.0919 33.5906,112.1179 34.5536,111.7189 C34.8476,111.5969 35.3836,111.3699 35.3836,111.3699 C35.3836,111.3699 35.9756,112.5819 35.3266,112.8979 C34.3916,113.3529 33.6046,113.0919 33.6046,113.0919" id="Fill-97" fill="#F3E3FF"></path>
            <path d="M38.6896,111.6426 C38.6896,111.6426 38.7006,110.3336 40.1686,110.1246 C40.4426,110.0856 41.1586,110.0946 41.1586,110.0946 C41.1586,110.0946 41.5056,111.4736 40.7316,111.6166 C39.7806,111.7916 38.6896,111.6426 38.6896,111.6426" id="Fill-99" fill="#F3E3FF"></path>
            <path d="M44.1203,112.1944 C44.1203,112.1944 44.3033,110.6834 45.6633,111.0814 C46.2453,111.2514 46.5713,111.6864 46.5713,111.6864 C46.5713,111.6864 46.3163,112.8394 45.7753,112.7164 C44.8313,112.5034 44.1203,112.1944 44.1203,112.1944" id="Fill-101" fill="#F3E3FF"></path>
            <path d="M42.7287,123.3233 L37.2837,123.3913 C37.2497,120.6493 39.4447,118.3983 42.1867,118.3633 L42.6667,118.3573 C44.0377,118.3413 45.1637,119.4383 45.1797,120.8093 C45.1977,122.1803 44.0997,123.3053 42.7287,123.3233" id="Fill-103" fill="#F3E3FF"></path>
            <path d="M42.2687,123.2364 L37.3757,123.2974 C37.3487,121.1424 39.0737,119.3744 41.2287,119.3464 L42.2197,119.3354 C43.2967,119.3214 44.1807,120.1834 44.1947,121.2604 C44.2077,122.3384 43.3457,123.2224 42.2687,123.2364" id="Fill-105" fill="#FFFFFF"></path>
            <path d="M42.2687,123.2364 L37.3757,123.2974 C37.3487,121.1424 39.0737,119.3744 41.2287,119.3464 L42.2197,119.3354 C43.2967,119.3214 44.1807,120.1834 44.1947,121.2604 C44.2077,122.3384 43.3457,123.2224 42.2687,123.2364 Z" id="Stroke-107" stroke="#52267D"></path>
            <path d="M38.2365,121.2208 C38.2435,121.8228 38.7375,122.3038 39.3395,122.2968 C39.9415,122.2888 40.4235,121.7948 40.4155,121.1938 C40.4075,120.5918 39.9145,120.1108 39.3115,120.1168 C38.7105,120.1248 38.2285,120.6188 38.2365,121.2208" id="Fill-109" fill="#52267D"></path>
            <path d="M30.2531,124.4659 C30.5621,124.3959 30.8361,124.2199 31.0301,123.9699 L31.3901,123.5059 L30.5781,123.6909 L30.1011,123.7989 C29.9171,123.8409 29.8021,124.0249 29.8441,124.2079 C29.8861,124.3929 30.0681,124.5079 30.2531,124.4659" id="Fill-111" fill="#52267D"></path>
            <path d="M51.8029,126.2169 C51.8029,126.2169 56.3599,123.6899 56.2269,118.7149 C58.2159,120.1259 58.7619,121.0479 58.7619,121.0479 C58.7619,121.0479 58.4489,123.4209 57.3599,124.6299 C55.6889,126.4869 53.9319,127.0729 51.8029,126.2169" id="Fill-113" fill="#E1F2FF"></path>
            <g id="Group-118" transform="translate(52.000000, 124.719000)">
                <path d="M4.1349,0.5701 C4.1349,0.5701 2.3499,2.4321 0.5959,3.3381" id="Fill-115" fill="#FFFFFF"></path>
                <path d="M4.1349,0.5701 C4.1349,0.5701 2.3499,2.4321 0.5959,3.3381" id="Stroke-117" stroke="#52267D"></path>
            </g>
            <g id="Group-122" transform="translate(49.000000, 96.719000)">
                <path d="M25.3683,47.6902 L24.3203,45.6862 C20.3863,36.3532 19.7273,30.8522 21.5963,21.8752 L22.6893,16.6152 C23.0483,14.8892 23.2183,13.1292 23.1953,11.3672 C23.1223,5.4932 18.3003,0.7912 12.4263,0.8652 L10.7093,0.8862 C4.9153,0.9602 0.2773,5.7142 0.3503,11.5082 L0.3543,11.8102 C0.3713,13.1882 1.5033,14.2922 2.8823,14.2742 L13.7543,14.1372 L12.2243,23.6102 C7.4973,49.0022 8.1323,59.2642 18.0353,57.0292" id="Fill-119" fill="#9452BA"></path>
                <path d="M25.3683,47.6902 L24.3203,45.6862 C20.3863,36.3532 19.7273,30.8522 21.5963,21.8752 L22.6893,16.6152 C23.0483,14.8892 23.2183,13.1292 23.1953,11.3672 C23.1223,5.4932 18.3003,0.7912 12.4263,0.8652 L10.7093,0.8862 C4.9153,0.9602 0.2773,5.7142 0.3503,11.5082 L0.3543,11.8102 C0.3713,13.1882 1.5033,14.2922 2.8823,14.2742 L13.7543,14.1372 L12.2243,23.6102 C7.4973,49.0022 8.1323,59.2642 18.0353,57.0292" id="Stroke-121" stroke="#52267D" stroke-width="2"></path>
            </g>
            <path d="M54.4767,98.9298 C54.4767,98.9298 54.6277,97.0838 56.4507,96.3288 C57.0067,96.0978 57.8847,96.3258 57.8847,96.3258 C57.8847,96.3258 58.9637,97.9658 57.7347,98.5638 C55.9657,99.4228 54.4767,98.9298 54.4767,98.9298" id="Fill-123" fill="#FFFFFF"></path>
            <path d="M54.4767,98.9298 C54.4767,98.9298 54.6277,97.0838 56.4507,96.3288 C57.0067,96.0978 57.8847,96.3258 57.8847,96.3258 C57.8847,96.3258 58.9637,97.9658 57.7347,98.5638 C55.9657,99.4228 54.4767,98.9298 54.4767,98.9298 Z" id="Stroke-125" stroke="#52267D"></path>
            <path d="M58.8302,98.2676 C58.8302,98.2676 58.8532,95.3626 62.1152,94.8986 C62.7242,94.8116 63.5072,94.8616 63.5072,94.8616 C63.5072,94.8616 65.0862,97.8936 63.3672,98.2096 C61.2552,98.5996 58.8302,98.2676 58.8302,98.2676" id="Fill-127" fill="#FFFFFF"></path>
            <path d="M58.8302,98.2676 C58.8302,98.2676 58.8532,95.3626 62.1152,94.8986 C62.7242,94.8116 63.5072,94.8616 63.5072,94.8616 C63.5072,94.8616 65.0862,97.8936 63.3672,98.2096 C61.2552,98.5996 58.8302,98.2676 58.8302,98.2676 Z" id="Stroke-129" stroke="#52267D"></path>
            <path d="M64.6828,98.8546 C64.6828,98.8546 65.0908,96.0736 67.5838,96.8716 C68.6498,97.2116 69.2328,98.0326 69.2328,98.0326 C69.2328,98.0326 68.7058,100.1476 67.7138,99.8966 C65.9818,99.4576 64.6828,98.8546 64.6828,98.8546" id="Fill-131" fill="#FFFFFF"></path>
            <path d="M64.6828,98.8546 C64.6828,98.8546 65.0908,96.0736 67.5838,96.8716 C68.6498,97.2116 69.2328,98.0326 69.2328,98.0326 C69.2328,98.0326 68.7058,100.1476 67.7138,99.8966 C65.9818,99.4576 64.6828,98.8546 64.6828,98.8546 Z" id="Stroke-133" stroke="#52267D"></path>
            <g id="Group-138" transform="translate(55.000000, 147.719000)">
                <path d="M0.2785,0.9539 C0.8925,0.4819 1.5165,0.2059 2.0545,0.0699" id="Fill-135" fill="#F3E3FF"></path>
                <path d="M0.2785,0.9539 C0.8925,0.4819 1.5165,0.2059 2.0545,0.0699" id="Stroke-137" stroke="#52267D"></path>
            </g>
            <g id="Group-142" transform="translate(52.000000, 109.719000)">
                <path d="M6.8781,38.8514 C5.0111,31.6534 8.0431,17.8054 8.5891,14.4004 L10.7521,0.7564 L11.7751,0.7444 C13.0721,0.7274 14.0711,2.1234 13.9031,3.4124 L12.3591,15.2414 C11.8381,19.2474 11.4751,37.7684 18.4721,41.6584 C19.9651,42.4884 22.3671,41.9014 23.2701,41.4564 C26.5521,39.8374 27.4501,35.7074 28.1321,32.3794 C29.5431,25.4924 28.3091,20.1144 27.9091,14.7344 L27.4771,8.0014 C27.3991,6.7854 28.3511,5.4804 29.5681,5.4654 L30.8101,5.4504 L33.2171,19.0364 C33.9381,22.9054 35.8371,36.3274 27.9941,42.7294 C27.8531,42.8454 29.9281,43.2824 29.3411,44.3494 C27.0121,48.5914 20.1161,49.3444 18.8391,51.1644 C13.9191,58.1704 18.7941,72.9074 18.7941,72.9074 C18.7941,72.9074 13.2091,70.7584 9.7291,67.7174 C1.5931,60.6074 0.4401,50.1744 0.3641,47.1004 C0.2741,43.4224 1.2111,41.1284 2.3841,39.7514" id="Fill-139" fill="#F3E3FF"></path>
                <path d="M6.8781,38.8514 C5.0111,31.6534 8.0431,17.8054 8.5891,14.4004 L10.7521,0.7564 L11.7751,0.7444 C13.0721,0.7274 14.0711,2.1234 13.9031,3.4124 L12.3591,15.2414 C11.8381,19.2474 11.4751,37.7684 18.4721,41.6584 C19.9651,42.4884 22.3671,41.9014 23.2701,41.4564 C26.5521,39.8374 27.4501,35.7074 28.1321,32.3794 C29.5431,25.4924 28.3091,20.1144 27.9091,14.7344 L27.4771,8.0014 C27.3991,6.7854 28.3511,5.4804 29.5681,5.4654 L30.8101,5.4504 L33.2171,19.0364 C33.9381,22.9054 35.8371,36.3274 27.9941,42.7294 C27.8531,42.8454 29.9281,43.2824 29.3411,44.3494 C27.0121,48.5914 20.1161,49.3444 18.8391,51.1644 C13.9191,58.1704 18.7941,72.9074 18.7941,72.9074 C18.7941,72.9074 13.2091,70.7584 9.7291,67.7174 C1.5931,60.6074 0.4401,50.1744 0.3641,47.1004 C0.2741,43.4224 1.2111,41.1284 2.3841,39.7514" id="Stroke-141" stroke="#52267D"></path>
            </g>
            <path d="M124.2628,153.7735 C124.2628,153.7735 125.3898,152.4935 124.7268,150.8015 C124.5238,150.2855 123.8118,149.8475 123.8118,149.8475 C123.8118,149.8475 122.0338,150.1815 122.4228,151.3775 C122.9838,153.1005 124.2628,153.7735 124.2628,153.7735" id="Fill-143" fill="#FFFFFF"></path>
            <path d="M124.2628,153.7735 C124.2628,153.7735 125.3898,152.4935 124.7268,150.8015 C124.5238,150.2855 123.8118,149.8475 123.8118,149.8475 C123.8118,149.8475 122.0338,150.1815 122.4228,151.3775 C122.9838,153.1005 124.2628,153.7735 124.2628,153.7735 Z" id="Stroke-145" stroke="#52267D"></path>
            <path d="M123.8624,152.0196 C123.8624,152.0196 124.2584,151.5706 124.0254,150.9766 C123.9544,150.7956 123.7044,150.6426 123.7044,150.6426 C123.7044,150.6426 123.0814,150.7596 123.2174,151.1786 C123.4144,151.7836 123.8624,152.0196 123.8624,152.0196" id="Fill-147" fill="#F3E3FF"></path>
            <path d="M115.0177,162.9591 C115.0177,162.9591 113.9007,160.4961 116.4737,158.8271 C116.9537,158.5161 117.6347,158.2511 117.6347,158.2511 C117.6347,158.2511 120.1557,160.1941 118.8277,161.1351 C117.1957,162.2901 115.0177,162.9591 115.0177,162.9591" id="Fill-149" fill="#FFFFFF"></path>
            <path d="M115.0177,162.9591 C115.0177,162.9591 113.9007,160.4961 116.4737,158.8271 C116.9537,158.5161 117.6347,158.2511 117.6347,158.2511 C117.6347,158.2511 120.1557,160.1941 118.8277,161.1351 C117.1957,162.2901 115.0177,162.9591 115.0177,162.9591 Z" id="Stroke-151" stroke="#52267D"></path>
            <path d="M115.9093,162.0157 C115.9093,162.0157 115.2903,160.6497 116.7173,159.7247 C116.9833,159.5517 117.3603,159.4057 117.3603,159.4057 C117.3603,159.4057 118.7593,160.4827 118.0223,161.0037 C117.1173,161.6447 115.9093,162.0157 115.9093,162.0157" id="Fill-153" fill="#F3E3FF"></path>
            <path d="M122.8331,154.7481 C122.8331,154.7481 124.7331,156.3761 122.9491,157.8741 C122.1871,158.5151 121.2921,158.5641 121.2921,158.5641 C121.2921,158.5641 119.9481,157.1641 120.6091,156.5361 C121.7631,155.4391 122.8331,154.7481 122.8331,154.7481" id="Fill-155" fill="#FFFFFF"></path>
            <path d="M122.8331,154.7481 C122.8331,154.7481 124.7331,156.3761 122.9491,157.8741 C122.1871,158.5151 121.2921,158.5641 121.2921,158.5641 C121.2921,158.5641 119.9481,157.1641 120.6091,156.5361 C121.7631,155.4391 122.8331,154.7481 122.8331,154.7481 Z" id="Stroke-157" stroke="#52267D"></path>
            <path d="M122.5744,155.9219 C122.5744,155.9219 123.4164,156.6429 122.6254,157.3069 C122.2874,157.5899 121.8914,157.6119 121.8914,157.6119 C121.8914,157.6119 121.2964,156.9919 121.5894,156.7139 C122.0994,156.2279 122.5744,155.9219 122.5744,155.9219" id="Fill-159" fill="#F3E3FF"></path>
            <path d="M106.0128,164.3741 C106.0128,164.3741 105.3658,162.1781 107.7808,161.2721 C110.1958,160.3661 110.8568,161.0861 110.8568,161.0861 C110.8568,161.0861 112.2268,163.3281 111.0368,164.0701 C109.8468,164.8121 106.0128,164.3741 106.0128,164.3741" id="Fill-161" fill="#FFFFFF"></path>
            <path d="M106.0128,164.3741 C106.0128,164.3741 105.3658,162.1781 107.7808,161.2721 C110.1958,160.3661 110.8568,161.0861 110.8568,161.0861 C110.8568,161.0861 112.2268,163.3281 111.0368,164.0701 C109.8468,164.8121 106.0128,164.3741 106.0128,164.3741 Z" id="Stroke-163" stroke="#52267D"></path>
            <path d="M107.1447,163.8594 C107.1447,163.8594 106.8087,162.7164 108.0647,162.2464 C109.3207,161.7754 109.6647,162.1494 109.6647,162.1494 C109.6647,162.1494 110.3767,163.3154 109.7577,163.7014 C109.1387,164.0874 107.1447,163.8594 107.1447,163.8594" id="Fill-165" fill="#F3E3FF"></path>
            <path d="M62.2648,113.8018 C62.2648,113.8018 66.1648,115.9438 71.5848,113.8988 C71.2328,115.5918 70.5138,118.9958 70.5138,118.9958 C70.5138,118.9958 65.4898,120.6058 61.5678,118.2068 C61.9388,115.9608 62.2648,113.8018 62.2648,113.8018" id="Fill-167" fill="#FFFFFF"></path>
            <path d="M62.2648,113.8018 C62.2648,113.8018 66.1648,115.9438 71.5848,113.8988 C71.2328,115.5918 70.5138,118.9958 70.5138,118.9958 C70.5138,118.9958 65.4898,120.6058 61.5678,118.2068 C61.9388,115.9608 62.2648,113.8018 62.2648,113.8018 Z" id="Stroke-169" stroke="#52267D"></path>
            <path d="M91.1183,103.5977 C91.1183,103.5977 90.9193,101.7427 89.0643,101.0277 C88.4983,100.8097 86.9763,100.7677 86.9763,100.7677 C86.9763,100.7677 86.5743,102.7407 87.8273,103.3107 C89.6303,104.1317 91.1183,103.5977 91.1183,103.5977" id="Fill-171" fill="#FFFFFF"></path>
            <path d="M91.1183,103.5977 C91.1183,103.5977 90.9193,101.7427 89.0643,101.0277 C88.4983,100.8097 86.9763,100.7677 86.9763,100.7677 C86.9763,100.7677 86.5743,102.7407 87.8273,103.3107 C89.6303,104.1317 91.1183,103.5977 91.1183,103.5977 Z" id="Stroke-173" stroke="#52267D"></path>
            <path d="M86.424,102.7081 C86.424,102.7081 86.339,100.1781 83.487,99.8451 C82.955,99.7821 82.275,99.8431 82.275,99.8431 C82.275,99.8431 80.965,102.5201 82.47,102.7581 C84.319,103.0511 86.424,102.7081 86.424,102.7081" id="Fill-175" fill="#FFFFFF"></path>
            <path d="M86.424,102.7081 C86.424,102.7081 86.339,100.1781 83.487,99.8451 C82.955,99.7821 82.275,99.8431 82.275,99.8431 C82.275,99.8431 80.965,102.5201 82.47,102.7581 C84.319,103.0511 86.424,102.7081 86.424,102.7081 Z" id="Stroke-177" stroke="#52267D"></path>
            <path d="M81.0333,102.9591 C81.0333,102.9591 80.5523,100.1681 78.0603,101.0351 C76.9973,101.4051 76.4293,102.2461 76.4293,102.2461 C76.4293,102.2461 77.0123,104.3631 78.0063,104.0851 C79.7403,103.6001 81.0333,102.9591 81.0333,102.9591" id="Fill-179" fill="#FFFFFF"></path>
            <path d="M81.0333,102.9591 C81.0333,102.9591 80.5523,100.1681 78.0603,101.0351 C76.9973,101.4051 76.4293,102.2461 76.4293,102.2461 C76.4293,102.2461 77.0123,104.3631 78.0063,104.0851 C79.7403,103.6001 81.0333,102.9591 81.0333,102.9591 Z" id="Stroke-181" stroke="#52267D"></path>
            <path d="M55.4298,98.4522 C55.4298,98.4522 55.5108,97.4662 56.4848,97.0622 C56.7818,96.9392 57.2508,97.0602 57.2508,97.0602 C57.2508,97.0602 57.8268,97.9362 57.1698,98.2562 C56.2258,98.7152 55.4298,98.4522 55.4298,98.4522" id="Fill-183" fill="#F3E3FF"></path>
            <path d="M59.8996,97.7657 C59.8996,97.7657 59.9146,95.9447 61.9596,95.6537 C62.3396,95.5987 62.8316,95.6307 62.8316,95.6307 C62.8316,95.6307 63.8216,97.5317 62.7436,97.7297 C61.4196,97.9737 59.8996,97.7657 59.8996,97.7657" id="Fill-185" fill="#F3E3FF"></path>
            <path d="M65.7579,98.5616 C65.7579,98.5616 65.9929,96.9576 67.4319,97.4166 C68.0469,97.6146 68.3829,98.0866 68.3829,98.0866 C68.3829,98.0866 68.0799,99.3076 67.5069,99.1636 C66.5069,98.9096 65.7579,98.5616 65.7579,98.5616" id="Fill-187" fill="#F3E3FF"></path>
            <path d="M90.1954,103.1348 C90.1954,103.1348 90.0904,102.1548 89.1094,101.7758 C88.8104,101.6598 88.0064,101.6388 88.0064,101.6388 C88.0064,101.6388 87.7934,102.6818 88.4564,102.9828 C89.4094,103.4168 90.1954,103.1348 90.1954,103.1348" id="Fill-189" fill="#F3E3FF"></path>
            <path d="M85.3136,102.2755 C85.3136,102.2755 85.2666,100.8775 83.6906,100.6925 C83.3956,100.6585 83.0196,100.6915 83.0196,100.6915 C83.0196,100.6915 82.2946,102.1715 83.1266,102.3025 C84.1496,102.4645 85.3136,102.2755 85.3136,102.2755" id="Fill-191" fill="#F3E3FF"></path>
            <path d="M80.0353,102.7813 C80.0353,102.7813 79.7713,101.2553 78.4093,101.7293 C77.8273,101.9313 77.5163,102.3913 77.5163,102.3913 C77.5163,102.3913 77.8363,103.5503 78.3793,103.3973 C79.3283,103.1323 80.0353,102.7813 80.0353,102.7813" id="Fill-193" fill="#F3E3FF"></path>
            <path d="M73.8986,118.4522 C73.8986,118.4522 78.7046,119.1392 83.2516,117.9632 C83.7266,120.4362 84.0356,122.3042 84.0356,122.3042 C84.0356,122.3042 80.8986,124.4922 75.0396,123.3192 C74.3096,120.1442 73.8986,118.4522 73.8986,118.4522" id="Fill-195" fill="#FFFFFF"></path>
            <path d="M73.8986,118.4522 C73.8986,118.4522 78.7046,119.1392 83.2516,117.9632 C83.7266,120.4362 84.0356,122.3042 84.0356,122.3042 C84.0356,122.3042 80.8986,124.4922 75.0396,123.3192 C74.3096,120.1442 73.8986,118.4522 73.8986,118.4522 Z" id="Stroke-197" stroke="#52267D"></path>
            <path d="M81.7706,113.5362 L87.2146,113.4672 C87.1806,110.7242 84.9296,108.5292 82.1866,108.5632 L81.7086,108.5702 C80.3366,108.5872 79.2396,109.7132 79.2556,111.0842 C79.2736,112.4552 80.3986,113.5532 81.7706,113.5362" id="Fill-199" fill="#F3E3FF"></path>
            <path d="M82.3654,113.4346 L87.1204,113.3746 C87.0934,111.2206 85.3244,109.4966 83.1704,109.5226 L82.0414,109.5376 C81.0394,109.5496 80.2384,110.3716 80.2514,111.3726 C80.2644,112.5266 81.2124,113.4496 82.3654,113.4346" id="Fill-201" fill="#FFFFFF"></path>
            <path d="M82.3654,113.4346 L87.1204,113.3746 C87.0934,111.2206 85.3244,109.4966 83.1704,109.5226 L82.0414,109.5376 C81.0394,109.5496 80.2384,110.3716 80.2514,111.3726 C80.2644,112.5266 81.2124,113.4496 82.3654,113.4346 Z" id="Stroke-203" stroke="#52267D"></path>
            <path d="M84.3566,112.4962 C84.0856,111.9592 84.3036,111.3042 84.8406,111.0342 C85.3786,110.7642 86.0346,110.9812 86.3036,111.5182 C86.5746,112.0572 86.3566,112.7122 85.8186,112.9812 C85.2806,113.2522 84.6266,113.0342 84.3566,112.4962" id="Fill-205" fill="#52267D"></path>
            <path d="M62.8693,109.0645 L57.4253,109.1325 C57.3903,106.3905 59.5863,104.1385 62.3283,104.1045 L62.8073,104.0985 C64.1793,104.0815 65.3043,105.1785 65.3213,106.5505 C65.3393,107.9215 64.2413,109.0465 62.8693,109.0645" id="Fill-207" fill="#F3E3FF"></path>
            <path d="M62.4103,108.9766 L57.5163,109.0386 C57.4903,106.8836 59.2153,105.1156 61.3693,105.0876 L62.3613,105.0756 C63.4383,105.0626 64.3223,105.9246 64.3363,107.0016 C64.3493,108.0796 63.4873,108.9636 62.4103,108.9766" id="Fill-209" fill="#FFFFFF"></path>
            <path d="M62.4103,108.9766 L57.5163,109.0386 C57.4903,106.8836 59.2153,105.1156 61.3693,105.0876 L62.3613,105.0756 C63.4383,105.0626 64.3223,105.9246 64.3363,107.0016 C64.3493,108.0796 63.4873,108.9636 62.4103,108.9766 Z" id="Stroke-211" stroke="#52267D"></path>
            <path d="M58.881,107.9073 C59.349,108.2873 60.034,108.2163 60.414,107.7483 C60.793,107.2813 60.722,106.5953 60.255,106.2163 C59.787,105.8363 59.102,105.9073 58.722,106.3753 C58.343,106.8423 58.414,107.5283 58.881,107.9073" id="Fill-213" fill="#52267D"></path>
            <path d="M93.7892,114.5176 C93.4782,114.4556 93.1992,114.2876 92.9992,114.0406 L92.6292,113.5866 L93.4442,113.7506 L93.9242,113.8476 C94.1092,113.8846 94.2292,114.0656 94.1912,114.2496 C94.1542,114.4356 93.9752,114.5546 93.7892,114.5176" id="Fill-215" fill="#52267D"></path>
            <path d="M51.7228,109.9503 C52.0318,109.8803 52.3068,109.7043 52.4998,109.4543 L52.8598,108.9903 L52.0488,109.1753 L51.5718,109.2833 C51.3868,109.3253 51.2718,109.5093 51.3138,109.6923 C51.3558,109.8773 51.5388,109.9923 51.7228,109.9503" id="Fill-217" fill="#52267D"></path>
            <path d="M62.7384,114.503 C62.7384,114.503 66.8184,116.182 70.8914,114.55 C70.4934,116.956 70.1264,118.187 70.1264,118.187 C70.1264,118.187 67.6644,118.362 66.0304,118.062 C63.6954,117.633 62.7644,116.585 62.7384,114.503" id="Fill-219" fill="#E1F2FF"></path>
            <g id="Group-224" transform="translate(61.000000, 115.719000)">
                <path d="M7.423,1.7918 C7.423,1.7918 3.735,2.1458 0.858,0.6998" id="Fill-221" fill="#FFFFFF"></path>
                <path d="M7.423,1.7918 C7.423,1.7918 3.735,2.1458 0.858,0.6998" id="Stroke-223" stroke="#52267D"></path>
            </g>
            <path d="M81.505,118.8985 C81.505,118.8985 77.918,119.9665 74.734,119.3715 C75.364,121.7285 75.692,122.4645 75.692,122.4645 C75.692,122.4645 80.447,121.7705 81.505,118.8985" id="Fill-225" fill="#E1F2FF"></path>
            <g id="Group-230" transform="translate(79.000000, 151.719000)">
                <path d="M0.9953,0.7801 C0.9953,0.7801 0.7793,0.9391 0.4733,1.1301" id="Fill-227" fill="#F3E3FF"></path>
                <path d="M0.9953,0.7801 C0.9953,0.7801 0.7793,0.9391 0.4733,1.1301" id="Stroke-229" stroke="#52267D" stroke-width="0.5"></path>
            </g>
            <g id="Group-234" transform="translate(74.000000, 119.719000)">
                <path d="M7.8693,0.5359 C7.8693,0.5359 4.2553,1.2679 0.4023,0.8569" id="Fill-231" fill="#FFFFFF"></path>
                <path d="M7.8693,0.5359 C7.8693,0.5359 4.2553,1.2679 0.4023,0.8569" id="Stroke-233" stroke="#52267D"></path>
            </g>
            <path d="M76.8683,194.8741 C76.8683,194.8741 75.8963,194.1031 74.6333,195.1681 C73.4773,196.1421 72.6183,197.6341 73.1433,197.7761 C73.6683,197.9191 74.5913,198.0521 75.5563,197.8621 C76.3953,197.6971 77.1403,197.8511 77.4563,196.0851 C77.6033,195.2631 76.8683,194.8741 76.8683,194.8741" id="Fill-235" fill="#FFFFFF"></path>
            <path d="M76.8683,194.8741 C76.8683,194.8741 75.8963,194.1031 74.6333,195.1681 C73.4773,196.1421 72.6183,197.6341 73.1433,197.7761 C73.6683,197.9191 74.5913,198.0521 75.5563,197.8621 C76.3953,197.6971 77.1403,197.8511 77.4563,196.0851 C77.6033,195.2631 76.8683,194.8741 76.8683,194.8741 Z" id="Stroke-237" stroke="#52267D" stroke-width="0.5"></path>
            <path d="M76.6525,195.1622 C76.6525,195.1622 76.0485,194.6822 75.2615,195.3452 C74.5435,195.9512 74.0075,196.8802 74.3355,196.9682 C74.6615,197.0572 75.2355,197.1402 75.8365,197.0212 C76.3585,196.9192 76.8225,197.0152 77.0185,195.9162 C77.1105,195.4042 76.6525,195.1622 76.6525,195.1622" id="Fill-239" fill="#E1F2FF"></path>
            <path d="M78.2316,194.8389 C78.7396,194.7649 79.4836,195.8589 79.4046,196.1949 C79.3256,196.5329 79.2816,197.6449 78.4606,197.7759 C77.8566,197.8719 75.7006,198.1239 75.2226,197.6599 C74.7836,197.2339 75.6086,195.2249 78.2316,194.8389" id="Fill-241" fill="#FFFFFF"></path>
            <path d="M78.2316,194.8389 C78.7396,194.7649 79.4836,195.8589 79.4046,196.1949 C79.3256,196.5329 79.2816,197.6449 78.4606,197.7759 C77.8566,197.8719 75.7006,198.1239 75.2226,197.6599 C74.7836,197.2339 75.6086,195.2249 78.2316,194.8389 Z" id="Stroke-243" stroke="#52267D" stroke-width="0.5"></path>
            <path d="M78.3781,195.1436 C78.6771,195.0996 79.1161,195.7446 79.0691,195.9436 C79.0241,196.1426 78.9971,196.7976 78.5141,196.8756 C78.1561,196.9326 76.8841,197.0806 76.6031,196.8076 C76.3431,196.5556 76.8301,195.3706 78.3781,195.1436" id="Fill-245" fill="#E1F2FF"></path>
            <path d="M80.3829,195.0264 C80.3829,195.0264 79.9419,194.8034 79.0789,195.3114 C78.3179,195.7594 77.1809,196.4754 77.4929,197.3434 C77.8059,198.2124 80.2259,197.8574 80.7629,197.6664 C81.2989,197.4744 81.6299,196.8834 81.5289,196.3714 C81.3069,195.2544 80.3829,195.0264 80.3829,195.0264" id="Fill-247" fill="#FFFFFF"></path>
            <path d="M80.3829,195.0264 C80.3829,195.0264 79.9419,194.8034 79.0789,195.3114 C78.3179,195.7594 77.1809,196.4754 77.4929,197.3434 C77.8059,198.2124 80.2259,197.8574 80.7629,197.6664 C81.2989,197.4744 81.6299,196.8834 81.5289,196.3714 C81.3069,195.2544 80.3829,195.0264 80.3829,195.0264 Z" id="Stroke-249" stroke="#52267D" stroke-width="0.5"></path>
            <path d="M80.5519,195.3341 C80.5519,195.3341 80.2899,195.2011 79.7799,195.5021 C79.3279,195.7681 78.6559,196.1911 78.8409,196.7061 C79.0259,197.2201 80.4579,197.0101 80.7769,196.8961 C81.0939,196.7831 81.2899,196.4341 81.2299,196.1301 C81.0989,195.4681 80.5519,195.3341 80.5519,195.3341" id="Fill-251" fill="#E1F2FF"></path>
            <g id="Group-256" transform="translate(65.000000, 166.719000)">
                <path d="M4.8966,0.6238 C4.8966,0.6238 5.4606,6.2348 4.1436,15.0828 C2.9176,23.3178 0.5926,25.9258 0.7926,28.0548 C0.9476,29.7028 1.6636,31.2058 3.3186,31.1858 L8.2586,31.1228 C10.5656,31.0948 12.5816,29.5968 13.2946,27.4028 C13.8706,25.6368 14.4616,23.2348 14.7936,20.2048 C15.1226,16.0848 14.9896,11.9568 14.8906,9.5338" id="Fill-253" fill="#9452BA"></path>
                <path d="M4.8966,0.6238 C4.8966,0.6238 5.4606,6.2348 4.1436,15.0828 C2.9176,23.3178 0.5926,25.9258 0.7926,28.0548 C0.9476,29.7028 1.6636,31.2058 3.3186,31.1858 L8.2586,31.1228 C10.5656,31.0948 12.5816,29.5968 13.2946,27.4028 C13.8706,25.6368 14.4616,23.2348 14.7936,20.2048 C15.1226,16.0848 14.9896,11.9568 14.8906,9.5338" id="Stroke-255" stroke="#52267D" stroke-width="2"></path>
            </g>
            <g id="Group-260" transform="translate(91.000000, 170.719000)">
                <path d="M4.2726,0.0223 C2.6546,1.4513 1.8346,3.7683 1.8746,5.8873 C1.9266,8.7163 3.6136,12.2983 2.6316,17.0133 C1.7576,21.2133 -0.0784,21.9763 0.5246,25.7273 C0.6336,26.4043 1.2496,26.8843 1.9346,26.8763 L7.4396,26.8063 C9.9736,26.7753 12.1196,24.9113 12.5016,22.4063 C13.5246,15.7173 12.6006,9.4273 11.6506,4.6043" id="Fill-257" fill="#9452BA"></path>
                <path d="M4.2726,0.0223 C2.6546,1.4513 1.8346,3.7683 1.8746,5.8873 C1.9266,8.7163 3.6136,12.2983 2.6316,17.0133 C1.7576,21.2133 -0.0784,21.9763 0.5246,25.7273 C0.6336,26.4043 1.2496,26.8843 1.9346,26.8763 L7.4396,26.8063 C9.9736,26.7753 12.1196,24.9113 12.5016,22.4063 C13.5246,15.7173 12.6006,9.4273 11.6506,4.6043" id="Stroke-259" stroke="#52267D" stroke-width="2"></path>
            </g>
            <polyline id="Stroke-261" stroke="#52267D" stroke-width="0.5" points="96.4328 176.963 96.7528 176.727 97.8028 176.948 96.6498 177.705 95.2428 177.033 96.6808 175.854 97.3448 176.067"></polyline>
            <path d="M66.8751,194.9991 C66.8751,194.9991 65.9031,194.2281 64.6401,195.2941 C63.4841,196.2671 62.6251,197.7591 63.1501,197.9011 C63.6751,198.0441 64.5981,198.1781 65.5631,197.9871 C66.4021,197.8231 67.1471,197.9761 67.4631,196.2111 C67.6101,195.3891 66.8751,194.9991 66.8751,194.9991" id="Fill-263" fill="#FFFFFF"></path>
            <path d="M66.8751,194.9991 C66.8751,194.9991 65.9031,194.2281 64.6401,195.2941 C63.4841,196.2671 62.6251,197.7591 63.1501,197.9011 C63.6751,198.0441 64.5981,198.1781 65.5631,197.9871 C66.4021,197.8231 67.1471,197.9761 67.4631,196.2111 C67.6101,195.3891 66.8751,194.9991 66.8751,194.9991 Z" id="Stroke-265" stroke="#52267D"></path>
            <path d="M66.6593,195.2872 C66.6593,195.2872 66.0553,194.8082 65.2683,195.4712 C64.5503,196.0762 64.0143,197.0052 64.3423,197.0942 C64.6683,197.1832 65.2423,197.2652 65.8433,197.1472 C66.3653,197.0452 66.8293,197.1402 67.0253,196.0412 C67.1173,195.5302 66.6593,195.2872 66.6593,195.2872" id="Fill-267" fill="#E1F2FF"></path>
            <polyline id="Stroke-269" stroke="#52267D" stroke-width="0.5" points="74.2482 180.3468 72.2882 180.9858 72.5712 182.8058 74.5892 182.9268 75.5142 181.8298 74.2982 181.1758 73.3042 181.4788 73.9472 182.1758"></polyline>
            <g id="Group-333" transform="translate(30.000000, 104.719000)" stroke="#F3E3FF" stroke-width="0.25">
                <path d="M1.3273,16.1307 C1.3313,16.4267 1.5743,16.6637 1.8703,16.6597 C2.1663,16.6557 2.4023,16.4127 2.3983,16.1167" id="Stroke-271"></path>
                <path d="M0.256,16.1443 C0.26,16.4403 0.502,16.6773 0.798,16.6733 C1.094,16.6693 1.331,16.4263 1.327,16.1303" id="Stroke-273"></path>
                <path d="M0.798,16.6736 C0.802,16.9696 1.045,17.2056 1.341,17.2016 C1.637,17.1986 1.873,16.9556 1.87,16.6596" id="Stroke-275"></path>
                <path d="M21.8497,15.3709 C22.2227,15.5969 22.7077,15.4759 22.9337,15.1029 C23.1597,14.7299 23.0387,14.2449 22.6657,14.0189" id="Stroke-277"></path>
                <path d="M22.1173,16.4549 C22.4903,16.6809 22.9753,16.5599 23.2013,16.1869 C23.4273,15.8139 23.3063,15.3289 22.9333,15.1029" id="Stroke-279"></path>
                <path d="M47.5011,33.0506 C47.5061,33.4466 47.8321,33.7646 48.2291,33.7596 C48.6261,33.7546 48.9431,33.4296 48.9381,33.0316" id="Stroke-281"></path>
                <path d="M46.0636,33.0682 C46.0696,33.4652 46.3946,33.7832 46.7926,33.7782 C47.1886,33.7732 47.5056,33.4472 47.5006,33.0502" id="Stroke-283"></path>
                <path d="M46.7921,33.7781 C46.7971,34.1741 47.1221,34.4921 47.5201,34.4871 C47.9161,34.4821 48.2331,34.1571 48.2291,33.7591" id="Stroke-285"></path>
                <path d="M26.6105,78.8475 C26.6155,79.2445 26.9415,79.5625 27.3385,79.5575 C27.7355,79.5525 28.0525,79.2265 28.0475,78.8295" id="Stroke-287"></path>
                <path d="M25.173,78.866 C25.178,79.262 25.504,79.58 25.902,79.575 C26.298,79.57 26.615,79.245 26.61,78.847" id="Stroke-289"></path>
                <path d="M25.9015,79.575 C25.9065,79.972 26.2315,80.29 26.6295,80.285 C27.0255,80.28 27.3425,79.954 27.3385,79.557" id="Stroke-291"></path>
                <path d="M46.0997,10.1609 C46.1057,10.5979 46.4637,10.9459 46.8997,10.9409 C47.3357,10.9349 47.6847,10.5779 47.6787,10.1409" id="Stroke-293"></path>
                <path d="M45.3204,10.9608 C45.3264,11.3978 45.6834,11.7458 46.1204,11.7398 C46.5554,11.7348 46.9054,11.3768 46.8994,10.9408" id="Stroke-295"></path>
                <path d="M36.1828,24.2342 C36.1888,24.7632 36.6238,25.1872 37.1538,25.1812 C37.6838,25.1742 38.1078,24.7392 38.1018,24.2102" id="Stroke-297"></path>
                <path d="M35.2355,25.2049 C35.2415,25.7349 35.6765,26.1589 36.2065,26.1519 C36.7365,26.1459 37.1605,25.7109 37.1535,25.1819" id="Stroke-299"></path>
                <path d="M21.9454,0.5535 C21.9504,0.9075 22.2414,1.1925 22.5954,1.1875 C22.9504,1.1835 23.2334,0.8925 23.2294,0.5375" id="Stroke-301"></path>
                <path d="M21.3126,1.2039 C21.3166,1.5579 21.6076,1.8419 21.9616,1.8379 C22.3166,1.8329 22.6006,1.5419 22.5956,1.1869" id="Stroke-303"></path>
                <path d="M83.1583,64.4949 C83.4263,64.8029 83.8923,64.8359 84.2003,64.5669 C84.5093,64.2999 84.5413,63.8329 84.2733,63.5249" id="Stroke-305"></path>
                <path d="M83.0851,65.5369 C83.3531,65.8449 83.8191,65.8779 84.1281,65.6099 C84.4361,65.3429 84.4681,64.8759 84.2001,64.5669" id="Stroke-307"></path>
                <path d="M53.6632,54.6629 C53.8672,55.0969 54.3842,55.2819 54.8172,55.0779 C55.2502,54.8739 55.4352,54.3569 55.2312,53.9239" id="Stroke-309"></path>
                <path d="M52.0958,55.4022 C52.2998,55.8352 52.8168,56.0202 53.2488,55.8162 C53.6818,55.6122 53.8668,55.0962 53.6628,54.6632" id="Stroke-311"></path>
                <path d="M53.2492,55.8162 C53.4532,56.2502 53.9702,56.4352 54.4022,56.2312 C54.8362,56.0272 55.0212,55.5102 54.8172,55.0782" id="Stroke-313"></path>
                <path d="M51.6808,56.5555 C51.8848,56.9895 52.4018,57.1745 52.8348,56.9705 C53.2678,56.7665 53.4528,56.2495 53.2488,55.8165" id="Stroke-315"></path>
                <path d="M54.4025,56.2313 C54.6065,56.6643 55.1235,56.8493 55.5565,56.6453 C55.9895,56.4413 56.1745,55.9243 55.9705,55.4923" id="Stroke-317"></path>
                <path d="M37.9679,6.8406 C37.9739,7.3236 38.3699,7.7096 38.8539,7.7036 C39.3359,7.6976 39.7229,7.3016 39.7169,6.8196" id="Stroke-319"></path>
                <path d="M38.0802,39.8943 C38.0862,40.3763 38.4822,40.7633 38.9662,40.7573 C39.4482,40.7513 39.8352,40.3553 39.8292,39.8723" id="Stroke-321"></path>
                <path d="M47.7628,21.5516 C47.7678,21.9166 48.0678,22.2096 48.4338,22.2056 C48.7998,22.2006 49.0928,21.9006 49.0878,21.5346" id="Stroke-323"></path>
                <path d="M63.3517,6.2967 C63.3547,6.5707 63.5807,6.7907 63.8547,6.7877 C64.1287,6.7837 64.3487,6.5597 64.3457,6.2847" id="Stroke-325"></path>
                <path d="M68.4064,79.3407 C68.4944,79.8157 68.9514,80.1287 69.4264,80.0397 C69.9014,79.9507 70.2144,79.4937 70.1254,79.0197" id="Stroke-327"></path>
                <path d="M44.3273,86.0858 C44.3343,86.6158 44.7693,87.0398 45.2993,87.0328 C45.8293,87.0258 46.2533,86.5918 46.2463,86.0618" id="Stroke-329"></path>
                <path d="M43.38,87.0574 C43.387,87.5864 43.821,88.0114 44.352,88.0044 C44.882,87.9974 45.306,87.5634 45.299,87.0334" id="Stroke-331"></path>
            </g>
            <path d="M68.2384,194.9649 C68.7454,194.8909 69.4904,195.9849 69.4114,196.3209 C69.3324,196.6589 69.2884,197.7699 68.4674,197.9009 C67.8634,197.9969 65.7074,198.2489 65.2294,197.7859 C64.7904,197.3589 65.6154,195.3499 68.2384,194.9649" id="Fill-334" fill="#FFFFFF"></path>
            <path d="M68.2384,194.9649 C68.7454,194.8909 69.4904,195.9849 69.4114,196.3209 C69.3324,196.6589 69.2884,197.7699 68.4674,197.9009 C67.8634,197.9969 65.7074,198.2489 65.2294,197.7859 C64.7904,197.3589 65.6154,195.3499 68.2384,194.9649 Z" id="Stroke-336" stroke="#52267D"></path>
            <path d="M68.3849,195.2686 C68.6839,195.2246 69.1229,195.8706 69.0759,196.0696 C69.0299,196.2686 69.0039,196.9236 68.5209,197.0006 C68.1629,197.0576 66.8909,197.2066 66.6099,196.9336 C66.3499,196.6816 66.8369,195.4966 68.3849,195.2686" id="Fill-338" fill="#E1F2FF"></path>
            <path d="M70.049,195.4845 C70.049,195.4845 69.659,195.2875 68.897,195.7365 C68.223,196.1325 67.218,196.7655 67.494,197.5345 C67.771,198.3015 69.91,197.9885 70.385,197.8195 C70.86,197.6505 71.153,197.1275 71.063,196.6735 C70.866,195.6855 70.049,195.4845 70.049,195.4845" id="Fill-340" fill="#FFFFFF"></path>
            <path d="M70.049,195.4845 C70.049,195.4845 69.659,195.2875 68.897,195.7365 C68.223,196.1325 67.218,196.7655 67.494,197.5345 C67.771,198.3015 69.91,197.9885 70.385,197.8195 C70.86,197.6505 71.153,197.1275 71.063,196.6735 C70.866,195.6855 70.049,195.4845 70.049,195.4845 Z" id="Stroke-342" stroke="#52267D"></path>
            <path d="M70.1984,195.7559 C70.1984,195.7559 69.9674,195.6399 69.5154,195.9049 C69.1174,196.1399 68.5214,196.5149 68.6854,196.9699 C68.8484,197.4249 70.1164,197.2379 70.3974,197.1389 C70.6774,197.0379 70.8514,196.7289 70.7984,196.4599 C70.6824,195.8749 70.1984,195.7559 70.1984,195.7559" id="Fill-344" fill="#E1F2FF"></path>
            <path d="M49.7755,195.9532 C49.7755,195.9532 49.3845,195.7562 48.6225,196.2052 C47.9485,196.6012 46.9435,197.2342 47.2195,198.0032 C47.4965,198.7702 49.6355,198.4572 50.1105,198.2882 C50.5855,198.1182 50.8785,197.5962 50.7885,197.1422 C50.5915,196.1542 49.7755,195.9532 49.7755,195.9532" id="Fill-346" fill="#FFFFFF"></path>
            <path d="M49.7755,195.9532 C49.7755,195.9532 49.3845,195.7562 48.6225,196.2052 C47.9485,196.6012 46.9435,197.2342 47.2195,198.0032 C47.4965,198.7702 49.6355,198.4572 50.1105,198.2882 C50.5855,198.1182 50.8785,197.5962 50.7885,197.1422 C50.5915,196.1542 49.7755,195.9532 49.7755,195.9532 Z" id="Stroke-348" stroke="#52267D"></path>
            <path d="M49.924,196.2247 C49.924,196.2247 49.694,196.1077 49.241,196.3737 C48.843,196.6087 48.247,196.9837 48.411,197.4387 C48.574,197.8927 49.842,197.7067 50.123,197.6067 C50.404,197.5067 50.577,197.1977 50.525,196.9287 C50.408,196.3437 49.924,196.2247 49.924,196.2247" id="Fill-350" fill="#E1F2FF"></path>
            <path d="M52.1134,195.3809 C52.6214,195.3069 53.3654,196.4009 53.2864,196.7379 C53.2074,197.0749 53.1634,198.1869 52.3424,198.3179 C51.7384,198.4139 49.5824,198.6659 49.1044,198.2019 C48.6654,197.7759 49.4904,195.7669 52.1134,195.3809" id="Fill-352" fill="#FFFFFF"></path>
            <path d="M52.1134,195.3809 C52.6214,195.3069 53.3654,196.4009 53.2864,196.7379 C53.2074,197.0749 53.1634,198.1869 52.3424,198.3179 C51.7384,198.4139 49.5824,198.6659 49.1044,198.2019 C48.6654,197.7759 49.4904,195.7669 52.1134,195.3809 Z" id="Stroke-354" stroke="#52267D"></path>
            <path d="M52.2599,195.6856 C52.5589,195.6416 52.9979,196.2866 52.9509,196.4856 C52.9059,196.6846 52.8789,197.3396 52.3959,197.4176 C52.0379,197.4746 50.7659,197.6226 50.4849,197.3496 C50.2249,197.0976 50.7119,195.9126 52.2599,195.6856" id="Fill-356" fill="#E1F2FF"></path>
            <path d="M93.6027,194.6632 C93.6027,194.6632 92.6307,193.8922 91.3677,194.9582 C90.2117,195.9312 89.3527,197.4242 89.8777,197.5652 C90.4027,197.7082 91.3257,197.8422 92.2907,197.6522 C93.1297,197.4872 93.8747,197.6402 94.1907,195.8752 C94.3377,195.0532 93.6027,194.6632 93.6027,194.6632" id="Fill-358" fill="#FFFFFF"></path>
            <path d="M93.6027,194.6632 C93.6027,194.6632 92.6307,193.8922 91.3677,194.9582 C90.2117,195.9312 89.3527,197.4242 89.8777,197.5652 C90.4027,197.7082 91.3257,197.8422 92.2907,197.6522 C93.1297,197.4872 93.8747,197.6402 94.1907,195.8752 C94.3377,195.0532 93.6027,194.6632 93.6027,194.6632 Z" id="Stroke-360" stroke="#52267D" stroke-width="0.5"></path>
            <path d="M93.3869,194.9522 C93.3869,194.9522 92.7829,194.4722 91.9959,195.1352 C91.2779,195.7402 90.7419,196.6692 91.0699,196.7582 C91.3959,196.8472 91.9699,196.9302 92.5709,196.8112 C93.0929,196.7092 93.5569,196.8042 93.7529,195.7062 C93.8449,195.1942 93.3869,194.9522 93.3869,194.9522" id="Fill-362" fill="#E1F2FF"></path>
            <path d="M94.966,194.629 C95.473,194.555 96.218,195.649 96.139,195.985 C96.06,196.323 96.016,197.434 95.195,197.565 C94.591,197.661 92.435,197.913 91.957,197.45 C91.518,197.024 92.343,195.014 94.966,194.629" id="Fill-364" fill="#FFFFFF"></path>
            <path d="M94.966,194.629 C95.473,194.555 96.218,195.649 96.139,195.985 C96.06,196.323 96.016,197.434 95.195,197.565 C94.591,197.661 92.435,197.913 91.957,197.45 C91.518,197.024 92.343,195.014 94.966,194.629 Z" id="Stroke-366" stroke="#52267D" stroke-width="0.5"></path>
            <path d="M95.1124,194.9327 C95.4114,194.8887 95.8504,195.5347 95.8034,195.7337 C95.7584,195.9327 95.7314,196.5877 95.2484,196.6647 C94.8904,196.7227 93.6184,196.8707 93.3374,196.5977 C93.0774,196.3457 93.5644,195.1607 95.1124,194.9327" id="Fill-368" fill="#E1F2FF"></path>
            <path d="M96.7765,195.1495 C96.7765,195.1495 96.3865,194.9515 95.6245,195.4005 C94.9505,195.7965 93.9455,196.4305 94.2215,197.1985 C94.4985,197.9655 96.6375,197.6525 97.1125,197.4835 C97.5875,197.3145 97.8805,196.7925 97.7905,196.3375 C97.5935,195.3495 96.7765,195.1495 96.7765,195.1495" id="Fill-370" fill="#FFFFFF"></path>
            <path d="M96.7765,195.1495 C96.7765,195.1495 96.3865,194.9515 95.6245,195.4005 C94.9505,195.7965 93.9455,196.4305 94.2215,197.1985 C94.4985,197.9655 96.6375,197.6525 97.1125,197.4835 C97.5875,197.3145 97.8805,196.7925 97.7905,196.3375 C97.5935,195.3495 96.7765,195.1495 96.7765,195.1495 Z" id="Stroke-372" stroke="#52267D" stroke-width="0.5"></path>
            <path d="M96.9259,195.42 C96.9259,195.42 96.6949,195.304 96.2429,195.569 C95.8449,195.804 95.2489,196.179 95.4129,196.634 C95.5759,197.089 96.8439,196.902 97.1249,196.803 C97.4049,196.702 97.5789,196.393 97.5259,196.124 C97.4099,195.539 96.9259,195.42 96.9259,195.42" id="Fill-374" fill="#E1F2FF"></path>
            <path d="M58.7882,195.7725 C58.9452,195.6365 59.1352,195.5965 59.2922,195.6685 C59.8792,195.9365 61.3622,196.7005 61.0712,197.7625 C60.8452,198.5895 60.3382,198.3485 59.3752,198.3775 L58.6492,198.4005 C58.4992,198.4055 58.3642,198.3305 58.2802,198.1925 C57.8532,197.4995 58.0652,196.3985 58.7382,195.8155 L58.7882,195.7725 Z" id="Fill-376" fill="#FFFFFF"></path>
            <path d="M58.7882,195.7725 C58.9452,195.6365 59.1352,195.5965 59.2922,195.6685 C59.8792,195.9365 61.3622,196.7005 61.0712,197.7625 C60.8452,198.5895 60.3382,198.3485 59.3752,198.3775 L58.6492,198.4005 C58.4992,198.4055 58.3642,198.3305 58.2802,198.1925 C57.8532,197.4995 58.0652,196.3985 58.7382,195.8155 L58.7882,195.7725 Z" id="Stroke-378" stroke="#52267D"></path>
            <path d="M58.8663,196.0089 C58.9803,195.9089 59.1183,195.8809 59.2323,195.9329 C59.6593,196.1279 60.7363,196.6829 60.5253,197.4539 C60.3603,198.0559 59.9923,197.8799 59.2933,197.9029 L58.7643,197.9179 C58.6563,197.9219 58.5583,197.8669 58.4973,197.7679 C58.1863,197.2639 58.3413,196.4639 58.8303,196.0399 L58.8663,196.0089 Z" id="Fill-380" fill="#E1F2FF"></path>
            <path d="M55.3751,195.4991 C55.3751,195.4991 54.4731,194.6481 53.1231,195.6031 C51.8901,196.4741 50.9061,197.8881 51.4171,198.0741 C51.9291,198.2611 52.8361,198.4721 53.8131,198.3651 C54.6641,198.2721 55.3941,198.4881 55.8581,196.7561 C56.0741,195.9491 55.3751,195.4991 55.3751,195.4991" id="Fill-382" fill="#FFFFFF"></path>
            <path d="M55.3751,195.4991 C55.3751,195.4991 54.4731,194.6481 53.1231,195.6031 C51.8901,196.4741 50.9061,197.8881 51.4171,198.0741 C51.9291,198.2611 52.8361,198.4721 53.8131,198.3651 C54.6641,198.2721 55.3941,198.4881 55.8581,196.7561 C56.0741,195.9491 55.3751,195.4991 55.3751,195.4991 Z" id="Stroke-384" stroke="#52267D"></path>
            <path d="M55.1359,195.7677 C55.1359,195.7677 54.5739,195.2387 53.7349,195.8317 C52.9669,196.3747 52.3559,197.2547 52.6729,197.3717 C52.9909,197.4867 53.5559,197.6187 54.1639,197.5517 C54.6939,197.4937 55.1479,197.6277 55.4369,196.5497 C55.5719,196.0477 55.1359,195.7677 55.1359,195.7677" id="Fill-386" fill="#E1F2FF"></path>
            <path d="M143.6896,107.1671 C143.6896,114.5591 137.6986,120.5501 130.3076,120.5501 C122.9176,120.5501 116.9256,114.5591 116.9256,107.1671 C116.9256,99.7761 122.9176,93.7851 130.3076,93.7851 C137.6986,93.7851 143.6896,99.7761 143.6896,107.1671" id="Fill-388" fill="#FFFFFF"></path>
            <path d="M146.8419,104.6456 C146.8419,112.0366 140.8509,118.0276 133.4599,118.0276 C126.0699,118.0276 120.0779,112.0366 120.0779,104.6456 C120.0779,97.2546 126.0699,91.2636 133.4599,91.2636 C140.8509,91.2636 146.8419,97.2546 146.8419,104.6456" id="Fill-390" fill="#FFFFFF"></path>
            <path d="M146.8419,104.6456 C146.8419,112.0366 140.8509,118.0276 133.4599,118.0276 C126.0699,118.0276 120.0779,112.0366 120.0779,104.6456 C120.0779,97.2546 126.0699,91.2636 133.4599,91.2636 C140.8509,91.2636 146.8419,97.2546 146.8419,104.6456 Z" id="Stroke-392" stroke="#5E63B6" stroke-width="2"></path>
            <path d="M133.881,99.6846 L133.881,110.3056" id="Stroke-394" stroke="#5E63B6" stroke-width="2" stroke-linecap="round" stroke-linejoin="round"></path>
            <path d="M139.1915,104.9952 L128.5705,104.9952" id="Stroke-396" stroke="#5E63B6" stroke-width="2" stroke-linecap="round" stroke-linejoin="round"></path>
            <path d="M196.6251,66.3331 C196.6251,78.7591 186.5511,88.8331 174.1251,88.8331 C161.6981,88.8331 151.6251,78.7591 151.6251,66.3331 C151.6251,53.9061 161.6981,43.8331 174.1251,43.8331 C186.5511,43.8331 196.6251,53.9061 196.6251,66.3331" id="Fill-398" fill="#E1F2FF"></path>
            <path d="M110.9601,69.5577 C110.9601,79.6507 102.7781,87.8327 92.6861,87.8327 C82.5921,87.8327 74.4101,79.6507 74.4101,69.5577 C74.4101,59.4647 82.5921,51.2837 92.6861,51.2837 C102.7781,51.2837 110.9601,59.4647 110.9601,69.5577" id="Fill-400" fill="#E1F2FF"></path>
            <path d="M196.6251,148.254 C196.6251,158.72 188.1401,167.205 177.6731,167.205 C167.2071,167.205 158.7221,158.72 158.7221,148.254 C158.7221,137.787 167.2071,129.302 177.6731,129.302 C188.1401,129.302 196.6251,137.787 196.6251,148.254" id="Fill-402" fill="#E1F2FF"></path>
            <path d="M122.0695,41.1866 L122.0695,45.1246" id="Stroke-406" stroke="#5E63B6" stroke-linecap="round"></path>
            <path d="M124.0382,43.1554 L120.1002,43.1554" id="Stroke-408" stroke="#5E63B6" stroke-linecap="round"></path>
            <path d="M144.6105,165.1876 L144.6105,169.1256" id="Stroke-410" stroke="#5E63B6" stroke-linecap="round"></path>
            <path d="M146.5792,167.1563 L142.6412,167.1563" id="Stroke-412" stroke="#5E63B6" stroke-linecap="round"></path>
            <path d="M181.9181,157.46 L169.7301,166.637 L157.5421,157.46 C153.0911,154.108 150.4731,148.859 150.4731,143.286 L150.4731,126.218 L151.5291,125.929 C157.8121,124.215 163.9071,121.883 169.7301,118.968 L169.8871,119.046 C175.7061,121.947 181.7971,124.267 188.0721,125.97 L188.9881,126.218 L188.9881,143.286 C188.9881,148.859 186.3691,154.108 181.9181,157.46" id="Fill-414" fill="#FFFFFF"></path>
            <path d="M181.9181,157.46 L169.7301,166.637 L157.5421,157.46 C153.0911,154.108 150.4731,148.859 150.4731,143.286 L150.4731,126.218 L151.5291,125.929 C157.8121,124.215 163.9071,121.883 169.7301,118.968 L169.8871,119.046 C175.7061,121.947 181.7971,124.267 188.0721,125.97 L188.9881,126.218 L188.9881,143.286 C188.9881,148.859 186.3691,154.108 181.9181,157.46 Z" id="Stroke-416" stroke="#ACD3EF" stroke-width="2"></path>
            <path d="M178.5079,153.3594 L169.7309,159.9684 L160.9519,153.3594 C157.7449,150.9454 155.8599,147.1654 155.8599,143.1504 L155.8599,130.8574 L156.6209,130.6494 C161.1459,129.4154 165.5359,127.7354 169.7309,125.6354 L169.8429,125.6914 C174.0339,127.7814 178.4219,129.4514 182.9419,130.6784 L183.6009,130.8574 L183.6009,143.1504 C183.6009,147.1654 181.7149,150.9454 178.5079,153.3594" id="Fill-418" fill="#E1F2FF"></path>
            <path d="M178.5079,153.3594 L169.7309,159.9684 L160.9519,153.3594 C157.7449,150.9454 155.8599,147.1654 155.8599,143.1504 L155.8599,130.8574 L156.6209,130.6494 C161.1459,129.4154 165.5359,127.7354 169.7309,125.6354 L169.8429,125.6914 C174.0339,127.7814 178.4219,129.4514 182.9419,130.6784 L183.6009,130.8574 L183.6009,143.1504 C183.6009,147.1654 181.7149,150.9454 178.5079,153.3594 Z" id="Stroke-420" stroke="#ACD3EF" stroke-width="2"></path>
            <path d="M177.9152,141.8018 C177.9152,146.3228 174.2512,149.9878 169.7302,149.9878 C165.2102,149.9878 161.5452,146.3228 161.5452,141.8018 C161.5452,137.2808 165.2102,133.6168 169.7302,133.6168 C174.2512,133.6168 177.9152,137.2808 177.9152,141.8018" id="Fill-422" fill="#FFFFFF"></path>
            <path d="M172.2579,146.4014 C172.2979,146.5194 172.3329,146.5994 172.3439,146.6274 C172.3469,146.6294 172.3399,146.6254 172.3439,146.6274 L172.3429,146.6274 C172.0749,144.0444 173.5399,142.9674 174.0109,141.2524 C174.0129,141.2264 174.0179,141.1994 174.0259,141.1684 C174.0349,141.1294 174.0439,141.0894 174.0489,141.0494 C174.1189,140.5754 173.9249,140.0234 173.5569,139.4474 L173.5509,139.4384 C173.5209,139.3904 173.4879,139.3424 173.4549,139.2954 C173.4549,139.2954 173.4539,139.2944 173.4539,139.2934 C173.3939,139.2064 173.3289,139.1174 173.2619,139.0294 C173.2539,139.0194 173.2479,139.0104 173.2399,139.0024 C173.2219,138.9774 173.2019,138.9534 173.1839,138.9294 C173.1629,138.9044 173.1439,138.8794 173.1239,138.8554 C173.1039,138.8304 173.0839,138.8064 173.0649,138.7834 C173.0429,138.7574 173.0229,138.7334 173.0009,138.7084 C172.9869,138.6914 172.9719,138.6734 172.9559,138.6564 C172.3769,137.9894 171.6239,137.3314 170.8379,136.7574 C170.8379,136.7574 170.8319,136.7494 170.8379,136.7574 C170.9419,137.7294 170.9549,138.7014 170.8629,139.4784 C170.7519,140.4164 170.4159,141.5064 169.9509,142.4954 C168.8619,142.4064 167.7499,142.1534 166.8819,141.7834 C166.1559,141.4734 165.3239,140.9844 164.5299,140.4044 C164.5379,140.4854 164.5479,140.5644 164.5579,140.6454 C164.5609,140.6694 164.5649,140.6934 164.5679,140.7164 C164.5739,140.7744 164.5819,140.8324 164.5909,140.8894 C164.5939,140.9164 164.5979,140.9424 164.6019,140.9684 C164.6109,141.0264 164.6189,141.0844 164.6279,141.1404 L164.6399,141.2114 C164.6519,141.2834 164.6639,141.3554 164.6769,141.4264 C164.6779,141.4344 164.6789,141.4414 164.6809,141.4484 C164.6959,141.5324 164.7109,141.6154 164.7279,141.6974 C164.7289,141.7044 164.7309,141.7104 164.7319,141.7164 C164.7469,141.7914 164.7619,141.8644 164.7789,141.9374 C164.7809,141.9524 164.7839,141.9674 164.7869,141.9824 C164.8029,142.0484 164.8189,142.1164 164.8339,142.1824 C164.8369,142.1954 164.8409,142.2084 164.8439,142.2214 C164.8619,142.2974 164.8809,142.3754 164.9019,142.4504 L164.9019,142.4514 C164.9659,142.6934 165.0359,142.9274 165.1119,143.1524 C165.1129,143.1554 165.1149,143.1584 165.1149,143.1604 C165.2439,143.5364 165.3919,143.8804 165.5559,144.1834 C165.5799,144.2274 165.6049,144.2704 165.6299,144.3124 C165.6309,144.3144 165.6309,144.3164 165.6319,144.3174 L165.6329,144.3174 C165.6539,144.3564 165.6779,144.3934 165.6999,144.4294 L165.7009,144.4304 C165.7009,144.4304 165.7029,144.4334 165.7039,144.4344 C165.7289,144.4744 165.7539,144.5124 165.7789,144.5494 C165.7829,144.5544 165.7859,144.5594 165.7899,144.5644 L165.7909,144.5654 C165.8229,144.6144 165.8589,144.6604 165.8919,144.7044 C165.8989,144.7124 165.9039,144.7184 165.9089,144.7254 C165.9109,144.7284 165.9129,144.7304 165.9149,144.7344 C165.9539,144.7834 165.9939,144.8314 166.0359,144.8764 C166.0649,144.9084 166.0939,144.9374 166.1229,144.9664 C166.1359,144.9794 166.1499,144.9914 166.1609,145.0034 C166.1799,145.0204 166.1979,145.0364 166.2169,145.0534 C166.2309,145.0654 166.2449,145.0764 166.2599,145.0884 C166.2779,145.1034 166.2959,145.1174 166.3139,145.1304 C166.3279,145.1414 166.3429,145.1524 166.3579,145.1624 C166.3759,145.1754 166.3949,145.1884 166.4139,145.2014 C166.4279,145.2104 166.4429,145.2184 166.4569,145.2274 C166.4779,145.2394 166.4979,145.2514 166.5179,145.2614 C166.5309,145.2694 166.5459,145.2764 166.5599,145.2834 C166.5819,145.2954 166.6059,145.3044 166.6289,145.3144 C166.6399,145.3184 166.6519,145.3254 166.6629,145.3294 C166.6989,145.3434 166.7349,145.3554 166.7709,145.3654 C166.7949,145.3724 166.8159,145.3804 166.8349,145.3874 C168.5589,145.8424 170.2379,145.1214 172.3439,146.6274" id="Fill-424" fill="#9452BA"></path>
            <path d="M170.6066,122.2735 C170.6066,122.7575 170.2136,123.1495 169.7306,123.1495 C169.2466,123.1495 168.8536,122.7575 168.8536,122.2735 C168.8536,121.7905 169.2466,121.3975 169.7306,121.3975 C170.2136,121.3975 170.6066,121.7905 170.6066,122.2735" id="Fill-426" fill="#ACD3EF"></path>
            <path d="M186.8937,128.6954 C186.8937,129.1784 186.5007,129.5714 186.0177,129.5714 C185.5337,129.5714 185.1407,129.1784 185.1407,128.6954 C185.1407,128.2114 185.5337,127.8194 186.0177,127.8194 C186.5007,127.8194 186.8937,128.2114 186.8937,128.6954" id="Fill-428" fill="#ACD3EF"></path>
            <path d="M154.8107,128.6954 C154.8107,129.1784 154.4177,129.5714 153.9347,129.5714 C153.4507,129.5714 153.0587,129.1784 153.0587,128.6954 C153.0587,128.2114 153.4507,127.8194 153.9347,127.8194 C154.4177,127.8194 154.8107,128.2114 154.8107,128.6954" id="Fill-430" fill="#ACD3EF"></path>
            <path d="M154.8107,147.7413 C154.8107,148.2243 154.4177,148.6173 153.9347,148.6173 C153.4507,148.6173 153.0587,148.2243 153.0587,147.7413 C153.0587,147.2573 153.4507,146.8653 153.9347,146.8653 C154.4177,146.8653 154.8107,147.2573 154.8107,147.7413" id="Fill-432" fill="#ACD3EF"></path>
            <path d="M186.4904,147.7413 C186.4904,148.2243 186.0974,148.6173 185.6134,148.6173 C185.1304,148.6173 184.7374,148.2243 184.7374,147.7413 C184.7374,147.2573 185.1304,146.8653 185.6134,146.8653 C186.0974,146.8653 186.4904,147.2573 186.4904,147.7413" id="Fill-434" fill="#ACD3EF"></path>
            <path d="M170.6066,163.002 C170.6066,163.485 170.2136,163.878 169.7306,163.878 C169.2466,163.878 168.8536,163.485 168.8536,163.002 C168.8536,162.519 169.2466,162.126 169.7306,162.126 C170.2136,162.126 170.6066,162.519 170.6066,163.002" id="Fill-436" fill="#ACD3EF"></path>
            <polygon id="Fill-438" fill="#E1F2FF" points="88.8009 59.3448 86.3069 61.9728 74.6019 50.0748 76.3039 48.2818"></polygon>
            <polygon id="Stroke-440" stroke="#ACD3EF" stroke-width="2" points="88.8009 59.3448 86.3069 61.9728 74.6019 50.0748 76.3039 48.2818"></polygon>
            <path d="M87.5656,65.7716 L92.6666,60.3946 L115.6406,84.2526 C117.4536,86.0376 118.7166,88.3016 119.2846,90.7816 L119.4326,91.4346 L118.7726,91.3206 C116.2676,90.8846 113.9386,89.7416 112.0616,88.0256 L87.5656,65.7716 Z" id="Fill-442" fill="#FFFFFF"></path>
            <path d="M87.5656,65.7716 L92.6666,60.3946 L115.6406,84.2526 C117.4536,86.0376 118.7166,88.3016 119.2846,90.7816 L119.4326,91.4346 L118.7726,91.3206 C116.2676,90.8846 113.9386,89.7416 112.0616,88.0256 L87.5656,65.7716 Z" id="Stroke-444" stroke="#ACD3EF" stroke-width="2"></path>
            <path d="M76.0675,45.8946 C77.1915,46.9606 77.2385,48.7366 76.1715,49.8606 C75.1045,50.9846 73.3295,51.0316 72.2055,49.9646 C71.0815,48.8986 71.0345,47.1236 72.1005,45.9986 C73.1675,44.8736 74.9435,44.8286 76.0675,45.8946" id="Fill-446" fill="#E1F2FF"></path>
            <path d="M76.0675,45.8946 C77.1915,46.9606 77.2385,48.7366 76.1715,49.8606 C75.1045,50.9846 73.3295,51.0316 72.2055,49.9646 C71.0815,48.8986 71.0345,47.1236 72.1005,45.9986 C73.1675,44.8736 74.9435,44.8286 76.0675,45.8946 Z" id="Stroke-448" stroke="#ACD3EF" stroke-width="2"></path>
            <path d="M98.9435,53.7774 L81.2875,72.3874 L80.5775,71.7144 C79.5885,70.7754 79.5465,69.2124 80.4855,68.2224 L94.7415,53.1954 C95.6795,52.2064 97.2435,52.1654 98.2335,53.1034 L98.9435,53.7774 Z" id="Fill-450" fill="#FFFFFF"></path>
            <path d="M98.9435,53.7774 L81.2875,72.3874 L80.5775,71.7144 C79.5885,70.7754 79.5465,69.2124 80.4855,68.2224 L94.7415,53.1954 C95.6795,52.2064 97.2435,52.1654 98.2335,53.1034 L98.9435,53.7774 Z" id="Stroke-452" stroke="#ACD3EF" stroke-width="2"></path>
            <g id="Group-457" transform="translate(90.000000, 62.719000)">
                <path d="M0.1163,0.3641 L11.9073,11.5521" id="Fill-454" fill="#FFFFFF"></path>
                <path d="M0.1163,0.3641 L11.9073,11.5521" id="Stroke-456" stroke="#ACD3EF" stroke-width="2" stroke-linecap="round"></path>
            </g>
            <g id="Group-461" transform="translate(90.000000, 62.719000)">
                <path d="M0.1163,0.3641 L13.0023,12.5901" id="Fill-458" fill="#FFFFFF"></path>
                <path d="M0.1163,0.3641 L13.0023,12.5901" id="Stroke-460" stroke="#ACD3EF" stroke-width="2" stroke-linecap="round"></path>
            </g>
            <path d="M78.0206,53.461 L79.8626,51.52" id="Stroke-462" stroke="#ACD3EF" stroke-width="2"></path>
            <path d="M81.9328,57.1739 L83.7758,55.2319" id="Stroke-464" stroke="#ACD3EF" stroke-width="2"></path>
            <path d="M182.0548,84.8946 L144.4498,84.8946 C141.9778,84.8946 139.9728,82.8906 139.9728,80.4176 L186.5318,80.4176 C186.5318,82.8906 184.5278,84.8946 182.0548,84.8946" id="Fill-466" fill="#FFFFFF"></path>
            <path d="M182.0548,84.8946 L144.4498,84.8946 C141.9778,84.8946 139.9728,82.8906 139.9728,80.4176 L186.5318,80.4176 C186.5318,82.8906 184.5278,84.8946 182.0548,84.8946 Z" id="Stroke-468" stroke="#ACD3EF" stroke-width="2"></path>
            <path d="M153.9201,80.4181 C154.0751,79.7611 156.3461,75.6651 158.0411,72.6611 C159.1751,70.6531 161.3011,69.4141 163.6081,69.4141 L174.5781,69.4141 L174.5781,80.4181 L153.9201,80.4181 Z" id="Fill-470" fill="#FFFFFF"></path>
            <path d="M153.9201,80.4181 C154.0751,79.7611 156.3461,75.6651 158.0411,72.6611 C159.1751,70.6531 161.3011,69.4141 163.6081,69.4141 L174.5781,69.4141 L174.5781,80.4181 L153.9201,80.4181 Z" id="Stroke-472" stroke="#ACD3EF" stroke-width="2"></path>
            <path d="M173.6505,69.2891 C173.6505,69.2891 183.1355,53.0631 191.6045,55.3481 C200.0735,57.6331 201.1995,62.2651 197.1565,61.1321 C193.1145,59.9991 192.7265,60.9531 195.2325,62.0091 C197.7385,63.0631 199.1935,65.6511 193.8755,64.2271 C190.3415,63.2821 188.2615,65.2681 190.7235,65.2911 C192.6575,65.3101 197.1335,67.6881 194.1475,67.9281 C191.9925,68.1001 189.5525,67.5181 186.6005,66.9861 C185.0295,66.7031 189.6735,69.3841 187.9475,69.9311 C185.2365,70.7901 180.4375,67.9901 178.9435,69.7261 C175.3505,73.8961 173.6505,69.2891 173.6505,69.2891" id="Fill-474" fill="#FFFFFF"></path>
            <path d="M173.6505,69.2891 C173.6505,69.2891 183.1355,53.0631 191.6045,55.3481 C200.0735,57.6331 201.1995,62.2651 197.1565,61.1321 C193.1145,59.9991 192.7265,60.9531 195.2325,62.0091 C197.7385,63.0631 199.1935,65.6511 193.8755,64.2271 C190.3415,63.2821 188.2615,65.2681 190.7235,65.2911 C192.6575,65.3101 197.1335,67.6881 194.1475,67.9281 C191.9925,68.1001 189.5525,67.5181 186.6005,66.9861 C185.0295,66.7031 189.6735,69.3841 187.9475,69.9311 C185.2365,70.7901 180.4375,67.9901 178.9435,69.7261 C175.3505,73.8961 173.6505,69.2891 173.6505,69.2891 Z" id="Stroke-476" stroke="#E1F2FF" stroke-width="2"></path>
            <polygon id="Fill-478" fill="#E1F2FF" points="155.6759 76.9171 163.5239 76.9171 161.5239 80.4181 153.9199 80.4181"></polygon>
            <polygon id="Stroke-480" stroke="#ACD3EF" stroke-width="2" points="155.6759 76.9171 163.5239 76.9171 161.5239 80.4181 153.9199 80.4181"></polygon>
            <path d="M183.004,84.8946 L156.656,84.8946 C159.785,83.0446 162.138,80.1726 163.524,76.8116 C165.315,72.4696 169.59,69.4146 174.578,69.4146 C181.18,69.4146 186.531,74.7656 186.531,81.3676 C186.531,83.3156 184.952,84.8946 183.004,84.8946" id="Fill-482" fill="#E1F2FF"></path>
            <path d="M183.004,84.8946 L156.656,84.8946 C159.785,83.0446 162.138,80.1726 163.524,76.8116 C165.315,72.4696 169.59,69.4146 174.578,69.4146 C181.18,69.4146 186.531,74.7656 186.531,81.3676 C186.531,83.3156 184.952,84.8946 183.004,84.8946 Z" id="Stroke-484" stroke="#ACD3EF" stroke-width="2"></path>
            <path d="M176.6271,73.4307 C176.6271,75.1417 175.2391,76.5297 173.5281,76.5297 C171.8171,76.5297 170.4311,75.1417 170.4311,73.4307 C170.4311,71.7197 171.8171,70.3327 173.5281,70.3327 C175.2391,70.3327 176.6271,71.7197 176.6271,73.4307" id="Fill-486" fill="#FFFFFF"></path>
            <path d="M176.3976,71.9386 C176.3976,73.0306 175.5126,73.9156 174.4216,73.9156 C173.3306,73.9156 172.4456,73.0306 172.4456,71.9386 C172.4456,70.8476 173.3306,69.9626 174.4216,69.9626 C175.5126,69.9626 176.3976,70.8476 176.3976,71.9386" id="Fill-488" fill="#FFFFFF"></path>
            <path d="M176.3976,71.9386 C176.3976,73.0306 175.5126,73.9156 174.4216,73.9156 C173.3306,73.9156 172.4456,73.0306 172.4456,71.9386 C172.4456,70.8476 173.3306,69.9626 174.4216,69.9626 C175.5126,69.9626 176.3976,70.8476 176.3976,71.9386 Z" id="Stroke-490" stroke="#ACD3EF" stroke-width="2"></path>
            <path d="M179.2296,66.3692 C179.2296,66.3692 185.5636,59.1192 189.0636,58.6192" id="Stroke-492" stroke="#E1F2FF" stroke-width="2" stroke-linecap="round"></path>
            <path d="M195.6076,82.9258 L195.6076,86.8638" id="Stroke-494" stroke="#5E63B6" stroke-linecap="round"></path>
            <path d="M197.5763,84.8946 L193.6383,84.8946" id="Stroke-496" stroke="#5E63B6" stroke-linecap="round"></path>
        </g>
    </g>
</svg>